<svg fill="none" height="24" viewBox="0 0 24 24" width="24" xmlns="http://www.w3.org/2000/svg"><g stroke="#292d32" stroke-linecap="round" stroke-linejoin="round" stroke-width="1.5"><path d="m4.26001 11.0199v4.97c0 1.82 0 1.82 1.72 2.98l4.72999 2.73c.71.41 1.87.41 2.58 0l4.73-2.73c1.72-1.16 1.72-1.16 1.72-2.98v-4.97c0-1.81996 0-1.81996-1.72-2.97996l-4.73-2.73c-.71-.41-1.87-.41-2.58 0l-4.72999 2.73c-1.72 1.16-1.72 1.16-1.72 2.97996z"/><path d="m17.5 7.63v-2.63c0-2-1-3-3-3h-5c-2 0-3 1-3 3v2.56"/><path d="m12.63 10.99.57.89c.09.14.29.28.44.32l1.02.26c.63.16.8.7.39 1.2l-.67.81c-.1.13-.18.36-.17.52l.06 1.05c.04.65-.42.98-1.02.74l-.98-.39c-.15-.06-.4-.06-.55 0l-.98.39c-.6.24-1.05998-.1-1.01998-.74l.06-1.05c.01-.16-.07-.4-.17-.52l-.67-.81c-.41-.5-.24-1.04.39-1.2l1.01998-.26c.16-.04.36-.19.44-.32l.57-.89c.36-.54.92-.54 1.27 0z"/></g></svg>