<svg fill="none" height="24" viewBox="0 0 24 24" width="24" xmlns="http://www.w3.org/2000/svg"><g stroke="#292d32" stroke-linecap="round" stroke-linejoin="round" stroke-width="1.5"><path d="m9 22h6c5 0 7-2 7-7v-6c0-5-2-7-7-7h-6c-5 0-7 2-7 7v6c0 5 2 7 7 7z"/><path d="m18.3801 15.27v-7.69001c0-.77-.62-1.32999-1.38-1.26999h-.04c-1.34.11-3.37.80001-4.51 1.51001l-.11.07001c-.18.11-.49.11-.68 0l-.16-.10001c-1.13-.71-3.15998-1.38002-4.49998-1.49002-.76-.06-1.38.51002-1.38 1.27002v7.69999c0 .61.49998 1.19 1.10998 1.26l.18.03c1.38.18 3.52.89 4.74 1.56l.03.01c.17.1.45.1.61 0 1.22-.68 3.37-1.38 4.76-1.57l.21-.03c.62-.07 1.12-.64 1.12-1.26z"/><path d="m12 8.1001v9.56"/></g></svg>