<svg fill="none" height="24" viewBox="0 0 24 24" width="24" xmlns="http://www.w3.org/2000/svg"><g stroke="#292d32" stroke-linecap="round" stroke-linejoin="round" stroke-miterlimit="10" stroke-width="1.5"><path d="m6.70001 18h-2.54999c-1.43 0-2.15002-.72-2.15002-2.15v-11.69998c0-1.43.72002-2.15002 2.15002-2.15002h4.29999c1.43 0 2.14999.72002 2.14999 2.15002v1.84998"/><path d="m17.3699 8.41998v11.16002c0 1.61-.7999 2.42-2.4099 2.42h-5.84007c-1.61 0-2.41998-.81-2.41998-2.42v-11.16002c0-1.61.80998-2.41998 2.41998-2.41998h5.84007c1.61 0 2.4099.80998 2.4099 2.41998z"/><path d="m13.3999 6v-1.84998c0-1.43.72-2.15002 2.15-2.15002h4.3c1.43 0 2.15.72002 2.15 2.15002v11.69998c0 1.43-.72 2.15-2.15 2.15h-2.48"/><path d="m10 11h4"/><path d="m10 14h4"/><path d="m12 22v-3"/></g></svg>