<svg fill="none" height="24" viewBox="0 0 24 24" width="24" xmlns="http://www.w3.org/2000/svg"><g stroke="#292d32" stroke-linecap="round" stroke-linejoin="round" stroke-miterlimit="10" stroke-width="1.5"><path d="m1 22h22"/><path d="m19.78 22.0101v-4.4601"/><path d="m19.8001 10.8901c-1.22 0-2.2.98-2.2 2.2v2.27c0 1.22.98 2.2 2.2 2.2s2.2-.98 2.2-2.2v-2.27c0-1.22-.98-2.2-2.2-2.2z"/><path d="m2.1001 22v-15.96997c0-2.01 1.00005-3.02002 2.99005-3.02002h6.22995c1.99 0 2.98 1.01002 2.98 3.02002v15.96997"/><path d="m5.80005 8.25h4.95005"/><path d="m5.80005 12h4.95005"/><path d="m8.25 22v-3.75"/></g></svg>