<svg fill="none" height="24" viewBox="0 0 24 24" width="24" xmlns="http://www.w3.org/2000/svg"><g stroke="#292d32" stroke-linecap="round" stroke-linejoin="round" stroke-width="1.5"><path d="m6.76005 22h10.47995c2.76 0 3.86-1.69 3.99-3.75l.52-8.26c.14-2.16-1.58-3.99-3.75-3.99-.61 0-1.17-.35-1.45-.89l-.72-1.45c-.46-.91-1.66-1.66-2.68-1.66h-2.29c-1.02995 0-2.22995.75-2.68995 1.66l-.72 1.45c-.28.54-.84.89-1.45.89-2.17 0-3.89 1.83-3.75 3.99l.52 8.26c.12 2.06 1.23 3.75 3.99 3.75z"/><path d="m10.5 8h3"/><path d="m12 18c1.79 0 3.25-1.46 3.25-3.25s-1.46-3.25-3.25-3.25-3.25 1.46-3.25 3.25 1.46 3.25 3.25 3.25z"/></g></svg>