<svg fill="none" height="24" viewBox="0 0 24 24" width="24" xmlns="http://www.w3.org/2000/svg"><g stroke="#292d32" stroke-linecap="round" stroke-linejoin="round" stroke-width="1.5"><path d="m2 12.6101h17" stroke-miterlimit="10"/><path d="m19 10.28v7.15c-.03 2.85-.81 3.57-3.78 3.57h-9.43997c-3.02 0-3.78003-.7499-3.78003-3.7299v-6.9901c0-2.69995.63-3.56995 3-3.70995.24-.01.50003-.02.78003-.02h9.43997c3.02 0 3.78.75 3.78 3.72995z"/><path d="m22 6.73v6.99c0 2.7-.63 3.57-3 3.71v-7.15c0-2.98-.76-3.73-3.78-3.73h-9.43997c-.28 0-.54003.01-.78003.02.03-2.85.81003-3.57 3.78003-3.57h9.43997c3.02 0 3.78.75 3.78 3.73z"/><g stroke-miterlimit="10"><path d="m5.25 17.8101h1.71997"/><path d="m9.10986 17.8101h3.44004"/></g></g></svg>