<svg fill="none" height="24" viewBox="0 0 24 24" width="24" xmlns="http://www.w3.org/2000/svg"><g stroke="#292d32" stroke-linecap="round" stroke-linejoin="round" stroke-miterlimit="10" stroke-width="1.5"><path d="m16.61 19.9999c1.34.01 2.63-.49 3.62-1.39 3.27-2.86 1.52-8.6-2.79-9.13995-1.54-9.340001-15.01002-5.8-11.82002 3.08995"/><path d="m7.28011 12.97c-.53-.27-1.12-.41-1.71-.4-4.660001.33-4.650002 7.11 0 7.44"/><path d="m15.8201 9.88998c.52-.26 1.08-.4 1.66-.41"/><path d="m9.23008 19.16h1.00002v2.33c0 .34.43.51.65.25l2.45-2.79c.3-.34.17-.62-.28-.62h-1v-2.33c0-.34-.43-.51-.65-.25l-2.45002 2.79c-.3.34-.17.62.28.62z"/></g></svg>