<svg fill="none" height="24" viewBox="0 0 24 24" width="24" xmlns="http://www.w3.org/2000/svg"><g stroke="#292d32" stroke-linecap="round" stroke-linejoin="round" stroke-width="1.5"><path d="m20 9.6c0-4-1.6-5.6-5.6-5.6h-4.8c-4 0-5.6 1.6-5.6 5.6v4.8c0 4 1.6 5.6 5.6 5.6"/><path d="m16.35 8c-.55-.7-1.47-1-2.85-1h-3c-2.5 0-3.5 1-3.5 3.5v3c0 1.38.3 2.3.99 2.85"/><path d="m8.01001 4v-2"/><path d="m12 4v-2"/><path d="m16 4v-2"/><path d="m20 8h2"/><path d="m8.01001 20v2"/><path d="m2 8h2"/><path d="m2 12h2"/><path d="m2 16h2"/><g stroke-miterlimit="10"><path d="m16.71 18.59c.8781 0 1.59-.7118 1.59-1.59 0-.8781-.7119-1.59-1.59-1.59s-1.59.7119-1.59 1.59c0 .8782.7119 1.59 1.59 1.59z"/><path d="m11.41 17.46v-.93c0-.55.45-1 1-1 .96 0 1.35-.68.87-1.51-.28-.48-.11-1.1.37-1.37l.91-.53c.42-.25.96-.1 1.21.32l.06.1c.48.83 1.26.83 1.74 0l.06-.1c.25-.42.79-.56 1.21-.32l.91.53c.48.28.65.89.37 1.37-.48.83-.09 1.51.87 1.51.55 0 1 .45 1 1v.93c0 .55-.45 1-1 1-.96 0-1.35.68-.87 1.51.28.48.11 1.1-.37 1.37l-.91.53c-.42.25-.96.1-1.21-.32l-.06-.1c-.48-.83-1.26-.83-1.74 0l-.06.1c-.25.42-.79.56-1.21.32l-.91-.53c-.48-.28-.65-.89-.37-1.37.48-.83.09-1.51-.87-1.51-.55.01-1-.44-1-1z"/></g></g></svg>