<svg fill="none" height="24" viewBox="0 0 24 24" width="24" xmlns="http://www.w3.org/2000/svg"><g fill="#292d32"><path d="m5.53999 19.5201c-.61 0-1.18-.2101-1.59-.6001-.52-.49-.77-1.23-.68-2.03l.37-3.24c.07-.61.44-1.42.87-1.86l8.21001-8.68995c2.05-2.170001 4.19-2.230001 6.36-.18 2.17 2.05 2.23 4.19.18 6.36l-8.21 8.68995c-.42.45-1.20001.87-1.81001.9701l-3.22.5499c-.17.01-.32.0301-.48.0301zm10.39001-16.61005c-.77 0-1.44.48-2.12 1.2l-8.21001 8.70005c-.2.21-.43.71-.47 1l-.37 3.2399c-.04.33.04.6.22.77s.45.23.78.18l3.22-.5499c.29-.05.77-.3101.97-.5201l8.21001-8.68995c1.24-1.32 1.69-2.54-.12-4.24-.8-.77-1.49-1.09-2.11-1.09z"/><path d="m17.3404 10.9498c-.02 0-.05 0-.07 0-3.12-.31-5.63-2.67995-6.11-5.77995-.06-.41.22-.79.63-.86.41-.06.79.22.86.63.38 2.42 2.34 4.28 4.78 4.52.41.04.71.41.67.81995-.05.38-.38.67-.76.67z"/><path d="m21 22.75h-18c-.41 0-.75-.34-.75-.75s.34-.75.75-.75h18c.41 0 .75.34.75.75s-.34.75-.75.75z"/></g></svg>