<svg fill="none" height="24" viewBox="0 0 24 24" width="24" xmlns="http://www.w3.org/2000/svg"><g stroke="#292d32" stroke-linecap="round" stroke-linejoin="round" stroke-width="1.5"><path d="m22 13v-4c0-5-2-7-7-7h-6c-5 0-7 2-7 7v6c0 5 2 7 7 7h4"/><path d="m7.33008 14.49 2.38-3.09c.34002-.44.97002-.52 1.41002-.18l1.83 1.44c.44.34 1.07.26 1.41-.17l2.31-2.97999"/><path d="m19.48 15.8199.28.57c.14.28.49.54.8.6l.38.06c1.14.19 1.41 1.03.59 1.86l-.35.35c-.23.24-.36.7-.29 1.02l.05.21c.31 1.38-.42 1.91-1.62 1.19l-.26-.15c-.31-.18-.81-.18-1.12 0l-.26.15c-1.21.73-1.94.19-1.62-1.19l.0499-.21c.07-.32-.0599-.78-.2899-1.02l-.35-.35c-.82-.83-.55-1.67.59-1.86l.38-.06c.3-.05.66-.32.8-.6l.28-.57c.54-1.09 1.42-1.09 1.96 0z"/></g></svg>