<svg fill="none" height="24" viewBox="0 0 24 24" width="24" xmlns="http://www.w3.org/2000/svg"><g stroke="#292d32" stroke-linecap="round" stroke-linejoin="round" stroke-width="1.5"><path d="m22 12c0-5.52-4.48-10-10-10s-10 4.48-10 10 4.48 10 10 10"/><path d="m7.99998 3h1c-1.95 5.84-1.95 12.16 0 18h-1"/><path d="m15 3c.97 2.92 1.46 5.96 1.46 9"/><path d="m3 16v-1c2.92.97 5.96 1.46 9 1.46"/><path d="m3 9.0001c5.84-1.95 12.16-1.95 18 0"/><g stroke-miterlimit="10"><path d="m19.21 15.74-3.54 3.5401c-.14.14-.27.3999-.3.5899l-.19 1.35c-.07.49.27.83.76.76l1.35-.19c.19-.03.46-.16.59-.3l3.54-3.54c.61-.61.9-1.32 0-2.22-.89-.89-1.6-.6-2.21.01z"/><path d="m18.7 16.25c.3 1.08 1.14 1.92 2.22 2.22"/></g></g></svg>