<svg fill="none" height="24" viewBox="0 0 24 24" width="24" xmlns="http://www.w3.org/2000/svg"><g stroke="#292d32" stroke-linecap="round" stroke-linejoin="round"><g stroke-width="1.5"><path d="m9 22h6c5 0 7-2 7-7v-6c0-5-2-7-7-7h-6c-5 0-7 2-7 7v6c0 5 2 7 7 7z"/><path d="m16.28 13.61c-1.13 1.13-2.75 1.48-4.18 1.03l-2.58999 2.58c-.18.19-.55.31-.82.27l-1.2-.16c-.4-.05-.76-.43-.82-.82l-.16-1.2c-.04-.26.09-.63.27-.82l2.58-2.58c-.44-1.43-.1-3.04999 1.02999-4.17999 1.62-1.62 4.26-1.62 5.89 0 1.62 1.61 1.62 4.24999 0 5.87999z" stroke-miterlimit="10"/><path d="m10.45 16.28-.85002-.86" stroke-miterlimit="10"/></g><path d="m13.3945 10.7h.009" stroke-width="2"/></g></svg>