<svg fill="none" height="24" viewBox="0 0 24 24" width="24" xmlns="http://www.w3.org/2000/svg"><g stroke="#292d32" stroke-width="1.5"><path d="m10.75 2.44995c.69-.59 1.82-.59 2.52 0l1.58 1.3601c.3.26.86.46997 1.26.46997h1.7c1.06 0 1.93.86994 1.93 1.92994v1.70007c0 .39.21.96001.47 1.26001l1.36 1.57996c.59.69.59 1.82 0 2.52l-1.36 1.58c-.26.3-.47.86-.47 1.26v1.7001c0 1.06-.87 1.9299-1.93 1.9299h-1.7c-.39 0-.96.21-1.26.47l-1.58 1.3599c-.69.59-1.82.59-2.52 0l-1.57998-1.3599c-.3-.26-.86001-.47-1.26001-.47h-1.73001c-1.06 0-1.93-.8699-1.93-1.9299v-1.7101c0-.39-.20999-.95-.45999-1.25l-1.35001-1.59c-.58-.69-.58-1.81 0-2.5l1.35001-1.58996c.25-.3.45999-.86.45999-1.25v-1.71008c0-1.06.87-1.92994 1.93-1.92994h1.73001c.39 0 .96001-.20997 1.26001-.46997z" stroke-linecap="round" stroke-linejoin="round"/><path d="m9.89001 14.82 1.44999 1.12c.19.19.61.28.89.28h1.77c.56 0 1.17-.42 1.31-.98l1.12-3.42c.23-.65-.19-1.22-.89-1.22h-1.87c-.28 0-.51-.2299-.47-.5599l.23-1.50002c.09-.42-.19-.89003-.61-1.03003-.37-.14-.84.04995-1.03.32995l-1.92 2.85" stroke-miterlimit="10"/><path d="m7.5 14.8199v-4.5799c0-.66001.28-.89002.94-.89002h.47c.65 0 .94001.23001.94001.89002v4.5799c0 .65-.28001.8901-.94001.8901h-.47c-.66 0-.94-.2301-.94-.8901z" stroke-linecap="round" stroke-linejoin="round"/></g></svg>