<svg fill="none" height="24" viewBox="0 0 24 24" width="24" xmlns="http://www.w3.org/2000/svg"><g stroke="#292d32" stroke-linecap="round" stroke-linejoin="round" stroke-width="1.5"><path d="m8.18009 16.0199c-.76-.07-1.50999-.42-2.08999-1.03-1.32-1.39-1.32-3.67 0-5.06001l2.19-2.29999c1.32-1.39 3.49-1.39 4.82 0 1.32 1.39 1.32 3.67 0 5.06l-1.09 1.15"/><path d="m15.8202 7.97998c.76.07 1.51.42 2.09 1.03 1.32 1.39002 1.32 3.67002 0 5.06002l-2.19 2.3c-1.32 1.39-3.49 1.39-4.82 0-1.32004-1.39-1.32004-3.67 0-5.06l1.09-1.15"/><path d="m9 22h6c5 0 7-2 7-7v-6c0-5-2-7-7-7h-6c-5 0-7 2-7 7v6c0 5 2 7 7 7z"/></g></svg>