<svg fill="none" height="24" viewBox="0 0 24 24" width="24" xmlns="http://www.w3.org/2000/svg"><g stroke="#292d32"><g stroke-width="1.5"><path d="m22 9.00002v5.99998c0 2.5-.5 4.25-1.62 5.38l-6.38-6.38 7.73-7.72998c.18.79.27 1.69.27 2.73z" stroke-linecap="round" stroke-linejoin="round"/><path d="m21.73 6.27-15.46001 15.46c-3.01-.69-4.26999-2.77-4.26999-6.73v-6c0-5 2-7 7-7h6c3.96 0 6.04 1.26 6.73 4.27z" stroke-linecap="round" stroke-linejoin="round"/><path d="m20.38 20.38c-1.13 1.12-2.88 1.62-5.38 1.62h-5.99997c-1.04 0-1.94001-.09-2.73001-.27l7.72998-7.73z" stroke-linecap="round" stroke-linejoin="round"/><path d="m6.24002 7.97997c.68-2.93 5.07998-2.93 5.75998 0 .39 1.72-.69 3.18003-1.64 4.08003-.68999.66-1.77997.66-2.47997 0-.95-.9-2.04001-2.36003-1.64001-4.08003z"/></g><path d="m9.0946 8.69995h.00899" stroke-linecap="round" stroke-linejoin="round" stroke-width="2"/></g></svg>