<svg fill="none" height="24" viewBox="0 0 24 24" width="24" xmlns="http://www.w3.org/2000/svg"><g stroke="#292d32" stroke-linecap="round" stroke-linejoin="round" stroke-width="1.5"><path d="m19 9c0 1.45-.43 2.78-1.17 3.89-1.08 1.6-2.79 2.73-4.78 3.02-.34.06-.69.09-1.05.09s-.71-.03-1.05-.09c-1.99-.29-3.7-1.42-4.78-3.02-.74-1.11-1.17-2.44-1.17-3.89 0-3.87 3.13-7 7-7s7 3.13 7 7z"/><path d="m21.25 18.47-1.65.39c-.37.09-.66.37-.74.74l-.35 1.47c-.19.8-1.21 1.04-1.74.41l-4.77-5.48-4.77004 5.49c-.53.63-1.55.39-1.74-.41l-.35-1.47c-.09-.37-.38-.66-.74-.74l-1.65-.39c-.76-.18-1.03-1.13-.48-1.68l3.9-3.9c1.08 1.6 2.79 2.73 4.78004 3.02.34.06.69.09 1.05.09s.71-.03 1.05-.09c1.99-.29 3.7-1.42 4.78-3.02l3.9 3.9c.55.54.28 1.49-.48 1.67z"/><path d="m12.58 5.98.59 1.17999c.08.16.29.32001.48.35001l1.07.17999c.68.11.84.61001.35 1.10001l-.83.82998c-.14.14-.22.41002-.17.61002l.24 1.03c.19.81-.24 1.13-.96.7l-1-.59c-.18-.11-.48-.11-.66 0l-1 .59c-.72003.42-1.15003.11-.96003-.7l.24-1.03c.04003-.19-.03-.47002-.17-.61002l-.83-.82998c-.49-.49-.33-.98001.35-1.10001l1.07003-.17999c.18-.03.39-.19001.47-.35001l.59-1.17999c.29-.64.81-.64 1.13 0z"/></g></svg>