<svg fill="none" height="24" viewBox="0 0 24 24" width="24" xmlns="http://www.w3.org/2000/svg"><g stroke="#292d32" stroke-linecap="round" stroke-linejoin="round"><g stroke-width="1.5"><path d="m10 16.95h-3.79c-3.37 0-4.21-.84-4.21-4.21v-5.99997c0-3.37.84-4.21 4.21-4.21h10.53c3.37 0 4.21.84 4.21 4.21"/><path d="m10 21.4699v-4.5199"/><path d="m2 12.95h8"/><path d="m6.73999 21.47h3.26"/><path d="m22 12.8v5.71c0 2.37-.59 2.96-2.96 2.96h-3.55c-2.37 0-2.96-.59-2.96-2.96v-5.71c0-2.37.59-2.96003 2.96-2.96003h3.55c2.37 0 2.96.59003 2.96 2.96003z"/></g><path d="m17.2445 18.25h.009" stroke-width="2"/></g></svg>