<svg fill="none" height="24" viewBox="0 0 24 24" width="24" xmlns="http://www.w3.org/2000/svg"><g fill="#292d32"><path d="m12.0199 20.5299c-2.33003 0-4.66003-.37-6.87003-1.11-.84-.29-1.48-.88-1.76-1.65-.29-.77-.19-1.62.27-2.38l1.15-1.91c.24-.4.46-1.2.46-1.67v-2.88998c0-3.72 3.03-6.75 6.75003-6.75 3.72 0 6.75 3.03 6.75 6.75v2.88998c0 .46.22 1.27.46 1.68l1.14 1.9c.43.72.51 1.59.22 2.38s-.92 1.39-1.71 1.65c-2.2.74-4.53 1.11-6.86 1.11zm0-16.85998c-2.89003 0-5.25003 2.35-5.25003 5.25v2.88998c0 .73-.3 1.81-.67 2.44l-1.15 1.91c-.22.37-.28.76-.15 1.09.12.34.42.6.83.74 4.18 1.4 8.61003 1.4 12.79003 0 .36-.12.64-.39.77-.75s.1-.75-.1-1.08l-1.15-1.91c-.38-.65-.67-1.72-.67-2.45v-2.87998c0-2.9-2.35-5.25-5.25-5.25z"/><path d="m13.8796 3.94018c-.07 0-.14-.01-.21-.03-.29-.08-.57-.14-.84-.18-.85-.11-1.67-.05-2.44.18-.28.09-.57997 0-.76997-.21s-.25-.51-.14-.78c.41-1.05 1.40997-1.74 2.54997-1.74s2.14.68 2.55 1.74c.1.27.05.57-.14.78-.15.16-.36.24-.56.24z"/><path d="m12.0195 22.8101c-.99 0-1.95-.4-2.64997-1.1-.7-.7-1.1-1.66-1.1-2.65h1.5c0 .59.23997 1.17.65997 1.59s1 .66 1.59.66c1.24 0 2.25-1.01 2.25-2.25h1.5c0 2.07-1.68 3.75-3.75 3.75z"/></g></svg>