<svg fill="none" height="24" viewBox="0 0 24 24" width="24" xmlns="http://www.w3.org/2000/svg"><g stroke="#292d32" stroke-linecap="round" stroke-linejoin="round" stroke-width="1.5"><path d="m3.77 15.56 3.46 3.46c2.43 2.43 3.26 2.39 5.66 0l5.57-5.57c1.94-1.94 2.43-3.23 0-5.66004l-3.46-3.46c-2.59-2.59-3.72-1.94-5.66 0l-5.57 5.57c-2.39 2.40004-2.59 3.07004 0 5.66004z"/><path d="m19.2 16.79-.66 1.09c-.93 1.55-.21 2.82 1.6 2.82s2.53-1.27 1.6-2.82l-.66-1.09c-.52-.86-1.37-.86-1.88 0z"/><path d="m2 12.2401c5.56-1.51 11.42-1.56 17-.13l.5.13"/></g></svg>