<svg fill="none" height="24" viewBox="0 0 24 24" width="24" xmlns="http://www.w3.org/2000/svg"><g stroke="#292d32" stroke-linecap="round" stroke-linejoin="round" stroke-width="1.5"><path d="m10.75 22.5001h2.52c.96 0 1.58-.68 1.4-1.51l-.41-1.8099h-4.50001l-.40999 1.8099c-.18.78.5 1.51 1.4 1.51z"/><path d="m14.26 19.1702 1.73-1.5401c.97-.86 1.01-1.46.24-2.43l-3.05-3.8699c-.64-.81-1.69-.81-2.33 0l-3.05 3.8699c-.77.97-.77001 1.6.23999 2.43l1.73001 1.5401"/><path d="m12.01 11.1201v2.53"/><path d="m12.52 5h-1c-.55 0-1-.45-1-1v-1c0-.55.45-1 1-1h1c.55 0 1 .45 1 1v1c0 .55-.45 1-1 1z"/><path d="m3.27 14.17h1c.55 0 1-.45 1-1v-1c0-.55-.45-1.0001-1-1.0001h-1c-.55 0-1 .4501-1 1.0001v1c0 .55.45 1 1 1z"/><path d="m20.73 14.17h-1c-.55 0-1-.45-1-1v-1c0-.55.45-1.0001 1-1.0001h1c.55 0 1 .4501 1 1.0001v1c0 .55-.45 1-1 1z"/><path d="m10.52 3.56006c-3.81.45-6.77 3.67998-6.77 7.60994"/><path d="m20.25 11.17c0-3.91996-2.94-7.13994-6.73-7.60994"/></g></svg>