<svg fill="none" height="24" viewBox="0 0 24 24" width="24" xmlns="http://www.w3.org/2000/svg"><g stroke="#292d32" stroke-linecap="round" stroke-linejoin="round" stroke-width="1.5"><path d="m18.0001 7.16c-.06-.01-.13-.01-.19 0-1.38-.05-2.48-1.18-2.48-2.58 0-1.43 1.15-2.58 2.58-2.58s2.58 1.16 2.58 2.58c-.01 1.4-1.11 2.53-2.49 2.58z"/><path d="m16.9695 14.4399c1.37.23 2.88-.01 3.94-.72 1.41-.94 1.41-2.48 0-3.42-1.07-.70998-2.6-.94999-3.97-.70999"/><path d="m5.96852 7.16c.06-.01.13-.01.19 0 1.38-.05 2.48-1.18 2.48-2.58 0-1.43-1.15-2.58-2.58-2.58s-2.58 1.16-2.58 2.58c.01 1.4 1.11 2.53 2.49 2.58z"/><path d="m6.99945 14.4399c-1.37.23-2.88-.01-3.94-.72-1.41-.94-1.41-2.48 0-3.42 1.07-.70998 2.6-.94999 3.97-.70999"/><path d="m12.0001 14.63c-.06-.01-.13-.01-.19 0-1.38-.05-2.48002-1.18-2.48002-2.58 0-1.43 1.15002-2.58003 2.58002-2.58003s2.58 1.16003 2.58 2.58003c-.01 1.4-1.11 2.54-2.49 2.58z"/><path d="m14.9107 17.7799c-1.59-1.06-4.22-1.06-5.82 0-1.41.94-1.41 2.48 0 3.42 1.6 1.07 4.22 1.07 5.82 0"/></g></svg>