<svg fill="none" height="24" viewBox="0 0 24 24" width="24" xmlns="http://www.w3.org/2000/svg"><g fill="#292d32"><path d="m10.5396 21.94c-.23 0-.4501-.1-.60006-.3l-1.01001-1.35c-.21-.28-.48997-.44-.78997-.46-.31-.02-.60003.12-.84003.37-1.45 1.55-2.54999 1.42-3.07999 1.22-.54-.21-1.45001-.9-1.45001-3.12v-11.25999c0-4.44 1.28-5.79001 5.47-5.79001h7.55007c4.19 0 5.47 1.35001 5.47 5.79001v4.25999c0 .41-.34.75-.75.75s-.75-.34-.75-.75v-4.25999c0-3.61-.63-4.29001-3.97-4.29001h-7.55007c-3.34 0-3.97.68001-3.97 4.29001v11.25999c0 1.05.26 1.63.5 1.72.18.07.67002-.03 1.43002-.84.55-.58 1.26999-.89 2.01999-.85.74.04 1.44001.43 1.90996 1.06l1.02 1.35c.25.33.18.8-.15 1.05-.15.11-.3099.15-.4599.15z"/><path d="m16 7.75h-8c-.41 0-.75-.34-.75-.75s.34-.75.75-.75h8c.41 0 .75.34.75.75s-.34.75-.75.75z"/><path d="m15 11.75h-6c-.41 0-.75-.34-.75-.75s.34-.75.75-.75h6c.41 0 .75.34.75.75s-.34.75-.75.75z"/><path d="m14.8196 21.7801c-.38 0-.74-.14-1-.4-.31-.31-.45-.76-.38-1.23l.19-1.35c.05-.35.26-.77.51-1.02l3.54-3.54c.48-.48.95-.73 1.46-.78.62-.06 1.24.2 1.82.78s.84 1.19.78 1.82c-.05.5-.31.98-.78 1.46l-3.54 3.54c-.25.25-.67.46-1.02.51l-1.3501.19c-.08.01-.1499.02-.2299.02zm4.49-6.83c-.01 0-.02 0-.03 0-.14.01-.33.14-.54.35l-3.54 3.54c-.03.03-.08.13-.08.17l-.18 1.25 1.25-.18c.04-.01.1399-.06.1699-.09l3.5401-3.54c.21-.22.34-.4.35-.54.02-.2-.18-.44-.35-.61-.16-.16-.39-.35-.59-.35z"/><path d="m19.9206 18.2499c-.07 0-.14-.01-.2-.03-1.32-.37-2.37-1.42-2.74-2.74-.11-.4.12-.81.52-.93.4-.11.81.12.92.52.23.82.88 1.47 1.7 1.7.4.11.63.53.52.93-.09.33-.39.55-.72.55z"/></g></svg>