<svg fill="none" height="24" viewBox="0 0 24 24" width="24" xmlns="http://www.w3.org/2000/svg"><g stroke="#292d32" stroke-linecap="round" stroke-linejoin="round" stroke-width="1.5"><path d="m3.00999 11.22v4.49c0 4.49 1.8 6.29 6.29 6.29h5.39001c4.49 0 6.29-1.8 6.29-6.29v-4.49"/><path d="m12 12c1.83 0 3.18-1.49 3-3.32l-.66-6.68h-4.67l-.67 6.68c-.18 1.83 1.17 3.32 3 3.32z"/><path d="m18.31 12c2.02 0 3.5-1.64 3.3-3.65l-.28-2.75c-.36-2.6-1.36-3.6-3.98-3.6h-3.05l.7 7.01c.17 1.65 1.66 2.99 3.31 2.99z"/><path d="m5.64 12c1.65 0 3.14-1.34 3.3-2.99l.22-2.21.48001-4.8h-3.05001c-2.61999 0-3.62 1-3.98 3.6l-.27 2.75c-.2 2.01 1.28 3.65 3.3 3.65z"/><path d="m12 17c-1.67 0-2.5.83-2.5 2.5v2.5h5v-2.5c0-1.67-.83-2.5-2.5-2.5z"/></g></svg>