<svg fill="none" height="24" viewBox="0 0 24 24" width="24" xmlns="http://www.w3.org/2000/svg"><g stroke="#292d32" stroke-linecap="round" stroke-linejoin="round" stroke-width="1.5"><path d="m21.08 8.58003v6.83997c0 1.12-.6 2.16-1.57 2.73l-5.94 3.43c-.97.56-2.17.56-3.15 0l-5.93997-3.43c-.97-.56-1.57-1.6-1.57-2.73v-6.83997c0-1.12.6-2.16004 1.57-2.73004l5.93997-3.42999c.97-.56 2.17-.56 3.15 0l5.94 3.42999c.97.57 1.57 1.60004 1.57 2.73004z"/><path d="m12 11.0001c1.2869 0 2.33-1.04323 2.33-2.33006 0-1.28682-1.0431-2.32995-2.33-2.32995-1.2868 0-2.32996 1.04313-2.32996 2.32995 0 1.28683 1.04316 2.33006 2.32996 2.33006z"/><path d="m16 16.6601c0-1.8-1.79-3.26-4-3.26s-4 1.46-4 3.26"/></g></svg>