<svg fill="none" height="24" viewBox="0 0 24 24" width="24" xmlns="http://www.w3.org/2000/svg"><g stroke="#17191c" stroke-miterlimit="10" stroke-width="1.5"><path d="m6.9 20.6c1.5.9 3.3 1.4 5.1 1.4 5.5 0 10-4.5 10-10s-4.5-10-10-10-10 4.5-10 10c0 1.8.5 3.5 1.3 5l-.85956 3.306c-.19472.7489.49848 1.4257 1.24255 1.2131z" stroke-linecap="round" stroke-linejoin="round"/><path d="m16.5 14.8485c0 .162-.0361.3285-.1127.4905s-.1757.315-.3064.459c-.2209.243-.4642.4185-.7391.531-.2704.1125-.5634.171-.8789.171-.4596 0-.9509-.108-1.4692-.3285-.5182-.2205-1.0365-.5175-1.5503-.891-.5183-.378-1.0095-.7965-1.4782-1.26-.4642-.468-.88333-.9585-1.25739-1.4715-.36955-.513-.667-1.026-.88332-1.5345-.21633-.513-.32449-1.0035-.32449-1.4715 0-.306.05408-.5985.16224-.8685.10817-.2745.27942-.5265.51828-.7515.28843-.2835.60391-.423.93741-.423.12619 0 .25238.027.36504.081.11718.054.22084.135.30196.252l1.04557 1.4715c.0811.1125.1397.216.1803.315.0405.0945.0631.189.0631.2745 0 .108-.0316.216-.0947.3195-.0586.1035-.1442.2115-.2524.3195l-.3425.3555c-.0495.0495-.0721.108-.0721.18 0 .036.0045.0675.0135.1035.0136.036.0271.063.0361.09.0811.1485.2208.342.4191.576.2028.234.4191.4725.6535.711.2434.2385.4777.459.7166.6615.2343.198.4281.333.5813.414.0226.009.0496.0225.0812.036.036.0135.0721.018.1126.018.0767 0 .1352-.027.1848-.0765l.3425-.3375c.1127-.1125.2209-.198.3245-.252.1037-.063.2073-.0945.32-.0945.0856 0 .1758.018.2749.0585.0992.0405.2028.099.3155.1755l1.4917 1.0575c.1172.081.1983.1755.2479.288.0451.1125.0721.225.0721.351z"/></g></svg>