<?xml version="1.0" encoding="utf-8"?><svg xmlns="http://www.w3.org/2000/svg" xmlns:xlink="http://www.w3.org/1999/xlink"><symbol viewBox="0 0 24 24" id="arrow-down-1" xmlns="http://www.w3.org/2000/svg"><path d="M12 16.8c-.7 0-1.4-.27-1.93-.8L3.55 9.48c-.29-.29-.29-.77 0-1.06s.77-.29 1.06 0l6.52 6.52c.48.48 1.26.48 1.74 0l6.52-6.52c.29-.29.77-.29 1.06 0s.29.77 0 1.06L13.93 16c-.53.53-1.23.8-1.93.8z"/></symbol><symbol viewBox="0 0 24 24" id="arrow-right-1" xmlns="http://www.w3.org/2000/svg"><path d="m8.91 19.92 6.52-6.52c.77-.77.77-2.03 0-2.8L8.91 4.08" stroke-linecap="round" stroke-linejoin="round" stroke-miterlimit="10" stroke-width="1.5" fill="none"/></symbol><symbol viewBox="0 0 24 24" id="arrow-up-1" xmlns="http://www.w3.org/2000/svg"><path d="M19.92 15.05 13.4 8.53c-.77-.77-2.03-.77-2.8 0l-6.52 6.52" stroke-linecap="round" stroke-linejoin="round" stroke-miterlimit="10" stroke-width="1.5" fill="none"/></symbol><symbol viewBox="0 0 24 24" id="award" xmlns="http://www.w3.org/2000/svg"><g stroke-linecap="round" stroke-linejoin="round" stroke-width="1.5" fill="none"><path d="M4.26 11.02v4.97c0 1.82 0 1.82 1.72 2.98l4.73 2.73c.71.41 1.87.41 2.58 0l4.73-2.73c1.72-1.16 1.72-1.16 1.72-2.98v-4.97c0-1.82 0-1.82-1.72-2.98l-4.73-2.73c-.71-.41-1.87-.41-2.58 0L5.98 8.04C4.26 9.2 4.26 9.2 4.26 11.02z"/><path d="M17.5 7.63V5c0-2-1-3-3-3h-5c-2 0-3 1-3 3v2.56M12.63 10.99l.57.89c.09.14.29.28.44.32l1.02.26c.63.16.8.7.39 1.2l-.67.81c-.1.13-.18.36-.17.52l.06 1.05c.04.65-.42.98-1.02.74l-.98-.39a.863.863 0 0 0-.55 0l-.98.39c-.6.24-1.06-.1-1.02-.74l.06-1.05c.01-.16-.07-.4-.17-.52l-.67-.81c-.41-.5-.24-1.04.39-1.2l1.02-.26c.16-.04.36-.19.44-.32l.57-.89c.36-.54.92-.54 1.27 0z"/></g></symbol><symbol viewBox="0 0 24 24" id="book-square" xmlns="http://www.w3.org/2000/svg"><g stroke-linecap="round" stroke-linejoin="round" stroke-width="1.5" fill="none"><path d="M9 22h6c5 0 7-2 7-7V9c0-5-2-7-7-7H9C4 2 2 4 2 9v6c0 5 2 7 7 7z"/><path d="M18.38 15.27V7.58c0-.77-.62-1.33-1.38-1.27h-.04c-1.34.11-3.37.8-4.51 1.51l-.11.07c-.18.11-.49.11-.68 0l-.16-.1C10.37 7.08 8.34 6.41 7 6.3c-.76-.06-1.38.51-1.38 1.27v7.7c0 .61.5 1.19 1.11 1.26l.18.03c1.38.18 3.52.89 4.74 1.56l.03.01c.17.1.45.1.61 0 1.22-.68 3.37-1.38 4.76-1.57l.21-.03c.62-.07 1.12-.64 1.12-1.26zM12 8.1v9.56"/></g></symbol><symbol viewBox="0 0 24 24" id="building-4" xmlns="http://www.w3.org/2000/svg"><g stroke-linecap="round" stroke-linejoin="round" stroke-miterlimit="10" stroke-width="1.5" fill="none"><path d="M1 22h22M19.78 22.01v-4.46M19.8 10.89c-1.22 0-2.2.98-2.2 2.2v2.27c0 1.22.98 2.2 2.2 2.2s2.2-.98 2.2-2.2v-2.27c0-1.22-.98-2.2-2.2-2.2zM2.1 22V6.03c0-2.01 1-3.02 2.99-3.02h6.23c1.99 0 2.98 1.01 2.98 3.02V22M5.8 8.25h4.95M5.8 12h4.95M8.25 22v-3.75"/></g></symbol><symbol viewBox="0 0 24 24" id="buildings-2" xmlns="http://www.w3.org/2000/svg"><g stroke-linecap="round" stroke-linejoin="round" stroke-miterlimit="10" stroke-width="1.5" fill="none"><path d="M6.7 18H4.15C2.72 18 2 17.28 2 15.85V4.15C2 2.72 2.72 2 4.15 2h4.3c1.43 0 2.15.72 2.15 2.15V6"/><path d="M17.37 8.42v11.16c0 1.61-.8 2.42-2.41 2.42H9.12c-1.61 0-2.42-.81-2.42-2.42V8.42C6.7 6.81 7.51 6 9.12 6h5.84c1.61 0 2.41.81 2.41 2.42z"/><path d="M13.4 6V4.15c0-1.43.72-2.15 2.15-2.15h4.3C21.28 2 22 2.72 22 4.15v11.7c0 1.43-.72 2.15-2.15 2.15h-2.48M10 11h4M10 14h4M12 22v-3"/></g></symbol><symbol viewBox="0 0 24 24" id="calendar-search" xmlns="http://www.w3.org/2000/svg"><g stroke-linecap="round" stroke-linejoin="round" fill="none"><g stroke-width="1.5"><path d="M8 2v3M16 2v3" stroke-miterlimit="10"/><path d="M18.2 21.4a3.2 3.2 0 1 0 0-6.4 3.2 3.2 0 0 0 0 6.4zM22 22l-1-1"/><path d="M3.5 9.09h17M13.37 22H8c-3.5 0-5-2-5-5V8.5c0-3 1.5-5 5-5h8c3.5 0 5 2 5 5V13" stroke-miterlimit="10"/></g><path d="M11.995 13.7h.01M8.294 13.7h.01M8.294 16.7h.01" stroke-width="2"/></g></symbol><symbol viewBox="0 0 24 24" id="camera" xmlns="http://www.w3.org/2000/svg"><g stroke-linecap="round" stroke-linejoin="round" stroke-width="1.5" fill="none"><path d="M6.76 22h10.48c2.76 0 3.86-1.69 3.99-3.75l.52-8.26A3.753 3.753 0 0 0 18 6c-.61 0-1.17-.35-1.45-.89l-.72-1.45C15.37 2.75 14.17 2 13.15 2h-2.29c-1.03 0-2.23.75-2.69 1.66l-.72 1.45C7.17 5.65 6.61 6 6 6 3.83 6 2.11 7.83 2.25 9.99l.52 8.26C2.89 20.31 4 22 6.76 22zM10.5 8h3"/><path d="M12 18c1.79 0 3.25-1.46 3.25-3.25S13.79 11.5 12 11.5s-3.25 1.46-3.25 3.25S10.21 18 12 18z"/></g></symbol><symbol viewBox="0 0 24 24" id="cards" xmlns="http://www.w3.org/2000/svg"><g stroke-linecap="round" stroke-linejoin="round" stroke-width="1.5" fill="none"><path d="M2 12.61h17" stroke-miterlimit="10"/><path d="M19 10.28v7.15c-.03 2.85-.81 3.57-3.78 3.57H5.78C2.76 21 2 20.25 2 17.27v-6.99c0-2.7.63-3.57 3-3.71.24-.01.5-.02.78-.02h9.44c3.02 0 3.78.75 3.78 3.73z"/><path d="M22 6.73v6.99c0 2.7-.63 3.57-3 3.71v-7.15c0-2.98-.76-3.73-3.78-3.73H5.78c-.28 0-.54.01-.78.02C5.03 3.72 5.81 3 8.78 3h9.44C21.24 3 22 3.75 22 6.73z"/><g stroke-miterlimit="10"><path d="M5.25 17.81h1.72M9.11 17.81h3.44"/></g></g></symbol><symbol viewBox="0 0 24 24" id="clipboard-text" xmlns="http://www.w3.org/2000/svg"><path d="M15 12.95H8c-.41 0-.75-.34-.75-.75s.34-.75.75-.75h7c.41 0 .75.34.75.75s-.34.75-.75.75zM12.38 16.95H8c-.41 0-.75-.34-.75-.75s.34-.75.75-.75h4.38c.41 0 .75.34.75.75s-.34.75-.75.75zM14 6.75h-4c-.96 0-2.75 0-2.75-2.75S9.04 1.25 10 1.25h4c.96 0 2.75 0 2.75 2.75 0 .96 0 2.75-2.75 2.75zm-4-4c-.99 0-1.25 0-1.25 1.25S9.01 5.25 10 5.25h4c1.25 0 1.25-.26 1.25-1.25 0-1.25-.26-1.25-1.25-1.25z"/><path d="M15 22.75H9c-5.62 0-6.75-2.58-6.75-6.75v-6c0-4.56 1.65-6.51 5.71-6.72.4-.02.77.29.79.71s-.3.76-.71.78C5.2 4.93 3.75 5.78 3.75 10v6c0 3.7.73 5.25 5.25 5.25h6c4.52 0 5.25-1.55 5.25-5.25v-6c0-4.22-1.45-5.07-4.29-5.23-.41-.02-.73-.38-.71-.79s.38-.73.79-.71c4.06.22 5.71 2.17 5.71 6.72v6c0 4.18-1.13 6.76-6.75 6.76z"/></symbol><symbol viewBox="0 0 24 24" id="close-circle" xmlns="http://www.w3.org/2000/svg"><g stroke-linecap="round" stroke-linejoin="round" stroke-width="1.5" fill="none"><path d="M12 22c5.5 0 10-4.5 10-10S17.5 2 12 2 2 6.5 2 12s4.5 10 10 10zM9.17 14.83l5.66-5.66M14.83 14.83 9.17 9.17"/></g></symbol><symbol viewBox="0 0 24 24" id="cloud-lightning" xmlns="http://www.w3.org/2000/svg"><g stroke-linecap="round" stroke-linejoin="round" stroke-miterlimit="10" stroke-width="1.5" fill="none"><path d="M16.61 20c1.34.01 2.63-.49 3.62-1.39 3.27-2.86 1.52-8.6-2.79-9.14C15.9.13 2.43 3.67 5.62 12.56"/><path d="M7.28 12.97c-.53-.27-1.12-.41-1.71-.4-4.66.33-4.65 7.11 0 7.44M15.82 9.89c.52-.26 1.08-.4 1.66-.41M9.23 19.16h1v2.33c0 .34.43.51.65.25l2.45-2.79c.3-.34.17-.62-.28-.62h-1V16c0-.34-.43-.51-.65-.25l-2.45 2.79c-.3.34-.17.62.28.62z"/></g></symbol><symbol viewBox="0 0 24 24" id="cpu-setting" xmlns="http://www.w3.org/2000/svg"><g stroke-linecap="round" stroke-linejoin="round" stroke-width="1.5" fill="none"><path d="M20 9.6c0-4-1.6-5.6-5.6-5.6H9.6C5.6 4 4 5.6 4 9.6v4.8c0 4 1.6 5.6 5.6 5.6"/><path d="M16.35 8c-.55-.7-1.47-1-2.85-1h-3C8 7 7 8 7 10.5v3c0 1.38.3 2.3.99 2.85M8.01 4V2M12 4V2M16 4V2M20 8h2M8.01 20v2M2 8h2M2 12h2M2 16h2"/><g stroke-miterlimit="10"><path d="M16.71 18.59a1.59 1.59 0 1 0 0-3.18 1.59 1.59 0 0 0 0 3.18z"/><path d="M11.41 17.46v-.93c0-.55.45-1 1-1 .96 0 1.35-.68.87-1.51a1 1 0 0 1 .37-1.37l.91-.53c.42-.25.96-.1 1.21.32l.06.1c.48.83 1.26.83 1.74 0l.06-.1c.25-.42.79-.56 1.21-.32l.91.53c.48.28.65.89.37 1.37-.48.83-.09 1.51.87 1.51.55 0 1 .45 1 1v.93c0 .55-.45 1-1 1-.96 0-1.35.68-.87 1.51a1 1 0 0 1-.37 1.37l-.91.53c-.42.25-.96.1-1.21-.32l-.06-.1c-.48-.83-1.26-.83-1.74 0l-.06.1c-.25.42-.79.56-1.21.32l-.91-.53c-.48-.28-.65-.89-.37-1.37.48-.83.09-1.51-.87-1.51a.99.99 0 0 1-1-1z"/></g></g></symbol><symbol viewBox="0 0 24 24" id="data" xmlns="http://www.w3.org/2000/svg"><g stroke-linecap="round" stroke-linejoin="round" stroke-width="1.5" fill="none"><path d="M20 14a2 2 0 1 0 0-4 2 2 0 0 0 0 4zM20 6a2 2 0 1 0 0-4 2 2 0 0 0 0 4zM20 22a2 2 0 1 0 0-4 2 2 0 0 0 0 4zM4 14a2 2 0 1 0 0-4 2 2 0 0 0 0 4zM6 12h12"/><path d="M18 4h-4c-2 0-3 1-3 3v10c0 2 1 3 3 3h4"/></g></symbol><symbol viewBox="0 0 24 24" id="designtools" xmlns="http://www.w3.org/2000/svg"><g stroke-linecap="round" stroke-width="1.5" fill="none"><g stroke-linejoin="round"><path d="M21.81 3.94c-1.54 3.84-5.4 9.06-8.63 11.65l-1.97 1.58c-.25.18-.5.34-.78.45 0-.18-.01-.38-.04-.57-.11-.84-.49-1.62-1.16-2.29-.68-.68-1.51-1.08-2.36-1.19-.2-.01-.4-.03-.6-.01.11-.31.28-.6.49-.84l1.56-1.97c2.58-3.23 7.82-7.11 11.65-8.64.59-.22 1.16-.06 1.52.31.38.37.56.94.32 1.52z"/><path d="M10.43 17.62c0 1.1-.42 2.15-1.21 2.95-.61.61-1.44 1.03-2.43 1.16L4.33 22c-1.34.15-2.49-.99-2.33-2.35l.27-2.46c.24-2.19 2.07-3.59 4.01-3.63.2-.01.41 0 .6.01.85.11 1.68.5 2.36 1.19.67.67 1.05 1.45 1.16 2.29.01.19.03.38.03.57zM14.24 14.47c0-2.61-2.12-4.73-4.73-4.73"/></g><path d="m20.12 12.73.74.73c1.49 1.49 1.49 2.96 0 4.45l-2.96 2.96c-1.47 1.47-2.96 1.47-4.43 0M3.11 10.51c-1.47-1.49-1.47-2.96 0-4.45L6.07 3.1c1.47-1.47 2.96-1.47 4.43 0l.74.74M11.25 3.85l-3.7 3.7M20.12 12.73l-2.96 2.95"/></g></symbol><symbol viewBox="0 0 24 24" id="document" xmlns="http://www.w3.org/2000/svg"><g stroke-linecap="round" stroke-linejoin="round" stroke-width="1.5" fill="none"><path d="M9 22h6c5 0 7-2 7-7V9c0-5-2-7-7-7H9C4 2 2 4 2 9v6c0 5 2 7 7 7zM15.75 9h-7.5M15.75 15h-7.5"/></g></symbol><symbol viewBox="0 0 24 24" id="edit" xmlns="http://www.w3.org/2000/svg"><path d="M15 22.75H9c-5.43 0-7.75-2.32-7.75-7.75V9c0-5.43 2.32-7.75 7.75-7.75h2c.41 0 .75.34.75.75s-.34.75-.75.75H9C4.39 2.75 2.75 4.39 2.75 9v6c0 4.61 1.64 6.25 6.25 6.25h6c4.61 0 6.25-1.64 6.25-6.25v-2c0-.41.34-.75.75-.75s.75.34.75.75v2c0 5.43-2.32 7.75-7.75 7.75z"/><path d="M8.5 17.69c-.61 0-1.17-.22-1.58-.62-.49-.49-.7-1.2-.59-1.95l.43-3.01c.08-.58.46-1.33.87-1.74l7.88-7.88c1.99-1.99 4.01-1.99 6 0 1.09 1.09 1.58 2.2 1.48 3.31-.09.9-.57 1.78-1.48 2.68l-7.88 7.88c-.41.41-1.16.79-1.74.87l-3.01.43c-.13.03-.26.03-.38.03zm8.07-14.14-7.88 7.88c-.19.19-.41.63-.45.89l-.43 3.01c-.04.29.02.53.17.68s.39.21.68.17l3.01-.43c.26-.04.71-.26.89-.45l7.88-7.88c.65-.65.99-1.23 1.04-1.77.06-.65-.28-1.34-1.04-2.11-1.6-1.6-2.7-1.15-3.87.01z"/><path d="M19.85 9.83c-.07 0-.14-.01-.2-.03a7.937 7.937 0 0 1-5.46-5.46.76.76 0 0 1 .52-.93c.4-.11.81.12.92.52.6 2.13 2.29 3.82 4.42 4.42.4.11.63.53.52.93-.09.34-.39.55-.72.55z"/></symbol><symbol viewBox="0 0 24 24" id="edit-2" xmlns="http://www.w3.org/2000/svg"><path d="M5.54 19.52c-.61 0-1.18-.21-1.59-.6-.52-.49-.77-1.23-.68-2.03l.37-3.24c.07-.61.44-1.42.87-1.86l8.21-8.69c2.05-2.17 4.19-2.23 6.36-.18s2.23 4.19.18 6.36l-8.21 8.69c-.42.45-1.2.87-1.81.97l-3.22.55c-.17.01-.32.03-.48.03zM15.93 2.91c-.77 0-1.44.48-2.12 1.2l-8.21 8.7c-.2.21-.43.71-.47 1l-.37 3.24c-.04.33.04.6.22.77s.45.23.78.18l3.22-.55c.29-.05.77-.31.97-.52l8.21-8.69C19.4 6.92 19.85 5.7 18.04 4c-.8-.77-1.49-1.09-2.11-1.09z"/><path d="M17.34 10.95h-.07a6.86 6.86 0 0 1-6.11-5.78c-.06-.41.22-.79.63-.86.41-.06.79.22.86.63a5.372 5.372 0 0 0 4.78 4.52c.41.04.71.41.67.82-.05.38-.38.67-.76.67zM21 22.75H3c-.41 0-.75-.34-.75-.75s.34-.75.75-.75h18c.41 0 .75.34.75.75s-.34.75-.75.75z"/></symbol><symbol viewBox="0 0 24 24" id="eye" xmlns="http://www.w3.org/2000/svg"><g stroke-linecap="round" stroke-linejoin="round" stroke-width="1.5" fill="none"><path d="M15.58 12c0 1.98-1.6 3.58-3.58 3.58S8.42 13.98 8.42 12s1.6-3.58 3.58-3.58 3.58 1.6 3.58 3.58z"/><path d="M12 20.27c3.53 0 6.82-2.08 9.11-5.68.9-1.41.9-3.78 0-5.19-2.29-3.6-5.58-5.68-9.11-5.68-3.53 0-6.82 2.08-9.11 5.68-.9 1.41-.9 3.78 0 5.19 2.29 3.6 5.58 5.68 9.11 5.68z"/></g></symbol><symbol viewBox="0 0 24 24" id="favorite-chart" xmlns="http://www.w3.org/2000/svg"><g stroke-linecap="round" stroke-linejoin="round" stroke-width="1.5" fill="none"><path d="M22 13V9c0-5-2-7-7-7H9C4 2 2 4 2 9v6c0 5 2 7 7 7h4"/><path d="m7.33 14.49 2.38-3.09c.34-.44.97-.52 1.41-.18l1.83 1.44c.44.34 1.07.26 1.41-.17l2.31-2.98M19.48 15.82l.28.57c.14.28.49.54.8.6l.38.06c1.14.19 1.41 1.03.59 1.86l-.35.35c-.23.24-.36.7-.29 1.02l.05.21c.31 1.38-.42 1.91-1.62 1.19l-.26-.15c-.31-.18-.81-.18-1.12 0l-.26.15c-1.21.73-1.94.19-1.62-1.19l.05-.21c.07-.32-.06-.78-.29-1.02l-.35-.35c-.82-.83-.55-1.67.59-1.86l.38-.06c.3-.05.66-.32.8-.6l.28-.57c.54-1.09 1.42-1.09 1.96 0z"/></g></symbol><symbol viewBox="0 0 24 24" id="global-edit" xmlns="http://www.w3.org/2000/svg"><g stroke-linecap="round" stroke-linejoin="round" stroke-width="1.5" fill="none"><path d="M22 12c0-5.52-4.48-10-10-10S2 6.48 2 12s4.48 10 10 10"/><path d="M8 3h1a28.424 28.424 0 0 0 0 18H8M15 3c.97 2.92 1.46 5.96 1.46 9"/><path d="M3 16v-1c2.92.97 5.96 1.46 9 1.46M3 9a28.424 28.424 0 0 1 18 0"/><g stroke-miterlimit="10"><path d="m19.21 15.74-3.54 3.54c-.14.14-.27.4-.3.59l-.19 1.35c-.07.49.27.83.76.76l1.35-.19c.19-.03.46-.16.59-.3l3.54-3.54c.61-.61.9-1.32 0-2.22-.89-.89-1.6-.6-2.21.01z"/><path d="M18.7 16.25c.3 1.08 1.14 1.92 2.22 2.22"/></g></g></symbol><symbol viewBox="0 0 24 24" id="key-square" xmlns="http://www.w3.org/2000/svg"><g stroke-linecap="round" stroke-linejoin="round" fill="none"><g stroke-width="1.5"><path d="M9 22h6c5 0 7-2 7-7V9c0-5-2-7-7-7H9C4 2 2 4 2 9v6c0 5 2 7 7 7z"/><path d="M16.28 13.61a4.147 4.147 0 0 1-4.18 1.03l-2.59 2.58c-.18.19-.55.31-.82.27l-1.2-.16c-.4-.05-.76-.43-.82-.82l-.16-1.2c-.04-.26.09-.63.27-.82l2.58-2.58c-.44-1.43-.1-3.05 1.03-4.18 1.62-1.62 4.26-1.62 5.89 0 1.62 1.61 1.62 4.25 0 5.88zM10.45 16.28l-.85-.86" stroke-miterlimit="10"/></g><path d="M13.395 10.7h.009" stroke-width="2"/></g></symbol><symbol viewBox="0 0 24 24" id="like-shapes" xmlns="http://www.w3.org/2000/svg"><g stroke-width="1.5" fill="none"><path d="M10.75 2.45c.69-.59 1.82-.59 2.52 0l1.58 1.36c.3.26.86.47 1.26.47h1.7c1.06 0 1.93.87 1.93 1.93v1.7c0 .39.21.96.47 1.26l1.36 1.58c.59.69.59 1.82 0 2.52l-1.36 1.58c-.26.3-.47.86-.47 1.26v1.7c0 1.06-.87 1.93-1.93 1.93h-1.7c-.39 0-.96.21-1.26.47l-1.58 1.36c-.69.59-1.82.59-2.52 0l-1.58-1.36c-.3-.26-.86-.47-1.26-.47H6.18c-1.06 0-1.93-.87-1.93-1.93V16.1c0-.39-.21-.95-.46-1.25l-1.35-1.59c-.58-.69-.58-1.81 0-2.5l1.35-1.59c.25-.3.46-.86.46-1.25V6.21c0-1.06.87-1.93 1.93-1.93h1.73c.39 0 .96-.21 1.26-.47z" stroke-linecap="round" stroke-linejoin="round"/><path d="m9.89 14.82 1.45 1.12c.19.19.61.28.89.28H14c.56 0 1.17-.42 1.31-.98l1.12-3.42c.23-.65-.19-1.22-.89-1.22h-1.87c-.28 0-.51-.23-.47-.56l.23-1.5c.09-.42-.19-.89-.61-1.03-.37-.14-.84.05-1.03.33l-1.92 2.85" stroke-miterlimit="10"/><path d="M7.5 14.82v-4.58c0-.66.28-.89.94-.89h.47c.65 0 .94.23.94.89v4.58c0 .65-.28.89-.94.89h-.47c-.66 0-.94-.23-.94-.89z" stroke-linecap="round" stroke-linejoin="round"/></g></symbol><symbol viewBox="0 0 24 24" id="link-square" xmlns="http://www.w3.org/2000/svg"><g stroke-linecap="round" stroke-linejoin="round" stroke-width="1.5" fill="none"><path d="M8.18 16.02c-.76-.07-1.51-.42-2.09-1.03-1.32-1.39-1.32-3.67 0-5.06l2.19-2.3a3.307 3.307 0 0 1 4.82 0c1.32 1.39 1.32 3.67 0 5.06l-1.09 1.15"/><path d="M15.82 7.98c.76.07 1.51.42 2.09 1.03 1.32 1.39 1.32 3.67 0 5.06l-2.19 2.3a3.307 3.307 0 0 1-4.82 0c-1.32-1.39-1.32-3.67 0-5.06l1.09-1.15"/><path d="M9 22h6c5 0 7-2 7-7V9c0-5-2-7-7-7H9C4 2 2 4 2 9v6c0 5 2 7 7 7z"/></g></symbol><symbol viewBox="0 0 24 24" id="logout" xmlns="http://www.w3.org/2000/svg"><g stroke-linecap="round" stroke-linejoin="round" stroke-width="1.5" fill="none"><path d="M8.9 7.56c.31-3.6 2.16-5.07 6.21-5.07h.13c4.47 0 6.26 1.79 6.26 6.26v6.52c0 4.47-1.79 6.26-6.26 6.26h-.13c-4.02 0-5.87-1.45-6.2-4.99M15 12H3.62M5.85 8.65 2.5 12l3.35 3.35"/></g></symbol><symbol viewBox="0 0 24 24" id="map" xmlns="http://www.w3.org/2000/svg"><g fill="none"><g stroke-width="1.5"><path d="M22 9v6c0 2.5-.5 4.25-1.62 5.38L14 14l7.73-7.73c.18.79.27 1.69.27 2.73z" stroke-linecap="round" stroke-linejoin="round"/><path d="M21.73 6.27 6.27 21.73C3.26 21.04 2 18.96 2 15V9c0-5 2-7 7-7h6c3.96 0 6.04 1.26 6.73 4.27z" stroke-linecap="round" stroke-linejoin="round"/><path d="M20.38 20.38C19.25 21.5 17.5 22 15 22H9c-1.04 0-1.94-.09-2.73-.27L14 14z" stroke-linecap="round" stroke-linejoin="round"/><path d="M6.24 7.98c.68-2.93 5.08-2.93 5.76 0 .39 1.72-.69 3.18-1.64 4.08a1.8 1.8 0 0 1-2.48 0c-.95-.9-2.04-2.36-1.64-4.08z"/></g><path d="M9.095 8.7h.009" stroke-linecap="round" stroke-linejoin="round" stroke-width="2"/></g></symbol><symbol viewBox="0 0 24 24" id="medal-star" xmlns="http://www.w3.org/2000/svg"><g stroke-linecap="round" stroke-linejoin="round" stroke-width="1.5" fill="none"><path d="M19 9c0 1.45-.43 2.78-1.17 3.89a6.985 6.985 0 0 1-4.78 3.02c-.34.06-.69.09-1.05.09s-.71-.03-1.05-.09a6.985 6.985 0 0 1-4.78-3.02A6.968 6.968 0 0 1 5 9c0-3.87 3.13-7 7-7s7 3.13 7 7z"/><path d="m21.25 18.47-1.65.39c-.37.09-.66.37-.74.74l-.35 1.47a1 1 0 0 1-1.74.41L12 16l-4.77 5.49a1 1 0 0 1-1.74-.41l-.35-1.47a.996.996 0 0 0-.74-.74l-1.65-.39a1.003 1.003 0 0 1-.48-1.68l3.9-3.9a6.985 6.985 0 0 0 4.78 3.02c.34.06.69.09 1.05.09s.71-.03 1.05-.09c1.99-.29 3.7-1.42 4.78-3.02l3.9 3.9c.55.54.28 1.49-.48 1.67zM12.58 5.98l.59 1.18c.08.16.29.32.48.35l1.07.18c.68.11.84.61.35 1.1l-.83.83c-.14.14-.22.41-.17.61l.24 1.03c.19.81-.24 1.13-.96.7l-1-.59a.701.701 0 0 0-.66 0l-1 .59c-.72.42-1.15.11-.96-.7l.24-1.03c.04-.19-.03-.47-.17-.61l-.83-.83c-.49-.49-.33-.98.35-1.1l1.07-.18c.18-.03.39-.19.47-.35l.59-1.18c.29-.64.81-.64 1.13 0z"/></g></symbol><symbol viewBox="0 0 24 24" id="monitor-mobbile" xmlns="http://www.w3.org/2000/svg"><g stroke-linecap="round" stroke-linejoin="round" fill="none"><g stroke-width="1.5"><path d="M10 16.95H6.21c-3.37 0-4.21-.84-4.21-4.21v-6c0-3.37.84-4.21 4.21-4.21h10.53c3.37 0 4.21.84 4.21 4.21M10 21.47v-4.52M2 12.95h8M6.74 21.47H10"/><path d="M22 12.8v5.71c0 2.37-.59 2.96-2.96 2.96h-3.55c-2.37 0-2.96-.59-2.96-2.96V12.8c0-2.37.59-2.96 2.96-2.96h3.55c2.37 0 2.96.59 2.96 2.96z"/></g><path d="M17.244 18.25h.01" stroke-width="2"/></g></symbol><symbol viewBox="0 0 24 24" id="more" xmlns="http://www.w3.org/2000/svg"><g stroke-width="1.5" fill="none"><path d="M5 10c-1.1 0-2 .9-2 2s.9 2 2 2 2-.9 2-2-.9-2-2-2zM19 10c-1.1 0-2 .9-2 2s.9 2 2 2 2-.9 2-2-.9-2-2-2zM12 10c-1.1 0-2 .9-2 2s.9 2 2 2 2-.9 2-2-.9-2-2-2z"/></g></symbol><symbol viewBox="0 0 24 24" id="notification" xmlns="http://www.w3.org/2000/svg"><path d="M12.02 20.53c-2.33 0-4.66-.37-6.87-1.11-.84-.29-1.48-.88-1.76-1.65-.29-.77-.19-1.62.27-2.38l1.15-1.91c.24-.4.46-1.2.46-1.67V8.92c0-3.72 3.03-6.75 6.75-6.75s6.75 3.03 6.75 6.75v2.89c0 .46.22 1.27.46 1.68l1.14 1.9c.43.72.51 1.59.22 2.38s-.92 1.39-1.71 1.65c-2.2.74-4.53 1.11-6.86 1.11zm0-16.86c-2.89 0-5.25 2.35-5.25 5.25v2.89c0 .73-.3 1.81-.67 2.44l-1.15 1.91c-.22.37-.28.76-.15 1.09.12.34.42.6.83.74a20 20 0 0 0 12.79 0c.36-.12.64-.39.77-.75s.1-.75-.1-1.08l-1.15-1.91c-.38-.65-.67-1.72-.67-2.45V8.92c0-2.9-2.35-5.25-5.25-5.25z"/><path d="M13.88 3.94c-.07 0-.14-.01-.21-.03-.29-.08-.57-.14-.84-.18-.85-.11-1.67-.05-2.44.18-.28.09-.58 0-.77-.21s-.25-.51-.14-.78c.41-1.05 1.41-1.74 2.55-1.74s2.14.68 2.55 1.74c.1.27.05.57-.14.78-.15.16-.36.24-.56.24zM12.02 22.81c-.99 0-1.95-.4-2.65-1.1-.7-.7-1.1-1.66-1.1-2.65h1.5c0 .59.24 1.17.66 1.59s1 .66 1.59.66c1.24 0 2.25-1.01 2.25-2.25h1.5c0 2.07-1.68 3.75-3.75 3.75z"/></symbol><symbol viewBox="0 0 24 24" id="paintbucket" xmlns="http://www.w3.org/2000/svg"><g stroke-linecap="round" stroke-linejoin="round" stroke-width="1.5" fill="none"><path d="m3.77 15.56 3.46 3.46c2.43 2.43 3.26 2.39 5.66 0l5.57-5.57c1.94-1.94 2.43-3.23 0-5.66L15 4.33c-2.59-2.59-3.72-1.94-5.66 0L3.77 9.9c-2.39 2.4-2.59 3.07 0 5.66zM19.2 16.79l-.66 1.09c-.93 1.55-.21 2.82 1.6 2.82s2.53-1.27 1.6-2.82l-.66-1.09c-.52-.86-1.37-.86-1.88 0z"/><path d="M2 12.24a33.319 33.319 0 0 1 17-.13l.5.13"/></g></symbol><symbol viewBox="0 0 24 24" id="pen-tool-2-1" xmlns="http://www.w3.org/2000/svg"><g stroke-linecap="round" stroke-linejoin="round" stroke-width="1.5" fill="none"><path d="M10.75 22.5h2.52c.96 0 1.58-.68 1.4-1.51l-.41-1.81h-4.5l-.41 1.81c-.18.78.5 1.51 1.4 1.51zM14.26 19.17l1.73-1.54c.97-.86 1.01-1.46.24-2.43l-3.05-3.87c-.64-.81-1.69-.81-2.33 0L7.8 15.2c-.77.97-.77 1.6.24 2.43l1.73 1.54M12.01 11.12v2.53M12.52 5h-1c-.55 0-1-.45-1-1V3c0-.55.45-1 1-1h1c.55 0 1 .45 1 1v1c0 .55-.45 1-1 1zM3.27 14.17h1c.55 0 1-.45 1-1v-1c0-.55-.45-1-1-1h-1c-.55 0-1 .45-1 1v1c0 .55.45 1 1 1zM20.73 14.17h-1c-.55 0-1-.45-1-1v-1c0-.55.45-1 1-1h1c.55 0 1 .45 1 1v1c0 .55-.45 1-1 1zM10.52 3.56c-3.81.45-6.77 3.68-6.77 7.61"/><path d="M20.25 11.17c0-3.92-2.94-7.14-6.73-7.61"/></g></symbol><symbol viewBox="0 0 24 24" id="people" xmlns="http://www.w3.org/2000/svg"><g stroke-linecap="round" stroke-linejoin="round" stroke-width="1.5" fill="none"><path d="M18 7.16a.605.605 0 0 0-.19 0 2.573 2.573 0 0 1-2.48-2.58c0-1.43 1.15-2.58 2.58-2.58s2.58 1.16 2.58 2.58A2.589 2.589 0 0 1 18 7.16zM16.97 14.44c1.37.23 2.88-.01 3.94-.72 1.41-.94 1.41-2.48 0-3.42-1.07-.71-2.6-.95-3.97-.71M5.969 7.16c.06-.01.13-.01.19 0a2.573 2.573 0 0 0 2.48-2.58c0-1.43-1.15-2.58-2.58-2.58s-2.58 1.16-2.58 2.58c.01 1.4 1.11 2.53 2.49 2.58zM7 14.44c-1.37.23-2.88-.01-3.94-.72-1.41-.94-1.41-2.48 0-3.42 1.07-.71 2.6-.95 3.97-.71M12 14.63a.605.605 0 0 0-.19 0 2.573 2.573 0 0 1-2.48-2.58c0-1.43 1.15-2.58 2.58-2.58s2.58 1.16 2.58 2.58c-.01 1.4-1.11 2.54-2.49 2.58zM14.91 17.78c-1.59-1.06-4.22-1.06-5.82 0-1.41.94-1.41 2.48 0 3.42 1.6 1.07 4.22 1.07 5.82 0"/></g></symbol><symbol viewBox="0 0 24 24" id="profile-circle" xmlns="http://www.w3.org/2000/svg"><path d="M12.12 13.53h-.17c-2.27-.07-3.97-1.84-3.97-4.02 0-2.22 1.81-4.03 4.03-4.03s4.03 1.81 4.03 4.03a4.014 4.014 0 0 1-3.89 4.02h-.03zM12 6.97c-1.4 0-2.53 1.14-2.53 2.53a2.52 2.52 0 0 0 2.43 2.53.84.84 0 0 1 .23 0 2.535 2.535 0 0 0 2.4-2.53c0-1.39-1.13-2.53-2.53-2.53zM12 22.75c-2.69 0-5.26-1-7.25-2.82a.755.755 0 0 1-.24-.63c.13-1.19.87-2.3 2.1-3.12 2.98-1.98 7.81-1.98 10.78 0 1.23.83 1.97 1.93 2.1 3.12.03.24-.06.47-.24.63A10.71 10.71 0 0 1 12 22.75zM6.08 19.1A9.208 9.208 0 0 0 12 21.25c2.17 0 4.26-.76 5.92-2.15-.18-.61-.66-1.2-1.37-1.68-2.46-1.64-6.63-1.64-9.11 0-.71.48-1.18 1.07-1.36 1.68z"/><path d="M12 22.75C6.07 22.75 1.25 17.93 1.25 12S6.07 1.25 12 1.25 22.75 6.07 22.75 12 17.93 22.75 12 22.75zm0-20C6.9 2.75 2.75 6.9 2.75 12S6.9 21.25 12 21.25s9.25-4.15 9.25-9.25S17.1 2.75 12 2.75z"/></symbol><symbol viewBox="0 0 24 24" id="receipt-edit" xmlns="http://www.w3.org/2000/svg"><path d="M10.54 21.94c-.23 0-.45-.1-.6-.3l-1.01-1.35c-.21-.28-.49-.44-.79-.46-.31-.02-.6.12-.84.37-1.45 1.55-2.55 1.42-3.08 1.22-.54-.21-1.45-.9-1.45-3.12V7.04c0-4.44 1.28-5.79 5.47-5.79h7.55c4.19 0 5.47 1.35 5.47 5.79v4.26c0 .41-.34.75-.75.75s-.75-.34-.75-.75V7.04c0-3.61-.63-4.29-3.97-4.29H8.24c-3.34 0-3.97.68-3.97 4.29V18.3c0 1.05.26 1.63.5 1.72.18.07.67-.03 1.43-.84.55-.58 1.27-.89 2.02-.85.74.04 1.44.43 1.91 1.06l1.02 1.35a.75.75 0 0 1-.61 1.2z"/><path d="M16 7.75H8c-.41 0-.75-.34-.75-.75s.34-.75.75-.75h8c.41 0 .75.34.75.75s-.34.75-.75.75zM15 11.75H9c-.41 0-.75-.34-.75-.75s.34-.75.75-.75h6c.41 0 .75.34.75.75s-.34.75-.75.75zM14.82 21.78c-.38 0-.74-.14-1-.4-.31-.31-.45-.76-.38-1.23l.19-1.35c.05-.35.26-.77.51-1.02l3.54-3.54c.48-.48.95-.73 1.46-.78.62-.06 1.24.2 1.82.78s.84 1.19.78 1.82c-.05.5-.31.98-.78 1.46l-3.54 3.54c-.25.25-.67.46-1.02.51l-1.35.19c-.08.01-.15.02-.23.02zm4.49-6.83h-.03c-.14.01-.33.14-.54.35l-3.54 3.54a.38.38 0 0 0-.08.17l-.18 1.25 1.25-.18c.04-.01.14-.06.17-.09l3.54-3.54c.21-.22.34-.4.35-.54.02-.2-.18-.44-.35-.61-.16-.16-.39-.35-.59-.35z"/><path d="M19.92 18.25c-.07 0-.14-.01-.2-.03a3.977 3.977 0 0 1-2.74-2.74.76.76 0 0 1 .52-.93c.4-.11.81.12.92.52.23.82.88 1.47 1.7 1.7a.755.755 0 0 1-.2 1.48z"/></symbol><symbol viewBox="0 0 24 24" id="security" xmlns="http://www.w3.org/2000/svg"><path d="M20.91 11.12c0 4.89-3.55 9.47-8.4 10.81-.33.09-.69.09-1.02 0-4.85-1.34-8.4-5.92-8.4-10.81V6.73c0-.82.62-1.75 1.39-2.06l5.57-2.28c1.25-.51 2.66-.51 3.91 0l5.57 2.28c.76.31 1.39 1.24 1.39 2.06z" stroke-linecap="round" stroke-linejoin="round" stroke-width="1.5" fill="none"/></symbol><symbol viewBox="0 0 24 24" id="setting-2" xmlns="http://www.w3.org/2000/svg"><path d="M12 15.75c-2.07 0-3.75-1.68-3.75-3.75S9.93 8.25 12 8.25s3.75 1.68 3.75 3.75-1.68 3.75-3.75 3.75zm0-6c-1.24 0-2.25 1.01-2.25 2.25s1.01 2.25 2.25 2.25 2.25-1.01 2.25-2.25S13.24 9.75 12 9.75z"/><path d="M15.21 22.19c-.21 0-.42-.03-.63-.08-.62-.17-1.14-.56-1.47-1.11l-.12-.2c-.59-1.02-1.4-1.02-1.99 0l-.11.19c-.33.56-.85.96-1.47 1.12-.63.17-1.28.08-1.83-.25l-1.72-.99a2.65 2.65 0 0 1-.98-3.62c.29-.51.37-.97.2-1.26s-.6-.46-1.19-.46c-1.46 0-2.65-1.19-2.65-2.65v-1.76c0-1.46 1.19-2.65 2.65-2.65.59 0 1.02-.17 1.19-.46s.1-.75-.2-1.26c-.35-.61-.44-1.33-.26-2.01.18-.69.62-1.26 1.24-1.61l1.73-.99c1.13-.67 2.62-.28 3.3.87l.12.2c.59 1.02 1.4 1.02 1.99 0l.11-.19c.68-1.16 2.17-1.55 3.31-.87l1.72.99a2.65 2.65 0 0 1 .98 3.62c-.29.51-.37.97-.2 1.26s.6.46 1.19.46c1.46 0 2.65 1.19 2.65 2.65v1.76c0 1.46-1.19 2.65-2.65 2.65-.59 0-1.02.17-1.19.46s-.1.75.2 1.26c.35.61.45 1.33.26 2.01a2.58 2.58 0 0 1-1.24 1.61l-1.73.99c-.38.21-.79.32-1.21.32zM12 18.49c.89 0 1.72.56 2.29 1.55l.11.19c.12.21.32.36.56.42s.48.03.68-.09l1.73-1a1.157 1.157 0 0 0 .43-1.57c-.57-.98-.64-1.99-.2-2.76s1.35-1.21 2.49-1.21c.64 0 1.15-.51 1.15-1.15v-1.76c0-.63-.51-1.15-1.15-1.15-1.14 0-2.05-.44-2.49-1.21s-.37-1.78.2-2.76c.15-.26.19-.57.11-.87s-.27-.54-.53-.7l-1.73-.99a.92.92 0 0 0-1.26.33l-.11.19c-.57.99-1.4 1.55-2.29 1.55s-1.72-.56-2.29-1.55l-.11-.2a.918.918 0 0 0-1.24-.32l-1.73 1c-.26.15-.46.4-.54.7s-.04.61.11.87c.57.98.64 1.99.2 2.76S5.04 9.97 3.9 9.97c-.64 0-1.15.51-1.15 1.15v1.76c0 .63.51 1.15 1.15 1.15 1.14 0 2.05.44 2.49 1.21s.37 1.78-.2 2.76c-.15.26-.19.57-.11.87s.27.54.53.7l1.73.99c.21.13.46.16.69.1.24-.06.44-.22.57-.43l.11-.19c.57-.98 1.4-1.55 2.29-1.55z"/></symbol><symbol viewBox="0 0 24 24" id="settings" xmlns="http://www.w3.org/2000/svg"><g stroke-linecap="round" stroke-linejoin="round" stroke-width="1.5" fill="none"><path d="M12 16.5a4.5 4.5 0 1 0 0-9 4.5 4.5 0 0 0 0 9zM2 12h5M17 12h5"/></g></symbol><symbol viewBox="0 0 24 24" id="shop" xmlns="http://www.w3.org/2000/svg"><g stroke-linecap="round" stroke-linejoin="round" stroke-width="1.5" fill="none"><path d="M3.01 11.22v4.49C3.01 20.2 4.81 22 9.3 22h5.39c4.49 0 6.29-1.8 6.29-6.29v-4.49"/><path d="M12 12c1.83 0 3.18-1.49 3-3.32L14.34 2H9.67L9 8.68C8.82 10.51 10.17 12 12 12z"/><path d="M18.31 12c2.02 0 3.5-1.64 3.3-3.65l-.28-2.75C20.97 3 19.97 2 17.35 2H14.3l.7 7.01c.17 1.65 1.66 2.99 3.31 2.99zM5.64 12c1.65 0 3.14-1.34 3.3-2.99l.22-2.21.48-4.8H6.59C3.97 2 2.97 3 2.61 5.6l-.27 2.75C2.14 10.36 3.62 12 5.64 12zM12 17c-1.67 0-2.5.83-2.5 2.5V22h5v-2.5c0-1.67-.83-2.5-2.5-2.5z"/></g></symbol><symbol viewBox="0 0 24 24" id="tick-circle" xmlns="http://www.w3.org/2000/svg"><path d="M12 22.75C6.07 22.75 1.25 17.93 1.25 12S6.07 1.25 12 1.25 22.75 6.07 22.75 12 17.93 22.75 12 22.75zm0-20C6.9 2.75 2.75 6.9 2.75 12S6.9 21.25 12 21.25s9.25-4.15 9.25-9.25S17.1 2.75 12 2.75z"/><path d="M10.58 15.58a.75.75 0 0 1-.53-.22l-2.83-2.83c-.29-.29-.29-.77 0-1.06s.77-.29 1.06 0l2.3 2.3 5.14-5.14c.29-.29.77-.29 1.06 0s.29.77 0 1.06l-5.67 5.67a.75.75 0 0 1-.53.22z"/></symbol><symbol viewBox="0 0 24 24" id="user-edit" xmlns="http://www.w3.org/2000/svg"><path d="M12 12.75c-3.17 0-5.75-2.58-5.75-5.75S8.83 1.25 12 1.25 17.75 3.83 17.75 7s-2.58 5.75-5.75 5.75zm0-10C9.66 2.75 7.75 4.66 7.75 7s1.91 4.25 4.25 4.25S16.25 9.34 16.25 7 14.34 2.75 12 2.75zM15.82 22.75c-.38 0-.74-.14-1-.4-.31-.31-.45-.76-.38-1.23l.19-1.35c.05-.35.26-.76.51-1.02l3.54-3.54c1.42-1.42 2.67-.61 3.28 0 .52.52.79 1.08.79 1.64 0 .57-.26 1.1-.79 1.63l-3.54 3.54c-.25.25-.67.46-1.02.51l-1.35.19c-.08.02-.15.03-.23.03zm4.49-6.83c-.18 0-.34.12-.57.35l-3.54 3.54a.38.38 0 0 0-.08.17l-.18 1.25 1.25-.18c.04-.01.14-.06.17-.09l3.54-3.54c.16-.16.35-.39.35-.57 0-.15-.12-.36-.35-.58-.24-.24-.42-.35-.59-.35z"/><path d="M20.92 19.22c-.07 0-.14-.01-.2-.03a3.977 3.977 0 0 1-2.74-2.74c-.11-.4.12-.81.52-.92s.81.12.92.52c.23.82.88 1.47 1.7 1.7a.749.749 0 0 1-.2 1.47zM3.41 22.75c-.41 0-.75-.34-.75-.75 0-4.27 4.19-7.75 9.34-7.75 1.09 0 2.17.16 3.18.46.4.12.62.54.5.93-.12.4-.54.62-.93.5-.88-.26-1.8-.4-2.75-.4-4.32 0-7.84 2.8-7.84 6.25 0 .42-.34.76-.75.76z"/></symbol><symbol viewBox="0 0 24 24" id="user-octagon" xmlns="http://www.w3.org/2000/svg"><g stroke-linecap="round" stroke-linejoin="round" stroke-width="1.5" fill="none"><path d="M21.08 8.58v6.84c0 1.12-.6 2.16-1.57 2.73l-5.94 3.43c-.97.56-2.17.56-3.15 0l-5.94-3.43a3.15 3.15 0 0 1-1.57-2.73V8.58c0-1.12.6-2.16 1.57-2.73l5.94-3.43c.97-.56 2.17-.56 3.15 0l5.94 3.43c.97.57 1.57 1.6 1.57 2.73z"/><path d="M12 11a2.33 2.33 0 1 0 0-4.66A2.33 2.33 0 0 0 12 11zM16 16.66c0-1.8-1.79-3.26-4-3.26s-4 1.46-4 3.26"/></g></symbol><symbol viewBox="0 0 24 24" id="wallet-money" xmlns="http://www.w3.org/2000/svg"><path d="M7.17 22.75c-2.38 0-4.33-1.73-4.33-3.86v-2.04c0-.41.34-.75.75-.75s.75.34.75.75c0 1.25 1.21 2.19 2.83 2.19S10 18.1 10 16.85c0-.41.34-.75.75-.75s.75.34.75.75v2.04c0 2.13-1.94 3.86-4.33 3.86zM4.6 19.87c.44.82 1.43 1.38 2.57 1.38s2.13-.57 2.57-1.38c-.71.43-1.59.68-2.57.68s-1.86-.25-2.57-.68z"/><path d="M7.17 17.8c-1.64 0-3.11-.75-3.84-1.94-.32-.52-.49-1.13-.49-1.75 0-1.05.46-2.03 1.3-2.76 1.62-1.42 4.41-1.42 6.04-.01.84.74 1.31 1.72 1.31 2.77 0 .62-.17 1.23-.49 1.75-.72 1.19-2.19 1.94-3.83 1.94zm0-6.05c-.78 0-1.5.26-2.04.73-.51.44-.79 1.02-.79 1.63 0 .35.09.67.27.97.46.76 1.44 1.23 2.56 1.23s2.1-.47 2.55-1.22c.18-.29.27-.62.27-.97 0-.61-.28-1.19-.79-1.64-.53-.47-1.25-.73-2.03-.73z"/><path d="M7.17 20.55c-2.47 0-4.33-1.59-4.33-3.69v-2.75c0-2.13 1.94-3.86 4.33-3.86 1.13 0 2.21.39 3.02 1.09.84.74 1.31 1.72 1.31 2.77v2.75c0 2.1-1.86 3.69-4.33 3.69zm0-8.8c-1.56 0-2.83 1.06-2.83 2.36v2.75c0 1.25 1.21 2.19 2.83 2.19S10 18.11 10 16.86v-2.75c0-.61-.28-1.19-.79-1.64-.54-.46-1.26-.72-2.04-.72zM19.04 14.8c-1.51 0-2.79-1.12-2.91-2.56-.08-.83.22-1.64.82-2.23.5-.52 1.21-.81 1.96-.81H21c.99.03 1.75.81 1.75 1.77v2.06c0 .96-.76 1.74-1.72 1.77zm1.93-4.1h-2.05c-.35 0-.67.13-.9.37-.29.28-.43.66-.39 1.04.05.66.69 1.19 1.41 1.19H21c.13 0 .25-.12.25-.27v-2.06c0-.15-.12-.26-.28-.27z"/><path d="M16 21.25h-2.5c-.41 0-.75-.34-.75-.75s.34-.75.75-.75H16c2.58 0 4.25-1.67 4.25-4.25v-.7h-1.21c-1.51 0-2.79-1.12-2.91-2.56-.08-.83.22-1.64.82-2.23.5-.52 1.21-.81 1.96-.81h1.33v-.7c0-2.34-1.37-3.95-3.59-4.21-.24-.04-.45-.04-.66-.04h-9c-.24 0-.47.02-.7.05-2.2.28-3.55 1.88-3.55 4.2v2c0 .41-.34.75-.75.75s-.75-.34-.75-.75v-2c0-3.08 1.9-5.31 4.85-5.68.27-.04.58-.07.9-.07h9c.24 0 .55.01.87.06 2.95.34 4.88 2.58 4.88 5.69v1.45c0 .41-.34.75-.75.75h-2.08c-.35 0-.67.13-.9.37-.29.28-.43.66-.39 1.04.05.66.69 1.19 1.41 1.19H21c.41 0 .75.34.75.75v1.45c0 3.44-2.31 5.75-5.75 5.75z"/></symbol><symbol viewBox="0 0 24 24" id="whatsapp" xmlns="http://www.w3.org/2000/svg"><g stroke-miterlimit="10" stroke-width="1.5" fill="none"><path d="M6.9 20.6c1.5.9 3.3 1.4 5.1 1.4 5.5 0 10-4.5 10-10S17.5 2 12 2 2 6.5 2 12c0 1.8.5 3.5 1.3 5l-.86 3.306a1 1 0 0 0 1.243 1.213z" stroke-linecap="round" stroke-linejoin="round"/><path d="M16.5 14.848c0 .162-.036.329-.113.491s-.175.315-.306.459c-.221.243-.464.418-.74.531-.27.113-.563.171-.878.171-.46 0-.951-.108-1.47-.329a7.922 7.922 0 0 1-1.55-.89 12.95 12.95 0 0 1-1.478-1.26 12.79 12.79 0 0 1-1.257-1.472 8.02 8.02 0 0 1-.884-1.534c-.216-.513-.324-1.004-.324-1.472 0-.306.054-.598.162-.868.108-.275.28-.527.519-.752.288-.283.603-.423.937-.423.126 0 .252.027.365.081.117.054.22.135.302.252l1.045 1.472c.082.112.14.216.18.315.041.094.064.189.064.274a.61.61 0 0 1-.095.32 1.53 1.53 0 0 1-.252.319l-.343.356a.24.24 0 0 0-.072.18c0 .035.005.067.014.103.013.036.027.063.036.09.08.148.22.342.419.576.203.234.419.473.653.711.244.239.478.459.717.662.234.198.428.333.581.414.023.009.05.022.081.036a.311.311 0 0 0 .113.018.248.248 0 0 0 .185-.077l.342-.337c.113-.113.221-.198.325-.252a.6.6 0 0 1 .32-.095.72.72 0 0 1 .275.059c.099.04.203.099.315.175l1.492 1.058a.683.683 0 0 1 .248.288.921.921 0 0 1 .072.35z"/></g></symbol></svg>