<?xml version="1.0" encoding="UTF-8" standalone="no"?><!DOCTYPE svg PUBLIC "-//W3C//DTD SVG 1.1//EN" "http://www.w3.org/Graphics/SVG/1.1/DTD/svg11.dtd"><svg width="100%" height="100%" viewBox="0 0 6584 3334" version="1.1" xmlns="http://www.w3.org/2000/svg" xmlns:xlink="http://www.w3.org/1999/xlink" xml:space="preserve" xmlns:serif="http://www.serif.com/" style="fill-rule:evenodd;clip-rule:evenodd;stroke-linejoin:round;stroke-miterlimit:2;"><path d="M5765.97,486.067c-1609.08,-50.054 -3202.81,-589.216 -4011.72,533.958c-603.678,838.183 -913.041,1565.08 -472.904,2017.25c682.084,700.726 3322.18,-1113.1 4093.06,-1099.28c770.892,13.82 2000.65,-1401.88 391.566,-1451.93l-0.003,0l0.003,0Z" style="fill:#bbced8;fill-opacity:0.4;"/><g opacity="0.3"><path d="M935.525,1741.04c-434.59,-0 -787.404,-352.814 -787.404,-787.383c-0,-434.591 352.814,-787.405 787.404,-787.405c434.569,0 787.383,352.814 787.383,787.405c-0,101.412 -22.472,257.275 -144.095,354.41c-51.647,41.276 -60.208,117.726 -18.971,169.404c41.277,51.646 117.726,60.207 169.404,18.97c189.527,-151.364 234.737,-384.771 234.737,-542.784c-0,-567.627 -460.83,-1028.48 -1028.46,-1028.48c-567.627,0 -1028.48,460.853 -1028.48,1028.48c-0,567.627 460.852,1028.46 1028.48,1028.46c66.111,-0.036 120.501,-54.426 120.538,-120.537c-0.037,-66.111 -54.427,-120.501 -120.538,-120.537Z" style="fill:#d50f4b;"/><path d="M1641.13,1535.54c-109.678,12.373 -213.252,-57.032 -243.512,-163.176c-20.278,-70.962 -35.814,-171.399 -35.814,-312.591c0,-250.804 -48.999,-372.981 -86.696,-429.848c-3.406,-4.864 -5.233,-10.661 -5.233,-16.599c-0,-15.878 13.065,-28.943 28.943,-28.943c0.001,-0 0.002,-0 0.003,-0c16.001,-0.067 33.686,-0.067 51.681,-0.067c114.066,0 213.483,77.655 241.119,188.33c16.799,68.968 28.988,162.047 28.988,287.127c-0,407.509 132.15,416.551 132.15,416.551c-26.949,31.226 -60.723,48.778 -96.093,56.734c-5.132,1.101 -10.317,1.929 -15.536,2.482Zm-390.023,2.593c-113.691,0.005 -213.577,-78.02 -241.097,-188.33c-16.821,-68.967 -29.01,-162.068 -29.01,-287.127c0,-250.781 -48.999,-372.959 -86.696,-429.848c-3.396,-4.86 -5.218,-10.648 -5.218,-16.577c0,-15.864 13.044,-28.924 28.908,-28.943c16.001,-0.066 33.708,-0.066 51.704,-0.066c113.686,-0.015 213.575,78.002 241.097,188.308c16.82,68.989 29.009,162.068 29.009,287.126c0,243.978 46.385,366.222 83.616,425.062c3.596,5.328 5.519,11.611 5.519,18.039c-0,17.681 -14.543,32.233 -32.224,32.245c-14.338,0.111 -29.851,0.111 -45.608,0.111Zm-379.187,0.222c-113.69,0.004 -213.577,-78.021 -241.097,-188.33c-16.82,-68.967 -29.009,-162.046 -29.009,-287.105c-0,-250.782 -49,-372.959 -86.697,-429.848c-3.405,-4.864 -5.233,-10.661 -5.233,-16.599c0,-15.87 13.054,-28.933 28.924,-28.943c16.001,-0.067 33.708,-0.067 51.703,-0.067c114.066,0 213.484,77.655 241.097,188.33c16.821,68.967 29.01,162.047 29.01,287.127c-0,243.978 46.384,366.222 83.594,425.061c3.611,5.331 5.542,11.624 5.542,18.062c0,17.665 -14.536,32.201 -32.201,32.201c-0.008,0 -0.016,0 -0.024,0c-14.339,0.111 -29.874,0.111 -45.609,0.111Z" style="fill:#d50f4b;"/></g></svg>