<svg viewBox="0 0 65 65" xmlns="http://www.w3.org/2000/svg" fill-rule="evenodd" clip-rule="evenodd" stroke-linejoin="round" stroke-miterlimit="10"><path fill="none" d="M.044.895h64v64h-64z"/><clipPath id="a"><path d="M.044.895h64v64h-64z"/></clipPath><g fill="none" stroke-width="4" clip-path="url(#a)"><path stroke="#2f4659" d="M26.044 2.895h12v4h-12zm-24 50a2 2 0 002 2h56a2 2 0 002-2v-44a2 2 0 00-2-2h-56a2 2 0 00-2 2v44zm30 2v8m-6 2c0-2 2-2 2-2h8s2 0 2 2"/><path d="M44.044 38.895v-12h8v12m-40 0v-22h8v22m8 0v-16h8v16" stroke="#e71556"/><path d="M10.044 44.895h44" stroke="#2f4659"/></g></svg>