<?xml version="1.0" encoding="UTF-8" standalone="no"?><!DOCTYPE svg PUBLIC "-//W3C//DTD SVG 1.1//EN" "http://www.w3.org/Graphics/SVG/1.1/DTD/svg11.dtd"><svg width="100%" height="100%" viewBox="0 0 65 65" version="1.1" xmlns="http://www.w3.org/2000/svg" xmlns:xlink="http://www.w3.org/1999/xlink" xml:space="preserve" xmlns:serif="http://www.serif.com/" style="fill-rule:evenodd;clip-rule:evenodd;stroke-linejoin:round;stroke-miterlimit:10;"><rect id="icon" x="0.241" y="0.015" width="64" height="64" style="fill:none;"/><g id="_40-Bar" serif:id="40-Bar"></g><g id="_29-Chart" serif:id="29-Chart"></g><g id="_36-Inbox" serif:id="36-Inbox"></g><g id="_34-Joy-Stick" serif:id="34-Joy Stick"></g><g id="_1-File" serif:id="1-File"></g><g id="_7-Web-Browser" serif:id="7-Web Browser"><path d="M2.241,58.015c0,2.208 1.792,4 4,4l52,0c2.208,0 4,-1.792 4,-4l0,-52c0,-2.208 -1.792,-4 -4,-4l-52,0c-2.208,0 -4,1.792 -4,4l0,52Z" style="fill:none;fill-rule:nonzero;stroke:#2d4354;stroke-width:4px;"/><path d="M2.241,18.015l28,0" style="fill:none;fill-rule:nonzero;stroke:#2d4354;stroke-width:4px;"/><path d="M8.241,10.015l4,0" style="fill:none;fill-rule:nonzero;stroke:#2d4354;stroke-width:4px;"/><path d="M16.241,10.015l4,0" style="fill:none;fill-rule:nonzero;stroke:#2d4354;stroke-width:4px;"/><path d="M52.241,10.015l4,0" style="fill:none;fill-rule:nonzero;stroke:#2d4354;stroke-width:4px;"/><path d="M50.241,18.015l12,0" style="fill:none;fill-rule:nonzero;stroke:#2d4354;stroke-width:4px;"/><rect x="36.241" y="12.015" width="8" height="10" style="fill:#e71556;stroke:#e71556;stroke-width:4px;stroke-miterlimit:2;"/><path d="M44.241,44.015l0,-32l-8,0l0,32l4,8l4,-8Z" style="fill:none;fill-rule:nonzero;stroke:#e71556;stroke-width:4px;"/><path d="M36.241,22.015l8,0" style="fill:none;fill-rule:nonzero;stroke:#e71556;stroke-width:4px;"/><path d="M18.241,52.015l22,0" style="fill:none;fill-rule:nonzero;stroke:#e71556;stroke-width:4px;"/><path d="M10.241,52.015l4,0" style="fill:none;fill-rule:nonzero;stroke:#e71556;stroke-width:4px;"/></g></svg>