<?xml version="1.0" encoding="UTF-8" standalone="no"?><!DOCTYPE svg PUBLIC "-//W3C//DTD SVG 1.1//EN" "http://www.w3.org/Graphics/SVG/1.1/DTD/svg11.dtd"><svg width="100%" height="100%" viewBox="0 0 65 65" version="1.1" xmlns="http://www.w3.org/2000/svg" xmlns:xlink="http://www.w3.org/1999/xlink" xml:space="preserve" xmlns:serif="http://www.serif.com/" style="fill-rule:evenodd;clip-rule:evenodd;stroke-linejoin:round;stroke-miterlimit:10;"><rect id="icon" x="0.531" y="0.18" width="64" height="64" style="fill:none;"/><g id="_34-Web-Browser" serif:id="34-Web Browser"></g><g id="_34-Web-Browser1" serif:id="34-Web Browser"><path d="M2.531,58.18c0,2.208 1.792,4 4,4l52,0c2.208,0 4,-1.792 4,-4l0,-52c0,-2.208 -1.792,-4 -4,-4l-52,0c-2.208,0 -4,1.792 -4,4l0,52Z" style="fill:none;fill-rule:nonzero;stroke:#2f4659;stroke-width:4px;"/><path d="M3.531,17.561l58.37,0" style="fill:none;fill-rule:nonzero;stroke:#2f4659;stroke-width:4px;"/><path d="M9.368,9.778l3.891,0" style="fill:none;fill-rule:nonzero;stroke:#2f4659;stroke-width:4px;"/><path d="M17.151,9.778l3.891,0" style="fill:none;fill-rule:nonzero;stroke:#2f4659;stroke-width:4px;"/><path d="M52.172,9.778l3.892,0" style="fill:none;fill-rule:nonzero;stroke:#2f4659;stroke-width:4px;"/><path d="M48.281,44.8l-11.674,0l-5.837,-5.837l5.837,-5.837l11.674,11.674Z" style="fill:#e71556;fill-rule:nonzero;stroke:#e71556;stroke-width:4px;stroke-miterlimit:2;"/><path d="M36.607,44.8l-23.348,0l11.674,-11.674l11.674,11.674Z" style="fill:#e71556;fill-rule:nonzero;stroke:#e71556;stroke-width:4px;stroke-miterlimit:2;"/><path d="M13.259,44.8l0,-19.457l38.913,0l0,19.457l-38.913,0Z" style="fill:none;fill-rule:nonzero;stroke:#e71556;stroke-width:4px;"/><path d="M13.259,44.8l11.674,-11.674l11.674,11.674" style="fill:none;fill-rule:nonzero;stroke:#e71556;stroke-width:4px;"/><path d="M30.77,38.963l5.837,-5.837l11.674,11.674" style="fill:none;fill-rule:nonzero;stroke:#e71556;stroke-width:4px;"/><path d="M30.77,52.582l3.891,0" style="fill:none;fill-rule:nonzero;stroke:#e71556;stroke-width:4px;"/><path d="M38.553,52.582l3.891,0" style="fill:none;fill-rule:nonzero;stroke:#2f4659;stroke-width:4px;"/><path d="M22.988,52.582l3.891,0" style="fill:none;fill-rule:nonzero;stroke:#2f4659;stroke-width:4px;"/></g></svg>