<?xml version="1.0" encoding="UTF-8" standalone="no"?><!DOCTYPE svg PUBLIC "-//W3C//DTD SVG 1.1//EN" "http://www.w3.org/Graphics/SVG/1.1/DTD/svg11.dtd"><svg width="100%" height="100%" viewBox="0 0 65 65" version="1.1" xmlns="http://www.w3.org/2000/svg" xmlns:xlink="http://www.w3.org/1999/xlink" xml:space="preserve" xmlns:serif="http://www.serif.com/" style="fill-rule:evenodd;clip-rule:evenodd;stroke-linejoin:round;stroke-miterlimit:10;"><rect id="icon" x="0.131" y="0.617" width="64" height="64" style="fill:none;"/><clipPath id="_clip1"><rect x="0.131" y="0.617" width="64" height="64"/></clipPath><g clip-path="url(#_clip1)"><g id="_40-Bar" serif:id="40-Bar"></g><g id="_29-Chart" serif:id="29-Chart"></g><g id="_36-Inbox" serif:id="36-Inbox"></g><g id="_34-Joy-Stick" serif:id="34-Joy Stick"></g><g id="_45-Vector-Graphic" serif:id="45-Vector Graphic"><rect x="2.131" y="10.617" width="8" height="8" style="fill:none;stroke:#2d4354;stroke-width:4px;"/><rect x="28.131" y="10.617" width="8" height="8" style="fill:none;stroke:#2f4659;stroke-width:4px;"/><rect x="52.131" y="42.617" width="8" height="8" style="fill:none;stroke:#2f4659;stroke-width:4px;"/><rect x="4.131" y="42.617" width="8" height="8" style="fill:none;stroke:#2f4659;stroke-width:4px;"/><rect x="54.131" y="10.617" width="8" height="8" style="fill:none;stroke:#2d4354;stroke-width:4px;"/><path d="M10.131,14.617l18,0" style="fill:none;fill-rule:nonzero;stroke:#2f4659;stroke-width:4px;"/><path d="M36.131,14.617l18,0" style="fill:none;fill-rule:nonzero;stroke:#2f4659;stroke-width:4px;"/><path d="M30.131,14.617c0,0 -22,0 -22,28" style="fill:none;fill-rule:nonzero;stroke:#2f4659;stroke-width:4px;"/><path d="M34.131,14.617c0,0 22,0 22,28" style="fill:none;fill-rule:nonzero;stroke:#2f4659;stroke-width:4px;"/><path d="M32.131,18.617l-12,24l8,8l8,0l8,-8l-12,-24Z" style="fill:none;fill-rule:nonzero;stroke:#2f4659;stroke-width:4px;"/><rect x="22.131" y="48.617" width="20" height="4" style="fill:none;stroke:#e71556;stroke-width:4px;"/><path d="M26.131,52.617l0,10" style="fill:none;fill-rule:nonzero;stroke:#e71556;stroke-width:4px;"/><path d="M38.131,52.617l0,10" style="fill:none;fill-rule:nonzero;stroke:#e71556;stroke-width:4px;"/><path d="M32.131,18.617l0,20" style="fill:none;fill-rule:nonzero;stroke:#2f4659;stroke-width:4px;"/></g></g></svg>