<?xml version="1.0" encoding="UTF-8" standalone="no"?><!DOCTYPE svg PUBLIC "-//W3C//DTD SVG 1.1//EN" "http://www.w3.org/Graphics/SVG/1.1/DTD/svg11.dtd"><svg width="100%" height="100%" viewBox="0 0 65 65" version="1.1" xmlns="http://www.w3.org/2000/svg" xmlns:xlink="http://www.w3.org/1999/xlink" xml:space="preserve" xmlns:serif="http://www.serif.com/" style="fill-rule:evenodd;clip-rule:evenodd;stroke-linejoin:round;stroke-miterlimit:10;"><rect id="icon" x="0.717" y="0.18" width="64" height="64" style="fill:none;"/><clipPath id="_clip1"><rect x="0.717" y="0.18" width="64" height="64"/></clipPath><g clip-path="url(#_clip1)"><g id="_49-Web-Browser" serif:id="49-Web Browser"></g><g id="_98-Web-Browser" serif:id="98-Web Browser"></g><g id="_39-Web-Browser" serif:id="39-Web Browser"><path d="M2.717,58.198c0,2.198 1.792,3.982 4,3.982l52,0c2.208,0 4,-1.784 4,-3.982l0,-51.774c0,-2.199 -1.792,-3.983 -4,-3.983l-52,0c-2.208,0 -4,1.784 -4,3.983l0,51.774Z" style="fill:none;fill-rule:nonzero;stroke:#2f4659;stroke-width:4px;"/><path d="M2.717,18.372l59.739,0" style="fill:none;fill-rule:nonzero;stroke:#2f4659;stroke-width:4px;"/><path d="M8.691,10.406l3.982,0" style="fill:none;fill-rule:nonzero;stroke:#2f4659;stroke-width:4px;"/><path d="M16.656,10.406l3.982,0" style="fill:none;fill-rule:nonzero;stroke:#2f4659;stroke-width:4px;"/><path d="M52.499,10.406l3.983,0" style="fill:none;fill-rule:nonzero;stroke:#2f4659;stroke-width:4px;"/><path d="M38.56,40.276c0,-3.297 -2.677,-5.974 -5.974,-5.974c-3.297,0 -5.974,2.677 -5.974,5.974c0,3.297 2.677,5.974 5.974,5.974c3.297,0 5.974,-2.677 5.974,-5.974Z" style="fill:none;stroke:#e71556;stroke-width:4px;"/><path d="M32.586,34.302l0,-5.974" style="fill:none;fill-rule:nonzero;stroke:#e71556;stroke-width:4px;"/><path d="M32.586,52.224l0,-5.974" style="fill:none;fill-rule:nonzero;stroke:#e71556;stroke-width:4px;"/><path d="M38.56,40.276l5.974,0" style="fill:none;fill-rule:nonzero;stroke:#e71556;stroke-width:4px;"/><path d="M20.638,40.276l5.974,0" style="fill:none;fill-rule:nonzero;stroke:#e71556;stroke-width:4px;"/><path d="M36.569,36.293l3.982,-3.982" style="fill:none;fill-rule:nonzero;stroke:#e71556;stroke-width:4px;"/><path d="M28.604,36.293l-3.983,-3.982" style="fill:none;fill-rule:nonzero;stroke:#e71556;stroke-width:4px;"/><path d="M28.604,44.259l-3.983,3.982" style="fill:none;fill-rule:nonzero;stroke:#e71556;stroke-width:4px;"/><path d="M36.569,44.259l3.982,3.982" style="fill:none;fill-rule:nonzero;stroke:#e71556;stroke-width:4px;"/></g></g></svg>