<?xml version="1.0" encoding="UTF-8" standalone="no"?>
<!DOCTYPE svg PUBLIC "-//W3C//DTD SVG 1.1//EN" "http://www.w3.org/Graphics/SVG/1.1/DTD/svg11.dtd">
<svg width="100%" height="100%" viewBox="0 0 2773 2035" version="1.1" xmlns="http://www.w3.org/2000/svg" xmlns:xlink="http://www.w3.org/1999/xlink" xml:space="preserve" xmlns:serif="http://www.serif.com/" style="fill-rule:evenodd;clip-rule:evenodd;stroke-linecap:round;stroke-linejoin:round;stroke-miterlimit:1.5;">
    <g transform="matrix(1,0,0,1,-23.2963,-2262.28)">
        <g id="Layer1">
        </g>
        <g id="Layer2">
        </g>
        <g id="marketing_hibrid" transform="matrix(1.28176,0,0,1.44764,-3526.22,1829.66)">
            <rect x="2769.24" y="298.849" width="2162.86" height="1405.6" style="fill:none;"/>
            <clipPath id="_clip1">
                <rect x="2769.24" y="298.849" width="2162.86" height="1405.6"/>
            </clipPath>
            <g clip-path="url(#_clip1)">
                <g transform="matrix(-0.932146,0,0,0.83507,5599.74,-1163.55)">
                    <g transform="matrix(1.01153,-0.398277,0.429869,1.09177,-1315.77,38.8959)">
                        <path d="M669.109,3428.55C744.109,3257.82 684.713,3127.71 849.492,3043.67C1004.19,2964.76 1453.52,3275.28 1870.95,2874.68C2263.6,2497.87 2675.07,2809.95 2574.24,3163.46C2534.79,3301.78 2891.14,4127.88 2343.39,3928.06C1727.57,3703.41 594.109,3599.27 669.109,3428.55Z" style="fill:rgb(216,29,77);fill-opacity:0.09;"/>
                    </g>
                    <g id="Layer21" serif:id="Layer2">
                        <path d="M1488.19,2102.36C1420.99,2131.64 1368.52,2189.92 1370.08,2267.72C1371.64,2345.52 1359.24,2405 1322.84,2456.69C1286.42,2508.39 1369.91,2676.97 1417.32,2669.29C1572.55,2644.14 1466.86,2544.64 1505.91,2509.84C1518.78,2519.97 1530.4,2523.97 1541.34,2521.65C1558.31,2518.06 1629.83,2438.16 1659.45,2309.05C1663.19,2292.74 1555.39,2073.09 1488.19,2102.36Z" style="fill:rgb(228,232,240);"/>
                        <path d="M1551.39,2515.75C1554.38,2513.34 1527.8,2529.05 1473.21,2472.5C1415.41,2412.62 1442.85,2416.78 1423.16,2385.83C1419.99,2380.85 1407.97,2397.41 1402.13,2374.02C1395.75,2348.48 1376.73,2298.18 1409.67,2279.53C1449.08,2257.22 1450.34,2366.31 1461.08,2363.41C1482.6,2357.61 1497.19,2321.7 1523.62,2314.96C1578.31,2301.01 1633.86,2305.43 1659.54,2314.96C1660.64,2310.51 1659.76,2309.83 1659.54,2307.44C1657.91,2289.22 1558.94,2236.18 1535.43,2220.47C1524.02,2212.85 1399.53,2244.13 1370.08,2267.72C1371.64,2345.52 1356.43,2402.19 1320.02,2453.88C1283.61,2505.57 1369.91,2676.97 1417.32,2669.29C1572.55,2644.14 1466.86,2544.64 1505.91,2509.84C1518.78,2519.97 1530.4,2523.97 1541.34,2521.65C1543.71,2521.15 1547.15,2519.16 1551.39,2515.75Z" style="fill:rgb(178,194,207);"/>
                        <path d="M1386.43,2385.83C1396.48,2389.57 1402.84,2412.95 1413.22,2433.07C1423.6,2453.19 1445.42,2471.6 1452.76,2489.35C1460.09,2507.09 1470.14,2570.27 1426.61,2515.75C1383.08,2461.22 1375.05,2471.21 1377.06,2433.07C1379.07,2394.93 1376.39,2382.08 1386.43,2385.83Z" style="fill:rgb(226,232,240);"/>
                        <path d="M1412.55,2291.34C1420.58,2290.13 1425.97,2283.69 1429.13,2303.15C1432.3,2322.61 1439.36,2341.5 1429.13,2338.58C1418.91,2335.66 1417.41,2331.98 1417.32,2341.69C1417.24,2351.4 1423.83,2362.29 1418.02,2362.2C1412.21,2362.12 1409.86,2355.9 1405.51,2338.58C1401.16,2321.27 1404.17,2311.56 1405.51,2320.26C1406.86,2328.97 1407.53,2340.69 1411.88,2333.99C1416.23,2327.3 1410.1,2337.97 1418.02,2326.77C1425.94,2315.58 1425.78,2310.22 1417.32,2310.22C1408.86,2310.22 1412.72,2308.88 1417.32,2306.54C1421.92,2304.19 1424.78,2288.53 1417.32,2291.34C1409.87,2294.15 1404.51,2292.55 1412.55,2291.34Z" style="fill:rgb(202,213,223);"/>
                        <path d="M1352.36,2350.39C1362.19,2374.64 1373.93,2387.46 1381.89,2374.02C1389.85,2360.58 1370.74,2306.26 1387.8,2289.35C1404.85,2272.45 1419.14,2267.3 1429.13,2273.62C1437.66,2279.01 1451.91,2295.13 1452.76,2314.96C1453.6,2334.8 1449.76,2351.75 1464.57,2338.58C1479.38,2325.42 1489.49,2305.16 1517.72,2297.24C1545.94,2289.33 1581.25,2303.85 1600.39,2303.15C1619.53,2302.45 1620.43,2307.69 1647.64,2309.05C1674.85,2310.42 1721.1,2313.14 1730.32,2267.72C1739.53,2222.3 1706.01,2186.13 1683.07,2167.32C1660.13,2148.52 1619.51,2111.8 1588.58,2102.36C1557.66,2092.92 1492.24,2059.21 1423.23,2108.27C1379.74,2139.18 1333.16,2164.54 1352.36,2297.24C1356.53,2326.07 1342.53,2326.15 1352.36,2350.39Z" style="fill:rgb(48,69,90);"/>
                        <path d="M1352.36,2350.39C1362.19,2374.64 1373.93,2387.46 1381.89,2374.02C1389.85,2360.58 1370.74,2306.26 1387.8,2289.35C1404.85,2272.45 1419.14,2267.3 1429.13,2273.62C1437.66,2279.01 1451.91,2295.13 1452.76,2314.96C1453.6,2334.8 1449.76,2351.75 1464.57,2338.58C1479.38,2325.42 1489.49,2305.16 1517.72,2297.24C1545.94,2289.33 1581.25,2303.85 1600.39,2303.15C1619.53,2302.45 1620.43,2307.69 1647.64,2309.05C1674.85,2310.42 1721.1,2313.14 1730.32,2267.72C1731.67,2261.02 1695.67,2287.49 1660.08,2276.23C1512.63,2229.58 1492.13,2281.29 1465.97,2272.59C1372.71,2241.59 1492.24,2059.21 1423.23,2108.27C1379.74,2139.18 1333.16,2164.54 1352.36,2297.24C1356.53,2326.07 1342.53,2326.15 1352.36,2350.39Z" style="fill:rgb(42,56,71);"/>
                    </g>
                    <g id="camasa">
                        <path d="M1185.04,3308.96C1181.92,3342.96 1154.38,3358.62 1203.21,3358.62C1228.78,3358.62 1402.24,3407.94 1491.19,3386.06C1580.14,3364.19 1650.46,3356.73 1650.46,3277.65C1650.46,3198.56 1188.17,3274.97 1185.04,3308.96Z" style="fill:rgb(42,56,71);"/>
                        <path d="M1202.89,3331.67C1186.49,3362.14 1164.32,3407.15 1181.02,3527.46C1195.98,3635.22 1640.41,3633.16 1674.67,3413.27C1678.66,3387.65 1649.75,3373.41 1650.46,3300.12C1651.07,3235.93 1219.3,3301.2 1202.89,3331.67Z" style="fill:rgb(42,56,71);"/>
                        <path d="M1278.5,3354.36C1278.58,3400.13 1222.52,3468.88 1206.41,3484.5" style="fill:none;stroke:rgb(42,44,49);stroke-width:4.91px;"/>
                        <path d="M1320.12,2444.42C1311.92,2468.76 1321.88,2558.41 1361.14,2600.6C1400.39,2642.78 1458.4,2737.12 1475.39,2699.03C1492.39,2660.95 1514.65,2591.81 1505.86,2570.13C1497.07,2548.45 1499.5,2563.1 1485.69,2567.2C1471.88,2571.3 1469.53,2580.09 1462.5,2563.1C1454.47,2543.69 1400.98,2608.76 1320.12,2444.42Z" style="fill:rgb(228,232,240);"/>
                        <path d="M1311.3,2444.42C1279.3,2462.8 1237.11,2494.5 1186.33,2509.12C1135.55,2523.74 1065.24,2569.05 1058.21,2783.9C1055.71,2860.04 1000.39,2992.49 1016.02,3067.49C1031.64,3142.49 1033.99,3179.99 1173.05,3238.58C1190.16,3245.79 1154.3,3312.02 1212.89,3332.33C1271.49,3352.65 1382.49,3366.71 1532.85,3353.43C1580.31,3349.24 1683.99,3313.58 1670.71,3169.05C1664.16,3097.83 1707.42,3231.41 1799.61,3253.75C1891.8,3276.08 2067.39,3283.63 2067.39,3283.63L2091.02,3160.04C2091.02,3160.04 1858.99,3070.62 1829.3,3082.33C1799.61,3094.05 1817.58,3074.52 1820.71,3061.24C1823.83,3047.96 1821.49,3034.68 1805.08,3029.21C1788.67,3023.74 1802.26,2944.83 1715.39,2750.3C1697.94,2711.23 1722.27,2581.55 1637.89,2533.12C1618.53,2522 1598.67,2512.28 1560.65,2507.17C1535.04,2537.89 1513.41,2513.45 1503.96,2509.12C1502.88,2528.53 1495.64,2594.05 1481,2649.02C1480.1,2652.21 1477.31,2654.54 1473.97,2654.88C1470.63,2655.22 1467.42,2653.52 1465.86,2650.58C1425.53,2577.51 1337,2527.34 1311.3,2444.42Z" style="fill:rgb(48,69,90);"/>
                        <path d="M1240.16,3040.55C1211.3,2969.65 1312.74,2775.03 1281.35,2780.64C1272.24,2782.26 1266.34,2822.34 1258.52,2824.59C1243.15,2829.01 1269.52,2704.45 1245.3,2704.45C1215,2704.45 1243.56,2740.46 1240.16,2844.37C1238.26,2902.46 1220.59,2972.53 1201.6,3034C1192.26,3064.26 1139.83,3036.06 1141.41,3079.21C1142.42,3106.95 1162.49,3043.54 1204.07,3076.42C1207.49,3079.12 1174.05,3081.5 1185.35,3093.93C1186.11,3094.76 1211.5,3088.08 1225.02,3093.58C1263.31,3109.14 1400.37,3161.89 1420.78,3186.88C1503.29,3287.94 1676.75,3234.83 1670.71,3169.05C1664.16,3097.83 1707.42,3231.41 1799.61,3253.75C1891.8,3276.08 2066.8,3281.86 2066.8,3281.86L2076.96,3233.94C2076.96,3233.94 1797.11,3244.99 1790.86,3129.68C1789.13,3097.81 1820.71,3074.88 1820.71,3061.24C1820.71,3020 1783.64,3118.05 1746.97,3136.91C1722.02,3149.74 1696.59,3119.94 1691.64,3114.99C1634.89,3058.24 1718.71,3017.04 1639.31,2846.95C1624.73,2815.72 1656,2780.49 1650.94,2769.46C1634.56,2733.76 1634.6,2800.27 1631.01,2792.23C1613.57,2753.16 1652.4,2737.73 1628.05,2730.46C1592.02,2719.7 1671.93,2955.9 1631.76,3122.97C1615.85,3189.14 1522.92,3195.43 1476.17,3167.38C1456,3155.27 1568.01,3084.45 1476.17,3098.58C1149.47,3148.83 1361.52,2956.85 1240.16,3040.55Z" style="fill:rgb(42,56,71);"/>
                        <path d="M1311.3,2444.42C1279.3,2462.8 1237.11,2494.5 1186.33,2509.12C1135.55,2523.74 1065.24,2569.05 1058.21,2783.9C1055.71,2860.04 1000.39,2992.49 1016.02,3067.49C1031.64,3142.49 1039.46,3206.55 1178.52,3265.15C1194.55,3271.9 1270.88,3300.03 1389.91,3308.31C1398.58,3308.91 1374.1,3286.3 1383.63,3285.46C1416.64,3282.54 1187.91,3287.19 1049.04,3127.44C988.279,3057.55 1097.1,2813.8 1098.05,2809.76C1101.17,2796.47 1031.73,2505.7 1301.17,2526.16C1338.8,2529.02 1413.98,2648.53 1434.14,2627.43C1472.8,2673.36 1483.07,2668.12 1491.19,2623.45C1494.65,2604.43 1497.26,2652.57 1527.74,2558.9C1534.65,2537.66 1598.67,2512.28 1560.65,2507.17C1535.04,2537.89 1513.41,2513.45 1503.96,2509.12C1502.88,2528.53 1495.64,2594.05 1481,2649.02C1480.1,2652.21 1477.31,2654.54 1473.97,2654.88C1470.63,2655.22 1467.42,2653.52 1465.86,2650.58C1425.53,2577.51 1337,2527.34 1311.3,2444.42Z" style="fill:rgb(42,56,71);"/>
                        <path d="M1347.91,2400.89C1338.6,2410.73 1361.61,2514.3 1436.1,2543.86C1458.36,2552.69 1463.28,2549.01 1466.1,2554.64C1469.85,2574.8 1470.78,2570.58 1475.94,2560.73C1481.1,2550.89 1493.75,2538.23 1498.44,2524.17C1503.13,2510.11 1498.44,2506.83 1505.47,2511.05C1512.5,2515.26 1515.78,2525.11 1511.1,2549.01C1506.41,2572.92 1503.6,2622.14 1494.69,2604.33C1485.78,2586.51 1476.88,2564.95 1475.47,2574.8C1474.07,2584.64 1468.44,2579.95 1462.35,2563.55C1454.85,2571.51 1437.03,2622.14 1426.72,2616.98C1416.41,2611.83 1315.4,2523.17 1311.3,2444.42C1319,2429.64 1340.83,2400.89 1347.91,2400.89Z" style="fill:rgb(246,247,250);"/>
                        <path d="M1426.17,3187.02C1453.35,3190.04 1476.17,3201.87 1476.17,3201.87C1476.17,3201.87 1448.05,3210.46 1448.05,3241.71C1448.05,3272.96 1442.58,3311.24 1462.89,3311.24C1483.21,3311.24 1472.27,3320.62 1460.55,3320.62C1448.83,3320.62 1388.67,3305.77 1388.67,3305.77C1388.67,3305.77 1365.24,3262.8 1373.83,3237.8C1382.42,3212.8 1405.08,3184.68 1426.17,3187.02Z" style="fill:rgb(246,247,250);"/>
                        <path d="M1440.24,3304.99C1431.56,3250.98 1437.73,3210.44 1469.01,3198.58C1473.61,3196.84 1476.17,3201.87 1476.17,3201.87C1476.17,3201.87 1448.05,3210.46 1448.05,3241.71C1448.05,3272.96 1442.58,3311.24 1462.89,3311.24C1483.21,3311.24 1472.27,3320.62 1460.55,3320.62C1448.83,3320.62 1440.24,3304.99 1440.24,3304.99Z" style="fill:rgb(228,232,240);"/>
                    </g>
                    <g id="masa">
                        <g transform="matrix(1,0,0,1,-173.438,-21.2564)">
                            <path d="M1220.41,3370.87C1222.25,3370.72 1224.08,3370.63 1225.92,3370.59C1296.36,3369.07 2693.68,3338.87 2693.68,3338.87C3753.21,3375.93 3679.83,3448.95 2763.99,3548.72L1145.8,3666.74C1145.8,3666.74 646.299,3558.62 363.309,3497.37C349.204,3494.32 339.481,3481.53 340.443,3467.29C341.404,3453.05 352.761,3441.64 367.151,3440.47C657.983,3416.75 1178.14,3374.32 1220.41,3370.87Z" style="fill:rgb(228,232,240);"/>
                        </g>
                        <g transform="matrix(-0.627096,0,0,0.627096,5163.35,803.003)">
                            <path d="M4785.9,4091.78C4785.24,4091.73 4784.58,4091.74 4783.92,4091.83C4765.89,4094.16 4506.91,4127.69 4448.85,4132.8C4428.99,4134.55 4431.9,4169.71 4449.12,4176.42C4526.48,4206.55 4631.29,4144.34 4831.86,4113.81C4836.54,4113.09 4839.94,4109.03 4839.77,4104.36C4839.61,4099.68 4835.92,4095.87 4831.21,4095.48C4808.98,4093.66 4790.33,4092.14 4785.9,4091.78Z" style="fill:rgb(179,193,205);"/>
                        </g>
                        <g transform="matrix(1,0,0,1,-173.438,-21.2564)">
                            <path d="M1994.58,3357.42C1993.64,3357.32 1992.94,3356.51 1992.99,3355.58C1993.03,3354.64 1993.81,3353.91 1994.76,3353.9C2043.5,3353.58 2132.93,3353 2143.12,3352.94C2143.75,3352.93 2144.39,3352.98 2145.01,3353.08C2165.84,3356.45 2526.03,3414.73 2526.03,3414.73C2547.62,3432.02 2531.94,3421.37 2379.18,3407.46C2378.73,3407.42 2378.29,3407.37 2377.86,3407.3C2261.19,3389.44 2135.2,3372.62 1994.58,3357.42Z" style="fill:rgb(178,194,207);"/>
                        </g>
                    </g>
                    <g id="Layer3">
                        <g transform="matrix(1,0,0,1,-15.0912,0)">
                            <path d="M2126.49,3187.93C2133.16,3185.31 2143.49,3186.43 2148.57,3183.32C2176.78,3166.01 2182.38,3140.55 2249.93,3155.12C2329.62,3172.3 2323.53,3159.41 2331.03,3159.41C2338.53,3159.41 2362.9,3151.44 2365.71,3164.1C2368.53,3176.76 2353.99,3187.07 2344.15,3191.29C2334.31,3195.51 2306.65,3193.63 2317.9,3199.72C2329.15,3205.82 2362.18,3203.94 2372.96,3212.85C2383.74,3221.76 2347.9,3323.71 2314.62,3315.74C2281.34,3307.77 2200.05,3287.13 2169.31,3273.79C2144.46,3263.01 2139.15,3265.78 2119.62,3271.91C2095.4,3279.52 2090.95,3197.03 2126.49,3187.93" style="fill:rgb(228,232,240);"/>
                        </g>
                        <g transform="matrix(1,0,0,1,-15.0912,0)">
                            <path d="M2183.72,3206.76C2215.3,3218.7 2232.58,3223.05 2257.08,3216.21C2295.26,3205.54 2250.75,3165.42 2278.78,3193.45C2291.02,3205.69 2291.12,3202.87 2302.72,3201.16C2311.02,3199.94 2308.78,3182.49 2310.77,3182.35C2313.03,3182.18 2317.07,3191.78 2319.15,3191.52C2370.52,3185.07 2363.58,3154.52 2365.71,3164.1C2368.53,3176.76 2353.99,3187.07 2344.15,3191.29C2334.31,3195.51 2306.65,3193.63 2317.9,3199.72C2329.15,3205.82 2371.47,3210.29 2368.94,3210.07C2355.26,3208.89 2341,3207.96 2326.63,3207.62C2313.81,3207.31 2300.91,3227.51 2288.25,3227C2283.03,3226.79 2270.75,3250.39 2265.69,3249.98C2255.49,3249.15 2306.51,3218.4 2243.18,3234.2C2226.44,3238.38 2225.57,3229.99 2183.72,3206.76Z" style="fill:rgb(178,194,207);"/>
                        </g>
                        <g transform="matrix(1,0,0,1,-15.0912,0)">
                            <path d="M2126.49,3187.93C2133.16,3185.31 2142.72,3184.42 2148.57,3183.32C2195.53,3174.44 2087.27,3215.15 2165.76,3234.2C2218.57,3247.01 2206.23,3279.15 2247.44,3276.92C2269.37,3275.73 2290.59,3312.52 2303.27,3305.08C2340.85,3283.02 2311.89,3311.41 2278.61,3303.44C2245.33,3295.47 2200.05,3287.13 2169.31,3273.79C2144.46,3263.01 2139.15,3265.78 2119.62,3271.91C2095.4,3279.52 2090.95,3197.03 2126.49,3187.93" style="fill:rgb(178,194,207);"/>
                        </g>
                    </g>
                    <g id="mana">
                        <path d="M1447.53,3199.83C1468.62,3205.69 1481.54,3202.76 1491.19,3196.9C1500.85,3191.04 1537.68,3176.98 1566.98,3172.29C1602.72,3175.22 1606.32,3193.97 1639.71,3200.42C1664.5,3205.2 1667.98,3220.93 1645.06,3225.61C1622.14,3230.3 1616.28,3226.2 1572.92,3224.44C1529.56,3222.68 1426.43,3193.97 1447.53,3199.83Z" style="fill:rgb(228,232,240);"/>
                        <path d="M1575.33,3215.94C1565.66,3213.42 1558.88,3208.67 1542.09,3209.77C1517.76,3211.38 1513.31,3200.77 1565.76,3200.04C1596.15,3215.02 1606.32,3193.97 1639.71,3200.42C1664.5,3205.2 1667.98,3220.93 1645.06,3225.61C1622.14,3230.3 1617.32,3226.89 1575.33,3215.94Z" style="fill:rgb(178,194,207);"/>
                        <path id="card" d="M1573.5,3227.78C1595.99,3214.15 1674.04,3166.07 1689.49,3156.55C1691.14,3155.54 1693.21,3155.47 1694.92,3156.38C1707.11,3162.85 1756.21,3188.91 1775.96,3199.39C1777.67,3200.3 1778.76,3202.04 1778.82,3203.96C1778.87,3205.87 1777.89,3207.67 1776.25,3208.68C1749.27,3225.16 1663.35,3277.65 1663.35,3277.65C1663.35,3277.65 1549.23,3242.5 1573.5,3227.78Z" style="fill:rgb(214,14,74);"/>
                        <path id="card1" serif:id="card" d="M1577.86,3230.8C1600.31,3217.18 1675.16,3170.87 1690.18,3161.57C1691.82,3160.56 1693.88,3160.48 1695.58,3161.36C1707.52,3167.55 1755.03,3192.18 1774.67,3202.36C1776.41,3203.26 1777.52,3205.02 1777.57,3206.96C1777.63,3208.9 1776.62,3210.72 1774.93,3211.71C1747.78,3227.76 1663.35,3277.65 1663.35,3277.65C1663.35,3277.65 1553.58,3245.52 1577.86,3230.8Z" style="fill:rgb(124,11,51);"/>
                        <path id="card2" serif:id="card" d="M1632.1,3260.26C1654.66,3246.58 1734.64,3201.09 1750,3192.36C1751.6,3191.45 1753.55,3191.4 1755.19,3192.24C1759.83,3194.6 1769.01,3199.27 1769.01,3199.27L1647.82,3265.68C1647.82,3265.68 1607.82,3274.98 1632.1,3260.26Z" style="fill:rgb(42,56,71);"/>
                        <g transform="matrix(0.853226,-0.521541,0.521541,0.853226,-1409.01,1330.7)">
                            <path d="M1686.97,3190.14C1686.4,3189.24 1685.43,3188.69 1684.38,3188.66C1680.76,3188.57 1672.09,3188.36 1666.27,3188.21C1665.13,3188.18 1664.08,3188.78 1663.52,3189.76C1662.96,3190.74 1662.99,3191.95 1663.59,3192.92C1666.73,3197.94 1671.45,3205.49 1673.43,3208.65C1674,3209.57 1675.01,3210.13 1676.09,3210.13C1679.73,3210.15 1688.28,3210.17 1694.01,3210.19C1695.14,3210.2 1696.17,3209.59 1696.71,3208.61C1697.26,3207.63 1697.22,3206.43 1696.62,3205.47C1693.53,3200.57 1688.9,3193.21 1686.97,3190.14Z" style="fill:rgb(178,194,207);"/>
                        </g>
                        <g transform="matrix(-0.627096,-6.96216e-17,-6.96216e-17,0.627096,5165.96,805.49)">
                            <path d="M5658.71,4043.49C5648.29,4084.12 5499.33,4101.82 5550.38,4118.49C5588.99,4131.1 5695.17,4090.37 5789.96,4087.24C5872.78,4084.51 5918.08,4055.99 5851.42,4048.7C5784.75,4041.41 5667.49,4009.23 5658.71,4043.49Z" style="fill:rgb(179,193,205);"/>
                        </g>
                        <path d="M1480.14,3205.2C1473.5,3203.64 1448.11,3206.38 1439.13,3231.77C1430.14,3257.16 1433.12,3304.03 1444.71,3309.11C1456.32,3314.19 1452.8,3310.28 1465.3,3313.02C1477.8,3315.75 1534.38,3348.17 1552.57,3355.59C1570.77,3363.02 1580.92,3360.47 1594.21,3351.2C1607.49,3341.92 1632.1,3317.68 1639.13,3308.32C1646.16,3298.95 1664.52,3292.7 1675.07,3286.45C1685.61,3280.2 1698.11,3273.95 1709.83,3262.63C1721.55,3251.3 1737.08,3254.72 1743.03,3245.44C1752.8,3230.2 1741.86,3228.1 1728.58,3227.78C1715.3,3227.47 1696.16,3230.83 1684.44,3235.6C1672.72,3240.36 1663.74,3231.77 1650.07,3234.5C1636.39,3237.24 1619.99,3223.95 1592.25,3216.92C1564.52,3209.89 1545.77,3213.02 1543.82,3206.77C1541.86,3200.52 1533.27,3206.38 1515.69,3204.42C1498.11,3202.47 1486.78,3206.77 1480.14,3205.2Z" style="fill:rgb(228,232,240);"/>
                        <path d="M1485.56,3311.57C1468.73,3290.32 1448.71,3313.07 1457.51,3237.18C1459.5,3220.06 1473.6,3202.37 1465.02,3203.79C1456.39,3205.23 1442.48,3222.28 1439.13,3231.77C1430.14,3257.16 1433.12,3304.03 1444.71,3309.11C1456.32,3314.19 1452.8,3310.28 1465.3,3313.02C1477.8,3315.75 1534.38,3348.17 1552.57,3355.59C1570.77,3363.02 1580.92,3360.47 1594.21,3351.2C1607.49,3341.92 1632.1,3317.68 1639.13,3308.32C1646.16,3298.95 1664.52,3292.7 1675.07,3286.45C1685.61,3280.2 1698.11,3273.95 1709.83,3262.63C1721.55,3251.3 1692.14,3264.65 1680.42,3269.41C1676.46,3271.03 1647.19,3275.31 1628.61,3281.86C1597.26,3292.92 1564.04,3296.63 1564.55,3300.75C1566.75,3318.38 1644.61,3269.14 1622.94,3299.46C1616.69,3308.21 1596.09,3317.2 1576.44,3323.76C1572.3,3325.15 1568.74,3330.46 1575.02,3330.68C1581.72,3330.92 1608.58,3315.03 1612.81,3324.15C1618.79,3337.05 1579.75,3347.04 1570.12,3354.87C1542.38,3347.84 1496.4,3325.26 1485.56,3311.57Z" style="fill:rgb(178,194,207);"/>
                        <path d="M1583.15,3268.7C1568.61,3262.81 1561.15,3266.56 1568.52,3271.25C1575.88,3275.93 1603.64,3271.56 1616.03,3273.9C1628.41,3276.25 1631.76,3275.59 1643.48,3276.6C1655.2,3277.6 1665.58,3275.26 1656.54,3273.59C1647.5,3271.92 1631.09,3274.93 1623.73,3271.25C1616.36,3267.56 1590.23,3271.58 1583.15,3268.7Z" style="fill:rgb(178,194,207);"/>
                    </g>
                    <path d="M2089.85,3160.04C2060.47,3176.6 2011.17,3219.57 2038.06,3262.93C2043.9,3272.35 2059.98,3278.35 2069.45,3281.86C2105.12,3279.43 2131.46,3279.32 2131.11,3270.14C2116.57,3267.22 2099.24,3231.59 2113.84,3207.46C2127.24,3185.3 2135.71,3181.68 2140.79,3175.82C2124.35,3166.2 2113.75,3164.19 2089.85,3160.04Z" style="fill:rgb(246,247,250);"/>
                    <path d="M2102.91,3241.04C2138.2,3315.74 2030.77,3250.27 2038.06,3262.93C2043.9,3272.35 2059.98,3278.35 2069.45,3281.86C2105.12,3279.43 2131.46,3279.32 2131.11,3270.14C2116.57,3267.22 2101.85,3233.55 2116.45,3209.42C2129.86,3187.26 2135.71,3181.68 2140.79,3175.82C2124.35,3166.2 2098.58,3231.87 2102.91,3241.04Z" style="fill:rgb(230,231,239);"/>
                    <path d="M2327.69,2966.79L2313.39,2966.79L2241.2,3174.06L2255.5,3174.06L2327.69,2966.79Z" style="fill:rgb(246,247,250);fill-opacity:0.17;"/>
                    <g transform="matrix(1,0,0,1,-17.3437,0)">
                        <path d="M2319.69,2966.79L2313.39,2966.79L2241.2,3174.06L2247.5,3174.06L2319.69,2966.79Z" style="fill:rgb(246,247,250);fill-opacity:0.17;"/>
                    </g>
                    <g transform="matrix(-0.836968,0,0,0.827215,2646.36,1841.76)">
                        <path d="M459.099,1766.01C459.099,1766.01 442.059,1766.36 424.089,1773.01C402.958,1780.82 369.852,1796.52 355.72,1797.53C347.066,1798.14 345.616,1790.81 346.027,1785.21C347.951,1773.15 368.23,1767.84 373.351,1763.06C375.76,1760.82 366.586,1763.67 366.586,1763.67C366.586,1763.67 301.085,1782.8 285.711,1783.42C278.422,1783.71 255.179,1784.03 268.362,1765.74C278.812,1751.24 295.877,1748.95 311.273,1744.05C326.154,1739.31 333.648,1736.1 333.648,1736.1L262.038,1742.3C262.038,1742.3 245.273,1752.64 236.167,1751.93C228.965,1751.37 212.113,1741.52 239.379,1720.38C231.837,1716.37 226.517,1715.27 229.224,1705.35C233.495,1689.7 283.574,1660.27 350.035,1653.24C424.101,1645.4 429.462,1670.91 431.366,1707.9C433.27,1744.88 459.099,1766.01 459.099,1766.01Z" style="fill:rgb(228,232,240);"/>
                        <clipPath id="_clip2">
                            <path d="M459.099,1766.01C459.099,1766.01 442.059,1766.36 424.089,1773.01C402.958,1780.82 369.852,1796.52 355.72,1797.53C347.066,1798.14 345.616,1790.81 346.027,1785.21C347.951,1773.15 368.23,1767.84 373.351,1763.06C375.76,1760.82 366.586,1763.67 366.586,1763.67C366.586,1763.67 301.085,1782.8 285.711,1783.42C278.422,1783.71 255.179,1784.03 268.362,1765.74C278.812,1751.24 295.877,1748.95 311.273,1744.05C326.154,1739.31 333.648,1736.1 333.648,1736.1L262.038,1742.3C262.038,1742.3 245.273,1752.64 236.167,1751.93C228.965,1751.37 212.113,1741.52 239.379,1720.38C231.837,1716.37 226.517,1715.27 229.224,1705.35C233.495,1689.7 283.574,1660.27 350.035,1653.24C424.101,1645.4 429.462,1670.91 431.366,1707.9C433.27,1744.88 459.099,1766.01 459.099,1766.01Z"/>
                        </clipPath>
                        <g clip-path="url(#_clip2)">
                            <path d="M219.059,1699.99C219.059,1699.99 221.479,1707.59 240.175,1711.33C258.87,1715.06 324.468,1688.63 324.468,1688.63C343.05,1692 359.457,1687.16 378.04,1682.99C378.04,1682.99 383.699,1679.46 389.071,1666.88C389.941,1664.85 391.192,1664.01 394.016,1663.61C399.953,1662.78 382.321,1726.63 415.348,1758.91C418.685,1762.17 422.54,1765.11 426.988,1767.63C441.146,1771.01 472.036,1743.78 477.977,1736.36L517.747,1735.68L515.708,1751.65L364.443,1806.04C364.443,1806.04 340.493,1806.07 343.892,1791.12C347.292,1776.16 349.536,1783.89 349.536,1783.89C349.536,1783.89 349.59,1790.39 353.277,1792.17C361.637,1796.2 424.176,1776.78 419.85,1770.35L405.233,1750.63C393.613,1758.52 384.602,1761.34 372.441,1764.86C368.128,1766.11 362.05,1770.33 357.221,1770.88C345.85,1772.18 347.197,1771.91 338.459,1774.58C318.033,1780.82 293.743,1788.82 279.122,1797.88L257.027,1770.35C257.027,1770.35 267.565,1769.67 268.925,1771.37C270.284,1773.07 274.207,1780.5 283.541,1780.55C295.87,1780.61 361.166,1760.86 354.925,1757.36C356.798,1761.89 396.776,1755.41 399.047,1747.23C400.445,1742.19 388.219,1733.4 386.778,1730.18C386.136,1728.75 351.443,1743.12 337.358,1738.58C325.685,1734.82 275.397,1748.66 275.397,1748.66C275.397,1748.66 223.477,1764.58 216.254,1750.98C213.034,1744.92 228.924,1748.27 241.034,1746.53C256.092,1744.38 272.388,1732.46 272.388,1732.46C274.826,1733.09 274.562,1737.45 277.056,1737.34C297.757,1736.43 306.361,1737.53 328.795,1725.35C332.246,1730.62 383.75,1731.96 384.338,1716.97C384.799,1705.2 384.12,1690.65 384.12,1690.65C365.962,1694.68 346.876,1697.05 325.817,1695.87C325.817,1695.87 242.747,1725.89 230.782,1719.58C218.817,1713.27 219.059,1699.99 219.059,1699.99Z" style="fill:rgb(178,194,207);"/>
                        </g>
                    </g>
                    <g id="Layer4">
                        <g transform="matrix(3.367,0,0,4.04435,-5395.5,-9690)">
                            <path d="M2357.87,2978.12C2357.87,2973.65 2353.47,2970.03 2348.03,2970.03L2215.19,2970.03C2209.76,2970.03 2205.35,2973.65 2205.35,2978.12L2205.35,3165.96C2205.35,3170.43 2209.76,3174.06 2215.19,3174.06L2348.03,3174.06C2353.47,3174.06 2357.87,3170.43 2357.87,3165.96L2357.87,2978.12Z" style="fill:white;"/>
                        </g>
                        <g transform="matrix(-0.627096,0,0,0.627096,5118.28,832.398)">
                            <path d="M4105.94,2641.79L4065.89,2599.6L4065.89,2482.41L4105.94,2522.47L4105.94,2641.79Z" style="fill:rgb(126,18,52);"/>
                        </g>
                        <g transform="matrix(-1.07539,0,0,0.913768,7123.3,-127.857)">
                            <path d="M4612.76,3322.73C4612.76,3320.31 4611.07,3318.35 4609,3318.35L4407.46,3318.35C4405.38,3318.35 4403.7,3320.31 4403.7,3322.73L4403.7,3368.66C4403.7,3371.08 4405.38,3373.04 4407.46,3373.04L4609,3373.04C4611.07,3373.04 4612.76,3371.08 4612.76,3368.66L4612.76,3322.73Z" style="fill:rgb(52,69,88);fill-opacity:0.49;"/>
                        </g>
                        <g transform="matrix(-0.627096,0,0,0.5339,5023.67,1073.75)">
                            <path d="M4612.76,3322.73C4612.76,3320.31 4611.07,3318.35 4608.99,3318.35L4407.47,3318.35C4405.39,3318.35 4403.7,3320.31 4403.7,3322.73L4403.7,3368.66C4403.7,3371.08 4405.39,3373.04 4407.47,3373.04L4608.99,3373.04C4611.07,3373.04 4612.76,3371.08 4612.76,3368.66L4612.76,3322.73Z" style="fill:rgb(179,193,205);fill-opacity:0.66;"/>
                        </g>
                        <g transform="matrix(-1.60453,0,0,0.949602,9510.78,-184.723)">
                            <path d="M4612.76,3322.73C4612.76,3320.31 4611.59,3318.35 4610.14,3318.35L4406.32,3318.35C4404.87,3318.35 4403.7,3320.31 4403.7,3322.73L4403.7,3368.66C4403.7,3371.08 4404.87,3373.04 4406.32,3373.04L4610.14,3373.04C4611.59,3373.04 4612.76,3371.08 4612.76,3368.66L4612.76,3322.73Z" style="fill:rgb(52,69,88);fill-opacity:0.49;"/>
                        </g>
                        <g transform="matrix(-0.627096,0,0,0.538659,5085.27,1153.64)">
                            <path d="M4697.14,3528.82C4697.14,3518.73 4690.02,3510.54 4681.25,3510.54L4244.27,3510.54C4235.5,3510.54 4228.39,3518.73 4228.39,3528.82L4228.39,3614.13C4228.39,3624.22 4235.5,3632.41 4244.27,3632.41L4681.25,3632.41C4690.02,3632.41 4697.14,3624.22 4697.14,3614.13L4697.14,3528.82Z" style="fill:rgb(179,193,205);fill-opacity:0.66;"/>
                        </g>
                        <g transform="matrix(-0.158864,0,0,0.538659,3105.41,1153.64)">
                            <path d="M4546.74,3632.41C4574.4,3632.89 4839.8,3510.54 4635.15,3510.54L4290.37,3510.54C4256.16,3510.54 4228.39,3518.73 4228.39,3528.82L4228.39,3614.13C4228.39,3624.22 4256.16,3632.41 4290.37,3632.41L4546.74,3632.41Z" style="fill:rgb(230,231,239);fill-opacity:0.66;"/>
                        </g>
                        <g transform="matrix(-0.627096,0,0,0.627096,5203.41,830.346)">
                            <path d="M4450.34,3555.57L4475.73,3583.82L4451.21,3611.12" style="fill:none;stroke:rgb(52,69,88);stroke-width:14.74px;"/>
                        </g>
                        <g transform="matrix(-0.627096,0,0,0.627096,5188.61,830.346)">
                            <path d="M4450.34,3555.57L4475.73,3583.82L4451.21,3611.12" style="fill:none;stroke:rgb(52,69,88);stroke-width:14.74px;"/>
                        </g>
                        <g transform="matrix(1.42308,0,0,1.42308,-873.632,-1602.46)">
                            <path d="M2221.4,3125.53L2223.83,3133.01L2231.71,3133.01L2225.33,3137.64L2227.77,3145.13L2221.4,3140.51L2215.03,3145.13L2217.46,3137.64L2211.09,3133.01L2218.96,3133.01L2221.4,3125.53Z" style="fill:rgb(214,14,74);"/>
                        </g>
                        <g transform="matrix(1.42308,0,0,1.42308,-838.611,-1602.46)">
                            <path d="M2221.4,3125.53L2223.83,3133.01L2231.71,3133.01L2225.33,3137.64L2227.77,3145.13L2221.4,3140.51L2215.03,3145.13L2217.46,3137.64L2211.09,3133.01L2218.96,3133.01L2221.4,3125.53Z" style="fill:rgb(214,14,74);"/>
                        </g>
                        <g transform="matrix(1.42308,0,0,1.42308,-803.59,-1602.46)">
                            <path d="M2221.4,3125.53L2223.83,3133.01L2231.71,3133.01L2225.33,3137.64L2227.77,3145.13L2221.4,3140.51L2215.03,3145.13L2217.46,3137.64L2211.09,3133.01L2218.96,3133.01L2221.4,3125.53Z" style="fill:rgb(214,14,74);"/>
                        </g>
                        <g transform="matrix(1.42308,0,0,1.42308,-768.902,-1602.46)">
                            <path d="M2221.4,3125.53L2223.83,3133.01L2231.71,3133.01L2225.33,3137.64L2227.77,3145.13L2221.4,3140.51L2215.03,3145.13L2217.46,3137.64L2211.09,3133.01L2218.96,3133.01L2221.4,3125.53Z" style="fill:rgb(214,14,74);"/>
                        </g>
                        <g transform="matrix(-1.28013,0,0,7.02347,8057.8,-20944.3)">
                            <path d="M4612.76,3321.36C4612.76,3319.7 4605.27,3318.35 4596.03,3318.35L4420.42,3318.35C4411.19,3318.35 4403.7,3319.7 4403.7,3321.36L4403.7,3370.03C4403.7,3371.69 4411.19,3373.04 4420.42,3373.04L4596.03,3373.04C4605.27,3373.04 4612.76,3371.69 4612.76,3370.03L4612.76,3321.36Z" style="fill:rgb(52,69,88);fill-opacity:0.27;"/>
                        </g>
                        <g transform="matrix(1.42308,0,0,1.42308,-733.547,-1602.46)">
                            <path d="M2221.4,3125.53L2223.83,3133.01L2231.71,3133.01L2225.33,3137.64L2227.77,3145.13L2221.4,3140.51L2215.03,3145.13L2217.46,3137.64L2211.09,3133.01L2218.96,3133.01L2221.4,3125.53Z" style="fill:rgb(214,14,74);"/>
                        </g>
                        <g transform="matrix(-0.570245,0,0,0.678739,4862.05,710.469)">
                            <path d="M4065.89,2482.41L4388.1,2482.41C4396.72,2482.41 4403.7,2488.21 4403.7,2495.36C4403.7,2515.8 4403.7,2555.28 4403.7,2575.71C4403.7,2582.87 4396.72,2588.66 4388.1,2588.66C4321.7,2588.66 4065.89,2588.66 4065.89,2588.66L4065.89,2482.41Z" style="fill:rgb(208,214,222);fill-opacity:0.44;"/>
                        </g>
                        <g transform="matrix(-0.627096,0,0,0.678739,5118.9,704.198)">
                            <path d="M4065.89,2482.41L4389.52,2482.41C4397.35,2482.41 4403.7,2488.21 4403.7,2495.36C4403.7,2515.8 4403.7,2555.28 4403.7,2575.71C4403.7,2582.87 4397.35,2588.66 4389.52,2588.66C4325.42,2588.66 4065.89,2588.66 4065.89,2588.66L4065.89,2482.41Z" style="fill:rgb(216,29,77);"/>
                        </g>
                    </g>
                </g>
                <g id="Layer5">
                </g>
            </g>
        </g>
    </g>
</svg>
