<?xml version="1.0" encoding="UTF-8" standalone="no"?>
<!DOCTYPE svg PUBLIC "-//W3C//DTD SVG 1.1//EN" "http://www.w3.org/Graphics/SVG/1.1/DTD/svg11.dtd">
<svg width="100%" height="100%" viewBox="0 0 2673 1801" version="1.1" xmlns="http://www.w3.org/2000/svg" xmlns:xlink="http://www.w3.org/1999/xlink" xml:space="preserve" xmlns:serif="http://www.serif.com/" style="fill-rule:evenodd;clip-rule:evenodd;stroke-linecap:round;stroke-linejoin:round;stroke-miterlimit:1.5;">
    <g transform="matrix(1,0,0,1,-24.6791,-4489.48)">
        <g id="Layer1">
        </g>
        <g id="Layer2">
        </g>
        <g id="mentenanta_activa" transform="matrix(1.19649,0,0,1.2663,29.5125,2405.07)">
            <rect x="-4.04" y="1646.06" width="2233.66" height="1422.12" style="fill:none;"/>
            <g id="Full_layout" transform="matrix(0.842532,0,0,0.796084,88.3631,897.531)">
                <g id="Table-Side" serif:id="Table Side" transform="matrix(0.972222,0,0,1,56.968,0)">
                    <rect x="2050.85" y="2192.98" width="435.962" height="528.806" style="fill:rgb(226,233,240);"/>
                    <clipPath id="_clip1">
                        <rect x="2050.85" y="2192.98" width="435.962" height="528.806"/>
                    </clipPath>
                    <g clip-path="url(#_clip1)">
                        <g transform="matrix(1.02857,0,0,1,-58.5956,0)">
                            <path d="M2151.42,2193.06L2492.12,2193.06L2501.8,2339.99L2151.42,2193.06Z" style="fill:rgb(179,193,206);"/>
                        </g>
                        <g transform="matrix(0.778535,0,0,1,497.434,-38.7522)">
                            <rect x="1997.96" y="2223.51" width="142.091" height="566.751" style="fill:white;"/>
                        </g>
                    </g>
                </g>
                <g id="monitor">
                    <g transform="matrix(1,0,0,1.03504,24.2201,-21.8796)">
                        <path d="M1996.89,1146.58C1996.89,1138.56 1981.45,1114.51 1952.59,1114.51L954.531,1161.33C946.529,1161.33 940.031,1167.84 940.031,1175.86L866.031,1853.35C866.031,1861.37 881.571,1864.14 889.573,1864.14L1936.59,1857.86C1944.6,1857.86 1963.49,1852.15 1963.49,1828.95L1996.89,1146.58Z" style="fill:rgb(71,98,121);"/>
                    </g>
                    <g transform="matrix(1,0,0,0.997778,0,4.12858)">
                        <path d="M1993.09,1145.79C1993.09,1137.77 1986.6,1131.26 1978.59,1131.26L954.531,1161.33C946.529,1161.33 940.031,1167.84 940.031,1175.86L866.031,1853.35C866.031,1861.37 872.529,1867.88 880.531,1867.88L1936.59,1857.86C1944.6,1857.86 1951.09,1851.35 1951.09,1843.33L1993.09,1145.79Z" style="fill:white;"/>
                        <clipPath id="_clip2">
                            <path d="M1993.09,1145.79C1993.09,1137.77 1986.6,1131.26 1978.59,1131.26L954.531,1161.33C946.529,1161.33 940.031,1167.84 940.031,1175.86L866.031,1853.35C866.031,1861.37 872.529,1867.88 880.531,1867.88L1936.59,1857.86C1944.6,1857.86 1951.09,1851.35 1951.09,1843.33L1993.09,1145.79Z"/>
                        </clipPath>
                        <g clip-path="url(#_clip2)">
                            <g transform="matrix(0.999884,-0.0152806,0.0152127,0.999884,27.3536,-647.469)">
                                <path d="M1993.09,1145.79C1993.09,1137.77 1986.6,1131.26 1978.59,1131.26L954.531,1161.33C946.529,1161.33 940.031,1167.84 940.031,1175.86L866.031,1853.35C866.031,1861.37 872.529,1867.88 880.531,1867.88L1936.59,1857.86C1944.6,1857.86 1951.09,1851.35 1951.09,1843.33L1993.09,1145.79Z" style="fill:rgb(233,233,233);"/>
                            </g>
                        </g>
                    </g>
                    <path d="M1691.29,1899.56L1790.49,2062.22L1469.11,2055.4L1391.4,1900.84L1691.29,1899.56Z" style="fill:rgb(48,70,89);"/>
                    <g transform="matrix(1.07203,0,0,1.0465,-104.804,-96.3329)">
                        <path d="M1770.93,2058.54L1455.06,2053.25L1455.06,2131.55L1766.17,2131.03L1770.93,2058.54Z" style="fill:rgb(179,193,206);"/>
                    </g>
                    <path d="M1810.23,2059.71C1810.23,2059.71 1787.37,2056.33 1779.75,2058.87C1772.13,2061.41 1770.86,2071.14 1771.29,2075.8C1771.71,2080.45 1769.59,2133.79 1769.59,2133.79L1808.96,2133.79L1810.23,2059.71Z" style="fill:rgb(131,152,171);"/>
                    <path d="M1822.99,2087.71C1822.99,2087.71 1773.78,2082.95 1762.67,2098.82C1751.56,2114.69 1522.46,2112.05 1522.46,2112.05L1521.93,2135.86L1825.63,2132.68L1825.1,2091.41C1825.1,2091.41 1825.69,2089.01 1822.99,2087.71Z" style="fill:rgb(48,70,89);stroke:black;stroke-width:0.99px;"/>
                    <path d="M1823.17,2117.37L1779.01,2117.92C1779.01,2117.92 1774.12,2117.48 1774.35,2125.58C1774.57,2133.68 1774.68,2133.35 1774.68,2133.35L1824.06,2133.57C1824.06,2133.57 1828.94,2133.9 1829.05,2132.79C1829.16,2131.68 1831.16,2118.59 1823.17,2117.37Z" style="fill:rgb(226,233,240);"/>
                </g>
                <path id="hand" d="M1265.46,2010.49L1573.6,2070.19C1573.6,2070.19 1614.03,2047.67 1677.54,2067.48C1691.81,2066.83 1696.04,2068.01 1696.04,2068.01L1756.55,2119.32C1756.55,2119.32 1759.18,2129.91 1749.88,2129.2C1740.57,2128.5 1741.8,2129.56 1740.53,2128.83C1739.26,2128.1 1718.95,2115.73 1715.1,2115.05C1711.25,2114.36 1689.5,2112.62 1686.55,2114.55C1683.59,2116.47 1653.34,2129.21 1647.77,2129.67C1642.2,2130.14 1629.48,2131.79 1629.55,2131.8C1629.62,2131.81 1605.02,2134.08 1591.64,2129.37C1578.27,2124.65 1549.92,2135.26 1548.58,2134.52C1547.24,2133.79 1206.54,2147.53 1198.17,2145.17C1153.72,2111.06 1136.98,2073.69 1136.98,2073.69L1265.46,2010.49Z" style="fill:rgb(226,233,240);"/>
                <path id="elbow" d="M306.637,1949.68L235.511,2056.6C235.511,2056.6 212.379,2081.05 231.679,2110.03C250.979,2139.01 289.631,2163.21 289.631,2163.21L405.731,2148.46C381.02,2114.53 365.805,2079.32 405.11,2036.83" style="fill:rgb(226,233,240);"/>
                <g transform="matrix(1,0,0,0.94964,0,110.26)">
                    <g id="Table-Back" serif:id="Table Back">
                        <rect x="-38.742" y="2189.44" width="2131.37" height="561.098" style="fill:rgb(179,193,206);stroke:rgb(179,193,206);stroke-width:1.02px;"/>
                    </g>
                </g>
                <g transform="matrix(2.60977,0,0,2.60977,-1096.86,1670.96)">
                    <path d="M445.53,182.693C468.543,182.693 487.2,184.97 487.2,187.778C487.2,190.588 468.543,192.865 445.53,192.865C422.515,192.865 403.859,190.588 403.859,187.778C403.859,184.97 422.515,182.693 445.53,182.693" style="fill:rgb(179,194,207);fill-rule:nonzero;"/>
                    <path d="M440.942,58.987C440.716,58.037 440.125,57.218 439.292,56.707C438.464,56.196 437.463,56.041 436.516,56.271L436.513,56.275C434.431,56.781 433.146,58.875 433.64,60.964C436.736,74.085 450.912,134.026 450.912,134.026L458.275,132.284L440.942,58.987Z" style="fill:rgb(214,15,74);fill-rule:nonzero;"/>
                    <path d="M433.109,62.032C433.04,61.739 432.857,61.486 432.599,61.325C432.345,61.169 432.036,61.117 431.744,61.186C431.451,61.255 431.198,61.44 431.037,61.696C430.881,61.953 430.829,62.261 430.899,62.554C431.958,67.034 435.935,83.847 436.995,88.33C437.064,88.623 437.249,88.875 437.503,89.033C437.76,89.189 438.069,89.241 438.362,89.172C438.656,89.103 438.907,88.918 439.065,88.664C439.226,88.408 439.274,88.101 439.205,87.807C438.145,83.324 434.168,66.511 433.109,62.032Z" style="fill:rgb(125,10,51);fill-rule:nonzero;"/>
                    <path d="M432.827,62.486L433.932,62.225L435.674,69.589L434.569,69.85L432.827,62.486Z" style="fill:rgb(125,10,51);fill-rule:nonzero;"/>
                    <path d="M485.126,60.166C485.328,59.209 485.901,58.377 486.721,57.847C487.537,57.316 488.533,57.137 489.485,57.345L489.488,57.348C491.582,57.805 492.917,59.868 492.473,61.968C489.691,75.158 476.949,135.42 476.949,135.42L469.546,133.855L485.126,60.166Z" style="fill:rgb(214,15,74);fill-rule:nonzero;"/>
                    <path d="M493.029,63.022C493.092,62.727 493.268,62.47 493.522,62.305C493.772,62.142 494.08,62.082 494.375,62.144C494.669,62.207 494.926,62.385 495.092,62.636C495.255,62.89 495.313,63.198 495.252,63.492C494.299,67.996 490.725,84.898 489.772,89.406C489.71,89.7 489.532,89.957 489.28,90.12C489.027,90.283 488.72,90.342 488.425,90.279C488.13,90.218 487.873,90.039 487.71,89.788C487.545,89.537 487.487,89.231 487.55,88.936C488.503,84.429 492.077,67.525 493.029,63.022Z" style="fill:rgb(125,10,51);fill-rule:nonzero;"/>
                    <path d="M493.321,63.47L492.21,63.235L490.645,70.639L491.755,70.874L493.321,63.47Z" style="fill:rgb(125,10,51);fill-rule:nonzero;"/>
                    <path d="M467.509,66.313C467.516,65.336 467.135,64.401 466.447,63.708C465.764,63.015 464.827,62.628 463.853,62.628L463.849,62.631C461.707,62.629 459.962,64.361 459.948,66.507C459.854,79.988 459.453,141.581 459.453,141.581L467.019,141.63L467.509,66.313Z" style="fill:rgb(46,69,89);fill-rule:nonzero;"/>
                    <g transform="matrix(1,0,0,1,1.90051,0)">
                        <path d="M463.742,63.724C463.745,63.414 463.594,63.125 463.341,62.951C463.087,62.773 462.762,62.736 462.474,62.846C462.101,62.99 461.853,63.348 461.85,63.748C461.801,71.413 461.343,141.592 461.343,141.592L463.235,141.605L463.742,63.724Z" style="fill:rgb(41,59,71);fill-rule:nonzero;"/>
                    </g>
                    <path d="M459.18,67.418C459.181,67.117 459.065,66.828 458.852,66.612C458.642,66.399 458.355,66.276 458.054,66.274C457.752,66.272 457.463,66.392 457.246,66.602C457.034,66.815 456.91,67.103 456.909,67.404C456.879,72.007 456.765,89.283 456.735,93.89C456.734,94.191 456.854,94.48 457.064,94.693C457.277,94.906 457.565,95.029 457.866,95.031C458.167,95.033 458.455,94.913 458.669,94.703C458.884,94.493 459.005,94.205 459.007,93.904C459.037,89.298 459.15,72.022 459.18,67.418Z" style="fill:rgb(46,69,89);fill-rule:nonzero;"/>
                    <path d="M458.799,67.794L459.934,67.802L459.884,75.368L458.75,75.362L458.799,67.794Z" style="fill:rgb(46,69,89);fill-rule:nonzero;"/>
                    <path d="M483.106,50.039C481.439,48.242 479.566,47.989 477.481,49.277L466.578,129.895L472.205,130.655L483.106,50.039Z" style="fill:rgb(41,59,71);fill-rule:nonzero;"/>
                    <path d="M483.106,50.039C481.439,48.242 479.566,47.989 477.481,49.277L475.466,64.18C477.61,63.26 479.497,63.464 481.092,64.94L483.106,50.039Z" style="fill:rgb(166,171,181);fill-rule:nonzero;"/>
                    <g transform="matrix(1,0,0,1,1.52041,0.380103)">
                        <path d="M480.448,48.534C479.965,48.324 479.342,48.466 478.71,48.682L476.656,63.865C477.279,63.736 477.624,63.595 478.394,63.719L480.448,48.534Z" style="fill:rgb(89,110,130);fill-rule:nonzero;"/>
                    </g>
                    <path d="M505.113,62.681C503.735,60.654 501.921,60.122 499.666,61.084L476.776,139.147L482.224,140.745L505.113,62.681Z" style="fill:rgb(41,59,71);fill-rule:nonzero;"/>
                    <path d="M505.113,62.681C503.735,60.654 501.921,60.122 499.666,61.084L495.435,75.513C497.693,74.927 499.527,75.411 500.882,77.11L505.113,62.681Z" style="fill:rgb(166,171,181);fill-rule:nonzero;"/>
                    <g transform="matrix(1,0,0,1,1.52041,0.760205)">
                        <path d="M502.71,60.795C502.264,60.513 501.628,60.56 500.97,60.677L496.659,75.381C497.294,75.347 497.656,75.26 498.398,75.497L502.71,60.795Z" style="fill:rgb(89,110,130);fill-rule:nonzero;"/>
                    </g>
                    <path d="M444.466,39.687C446.161,37.915 448.037,37.69 450.102,39.009L459.815,119.778L454.178,120.456L444.466,39.687Z" style="fill:rgb(41,59,71);fill-rule:nonzero;"/>
                    <path d="M444.466,39.687C446.161,37.915 448.037,37.69 450.103,39.009L451.898,53.94C449.767,52.99 447.878,53.164 446.261,54.618L444.466,39.687Z" style="fill:rgb(166,171,181);fill-rule:nonzero;"/>
                    <path d="M447.148,38.223C447.633,38.02 448.254,38.171 448.883,38.395L450.713,53.608C450.091,53.469 449.748,53.323 448.977,53.436L447.148,38.223Z" style="fill:rgb(89,110,130);fill-rule:nonzero;"/>
                    <path d="M493.762,109.269C493.762,108.609 493.451,107.994 492.926,107.597C492.4,107.205 491.719,107.082 491.09,107.265C476.809,108.099 461.582,107.528 445.293,107.183C444.907,107.079 444.504,107.089 444.131,107.205C443.9,107.277 443.68,107.39 443.483,107.541C442.97,107.934 442.669,108.548 442.669,109.196C442.665,121.885 442.665,174.622 442.665,184.358C442.665,185.283 443.274,186.096 444.162,186.36C459.506,190.816 475.537,190.715 492.211,186.326C493.124,186.085 493.759,185.258 493.759,184.312C493.762,174.48 493.762,122.065 493.762,109.269" style="fill:rgb(226,233,240);fill-rule:nonzero;"/>
                    <g transform="matrix(1,0,0,1,30.6541,0)">
                        <path d="M449.838,109.515C449.517,109.515 449.2,109.62 448.941,109.818C448.573,110.099 448.358,110.532 448.358,110.994L448.358,187.461C453.332,188.629 458.378,189.328 463.492,189.567L463.492,112.743C463.492,111.935 462.844,111.276 462.037,111.263C457.962,111.173 454.002,110.574 450.226,109.567C450.099,109.532 449.968,109.515 449.838,109.515" style="fill:rgb(43,64,82);fill-opacity:0.28;fill-rule:nonzero;"/>
                    </g>
                </g>
                <g id="Table-Top" serif:id="Table Top" transform="matrix(1.02376,0,0,1,-58.8725,-1)">
                    <path d="M18.375,2205.09L15.344,2187.71L14.338,2134.45L2356.39,2130.73L2355.98,2122.99L2477.05,2131.07L2477.87,2194.03L18.375,2205.09L2052.83,2195.06" style="fill:white;"/>
                    <clipPath id="_clip3">
                        <path d="M18.375,2205.09L15.344,2187.71L14.338,2134.45L2356.39,2130.73L2355.98,2122.99L2477.05,2131.07L2477.87,2194.03L18.375,2205.09L2052.83,2195.06"/>
                    </clipPath>
                    <g clip-path="url(#_clip3)">
                        <g transform="matrix(1,0,0,1,0,1)">
                            <rect x="2182.35" y="2123.12" width="306.215" height="82.671" style="fill:rgb(169,185,200);"/>
                        </g>
                    </g>
                </g>
                <g id="books">
                    <path d="M2021.41,1640.59L2250.82,1643.69L2158.85,2029.14L1910.83,2031.21L2021.41,1640.59Z" style="fill:rgb(215,27,84);"/>
                    <g transform="matrix(1,0,0,1,0,8)">
                        <path d="M2268.27,1690.45L2285.95,1699.49L2203.28,2027.08L2168.15,2022.94L2257.02,1678.82L2268.27,1690.45Z" style="fill:white;stroke:white;stroke-width:0.99px;"/>
                    </g>
                    <path d="M2250.82,1643.69L2273.55,1668.49L2185.72,2033.28L2147.48,2035.34L2250.82,1643.69Z" style="fill:rgb(152,169,198);"/>
                    <path d="M2285.54,1692.46L2307.04,1708.38L2235.32,2042.58L2203.28,2042.58L2285.54,1692.46Z" style="fill:rgb(152,169,198);"/>
                    <path d="M1833.62,2133.12L1832.56,2030.48L2137.32,2031L2357.43,2032.59L2354.25,2128.89L2138.91,2132.06L1833.62,2133.12Z" style="fill:rgb(131,152,171);"/>
                    <clipPath id="_clip4">
                        <path d="M1833.62,2133.12L1832.56,2030.48L2137.32,2031L2357.43,2032.59L2354.25,2128.89L2138.91,2132.06L1833.62,2133.12Z"/>
                    </clipPath>
                    <g clip-path="url(#_clip4)">
                        <rect x="1823.63" y="2024.48" width="317.458" height="128.967" style="fill:white;fill-opacity:0.35;"/>
                    </g>
                    <rect x="1958.38" y="2069.94" width="43.816" height="28.108" style="fill:white;fill-opacity:0.35;"/>
                </g>
                <path id="face" d="M972.747,1554.69C972.747,1554.69 982.254,1508.52 992.558,1490.6C1002.86,1472.67 1071.42,1449.19 1054.18,1315.21C1052.95,1300.91 1074.03,1289 1074.03,1289C1074.03,1289 1082.41,1182.56 1010.3,1148.12C938.194,1113.67 805.084,1537.86 805.084,1537.86L972.747,1554.69Z" style="fill:rgb(226,233,240);"/>
                <path id="hair" d="M967.137,1409.35C967.137,1409.35 901.024,1499.85 835.175,1421.29C810.835,1392.26 793.091,1341.3 780.177,1308.53C758.663,1253.94 751.113,1214.95 771.409,1179.82C780.343,1164.35 810.162,1150.84 817.333,1160.24C809.045,1153.12 848.468,1101.4 886.32,1112.42C908.318,1118.83 975.69,1060.84 1019.37,1067.35C1128.33,1083.58 1116.89,1241.64 1065.46,1230.29C1065.46,1230.29 1069.75,1247.45 1060.74,1258.29C1051.74,1269.12 1042.18,1270.51 1043.02,1291.51C1043.85,1312.51 998.182,1316.28 1007.56,1378.84C1016.94,1441.4 1043.32,1455.73 1019.46,1490.33C995.592,1524.93 966.204,1458.63 977.642,1407.15C989.08,1355.68 992.559,1342.41 996.052,1326.68C1002.29,1298.57 974.225,1287.06 972.702,1332.77C971.274,1375.67 967.137,1409.35 967.137,1409.35Z" style="fill:rgb(48,70,89);stroke:black;stroke-width:0.99px;"/>
                <path id="pants" d="M1205.15,2357.07L1652.4,2490.26C1652.4,2490.26 1770.88,2527.19 1755.61,2581.45C1747.05,2575.05 1744.86,2572.34 1733.97,2569.6C1766.62,2585.83 1763.38,2632.14 1759.3,2642.48L1661.43,2642.3L1752.62,2650.29C1728.87,2670.76 1705.41,2691.32 1694.12,2715.97L1494.64,2715.75C1508.79,2705.49 1521.34,2693.24 1532.99,2679.88L1534.26,2657.67C1560.12,2657.11 1579.27,2655.12 1599.09,2653.31C1588.67,2652 1565.05,2645.54 1457.51,2654.08C1386.26,2659.74 1298.14,2682.17 1211.85,2689.14C1049.68,2702.23 895.524,2697.25 882.781,2680.7C846.757,2633.91 1226.47,2398.23 1205.15,2357.07Z" style="fill:rgb(41,57,71);"/>
                <path id="blouse" d="M437.899,2059.34C437.899,2059.34 456.233,2029.43 476.033,2000.31C486.742,1984.55 490.932,1965.91 508.683,1959.43C531.862,1950.98 544.6,1936.45 563.56,1917.98C540.412,2039.5 528.838,2123 561.907,2174.26C594.975,2225.51 1009.16,2623.16 1009.16,2623.16C1009.16,2623.16 1245.17,2581.33 1224.93,2367.71C1217.49,2289.17 1172.85,2250.31 1172.85,2250.31C1128.48,2202.32 1103.12,2142.35 1118.29,2056.86L1145.57,2089.93C1145.57,2089.93 1251.35,2061.03 1330.75,1981.63C1345.88,1966.51 1315.18,1965.95 1303.72,1947.89C1294.4,1933.21 1289.93,1913.92 1267.98,1910.69C1252.36,1908.39 1255.44,1894.67 1248.89,1882.03C1239.09,1863.13 1216.66,1847.7 1216.66,1847.7C1191.54,1822.58 1193.38,1777.07 1180.3,1739.72C1160.63,1683.57 1137.34,1623.23 1118.29,1612.09C958.049,1518.37 798.967,1506.52 716.502,1545.95C691.075,1558.11 648.224,1572.81 608.088,1599.93C562.01,1631.08 518.434,1676.72 490.809,1722.04C471.935,1751.93 447.845,1771.78 417.232,1779.09C377.463,1806.1 369.322,1833.84 368.455,1861.76C363.91,1870.82 355.347,1874.13 344.481,1874.16C343.117,1879.67 343.208,1885.18 343.654,1890.69C320.393,1901.98 302.419,1916.15 289.091,1932.86C331.068,1987.13 380.571,2029.45 437.899,2059.34Z" style="fill:rgb(131,152,171);"/>
                <clipPath id="_clip5">
                    <path id="blouse1" serif:id="blouse" d="M437.899,2059.34C437.899,2059.34 456.233,2029.43 476.033,2000.31C486.742,1984.55 490.932,1965.91 508.683,1959.43C531.862,1950.98 544.6,1936.45 563.56,1917.98C540.412,2039.5 528.838,2123 561.907,2174.26C594.975,2225.51 1009.16,2623.16 1009.16,2623.16C1009.16,2623.16 1245.17,2581.33 1224.93,2367.71C1217.49,2289.17 1172.85,2250.31 1172.85,2250.31C1128.48,2202.32 1103.12,2142.35 1118.29,2056.86L1145.57,2089.93C1145.57,2089.93 1251.35,2061.03 1330.75,1981.63C1345.88,1966.51 1315.18,1965.95 1303.72,1947.89C1294.4,1933.21 1289.93,1913.92 1267.98,1910.69C1252.36,1908.39 1255.44,1894.67 1248.89,1882.03C1239.09,1863.13 1216.66,1847.7 1216.66,1847.7C1191.54,1822.58 1193.38,1777.07 1180.3,1739.72C1160.63,1683.57 1137.34,1623.23 1118.29,1612.09C958.049,1518.37 798.967,1506.52 716.502,1545.95C691.075,1558.11 648.224,1572.81 608.088,1599.93C562.01,1631.08 518.434,1676.72 490.809,1722.04C471.935,1751.93 447.845,1771.78 417.232,1779.09C377.463,1806.1 369.322,1833.84 368.455,1861.76C363.91,1870.82 355.347,1874.13 344.481,1874.16C343.117,1879.67 343.208,1885.18 343.654,1890.69C320.393,1901.98 302.419,1916.15 289.091,1932.86C331.068,1987.13 380.571,2029.45 437.899,2059.34Z"/>
                </clipPath>
                <g clip-path="url(#_clip5)">
                    <path d="M1173.32,1711.35C1173.32,1711.35 1106.93,1937.92 1168.73,1990.31C1230.54,2042.69 1148.5,2007.12 1137.91,2016.33C1127.32,2025.53 1185.87,2029.63 1185.87,2029.63C1185.87,2029.63 1173.69,2073.53 1131.28,2075.53C1088.88,2077.54 1132.6,2092.2 1132.6,2092.2C1132.6,2092.2 1172.36,2128.13 1230.59,2077.51C1288.83,2026.88 1361.28,1986.37 1360.14,1978.83C1359.02,1971.29 1173.32,1711.35 1173.32,1711.35Z" style="fill:rgb(48,70,89);fill-opacity:0.28;"/>
                    <path d="M933.481,1751.76C933.481,1751.76 1042.04,2114.73 1059.75,2138.49C1087.79,2176.08 1128.98,2191.39 1121.62,2071.54C1114.25,1951.69 933.481,1751.76 933.481,1751.76Z" style="fill:rgb(48,70,89);fill-opacity:0.28;"/>
                    <path d="M750.215,2049.72C750.215,2049.72 866.434,2094.31 931.493,2194.99C996.552,2295.67 1099.97,2250.69 1099.97,2250.69C1099.97,2250.69 1144.01,2237.2 1165.36,2251.95C1113.84,2265.75 1094.5,2293.4 1094.5,2293.4L974.205,2318.97L1145.5,2287.03C1145.5,2287.03 1251.74,2237.27 1157.31,2426.25C1062.88,2615.23 1197.31,2351.97 1203.43,2347.43C1209.55,2342.89 1213.02,2340.64 1213.02,2340.64C1217.63,2393.18 1201.23,2532.91 1201.23,2532.91C1137.82,2610.19 1062.7,2646.53 972.372,2629.62L750.215,2049.72Z" style="fill:rgb(48,70,89);fill-opacity:0.28;"/>
                    <path d="M554.599,1730.24C554.599,1730.24 538.111,1930.46 536.462,1930.35C534.813,1930.23 502.032,1948.66 463.271,1945.95C426.812,1945.88 453.715,1975.94 454.517,2000.03C455.319,2024.12 406.108,2004.93 377.469,2035.25C348.829,2065.57 425.122,2076.71 425.122,2076.71L575.436,1918.16L605.886,1719.73C605.886,1719.73 576.035,1767.37 577.644,1779.91C568.924,1738.69 554.599,1730.24 554.599,1730.24Z" style="fill:rgb(48,70,89);fill-opacity:0.28;"/>
                </g>
                <g id="clotheshighlights">
                    <path d="M1032.99,1890.75C1037.02,1723.22 1061.24,1686.89 1113.72,1638.45" style="fill:none;stroke:rgb(108,129,148);stroke-width:3.78px;"/>
                    <path d="M1063.26,1820.1C1063.26,1820.1 1041.06,1862.49 1047.11,1904.87" style="fill:none;stroke:rgb(108,129,148);stroke-width:3.78px;"/>
                    <g transform="matrix(0.986108,0.166103,-0.166103,0.986108,350.186,-180.628)">
                        <path d="M1261.17,1949.89C1261.17,1949.89 1224.84,1976.13 1204.66,2004.39" style="fill:none;stroke:rgb(48,70,89);stroke-opacity:0.56;stroke-width:3.78px;"/>
                    </g>
                    <g transform="matrix(-0.0511614,-0.99869,0.99869,-0.0511614,-1518.91,3275.1)">
                        <path d="M1261.17,1949.89C1261.17,1949.89 1224.84,1976.13 1204.66,2004.39" style="fill:none;stroke:rgb(48,70,89);stroke-opacity:0.56;stroke-width:3.78px;"/>
                    </g>
                    <g transform="matrix(0.762146,0.128378,-0.133349,0.791652,581.918,269.78)">
                        <path d="M1261.17,1949.89C1261.17,1949.89 1224.84,1976.13 1204.66,2004.39" style="fill:none;stroke:rgb(48,70,89);stroke-opacity:0.56;stroke-width:2.62px;"/>
                    </g>
                    <g transform="matrix(-0.0395417,-0.77187,0.801753,-0.0410726,-1129.3,2951.42)">
                        <path d="M1261.17,1949.89C1261.17,1949.89 1224.84,1976.13 1204.66,2004.39" style="fill:none;stroke:rgb(48,70,89);stroke-opacity:0.56;stroke-width:2.62px;"/>
                    </g>
                    <g transform="matrix(0.519414,0.0874918,-0.0887745,0.527029,790.443,827.703)">
                        <path d="M1261.17,1949.89C1261.17,1949.89 1224.84,1976.13 1204.66,2004.39" style="fill:none;stroke:rgb(48,70,89);stroke-opacity:0.56;stroke-width:14.73px;"/>
                    </g>
                    <g transform="matrix(-0.0269483,-0.526041,0.533753,-0.0273434,-629.702,2627.13)">
                        <path d="M1261.17,1949.89C1261.17,1949.89 1224.84,1976.13 1204.66,2004.39" style="fill:none;stroke:rgb(48,70,89);stroke-opacity:0.56;stroke-width:14.73px;"/>
                    </g>
                    <g transform="matrix(0.99781,-0.066152,0.066152,0.99781,-155.153,113.182)">
                        <path d="M1495.51,2625.17C1495.52,2624.14 1535.37,2619.39 1573.75,2617.77C1606.81,2609.95 1642.47,2608.74 1655.41,2609.56C1609.07,2620.25 1570.21,2625.07 1570.21,2625.07C1550.59,2621.02 1524.07,2622.3 1495.51,2625.17Z" style="fill:rgb(179,193,206);"/>
                    </g>
                </g>
                <g id="chair" transform="matrix(1,0,0,1,0,1)">
                    <path d="M408.824,2034.29L370.2,2034.82C370.2,2034.82 275.805,2032.33 320.464,2136.93C340.57,2184.02 353.269,2330.58 372.316,2413.65C391.364,2496.72 434.177,2639.84 592.907,2666.82C751.636,2693.8 1034.67,2697.56 1072.27,2696.98C1044.76,2685.87 1014.73,2669.24 1011.42,2605.08C1008.11,2540.93 939.733,2364.29 920.214,2298.72C914.245,2278.67 903.273,2247.03 888.621,2211.16C818.747,2040.13 802.226,2036.44 635.728,2036.44C427.393,2036.44 408.824,2034.29 408.824,2034.29Z" style="fill:rgb(226,233,240);"/>
                    <clipPath id="_clip6">
                        <path d="M408.824,2034.29L370.2,2034.82C370.2,2034.82 275.805,2032.33 320.464,2136.93C340.57,2184.02 353.269,2330.58 372.316,2413.65C391.364,2496.72 434.177,2639.84 592.907,2666.82C751.636,2693.8 1034.67,2697.56 1072.27,2696.98C1044.76,2685.87 1014.73,2669.24 1011.42,2605.08C1008.11,2540.93 939.733,2364.29 920.214,2298.72C914.245,2278.67 903.273,2247.03 888.621,2211.16C818.747,2040.13 802.226,2036.44 635.728,2036.44C427.393,2036.44 408.824,2034.29 408.824,2034.29Z"/>
                    </clipPath>
                    <g clip-path="url(#_clip6)">
                        <g transform="matrix(0.998883,0.0472492,-0.0399095,0.843717,108.846,398.495)">
                            <rect x="426.507" y="2601.76" width="692.29" height="207.889" style="fill:rgb(48,70,89);fill-opacity:0.29;"/>
                        </g>
                    </g>
                    <path d="M480.682,2198.88C480.682,2198.88 490.322,2252.49 506.295,2313.71" style="fill:none;stroke:rgb(131,152,171);stroke-width:3.78px;"/>
                    <path d="M511.56,2333.3C526.832,2388.4 546.782,2445.66 569.124,2473.29" style="fill:none;stroke:rgb(131,152,171);stroke-width:3.78px;"/>
                </g>
            </g>
            <g transform="matrix(0.837988,0,0,0.7897,87.1783,1012.8)">
                <path d="M1677.93,1182.61C1677.93,1149.55 1649.09,1125.71 1616.03,1125.71L1344.14,1129.71C1311.08,1129.71 1284.24,1156.55 1284.24,1189.61L1278.24,1311.42C1278.24,1344.48 1305.08,1371.33 1338.14,1371.33L1405.86,1371.33L1400.7,1413.86L1464.77,1371.33L1611.03,1371.33C1644.09,1371.33 1670.93,1344.48 1670.93,1311.42L1677.93,1182.61Z" style="fill:rgb(125,10,51);"/>
            </g>
            <g transform="matrix(0.835775,0,0,0.7897,90.0553,1010.43)">
                <path d="M1677.93,1182.61C1677.93,1149.55 1649.09,1125.71 1616.03,1125.71L1344.14,1129.71C1311.08,1129.71 1284.24,1156.55 1284.24,1189.61L1278.24,1311.42C1278.24,1344.48 1305.08,1371.33 1338.14,1371.33L1405.86,1371.33L1400.7,1421.06L1464.77,1371.33L1611.03,1371.33C1644.09,1371.33 1670.93,1344.48 1670.93,1311.42L1677.93,1182.61Z" style="fill:rgb(213,15,75);"/>
            </g>
            <g transform="matrix(2.25701,0.0719909,-0.0761913,2.13258,-1908.75,-1017.73)">
                <path d="M1512.87,1373.57C1512.14,1373.57 1511.54,1373.01 1511.49,1372.29C1511.2,1368.17 1510.31,1355.53 1510.24,1354.65C1510.24,1354.62 1510.24,1354.59 1510.24,1354.55L1510.24,1347.99C1510.24,1347.25 1510.82,1346.64 1511.56,1346.6C1512.57,1346.56 1513.97,1346.49 1515.02,1346.44C1515.4,1346.42 1515.77,1346.56 1516.05,1346.82C1516.32,1347.09 1516.47,1347.45 1516.47,1347.83C1516.44,1350.17 1516.39,1354.55 1516.39,1355.14C1516.39,1355.18 1516.38,1355.23 1516.38,1355.27C1516.27,1356.27 1514.97,1368.39 1514.55,1372.34C1514.47,1373.04 1513.88,1373.57 1513.17,1373.57C1513.07,1373.57 1512.97,1373.57 1512.87,1373.57ZM1511.82,1382.46C1511.05,1382.46 1510.43,1381.84 1510.43,1381.08C1510.43,1380.38 1510.43,1379.53 1510.43,1378.84C1510.43,1378.07 1511.05,1377.45 1511.82,1377.45C1512.53,1377.45 1513.39,1377.45 1514.11,1377.45C1514.87,1377.45 1515.49,1378.07 1515.49,1378.84C1515.49,1379.53 1515.49,1380.38 1515.49,1381.08C1515.49,1381.84 1514.87,1382.46 1514.11,1382.46C1513.39,1382.46 1512.53,1382.46 1511.82,1382.46Z" style="fill:rgb(255,166,196);fill-rule:nonzero;"/>
            </g>
            <g transform="matrix(0.835775,0,0,0.7897,58.4676,899.603)">
                <g>
                    <g>
                        <path d="M1515.22,1344.5C1476.85,1345.2 1438.49,1345.91 1400.13,1346.62C1400.13,1351.11 1400.13,1355.6 1400.13,1360.09C1438.42,1359.55 1476.71,1359.01 1515,1358.47C1515.07,1353.82 1515.14,1349.16 1515.22,1344.5Z" style="fill:rgb(255,166,196);"/>
                        <g transform="matrix(1.53182,0,0,0.84676,-742.949,275.79)">
                            <path d="M1515.62,1347.69C1477.11,1347.42 1438.61,1347.15 1400.1,1346.88C1400.1,1351.32 1400.09,1355.76 1400.09,1360.2C1438.54,1360.72 1476.99,1361.24 1515.44,1361.76C1515.5,1357.07 1515.56,1352.38 1515.62,1347.69Z" style="fill:rgb(255,166,196);"/>
                        </g>
                        <g transform="matrix(1.53182,0,0,0.84676,-742.949,252.456)">
                            <path d="M1516.01,1346.14C1477.37,1346.39 1438.74,1346.64 1400.1,1346.89C1400.1,1351.35 1400.1,1355.81 1400.1,1360.27C1438.67,1360.27 1477.25,1360.27 1515.82,1360.28C1515.89,1355.56 1515.95,1350.85 1516.01,1346.14Z" style="fill:rgb(255,166,196);"/>
                        </g>
                        <g transform="matrix(1.53182,0,0,0.84676,-742.949,229.123)">
                            <path d="M1516.4,1344.46C1477.63,1345.24 1438.87,1346.02 1400.1,1346.79C1400.1,1351.27 1400.1,1355.75 1400.1,1360.22C1438.8,1359.7 1477.51,1359.18 1516.21,1358.66C1516.28,1353.93 1516.34,1349.19 1516.4,1344.46Z" style="fill:rgb(255,166,196);"/>
                        </g>
                        <g transform="matrix(1.53182,0,0,0.84676,-742.949,299.123)">
                            <path d="M1515.24,1349.11C1476.86,1348.32 1438.47,1347.54 1400.09,1346.75C1400.09,1351.17 1400.09,1355.59 1400.09,1360.01C1438.41,1361.05 1476.73,1362.09 1515.05,1363.12C1515.11,1358.45 1515.17,1353.78 1515.24,1349.11Z" style="fill:rgb(255,166,196);"/>
                        </g>
                    </g>
                </g>
            </g>
        </g>
    </g>
</svg>
