<?xml version="1.0" encoding="UTF-8" standalone="no"?><!DOCTYPE svg PUBLIC "-//W3C//DTD SVG 1.1//EN" "http://www.w3.org/Graphics/SVG/1.1/DTD/svg11.dtd"><svg width="100%" height="100%" viewBox="0 0 402 252" version="1.1" xmlns="http://www.w3.org/2000/svg" xmlns:xlink="http://www.w3.org/1999/xlink" xml:space="preserve" xmlns:serif="http://www.serif.com/" style="fill-rule:evenodd;clip-rule:evenodd;stroke-linejoin:round;stroke-miterlimit:2;"><g><path d="M288.969,172.853c-2.276,-0 -5.25,0.78 -8.14,1.689l11.79,-0.436c-0.271,-0.176 -0.54,-0.36 -0.808,-0.552c-0.695,-0.497 -1.677,-0.701 -2.842,-0.701m-107.464,-28.047c0.327,1.57 0.671,3.091 1.021,4.537c1.949,5.759 3.256,10.695 3.116,10.695c-0.014,0 -0.04,-0.044 -0.08,-0.137c1.928,5.034 6.298,11.804 9.674,16.661c0.313,0.38 0.611,0.75 0.894,1.109l18.423,-0.681c0,0 0.002,0 0.006,0.001l0.028,-0.001c-2.532,-2.599 -10.095,-6.498 -19.674,-16.08c-0.014,-0.014 -0.026,-0.026 -0.04,-0.04c-0.008,-0.008 -0.016,-0.016 -0.025,-0.024c-0.004,-0.005 -0.008,-0.008 -0.012,-0.013c-4.149,-4.158 -8.674,-9.382 -13.331,-16.027m-63.057,-129.176c-63.108,-0 -117.051,109.509 -66.277,167.362l14.871,-0.55c-5.065,-27.288 -25.81,-111.421 43.541,-111.421c6.41,0 12.928,-0.51 19.28,-0.51c13.729,-0.001 26.7,2.383 36.227,17.441c7.925,0.464 14.972,1.325 19.116,5.038c6.039,5.413 8.78,14.47 9.64,17.902c0.048,0.211 -0.032,0.428 -0.203,0.552c-0.023,0.016 -0.046,0.03 -0.071,0.042c0.057,0.093 0.112,0.19 0.167,0.291c2.029,2.878 2.601,6.879 4.132,10.509c3.173,7.528 10.653,6.008 25.423,29.296c4.101,6.464 2.969,6.985 7.107,7.324c0.131,0.01 0.257,0.016 0.38,0.016c1.439,-0 2.392,-0.707 4.051,-1.414c1.659,-0.706 4.024,-1.413 8.285,-1.413c2.639,0 6.005,0.271 10.381,0.981c5.94,0.962 18.233,2.177 25.457,2.177c2.111,0 3.788,-0.103 4.748,-0.347c4.251,-1.079 20.118,-2.602 26.65,-5.495c4.884,-2.162 7.493,-3.429 9.424,-3.429c1.757,-0 2.953,1.049 4.792,3.429c3.861,4.998 3.301,6.542 7.107,10.988c-0.593,2.57 -1.04,5.596 -1.505,8.282l13.943,-0.515c-0,-0 0.468,0.138 1.318,0.398c0.048,-0.131 0.095,-0.266 0.14,-0.398c10.313,-30.106 0.546,-34.72 -19.153,-34.72c-4.355,-0 -9.196,0.225 -14.411,0.451c-5.217,0.225 -10.805,0.451 -16.664,0.451c-33.763,-0 -76.368,-7.496 -106.812,-65.669c-21.48,-41.043 -46.948,-57.049 -71.084,-57.049" style="fill:#f9fbfc;fill-rule:nonzero;"/><path d="M67.94,188.201c-1.648,-17.697 -32.77,-117.18 42.643,-117.18c34.067,0 71.07,-14.405 71.07,109.857c-0,31.087 -112.063,25.02 -113.713,7.323" style="fill:#304559;fill-rule:nonzero;"/><path d="M110.506,72.717c-62.149,3.827 -44.376,81.352 -38.974,109.559l2.619,-0.096c-9.383,-30.421 1.446,-22.079 0.897,-37.921c-1.455,-41.97 -4.42,-51.395 31.981,-62.253c7.097,-2.117 1.878,-9.042 3.477,-9.289m21.002,-0.451c-5.239,0 -10.651,0.305 -16.112,0.305c-1.638,-0 -3.224,0.047 -4.763,0.139c0.826,-0.019 1.694,-0.032 2.586,-0.032c10.23,-0.001 23.894,1.723 20.558,16.115c-0.554,2.391 -0.959,4.558 -1.228,6.531c2.396,0.814 4.655,1.288 6.462,1.328c0.099,0.002 0.198,0.003 0.296,0.003c5.875,0 7.298,-4.015 5.604,-8.666c-0.149,-0.428 -0.066,-0.902 0.217,-1.246c0.236,-0.286 0.58,-0.448 0.937,-0.448c0.073,0 0.146,0.007 0.219,0.021c6.399,1.134 13.281,1.259 19.616,1.625c-9.015,-13.729 -21.151,-15.675 -34.392,-15.675" style="fill:#597082;fill-rule:nonzero;"/><path d="M110.633,72.71c-0.017,0 -0.033,0 -0.05,0.001c-0.028,0 -0.053,0.003 -0.077,0.006c0.043,-0.002 0.084,-0.005 0.127,-0.007" style="fill:#304559;fill-rule:nonzero;"/><path d="M113.219,72.678c-0.892,-0 -1.76,0.013 -2.586,0.032c-0.043,0.002 -0.084,0.005 -0.127,0.007c-1.599,0.247 3.62,7.172 -3.477,9.289c-36.401,10.858 -33.436,20.283 -31.981,62.253c0.549,15.842 -10.28,7.5 -0.897,37.921l27.48,-1.016c0.234,-7.429 0.533,-19.103 0.533,-30.116c0.001,-14.123 -0.49,-27.16 -2.242,-28.762c-1.746,-2.567 -4.844,-3.855 -8.148,-3.855c-4.961,-0 -10.39,2.903 -12.422,8.744c-0.039,0.119 -0.138,0.202 -0.257,0.223c-0.018,0.003 -0.035,0.004 -0.053,0.004c-0.1,0 -0.197,-0.046 -0.26,-0.13c-0.248,-0.488 -0.464,-1.188 -0.64,-2.056c-2.301,-5.172 -0.954,-28.8 11.119,-32.226c12.809,-3.633 18.383,-5.469 26.629,-10.984c0.376,1.344 4.588,6.13 10.718,10.717c1.959,1.057 3.995,1.941 5.941,2.601c0.269,-1.973 0.674,-4.14 1.228,-6.531c3.336,-14.392 -10.328,-16.116 -20.558,-16.115" style="fill:#475c70;fill-rule:nonzero;"/><path d="M143.593,16.273c14.209,10.03 10.393,22.243 13.185,27.114c1.953,3.411 1.787,21.263 -3.553,34.957c-1.639,4.201 -6.931,3.665 -10.661,3.662c5.161,5.94 -1.447,7.202 7.107,7.323c8.554,0.124 -4.667,17.727 -15.95,14.65c-11.282,-3.082 -25.772,-11.196 -19.585,-18.312c6.187,-7.115 5.327,-8.666 3.553,-15.158c-1.773,-6.489 -13.674,-14.937 -7.106,-17.799c6.568,-2.862 -5.067,-30.899 5.51,-32.958c10.577,-2.058 17.137,-10.795 27.5,-3.479Z" style="fill:#e3e8f0;fill-rule:nonzero;"/><path d="M147.295,16.09c5.919,8.061 6.617,15.335 8.472,23.883c0.335,1.541 -4.87,1.16 -6.096,-0.081c-3.657,-3.698 -8.268,-13.619 -12.437,-10.984c-11.418,7.211 -18.094,-2.782 -17.768,14.646c0.052,2.784 -1.13,6.713 0,12.656c0.234,1.228 -8.838,-11.127 -7.107,1.994c0.281,2.126 2.164,6.848 5.469,8.696c2.268,1.268 2.195,-2.056 2.475,-1.131c0.911,3.014 2.158,4.725 4.494,6.678c0.556,0.465 4.85,-1.687 8.883,-6.92c2.338,-3.035 4.06,-7.014 7.19,-9.738c0.941,-0.807 2.241,-1.011 3.373,-0.524c4.382,1.847 7.848,3.633 10.627,6.302c-0.288,6.269 -14.083,-5.035 -14.083,-1.773c0,1.591 -0.213,8.501 3.553,9.395c9.744,2.309 12.345,3.829 8.885,9.155c-2.446,3.764 -6.931,3.665 -10.661,3.662c0.58,0.666 1.011,1.277 1.333,1.829c2.534,4.381 -1.819,5.386 5.774,5.494c8.554,0.124 -4.667,17.727 -15.95,14.65c-11.282,-3.082 -25.772,-11.196 -19.585,-18.312c6.187,-7.115 5.327,-8.666 3.553,-15.158c-1.773,-6.489 -13.674,-16.77 -7.106,-19.629c6.568,-2.861 -5.067,-29.069 5.51,-31.128c10.577,-2.058 23.622,-13.983 31.202,-3.662Z" style="fill:#8299ab;fill-rule:nonzero;"/><path d="M108.623,19.752c-4.107,3.33 -8.183,8.04 -8.701,18.312c-0.518,10.271 2.323,14.28 7.107,20.074c3.305,4.003 2.503,10.132 10.66,12.883c-0.128,-4.158 -0.809,-4.316 -3.553,-7.326c-2.744,-3.008 -6.799,-13.15 -1.51,-12.62c5.288,0.53 5.698,4.735 5.063,1.635c-1.714,-8.372 0.82,-15.093 0,-18.308c-1.694,-6.657 -1.645,-4.805 -1.009,-7.323c0.171,-0.676 3.618,-0.006 9.301,-0.004c5.684,0.004 15.021,-4.541 20.136,0c5.115,4.546 6.173,12.343 8.641,10.989c2.468,-1.355 14.518,-10.223 9.127,-20.25c-8.598,-15.985 -35.81,-20.502 -40.555,-16.37c-16.057,13.984 -10.6,14.978 -14.707,18.308Z" style="fill:#304559;fill-rule:nonzero;"/><path d="M117.689,52.71c-0.953,-4.657 -11.457,-5.652 -8.883,3.713c1.374,5.001 -6.561,-4.079 -1.777,1.715c3.305,4.003 2.503,10.132 10.66,12.883c-0.128,-4.158 -0.809,-4.316 -3.553,-7.326c-2.744,-3.008 -6.799,-13.15 -1.51,-12.62c5.288,0.53 5.698,4.735 5.063,1.635Z" style="fill:#293847;fill-rule:nonzero;"/><path d="M116.979,31.838c-0.919,-3.603 -1.873,-2.056 -0.5,-4.239c1.078,-1.714 3.819,-0.526 9.502,-0.524c5.684,0.004 15.021,-4.541 20.136,0c5.115,4.546 6.173,12.343 8.641,10.989c1.412,-0.776 5.961,-4.013 8.586,-8.518c1.962,-3.367 -6.228,4.22 -9.13,1.194c-10.8,-11.273 -15.874,-5.863 -24.189,-6.064c-5.115,-0.125 -11.537,-3.798 -13.343,-2.223c-1.298,1.128 -3.523,2.821 0.297,9.385Z" style="fill:#293847;fill-rule:nonzero;"/><path d="M79.352,127.175c-0.039,0.119 -0.138,0.202 -0.257,0.223c-0.119,0.019 -0.239,-0.027 -0.313,-0.126c-2.475,-4.871 -1.762,-30.809 10.479,-34.282c12.809,-3.633 18.383,-5.469 26.629,-10.984c2.163,7.736 16.078,14.491 23.121,14.646c6.123,0.136 7.622,-3.935 5.9,-8.663c-0.149,-0.428 -0.066,-0.902 0.217,-1.246c0.283,-0.344 0.724,-0.508 1.156,-0.427c14.481,2.566 31.438,-0.032 38.922,6.674c6.039,5.413 8.78,14.47 9.64,17.902c0.048,0.211 -0.032,0.428 -0.203,0.552c-0.17,0.121 -0.396,0.128 -0.57,0.009c-2.328,-1.522 -7.94,-4.003 -12.42,3.51c-5.805,9.728 0.688,35.282 3.553,43.943c2.864,8.659 14.496,23.817 14.496,23.817l-98.342,6.204c-0,-0 2.553,-62.991 -1.438,-66.641c-4.368,-6.42 -17.184,-4.843 -20.57,4.889" style="fill:#304559;fill-rule:nonzero;"/><path d="M145.279,86.114c0,-0 4.543,8.129 -0.152,9.844c-8.853,3.23 -13.711,-0.89 -13.711,-0.89c-0,0 16.923,6.138 13.633,-7.184c-0.91,-3.683 0.23,-1.77 0.23,-1.77Z" style="fill:#293847;fill-rule:nonzero;"/><path d="M78.601,125.947c-2.884,-2.952 -2.148,-29.323 10.66,-32.957c12.809,-3.633 18.383,-5.469 26.629,-10.984c0.504,1.801 7.899,9.787 17.57,15.188c1.375,0.766 -13.587,1.08 -2.044,5.678c2.058,0.817 -7.093,4.297 -8.994,12.494c-2.631,11.338 1.19,29.25 0.275,42.662c-0.755,11.052 -6.725,18.586 -4.743,20.931c2.216,2.621 13.803,-3.899 26.089,-10.418c13.306,-7.062 27.433,-14.123 31.36,-9.571c1.259,1.46 -30.901,13.62 -24.088,17.467c1.84,1.04 9.062,-2.184 16.175,-5.407c6.936,-3.143 13.769,-6.286 15.414,-5.478c1.931,0.947 -5.378,7.355 -4.048,8.505c0.66,0.57 3.451,-0.158 6.243,-0.887c2.828,-0.739 5.657,-1.477 6.27,-0.865c5.221,5.203 8.333,10.418 8.333,10.418l-98.342,6.204c-0,-0 2.553,-62.991 -1.438,-66.641c-4.461,-6.558 -18.907,-7.918 -21.321,3.661" style="fill:#293847;fill-rule:nonzero;"/><path d="M185.206,158.906c2.326,7.031 -4.925,-20.746 -10.633,-26.348c-3.139,-3.079 -6.298,-5.795 -7.192,-10.442c-2.415,-12.566 -0.797,-18.944 0.61,-16.78c0.809,1.243 -1.942,11.137 0.463,13.248c0.263,0.231 0.827,-1.508 1.45,-3.247c0.624,-1.74 1.306,-3.48 1.803,-3.246c1.514,0.711 -0.87,13.166 0.398,13.149c2.158,-0.021 2.991,-6.08 4.962,-8.55c3.854,-4.833 7.789,-7.097 4.586,-1.727c-5.805,9.728 0.688,35.282 3.553,43.943" style="fill:#293847;fill-rule:nonzero;"/><path d="M323.791,177.216l12.438,14.647c1.513,1.134 2.792,1.181 3.553,-1.172l-14.213,-14.399l-1.778,0.924Z" style="fill:#8299ab;fill-rule:nonzero;"/><path d="M51.082,183.032l294.032,-10.866c-0,-0 121.981,35.93 7.106,42.329c-183.46,10.219 -440.763,23.647 -301.138,-31.463" style="fill:#e3e8f0;fill-rule:nonzero;"/><path d="M214.587,176.99l-0.028,0.001c0.006,0 0.017,0.001 0.032,0.003c-0.001,-0.001 -0.003,-0.003 -0.004,-0.004m78.032,-2.884l-11.79,0.436c-3.389,1.065 -6.662,2.306 -8.562,2.674c-1.632,0.315 -5.566,1.777 -11.144,3.156c5.264,0.204 10.54,0.329 15.562,0.329c0.087,0 0.176,0 0.263,0c7.541,-0.007 13.9,-2.645 19.498,-4.601c-1.287,-0.521 -2.567,-1.174 -3.827,-1.994m-127.116,12.454c2.361,-1.082 4.853,-1.542 7.357,-1.542c1.964,0 3.936,0.283 5.86,0.77c4.739,1.204 11.827,3.466 16.63,3.466c0.554,-0 1.076,-0.03 1.562,-0.095c0.151,-0.02 0.303,-0.03 0.455,-0.03c0.665,-0 1.321,0.192 1.889,0.56c5.935,3.466 24.291,12.501 34.72,17.322c0.015,0.007 0.03,0.014 0.044,0.021c0.942,0.435 1.818,0.836 2.615,1.194c1.021,0.456 1.575,1.603 1.309,2.713l-0,0.004c-0.216,0.905 -0.943,1.584 -1.838,1.72c-0.324,0.047 -0.647,0.09 -0.971,0.129c5.475,1.259 4.383,1.765 0.04,1.765c-5.029,0 -14.415,-0.678 -23.012,-1.655c-3.336,-0.379 -6.459,-0.534 -9.403,-0.534c-11.995,0 -20.984,2.57 -28.91,3.033c-5.948,0.349 -7.885,0.86 -10.388,0.86c-1.651,-0 -3.548,-0.223 -7.005,-0.86c-1.731,-0.318 -4.802,-0.446 -8.738,-0.446c-15.841,-0 -45.684,2.077 -58.486,2.188c-1.038,0.009 -1.957,0.015 -2.766,0.015c-11.645,0 -0.223,-1.309 14.283,-14.448c9.467,-8.572 14.031,-11.011 17.967,-11.611c0.698,-0.577 1.281,-1.06 1.72,-1.423c0.586,-0.486 1.307,-0.768 2.059,-0.802c3.716,-0.18 15.434,-0.869 20.881,-2.54c2.361,-0.722 5,-1.1 7.555,-1.1c3.486,0 6.819,0.702 9.086,2.188c0.585,0.389 1.254,0.583 1.923,0.583c0.625,0 1.251,-0.17 1.81,-0.511c0.328,-0.201 0.66,-0.389 0.995,-0.564l0.708,-0.447l0.049,0.077Zm179.611,-14.394l-13.943,0.515c-0.298,1.727 -0.604,3.314 -0.96,4.55c0.062,0.364 0.046,0.62 -0.111,0.761c1.695,1.001 2.576,2.194 2.576,3.586c0,0.033 -0.032,0.047 -0.092,0.047c-0.226,-0 -0.849,-0.2 -1.668,-0.401c-0.82,-0.2 -1.835,-0.4 -2.845,-0.4c-1.572,-0 -3.132,0.484 -3.921,2.208c-0.94,2.043 -8.903,15.332 -10.067,16.659c-0.261,0.297 -0.646,0.396 -1.08,0.396c-0.438,0 -0.925,-0.101 -1.383,-0.203c-0.458,-0.102 -0.886,-0.204 -1.206,-0.204c-0.058,0 -0.112,0.004 -0.162,0.011c-0.004,0 -0.008,0.001 -0.012,0.001c-0.418,-0 2.11,-3.668 4.646,-7.336c2.536,-3.668 5.08,-7.336 4.697,-7.336l-0.003,-0c-0.644,0.033 -1.284,0.05 -1.92,0.05c-7.607,-0 -14.653,-2.332 -20.798,-5.441c-1.183,-0.6 -2.444,-0.841 -3.752,-0.841c-5.385,-0 -11.581,4.1 -16.535,4.244c-23.917,0.696 -48.503,3.461 -54.604,3.461c-0.206,0 -0.391,-0.003 -0.553,-0.01c-13.575,-0.541 -8.026,-5.485 -13.807,-5.485c-0.375,0 -0.799,0.021 -1.277,0.065c-0.734,0.068 -1.56,0.099 -2.456,0.099c-8.601,-0 -23.569,-2.834 -23.885,-2.894l-129.993,4.725c-27.841,10.989 -38.822,19.295 -38.831,25.402c-14.421,14.786 -25.028,39.233 35.582,39.233c1.007,0 103.582,5.029 146.899,3.176c48.262,-2.065 113.498,-17.484 162.151,-20.195c36.768,-2.048 45.69,-23.235 45.695,-29.188c0.011,-12.644 -56.382,-29.255 -56.382,-29.255" style="fill:#ecedf1;fill-rule:nonzero;"/><path d="M214.553,176.99l-34.565,1.277c0,0 18.49,3.522 26.346,2.796c7.857,-0.725 0.629,4.844 15.084,5.42c4.999,0.199 30.436,-2.732 55.157,-3.451c6.158,-0.179 14.233,-6.47 20.287,-3.403c6.659,3.369 14.375,5.825 22.718,5.391c0.401,-0.022 -2.151,3.657 -4.694,7.336c-2.56,3.701 -5.111,7.403 -4.634,7.335c0.329,-0.047 0.828,0.073 1.368,0.193c0.911,0.202 1.937,0.405 2.463,-0.193c1.164,-1.327 9.127,-14.616 10.067,-16.659c1.297,-2.832 4.672,-2.32 6.766,-1.808c1.037,0.254 1.76,0.507 1.76,0.354c0,-4.62 -9.703,-7.047 -26.647,-7.543c-7.792,-0.229 -16.892,6.654 -29.081,6.666c-27.37,0.024 -62.395,-3.711 -62.395,-3.711" style="fill:#8299ab;fill-rule:nonzero;"/><path d="M126.605,191.084c-7.991,0 -10.342,-2.421 -25.855,11.626c-15.513,14.052 -27.501,14.573 -11.517,14.433c15.983,-0.139 58.527,-3.342 67.224,-1.742c8.696,1.603 7.521,0.58 17.393,0c9.872,-0.576 21.389,-4.421 38.313,-2.499c16.924,1.923 36.903,2.691 20.684,-0.601c-16.218,-3.29 -98.25,-21.217 -106.242,-21.217" style="fill:#8299ab;fill-rule:nonzero;"/><path d="M98.135,214.54c-1.281,-0.023 -2.384,-0.934 -2.68,-2.218l-0.001,0c-0.231,-1.004 0.118,-2.055 0.898,-2.7c4.587,-3.801 20.158,-16.696 24.085,-19.946c0.586,-0.486 1.307,-0.768 2.059,-0.802c3.716,-0.18 15.434,-0.869 20.881,-2.54c5.581,-1.708 12.711,-1.487 16.641,1.088c1.131,0.751 2.576,0.779 3.733,0.072c4.658,-2.858 9.978,-2.97 14.969,-1.706c5.285,1.343 13.489,4 18.192,3.371c0.817,-0.109 1.646,0.078 2.344,0.53c6.48,3.786 27.771,14.209 37.379,18.537c1.021,0.456 1.575,1.603 1.309,2.713l-0,0.004c-0.216,0.905 -0.943,1.584 -1.838,1.72c-10.214,1.466 -20.705,-0.364 -29.604,-2.195c-7.193,-1.479 -13.345,-2.959 -17.467,-2.697c-10.852,0.691 -16.512,4.741 -18.602,6.641c-0.655,0.626 -1.516,0.977 -2.409,0.977c-0.546,0.012 -1.171,0.012 -1.729,0.012c-0.974,0 -1.906,-0.412 -2.577,-1.142c-2.162,-2.253 -8.168,-6.839 -19.812,-5.218c-14.147,1.975 -18.967,5.967 -45.771,5.499" style="fill:#b3c2cf;fill-rule:nonzero;"/><path d="M143.906,205.941c-7.406,1.883 -20.477,4.475 -31.129,5.423c-7.419,0.658 -13.739,-0.071 -16.381,-0.465c-0.231,-0.04 -0.419,-0.217 -0.478,-0.453c-0.059,-0.235 0.021,-0.483 0.204,-0.635c4.268,-3.534 20.32,-16.826 24.315,-20.135c0.586,-0.486 1.307,-0.768 2.059,-0.802c3.716,-0.18 15.434,-0.869 20.881,-2.54c5.581,-1.708 12.711,-1.487 16.641,1.088c1.131,0.751 2.576,0.779 3.733,0.072c4.658,-2.858 9.978,-2.97 14.969,-1.706c5.285,1.343 13.489,4 18.192,3.371c0.817,-0.109 1.646,0.078 2.344,0.53c5.935,3.466 24.291,12.501 34.72,17.322c0.732,0.332 1.148,1.138 1.003,1.951c-0.144,0.809 -0.812,1.41 -1.61,1.45c-10.31,0.487 -34.607,-4.61 -44.334,-5.742c-10.796,-1.256 -16.48,3.799 -18.59,6.301c-0.672,0.834 -1.667,1.313 -2.718,1.313c-0.406,0.017 -0.839,0.017 -1.246,0.017c-1.073,-0 -2.088,-0.5 -2.763,-1.358c-2.159,-2.661 -8.164,-7.959 -19.812,-5.002" style="fill:#fafafa;fill-rule:nonzero;"/><path d="M166.697,212.301l-4.504,-23.759l3.261,-2.059l12.392,19.204c-0,0 -5.943,3.16 -8.361,6.614c-0.944,1.348 -2.788,-0 -2.788,-0" style="fill:#e3e8f0;fill-rule:nonzero;"/><path d="M174.173,193.047c-1.494,0 -2.899,0.139 -4.184,0.464l6.019,9.328c2.041,-0.388 4.514,-0.551 7.263,-0.551c14.089,0 35.48,4.267 43.788,4.267c-11.275,-4.722 -22.092,-8.594 -22.092,-8.594c-0.428,0.029 -0.868,0.043 -1.318,0.043c-4.242,-0 -9.382,-1.239 -14.576,-2.479c-5.193,-1.238 -10.442,-2.478 -14.9,-2.478" style="fill:#de527d;fill-rule:nonzero;"/><path d="M169.989,193.511c-1.4,0.354 -2.657,0.928 -3.731,1.783c1.815,2.509 6.088,8.746 6.088,8.746c0.965,-0.531 2.204,-0.923 3.662,-1.201l-6.019,-9.328Z" style="fill:#d94f7a;fill-rule:nonzero;"/><path d="M105.686,208.162c20.567,1.816 41.486,-15.503 50.771,-5.935c0.63,-2.998 0.587,-3.569 0.587,-3.569c-0,0 -3.996,-6.12 -25.385,2.478c-9.33,3.726 -18.655,4.576 -22.33,4.179c-1.645,1.575 -1.663,1.507 -3.643,2.847Z" style="fill:#e65780;fill-rule:nonzero;"/><path d="M111.583,201.876c18.539,1.638 37.395,-13.973 45.763,-5.348c0.569,-2.703 0.53,-3.216 0.53,-3.216c0,-0 -3.601,-5.517 -22.881,2.232c-8.41,3.359 -16.816,4.125 -20.128,3.767c-1.483,1.419 -1.5,1.359 -3.284,2.565Z" style="fill:#e65780;fill-rule:nonzero;"/><path d="M197.599,193.057c1.151,0.203 2.029,0.709 1.959,1.13c-0.07,0.423 -1.061,0.601 -2.212,0.399c-1.152,-0.203 -2.029,-0.709 -1.959,-1.13c0.07,-0.423 1.06,-0.601 2.212,-0.399Z" style="fill:#e65780;fill-rule:nonzero;"/><path d="M189.472,191.723c1.156,0.174 2.044,0.66 1.984,1.084c-0.06,0.423 -1.047,0.624 -2.203,0.45c-1.155,-0.175 -2.044,-0.66 -1.983,-1.084c0.06,-0.424 1.046,-0.626 2.202,-0.45Z" style="fill:#e65780;fill-rule:nonzero;"/><path d="M179.844,190.019c1.168,0 2.115,0.347 2.115,0.775c0,0.428 -0.947,0.776 -2.115,0.776c-1.168,0 -2.116,-0.348 -2.116,-0.776c0,-0.428 0.948,-0.775 2.116,-0.775Z" style="fill:#e65780;fill-rule:nonzero;"/><path d="M102.122,184.204c0.498,0.037 0.897,0.435 0.951,0.946c0.053,0.512 -0.254,0.989 -0.731,1.138c-15.03,4.273 -6.169,5.367 -12.841,8.514c-7.286,3.435 -58.527,-0.044 -44.894,-6.297c11.035,-5.063 44.708,-5.256 57.515,-4.301Z" style="fill:#8299ab;fill-rule:nonzero;"/><path d="M307.945,164.765c6.896,-6.216 4.51,-15.003 11.815,-8.712c7.302,6.288 10.961,5.4 9.642,13.555c-1.32,8.154 6.044,11.143 -7.431,5.893c-13.478,-5.246 -20.92,-4.52 -14.026,-10.736" style="fill:#304559;fill-rule:nonzero;"/><path d="M187.842,109.705c3.066,-0.987 4.811,-0.751 6.759,1.882c2.142,2.889 2.705,6.988 4.27,10.699c3.173,7.528 10.653,6.008 25.423,29.296c4.101,6.464 2.969,6.985 7.107,7.324c1.661,0.136 2.63,-0.631 4.431,-1.398c2.687,-1.144 7.224,-2.288 18.666,-0.432c7.675,1.243 25.956,2.909 30.205,1.83c4.251,-1.079 20.118,-2.602 26.65,-5.495c9.33,-4.13 10.356,-4.994 14.216,0c3.861,4.998 3.301,6.542 7.107,10.988c-1.697,7.352 -2.197,18.426 -5.331,14.647c-3.135,-3.78 2.124,-9.789 -1.776,-12.817c-4.164,-3.235 -3.486,-6.278 -6.48,-5.467c-2.997,0.813 -2.85,2.128 -5.958,3.637c-3.108,1.51 -2.082,4.852 1.776,7.323c3.859,2.472 10.44,3.253 8.884,7.324c-1.206,3.158 -0.95,1.599 -7.106,-0c-6.152,-1.598 -16.094,0.787 -24.874,-5.492c-3.64,-2.603 -15.192,2.819 -19.544,3.662c-4.354,0.84 -25.099,9.844 -49.749,3.662c-1.841,-0.461 -3.108,-0.435 -4.042,-0.409c-1.595,0.044 -2.219,0.089 -3.066,-2.295c-1.297,-3.646 -16.568,-8.777 -33.68,-33.05c-0.616,-0.874 -1.456,-5.538 -1.653,-6.641c-3.457,-19.353 1.63,-26.807 7.765,-28.778" style="fill:#e3e8f0;fill-rule:nonzero;"/><path d="M189.025,109.373c-0.395,0.073 -0.832,0.194 -1.319,0.377c0.045,-0.015 0.091,-0.03 0.136,-0.045c0.418,-0.134 0.811,-0.246 1.183,-0.332" style="fill:#597082;fill-rule:nonzero;"/><path d="M194.572,111.486c-0.011,0.006 -0.022,0.011 -0.034,0.016c0.021,0.028 0.042,0.056 0.063,0.085c0.047,0.063 0.093,0.126 0.138,0.19c-0.055,-0.101 -0.11,-0.198 -0.167,-0.291" style="fill:#bdc7d1;fill-rule:nonzero;"/><path d="M193.288,110.15c0.418,0.347 0.83,0.794 1.25,1.352c0.012,-0.005 0.023,-0.01 0.034,-0.016c-0.374,-0.618 -0.778,-1.054 -1.284,-1.336" style="fill:#597082;fill-rule:nonzero;"/><path d="M181.443,144.506c0.021,0.1 0.041,0.2 0.062,0.3c4.657,6.645 9.182,11.869 13.331,16.027c-4.082,-4.092 -8.528,-9.215 -13.106,-15.709c-0.091,-0.13 -0.188,-0.344 -0.287,-0.618" style="fill:#bdc7d1;fill-rule:nonzero;"/><path d="M183.666,112.203c-0.454,0.418 -0.869,0.871 -1.25,1.354c-0.034,0.071 -0.069,0.143 -0.107,0.219c0.424,-0.588 0.878,-1.111 1.357,-1.573" style="fill:#597082;fill-rule:nonzero;"/><path d="M182.416,113.557c-7.461,9.469 -1.399,30.551 -0.916,31.242c0.002,0.003 0.003,0.004 0.005,0.007c-0.021,-0.1 -0.041,-0.2 -0.062,-0.3c-0.565,-1.566 -1.198,-5.084 -1.366,-6.023c-2.298,-12.867 -0.82,-20.474 2.232,-24.707c0.038,-0.076 0.073,-0.148 0.107,-0.219" style="fill:#576978;fill-rule:nonzero;"/><path d="M194.913,160.91Zm-0.065,-0.064c0.009,0.008 0.017,0.016 0.025,0.024c-0.007,-0.007 -0.017,-0.017 -0.025,-0.024" style="fill:#bdc7d1;fill-rule:nonzero;"/><path d="M323.954,178.51c-0.038,0.172 -0.092,0.351 -0.163,0.536c0.263,-0.288 0.299,-0.444 0.163,-0.536m2.344,-1.349c0.065,0.094 0.133,0.189 0.204,0.286c-0.022,-0.078 -0.042,-0.155 -0.06,-0.233c-0.047,-0.018 -0.096,-0.035 -0.144,-0.053" style="fill:#8299ab;fill-rule:nonzero;"/><path d="M315.666,172.17c1.325,0.726 2.858,1.313 4.246,1.92c0.037,-0.029 0.047,-0.049 0.023,-0.062c-1.469,-0.714 -3.292,-1.769 -4.269,-1.858m4.296,-11.541c-0.253,0 -0.541,0.043 -0.873,0.133c-2.997,0.813 -2.85,2.128 -5.958,3.637c-1.172,0.569 -1.756,1.399 -1.822,2.344c0.021,0.277 0.036,0.521 0.048,0.738c0.115,0.598 0.411,1.225 0.873,1.848c0.316,0.066 0.757,0.193 1.374,0.483c0.058,0.028 0.125,0.04 0.199,0.04c0.526,0 1.449,-0.628 2.545,-1.257c1.096,-0.629 2.363,-1.257 3.579,-1.257c0.957,-0 1.882,0.39 2.664,1.476c2.65,3.679 1.556,5.242 3.707,8.347c0.048,0.018 0.097,0.035 0.144,0.053c-0.861,-3.682 2.442,-8.411 -0.873,-10.985c-3.701,-2.875 -3.577,-5.6 -5.607,-5.6" style="fill:#597082;fill-rule:nonzero;"/><path d="M311.357,167.481c0.109,2.021 -0.101,1.645 0.873,1.848c-0.462,-0.623 -0.758,-1.25 -0.873,-1.848m-121.361,-58.201c-0.294,-0 -0.616,0.027 -0.971,0.093c-0.372,0.086 -0.765,0.198 -1.183,0.332c-0.045,0.015 -0.091,0.03 -0.136,0.045c-0.602,0.226 -1.281,0.548 -2.054,0.994c-0.731,0.42 -1.391,0.91 -1.986,1.459c-0.479,0.462 -0.933,0.985 -1.357,1.573c-3.052,4.233 -4.53,11.84 -2.232,24.707c0.168,0.939 0.801,4.457 1.366,6.023c0.099,0.274 0.196,0.488 0.287,0.618c4.578,6.494 9.024,11.617 13.106,15.709c0.004,0.004 0.009,0.009 0.012,0.013c0.008,0.007 0.018,0.017 0.025,0.024c0.013,0.013 0.027,0.027 0.04,0.04c11.138,11.141 19.55,14.598 20.497,17.264c0.733,2.062 1.298,2.307 2.47,2.307c0.183,-0 0.381,-0.006 0.596,-0.012c0.216,-0.006 0.45,-0.012 0.704,-0.012c0.847,-0 1.923,0.066 3.338,0.421c6.227,1.562 12.204,2.154 17.731,2.154c16.353,0 28.764,-5.188 32.018,-5.816c3.522,-0.682 11.759,-4.364 16.702,-4.363c1.165,-0 2.147,0.204 2.842,0.701c8.78,6.279 18.722,3.894 24.874,5.492c3.397,0.882 4.521,1.543 5.225,1.543c0.572,0 0.868,-0.436 1.881,-1.543c0.071,-0.185 0.125,-0.364 0.163,-0.536c-0.454,-0.307 -2.82,0.097 -5.061,-1.303c-2.634,-1.646 0.635,-2.817 1.019,-3.117c-1.388,-0.607 -2.921,-1.194 -4.246,-1.92c-0.019,-0.002 -0.037,-0.003 -0.055,-0.004c-0.071,-0.004 -0.14,-0.006 -0.206,-0.006c-1.621,0 -1.839,1.143 -1.681,2.287c0.158,1.143 0.691,2.286 0.572,2.286c-0.001,-0 -0.002,-0 -0.003,-0c-1.908,-0.27 -3.646,-0.664 -4.714,-1.349c-0.337,-0.216 -0.843,-0.276 -1.458,-0.276c-0.386,0 -0.816,0.024 -1.272,0.048c-0.456,0.024 -0.94,0.047 -1.435,0.047c-2.584,0 -5.486,-0.646 -6.496,-5.314c-0.655,-3.018 2.73,-3.539 6.146,-3.539c0.902,-0 1.805,0.036 2.638,0.072c0.832,0.037 1.592,0.073 2.208,0.073c0.639,-0 1.122,-0.039 1.366,-0.158c0.012,0.143 0.023,0.278 0.033,0.406c0.066,-0.945 0.65,-1.775 1.822,-2.344c3.108,-1.509 2.961,-2.824 5.958,-3.637c0.332,-0.09 0.62,-0.133 0.873,-0.133c2.03,0 1.906,2.725 5.607,5.6c3.315,2.574 0.012,7.303 0.873,10.985c0.018,0.078 0.038,0.155 0.06,0.233c0.16,0.217 0.335,0.442 0.529,0.675c0.748,0.901 1.114,1.306 1.271,1.306c0.503,0 -1.113,-4.139 0.821,-9.539c1.693,-4.733 -4.799,-5.586 -7.107,-12.326c-0.451,-1.315 -0.86,-1.838 -1.393,-1.838c-0.857,0 -2.031,1.355 -4.206,2.947c-0.036,0.026 -0.072,0.039 -0.11,0.039c-0.374,-0 -0.851,-1.238 -1.558,-2.476c-0.707,-1.238 -1.644,-2.476 -2.942,-2.476c-0.581,-0 -1.233,0.248 -1.97,0.855c-0.316,0.261 5.229,4.114 2.067,6.58c-4.062,3.164 -14.723,0.613 -21.87,3.205c-3.883,1.408 -2.993,3.96 -7.108,4.679c-4.025,0.705 -25.56,8.26 -34.661,8.26c-0.654,0 -1.244,-0.039 -1.758,-0.122c-7.789,-1.264 -14.901,-4.307 -15.106,-7.327c-0.212,-3.137 6.619,-6.25 5.331,-7.323c-0.684,-0.567 -1.515,-0.799 -2.42,-0.799c-1.989,0 -4.337,1.116 -6.264,2.231c-1.928,1.116 -3.436,2.231 -3.745,2.231c-0.003,-0 -0.006,-0 -0.009,-0c-4.137,-0.339 -12.726,-1.507 -19.544,-4.716c-13.159,-6.192 -26.946,-19.88 -17.768,-39.227c1.755,-3.696 3.524,-4.953 5.181,-4.953c2.194,0.001 4.191,2.204 5.693,3.864l0.34,0.038c0.108,-0.072 0.151,-0.214 0.102,-0.334c-1.827,-4.518 -2.63,-7.417 -3.559,-9.124c-0.045,-0.064 -0.091,-0.127 -0.138,-0.19c-0.021,-0.029 -0.042,-0.057 -0.063,-0.085c-0.42,-0.558 -0.832,-1.005 -1.25,-1.352c-0.211,-0.117 -0.44,-0.207 -0.691,-0.272c-0.72,-0.186 -1.458,-0.598 -2.601,-0.598" style="fill:#b3bfcc;fill-rule:nonzero;"/><path d="M323.999,171.266l-20.872,-44.208c-1.651,-0.456 -2.643,0.055 -2.977,1.534l21.466,46.183c0,0 2.04,0.726 2.588,3.554c0.547,2.824 0.937,1.37 0.937,1.37l0.473,-3.711l-1.615,-4.722Z" style="fill:#d60d4a;fill-rule:nonzero;"/><path d="M323.999,171.266l-2.166,-0.117l-17.324,-37.748l0.996,-1.308l-2.378,-5.035c-1.651,-0.456 -2.643,0.055 -2.977,1.534l2.346,5.048l1.018,0.391l17.524,37.72l-0.238,1.187l0.816,1.837c0,0 2.04,0.726 2.588,3.554c0.547,2.824 0.937,1.37 0.937,1.37l0.473,-3.711l-1.615,-4.722Z" style="fill:#94032e;fill-rule:nonzero;"/><path d="M79.648,125.24c-0.766,2.49 0.129,2.856 0.73,9.864c0.601,7.006 -4.154,13.942 -7.107,23.802c-2.954,9.859 1.684,22.57 5.33,25.633c3.647,3.06 4.08,7.925 7.107,5.492c3.028,-2.432 32.646,-8.342 28.428,-53.099c-1.398,-14.835 5.203,-34.232 7.107,-36.618c1.904,-2.385 4.693,1.633 15.991,-10.985c1.529,-1.709 3.029,-1.885 5.33,-3.662c1.805,-1.392 5.566,-0.202 7.107,-0c1.54,0.202 5.763,4.39 7.107,5.494c1.344,1.101 4.281,1.718 1.543,-5.494c-2.738,-7.212 -2.688,-12.172 -6.874,-12.817c-2.993,-0.458 -7.159,-2.137 -9.288,-3.05c-0.375,-0.162 -0.671,-0.472 -0.82,-0.862c-0.15,-0.389 -0.141,-0.823 0.025,-1.207c0.74,-1.791 2.032,-4.743 2.976,-5.866c1.681,1.389 4.628,2.36 7.107,2.732c0.45,0.068 0.862,-0.004 1.235,-0.162c0.713,-0.304 1.189,-1.01 1.215,-1.807c0.028,-0.794 -0.398,-1.534 -1.089,-1.888c-3.119,-1.612 -8.468,-4.368 -8.468,-4.368c-3.153,-1.626 -6.35,9.496 -8.883,10.987c-8.696,5.11 -3.846,6.074 -23.098,20.14c-6.106,4.462 -11.855,23.771 -14.214,31.125c-4.615,-1.509 -17.034,1.86 -18.497,6.616Z" style="fill:#e3e8f0;fill-rule:nonzero;"/><path d="M80.666,123.448c-2.47,2.546 -0.889,4.648 -0.288,11.656c0.601,7.006 -4.154,13.942 -7.107,23.802c-2.954,9.859 1.684,22.57 5.33,25.633c3.647,3.06 4.08,7.925 7.107,5.492c0.665,-0.534 0.171,-2.707 1.777,-3.662c5.707,-3.392 13.497,-10.926 17.767,-45.775c1.672,-13.636 6.297,-28.576 9.239,-35.519c1.017,-2.399 -1.877,-2.088 -0.71,-5.127c0.676,-1.762 2.803,0.675 2.961,0.366c0.219,-0.428 3.032,-0.423 4.501,-1.036c2.776,-1.166 2.916,0.385 14.214,-12.232c1.529,-1.707 2.186,-3.264 4.488,-5.04c0.321,-0.248 6.411,0.777 9.726,1.141c0.94,0.102 8.705,8.6 8.65,6.182c-0.035,-1.538 -7.287,-6.827 -8.2,-7.323c-3.004,-1.628 -9.585,-3.979 -11.11,-5.615c-0.533,-0.571 0.697,-1.145 0.198,-1.709c-0.511,-0.579 -0.986,-1.147 -1.385,-1.69c-0.522,-0.709 0.706,-1.379 0.305,-1.971c-0.318,-0.472 -1.371,-0.896 -1.52,-1.259c-0.378,-0.915 1.075,-0.964 2.37,-0.843c1.085,0.098 2.109,-0.53 2.539,-1.562l0.005,0.002c0.753,-1.807 1.936,-4.446 2.817,-5.494c1.681,1.389 4.628,2.36 7.107,2.732c-5.332,-2.158 -6.905,-4.564 -6.905,-4.564c-2.468,-1.271 -0.151,2.713 -3.898,7.326c-0.606,0.745 -4.637,-0.325 -5.187,0c-8.696,5.11 -3.846,7.906 -23.098,21.97c-5.768,4.216 -11.219,19.851 -13.792,27.971c-0.151,0.475 -0.292,0.918 -0.422,1.324c-0.662,2.854 -8.17,23.588 -8.884,25.635c-1.506,4.319 -6.486,7.112 -9.031,10.985c-3.493,5.317 -2.537,17.74 -4.243,5.494c-0.256,-1.845 9.858,-21.7 9.721,-23.806c-0.402,-6.191 -0.773,-12.683 1.777,-14.646c3.536,-2.719 4.044,-4.579 7.462,-2.198c0.96,0.67 1.902,2.713 1.933,2.564c0.44,-2.102 1.385,-3.956 1.265,-4.028c-4.812,-2.864 -12.14,-0.675 -17.479,4.824Z" style="fill:#b3c2cf;fill-rule:nonzero;"/><path d="M140.787,71.387c-0.05,0.452 0.908,1.137 2.487,1.463c1.581,0.325 6.756,0.989 8.173,2.198c1.418,1.209 3.028,3.835 2.844,2.93c-0.185,-0.905 -2.094,-4.011 -3.199,-4.03c-1.104,-0.016 -7.919,-0.946 -8.883,-2.195c-0.965,-1.25 -1.371,-0.823 -1.422,-0.366Z" style="fill:#8299ab;fill-rule:nonzero;"/><path d="M142.26,73.944c-0.133,0.619 0.863,1.708 2.636,2.39c1.774,0.68 7.65,2.352 9.09,4.235c1.44,1.881 2.871,5.755 2.806,4.473c-0.064,-1.28 -1.762,-5.864 -3.037,-6.051c-1.274,-0.181 -9.001,-2.462 -9.912,-4.334c-0.909,-1.872 -1.45,-1.338 -1.583,-0.713Z" style="fill:#8299ab;fill-rule:nonzero;"/></g></svg>