<?xml version="1.0" encoding="UTF-8" standalone="no"?>
<!DOCTYPE svg PUBLIC "-//W3C//DTD SVG 1.1//EN" "http://www.w3.org/Graphics/SVG/1.1/DTD/svg11.dtd">
<svg width="100%" height="100%" viewBox="0 0 2415 2035" version="1.1" xmlns="http://www.w3.org/2000/svg" xmlns:xlink="http://www.w3.org/1999/xlink" xml:space="preserve" xmlns:serif="http://www.serif.com/" style="fill-rule:evenodd;clip-rule:evenodd;stroke-linejoin:round;stroke-miterlimit:2;">
    <g transform="matrix(1,0,0,1,0,-52.7605)">
        <g id="Layer1">
        </g>
        <g id="Layer2">
        </g>
        <g id="realizare_website" transform="matrix(1.11616,0,0,1.44764,-3090.92,-379.864)">
            <rect x="2769.24" y="298.849" width="2162.86" height="1405.6" style="fill:none;"/>
            <clipPath id="_clip1">
                <rect x="2769.24" y="298.849" width="2162.86" height="1405.6"/>
            </clipPath>
            <g clip-path="url(#_clip1)">
                <g id="Layer5">
                </g>
                <g transform="matrix(3.54169,0,0,2.73073,2611.65,1161.68)">
                    <g transform="matrix(0.829547,0,0,1,0.746253,-54.6888)">
                        <path d="M406.643,306.822C714.909,302.022 773.496,288.082 783.21,255.279C805.495,180.031 302.133,75.997 50.664,258.08C-524.082,321.849 223.127,309.68 406.643,306.822Z" style="fill:rgb(251,222,235);fill-opacity:0.48;fill-rule:nonzero;"/>
                    </g>
                    <g transform="matrix(1,0,0,1,-45.5339,0)">
                        <path d="M638.846,-231.541C638.846,-235.591 637.33,-239.469 634.631,-242.334C631.936,-245.197 628.276,-246.803 624.459,-246.803L260.987,-246.803C257.164,-246.803 253.499,-245.185 250.796,-242.313C248.098,-239.439 246.587,-235.541 246.605,-231.485C246.776,-183.913 247.302,-39.096 247.475,8.275C247.504,16.671 253.922,23.464 261.832,23.475C326.627,23.596 590.58,24.077 616.483,24.125C617.823,24.125 619.144,23.759 620.31,23.056C631.767,16.16 638.846,3.266 638.846,-10.71L638.846,-231.541" style="fill:rgb(179,194,207);fill-rule:nonzero;"/>
                    </g>
                    <g transform="matrix(1,0,0,1,-45.5339,0)">
                        <path d="M638.847,-231.541C638.847,-235.59 637.33,-239.472 634.631,-242.334C631.937,-245.194 628.276,-246.804 624.461,-246.804L265.375,-246.804C261.559,-246.804 257.903,-245.194 255.205,-242.334C252.507,-239.472 250.994,-235.59 250.994,-231.541L250.994,4.198C250.994,8.243 252.507,12.125 255.205,14.987C257.903,17.847 261.559,19.457 265.375,19.457L624.461,19.457C628.276,19.457 631.937,17.847 634.631,14.987C637.33,12.125 638.847,8.243 638.847,4.198L638.847,-231.541" style="fill:rgb(247,247,250);fill-rule:nonzero;"/>
                    </g>
                    <g transform="matrix(1.13806,0,0,1,-110.62,-12.6483)">
                        <path d="M604.551,-185.963C604.551,-190.357 601.193,-193.92 597.054,-193.92L297.109,-193.92C292.963,-193.92 289.605,-190.357 289.605,-185.963L289.605,-161.883C289.605,-157.489 292.963,-153.929 297.109,-153.929L597.054,-153.929C601.193,-153.929 604.551,-157.489 604.551,-161.883L604.551,-185.963Z" style="fill:rgb(230,230,230);fill-rule:nonzero;"/>
                    </g>
                    <g transform="matrix(0.365064,0,0,0.359186,131.724,-70.6735)">
                        <path d="M604.551,-185.963C604.551,-190.357 601.193,-193.92 597.054,-193.92L297.109,-193.92C292.963,-193.92 289.605,-190.357 289.605,-185.963L289.605,-161.883C289.605,-157.489 292.963,-153.929 297.109,-153.929L597.054,-153.929C601.193,-153.929 604.551,-157.489 604.551,-161.883L604.551,-185.963Z" style="fill:rgb(206,218,230);fill-rule:nonzero;"/>
                    </g>
                    <g transform="matrix(0.365064,0,0,0.215003,131.724,-77.9118)">
                        <path d="M562.975,-185.963C562.975,-190.357 559.617,-193.92 555.478,-193.92L297.109,-193.92C292.963,-193.92 289.605,-190.357 289.605,-185.963L289.605,-161.883C289.605,-157.489 292.963,-153.929 297.109,-153.929L555.478,-153.929C559.617,-153.929 562.975,-157.489 562.975,-161.883L562.975,-185.963Z" style="fill:rgb(206,218,230);fill-rule:nonzero;"/>
                    </g>
                    <g transform="matrix(0.130841,0,0,0.272748,199.557,-47.8199)">
                        <path d="M562.975,-185.963C562.975,-190.357 559.617,-193.92 555.478,-193.92L297.109,-193.92C292.963,-193.92 289.605,-190.357 289.605,-185.963L289.605,-161.883C289.605,-157.489 292.963,-153.929 297.109,-153.929L555.478,-153.929C559.617,-153.929 562.975,-157.489 562.975,-161.883L562.975,-185.963Z" style="fill:rgb(214,15,74);fill-rule:nonzero;"/>
                    </g>
                    <g transform="matrix(0.130841,0,0,0.094263,199.557,-61.4383)">
                        <path d="M562.975,-185.963C562.975,-190.357 559.617,-193.92 555.478,-193.92L297.109,-193.92C292.963,-193.92 289.605,-190.357 289.605,-185.963L289.605,-161.883C289.605,-157.489 292.963,-153.929 297.109,-153.929L555.478,-153.929C559.617,-153.929 562.975,-157.489 562.975,-161.883L562.975,-185.963Z" style="fill:rgb(230,230,230);fill-rule:nonzero;"/>
                    </g>
                    <g transform="matrix(0.130841,0,0,0.094263,250.198,-61.6913)">
                        <path d="M562.975,-185.963C562.975,-190.357 559.617,-193.92 555.478,-193.92L297.109,-193.92C292.963,-193.92 289.605,-190.357 289.605,-185.963L289.605,-161.883C289.605,-157.489 292.963,-153.929 297.109,-153.929L555.478,-153.929C559.617,-153.929 562.975,-157.489 562.975,-161.883L562.975,-185.963Z" style="fill:rgb(230,230,230);fill-rule:nonzero;"/>
                    </g>
                    <g transform="matrix(0.130841,0,0,0.094263,199.557,-52.4112)">
                        <path d="M562.975,-185.963C562.975,-190.357 559.617,-193.92 555.478,-193.92L297.109,-193.92C292.963,-193.92 289.605,-190.357 289.605,-185.963L289.605,-161.883C289.605,-157.489 292.963,-153.929 297.109,-153.929L555.478,-153.929C559.617,-153.929 562.975,-157.489 562.975,-161.883L562.975,-185.963Z" style="fill:rgb(230,230,230);fill-rule:nonzero;"/>
                    </g>
                    <g transform="matrix(0.130841,0,0,0.094263,250.198,-52.6642)">
                        <path d="M562.975,-185.963C562.975,-190.357 559.617,-193.92 555.478,-193.92L297.109,-193.92C292.963,-193.92 289.605,-190.357 289.605,-185.963L289.605,-161.883C289.605,-157.489 292.963,-153.929 297.109,-153.929L555.478,-153.929C559.617,-153.929 562.975,-157.489 562.975,-161.883L562.975,-185.963Z" style="fill:rgb(230,230,230);fill-rule:nonzero;"/>
                    </g>
                    <g transform="matrix(0.130841,0,0,0.094263,199.557,-43.3841)">
                        <path d="M562.975,-185.963C562.975,-190.357 559.617,-193.92 555.478,-193.92L297.109,-193.92C292.963,-193.92 289.605,-190.357 289.605,-185.963L289.605,-161.883C289.605,-157.489 292.963,-153.929 297.109,-153.929L555.478,-153.929C559.617,-153.929 562.975,-157.489 562.975,-161.883L562.975,-185.963Z" style="fill:rgb(230,230,230);fill-rule:nonzero;"/>
                    </g>
                    <g transform="matrix(0.130841,0,0,0.094263,250.198,-43.6371)">
                        <path d="M562.975,-185.963C562.975,-190.357 559.617,-193.92 555.478,-193.92L297.109,-193.92C292.963,-193.92 289.605,-190.357 289.605,-185.963L289.605,-161.883C289.605,-157.489 292.963,-153.929 297.109,-153.929L555.478,-153.929C559.617,-153.929 562.975,-157.489 562.975,-161.883L562.975,-185.963Z" style="fill:rgb(230,230,230);fill-rule:nonzero;"/>
                    </g>
                    <g transform="matrix(0.130841,0,0,0.094263,199.557,-34.357)">
                        <path d="M562.975,-185.963C562.975,-190.357 559.617,-193.92 555.478,-193.92L297.109,-193.92C292.963,-193.92 289.605,-190.357 289.605,-185.963L289.605,-161.883C289.605,-157.489 292.963,-153.929 297.109,-153.929L555.478,-153.929C559.617,-153.929 562.975,-157.489 562.975,-161.883L562.975,-185.963Z" style="fill:rgb(230,230,230);fill-rule:nonzero;"/>
                    </g>
                    <g transform="matrix(0.130841,0,0,0.094263,250.198,-34.6099)">
                        <path d="M562.975,-185.963C562.975,-190.357 559.617,-193.92 555.478,-193.92L297.109,-193.92C292.963,-193.92 289.605,-190.357 289.605,-185.963L289.605,-161.883C289.605,-157.489 292.963,-153.929 297.109,-153.929L555.478,-153.929C559.617,-153.929 562.975,-157.489 562.975,-161.883L562.975,-185.963Z" style="fill:rgb(230,230,230);fill-rule:nonzero;"/>
                    </g>
                    <g transform="matrix(1,0,0,1,-27.0819,3.20131)">
                        <path d="M577.097,-241.277C580.385,-241.277 583.049,-238.449 583.049,-234.963C583.049,-231.476 580.385,-228.649 577.097,-228.649C573.81,-228.649 571.146,-231.476 571.146,-234.963C571.146,-238.449 573.81,-241.277 577.097,-241.277" style="fill:rgb(214,15,74);fill-rule:nonzero;"/>
                    </g>
                    <g transform="matrix(1,0,0,1,-27.0819,3.20131)">
                        <path d="M599.912,-241.278C603.199,-241.278 605.863,-238.449 605.863,-234.963C605.863,-231.476 603.199,-228.649 599.912,-228.649C596.625,-228.649 593.96,-231.476 593.96,-234.963C593.96,-238.449 596.625,-241.278 599.912,-241.278Z" style="fill:rgb(214,15,74);fill-rule:nonzero;"/>
                    </g>
                    <path d="M396.534,19.457L370.482,19.457L370.233,20.082L396.277,20.082C396.362,19.872 396.448,19.664 396.534,19.457M469.236,19.457L458.301,19.457C458.346,19.66 458.391,19.868 458.436,20.082L469.058,20.082C469.118,19.873 469.177,19.664 469.236,19.457" style="fill:rgb(207,214,222);fill-rule:nonzero;"/>
                    <g transform="matrix(1,0,0,1,-41.4961,-4.6493)">
                        <g transform="matrix(0.319253,0,0,0.319253,-742.071,-416.478)">
                            <path d="M3739.76,1309.54C3751.91,1293.33 3875.5,1048.17 3895.76,1050.2C3916.03,1052.22 3995.04,1062.36 3995.04,1062.36L3928.18,1309.54L3875.5,1321.69L3956.55,1090.72L3887.66,1088.69L3778.25,1307.51C3778.25,1307.51 3727.6,1325.75 3739.76,1309.54Z" style="fill:rgb(207,222,236);"/>
                        </g>
                        <g transform="matrix(0.319253,0,0,0.319253,-751.773,-400.954)">
                            <path d="M3860.04,1168.98C3860.04,1168.98 3869.12,993.923 3869.12,970.583C3869.12,965.4 3870.01,959.897 3871.4,954.473C3872.89,948.678 3870.82,942.552 3866.12,938.852C3861.42,935.151 3854.98,934.574 3849.69,937.381C3849.52,937.471 3849.36,937.558 3849.2,937.643C3847.23,938.689 3844.79,938.141 3843.46,936.352C3835.32,925.418 3808.16,888.949 3801.75,880.346C3800.89,879.183 3800.56,877.705 3800.86,876.285C3800.86,876.284 3800.86,876.283 3800.86,876.282C3801.93,871.115 3805.93,867.052 3811.07,865.883C3816.22,864.715 3821.57,866.657 3824.78,870.852C3828.77,876.088 3832.82,881.396 3836.2,885.826C3841.06,892.194 3849.64,894.421 3856.99,891.22C3866.66,887.001 3879.73,881.304 3887.77,877.802C3892.39,875.786 3895.91,871.86 3897.42,867.043C3898.48,863.658 3899.67,859.845 3900.5,857.198C3901.16,855.058 3901.41,852.809 3901.23,850.575C3900.6,842.089 3900.87,820.166 3919.69,820.166C3928.9,820.166 3938.32,819.762 3946.35,819.272C3951.56,818.965 3956.63,821.015 3960.16,824.855C3963.7,828.695 3965.32,833.919 3964.58,839.086C3963.7,845.342 3962.79,851.717 3962.13,856.303C3961.56,860.296 3959.62,863.966 3956.64,866.686C3950.49,872.248 3942.69,882.043 3965.07,881.111C3994.08,879.902 4043.36,857.289 4049.93,854.223C4050.4,854 4050.88,853.798 4051.37,853.619C4054.53,852.458 4067.58,847.675 4077.55,844.019C4080.01,843.116 4082.77,843.601 4084.78,845.291C4086.79,846.981 4087.74,849.617 4087.27,852.199C4087.21,852.499 4087.16,852.767 4087.12,852.996C4087.02,853.567 4086.72,854.083 4086.27,854.452C4081.15,858.675 4049.09,885.12 4038.49,893.867C4036.26,895.707 4033.61,896.963 4030.77,897.519C4019.87,899.656 3991.15,905.287 3977.03,908.055C3971.92,909.057 3967.53,912.295 3965.06,916.88C3962.41,921.8 3958.74,928.622 3955.09,935.399C3952.23,940.71 3952.33,947.124 3955.34,952.348C3958.36,957.572 3963.87,960.86 3969.9,961.038C3969.94,961.039 3969.98,961.04 3970.02,961.041C3978.98,961.305 3986.27,968.332 3986.87,977.275C3987.89,992.595 3989.41,1015.43 3990.3,1028.7C3990.73,1035.21 3987.49,1041.42 3981.89,1044.78C3981.48,1045.02 3981.06,1045.28 3980.63,1045.53C3975.08,1048.87 3968.13,1048.84 3962.61,1045.46C3957.08,1042.09 3953.89,1035.92 3954.32,1029.46C3954.45,1027.43 3954.59,1025.42 3954.72,1023.48C3955.04,1018.58 3953.28,1013.76 3949.86,1010.23C3946.44,1006.7 3941.69,1004.77 3936.78,1004.94C3934.97,1005 3933.15,1005.06 3931.4,1005.12C3923.1,1005.39 3916.15,1011.5 3914.81,1019.69C3909.03,1054.68 3893.81,1142.62 3886.86,1141.65" style="fill:rgb(207,222,236);"/>
                        </g>
                        <g transform="matrix(0.319253,0,0,0.319253,-731.721,-408.199)">
                            <path d="M3999.37,909.039C4001.36,905.778 4004.98,903.876 4008.8,904.088C4012.27,904.28 4016.57,904.519 4019.99,904.71C4023.9,904.927 4027.69,906.114 4031.02,908.164C4031.94,908.73 4032.92,909.334 4033.91,909.944C4039.26,913.237 4042.02,919.493 4040.85,925.665C4040.36,928.209 4039.85,930.919 4039.37,933.41C4038.23,939.4 4039.09,945.599 4041.82,951.052C4046.18,959.784 4052.95,973.323 4057.16,981.738C4059.51,986.445 4064.16,989.572 4069.41,989.976C4069.41,989.976 4069.41,989.976 4069.41,989.976C4071.47,990.135 4073.49,989.359 4074.92,987.864C4076.34,986.37 4077.02,984.313 4076.77,982.264C4075.61,973.046 4073.92,959.501 4073.92,959.501C4073.92,959.501 4073.88,959.326 4073.8,959.008C4072.58,954.139 4073.67,948.98 4076.76,945.023C4079.85,941.067 4084.59,938.754 4089.61,938.754C4090.27,938.754 4090.88,938.754 4091.44,938.754C4093.58,938.754 4095.72,939.017 4097.8,939.537C4099.12,939.867 4100.75,940.274 4102.48,940.707C4110.18,942.631 4115.73,949.333 4116.2,957.255C4116.29,958.845 4116.38,960.369 4116.46,961.685C4116.62,964.398 4115.52,967.032 4113.47,968.821C4110.86,971.105 4107.08,974.411 4103.7,977.368C4099.24,981.27 4098.27,987.832 4101.41,992.858C4101.58,993.122 4101.73,993.362 4101.86,993.573C4102.23,994.17 4102.85,994.579 4103.54,994.694C4104.87,994.916 4107.24,995.311 4109.68,995.718C4114.67,996.55 4119.65,994.151 4122.11,989.727C4123.68,986.903 4125.46,983.689 4127.02,980.89C4129.49,976.442 4129.56,971.05 4127.21,966.539C4125.05,962.404 4122.32,957.183 4120.04,952.801C4117.39,947.732 4118.92,941.489 4123.6,938.21C4123.6,938.21 4123.6,938.21 4123.6,938.21C4128.02,935.119 4133.57,934.131 4138.78,935.508C4143.99,936.884 4148.33,940.487 4150.64,945.355C4153.52,951.4 4156.62,957.936 4159.28,963.537C4163.49,972.393 4163.14,982.738 4158.35,991.292C4150.88,1004.63 4139.79,1024.44 4133.82,1035.09C4131.11,1039.93 4129.79,1045.42 4129.99,1050.97C4130.8,1073.02 4132.93,1131.42 4133.45,1145.66C4133.53,1147.76 4133.83,1149.85 4134.34,1151.89C4138.66,1169.18 4159.92,1254.23 4164.01,1270.58C4164.45,1272.35 4165.43,1273.95 4166.8,1275.15C4166.8,1275.15 4166.8,1275.15 4166.8,1275.15C4168.45,1276.6 4168.84,1279.01 4167.71,1280.89C4166.59,1282.77 4164.29,1283.59 4162.23,1282.82C4155.77,1280.42 4148.96,1277.88 4143.25,1275.76C4134.67,1272.57 4128,1265.66 4125.1,1256.98C4116.12,1230.03 4096.72,1171.84 4092.78,1160.02C4092.71,1159.81 4092.51,1159.68 4092.29,1159.7C4092.07,1159.73 4091.9,1159.9 4091.88,1160.12C4090.93,1171.26 4086.6,1221.79 4083.54,1257.48C4082.82,1265.83 4078.08,1273.3 4070.83,1277.49C4063.58,1281.68 4054.74,1282.07 4047.15,1278.53C4046.69,1278.31 4046.25,1278.11 4045.83,1277.92C4043.21,1276.69 4041.57,1274.02 4041.68,1271.12C4042.79,1240.59 4048.91,1072.8 4050.3,1034.65C4050.48,1029.58 4049.39,1024.55 4047.13,1020.02C4038.74,1003.24 4017.49,960.759 4011,947.772C4009.74,945.247 4007.95,943.02 4005.76,941.24C4004.78,940.44 4003.63,939.509 4002.41,938.514C3994.35,931.969 3992.38,920.474 3997.79,911.618C3998.34,910.716 3998.87,909.848 3999.37,909.039Z" style="fill:rgb(207,222,236);"/>
                        </g>
                    </g>
                    <g transform="matrix(1,0,0,1,-45.5339,0)">
                        <path d="M542.379,-153.929L439.772,-153.929L417.903,-99.205L401.921,-59.212L370.482,19.457L396.534,19.457C397.331,17.545 398.155,15.761 399.008,14.247C403.845,5.663 411.286,7.538 414.352,6.551C417.422,5.565 418.446,7.532 421.609,1.618C422.55,-0.145 425.649,-1.137 429.28,-1.137C429.38,-1.137 429.481,-1.136 429.582,-1.135C427.974,-2.067 427.132,-3.805 427.725,-7.509C428.845,-14.479 424.814,-16.959 427.725,-18.426C430.048,-19.6 430.986,-26.102 428.706,-26.102C428.428,-26.102 428.102,-26.006 427.725,-25.791C424.809,-24.135 425.396,-18.848 424.921,-18.848C424.831,-18.848 424.703,-19.037 424.506,-19.477C423.266,-22.242 424.506,-24.216 421.158,-24.872C417.886,-25.514 412.84,-44.107 426.707,-44.11C427.037,-44.11 427.374,-44.099 427.725,-44.078C428.562,-43.997 429.349,-43.963 430.092,-43.963C432.038,-43.963 433.691,-44.195 435.187,-44.426C436.684,-44.657 438.023,-44.888 439.34,-44.888C441.129,-44.888 442.877,-44.461 444.92,-43.027C450.544,-39.081 449.675,-37.501 452.031,-32.635C454.39,-27.766 459.966,-20.531 452.652,-14.085C446.102,-8.315 440.943,-0.751 436.643,0.203C436.729,0.236 436.814,0.27 436.899,0.304C442.494,2.559 438.969,4.473 443.633,8.108C451.452,10.945 456.205,12.511 457.217,15.283C457.43,15.865 457.838,17.356 458.301,19.457L469.236,19.457C470.037,16.66 470.802,14.073 471.53,12.105C472.701,8.942 475.506,6.994 478.579,5.723L542.379,-153.929ZM552.299,-228.649C549.012,-228.649 546.347,-231.476 546.347,-234.963C546.347,-238.449 549.012,-241.277 552.299,-241.277C555.585,-241.277 558.251,-238.449 558.251,-234.963C558.251,-231.476 555.585,-228.649 552.299,-228.649M579.494,-246.804L476.888,-246.804L455.754,-193.92L558.36,-193.92L572.952,-230.433C571.838,-231.58 571.146,-233.186 571.146,-234.963C571.146,-238.449 573.81,-241.277 577.097,-241.277C577.16,-241.277 577.222,-241.276 577.284,-241.274L579.495,-246.806" style="fill:rgb(250,250,250);fill-opacity:0.5;fill-rule:nonzero;"/>
                    </g>
                    <g transform="matrix(1,0,0,1,-45.514,-0.0826767)">
                        <path d="M558.36,-193.92L455.754,-193.92L439.772,-153.929L542.379,-153.929L558.36,-193.92Z" style="fill:rgb(247,249,251);fill-opacity:0.43;fill-rule:nonzero;"/>
                    </g>
                    <g transform="matrix(1,0,0,1,-24.5522,3.20131)">
                        <path d="M552.299,-241.277C549.012,-241.277 546.347,-238.449 546.347,-234.963C546.347,-231.476 549.012,-228.649 552.299,-228.649C555.585,-228.649 558.251,-231.476 558.251,-234.963C558.251,-238.449 555.585,-241.277 552.299,-241.277" style="fill:rgb(212,73,114);fill-rule:nonzero;"/>
                    </g>
                    <g transform="matrix(1,0,0,1,-24.5522,3.20131)">
                        <path d="M549.998,-229.138C550.706,-228.823 551.483,-228.649 552.299,-228.649C555.585,-228.649 558.251,-231.476 558.251,-234.963C558.251,-237.671 556.642,-239.982 554.383,-240.879" style="fill:rgb(214,15,74);fill-rule:nonzero;"/>
                    </g>
                    <path d="M388.501,41.775C382.083,38.814 383.758,41.676 378.83,38.518C373.899,35.362 374.925,35.224 370.458,35.915C365.996,36.605 365.346,38.421 362.647,40.297C359.952,42.168 358.743,43.903 360.975,48.806C363.205,53.713 363.486,53.077 366.833,48.806C370.179,44.536 371.11,44.044 371.668,42.96C372.227,41.872 377.061,60.519 383.479,61.31C389.894,62.099 394.916,44.735 388.501,41.775" style="fill:rgb(224,232,240);fill-rule:nonzero;"/>
                    <path d="M388.501,41.775C385.313,40.304 383.336,42.412 381.549,44.519C379.739,46.654 378.124,48.79 375.643,47.2C370.715,44.044 374.55,38.515 370.086,39.205C365.624,39.896 366.587,43.549 363.889,45.426C362.84,46.154 361.829,46.087 361.117,46.02C359.995,45.914 359.61,45.809 360.975,48.806C363.205,53.713 363.486,53.077 366.833,48.806C370.179,44.536 371.11,44.044 371.668,42.96C372.227,41.872 377.061,60.519 383.479,61.31C389.894,62.099 394.916,44.735 388.501,41.775" style="fill:rgb(179,194,207);fill-rule:nonzero;"/>
                    <g transform="matrix(1,0,0,1,-45.5339,0)">
                        <path d="M288.693,164.457L224.66,164.457L207.734,155.977L257.393,150.693L288.693,164.457Z" style="fill:rgb(130,153,171);fill-opacity:0.45;fill-rule:nonzero;"/>
                    </g>
                    <g transform="matrix(1,0,0,1,-45.5339,0)">
                        <path d="M191.181,153.017C175.186,153.41 172.767,151.834 159.562,155.778C146.358,159.724 174.068,166.225 187.645,164.457C201.224,162.686 207.176,152.622 191.181,153.017Z" style="fill:rgb(130,153,171);fill-opacity:0.45;fill-rule:nonzero;"/>
                    </g>
                    <path d="M497.428,-39.478C493.153,-34.544 487.665,-29.614 486.27,-19.154C484.728,-7.586 485.9,-8.868 490.546,-5.515C491.283,-4.986 492.48,2.493 493.217,2.88C497.124,4.941 501.964,-0.521 507.288,-15.8C513.61,-33.952 501.707,-44.412 497.428,-39.478Z" style="fill:rgb(224,232,240);fill-rule:nonzero;"/>
                    <path d="M497.428,-39.478C493.915,-35.424 487.925,-31.718 487.376,-24.245C487.179,-21.61 493.493,-20.709 493.905,-22.421C494.12,-23.317 494.575,-18.639 496.46,-17.986C496.616,-17.931 498.498,-20.372 499.723,-20.582C501.015,-20.8 501.757,-18.747 501.602,-17.726C501.174,-14.901 499.26,-13.118 495.852,-13.618C494.293,-13.847 493.832,-11.441 493.816,-11.318C492.988,-5.103 485.395,-10.434 486.252,-8.926C486.988,-7.626 488.394,-7.067 490.546,-5.515C491.283,-4.986 492.48,2.493 493.217,2.88C497.124,4.941 501.964,-0.521 507.288,-15.8C513.61,-33.952 501.707,-44.412 497.428,-39.478Z" style="fill:rgb(179,194,207);fill-rule:nonzero;"/>
                    <path d="M458.637,164.7C449.635,169.434 424.102,172.852 403.249,171.175C368.913,168.413 400.202,165.453 384.577,166.834C368.954,168.215 374.534,168.807 331.571,166.439C288.607,164.073 327.851,155.192 344.218,152.431C360.583,149.665 367.282,153.612 379.928,150.06C385.597,149.735 392.838,150.048 401.643,150.71C406.456,149.609 411.311,148.675 415.003,148.052C431.37,145.287 438.067,149.235 450.712,145.681C463.36,142.131 485.122,144.698 520.089,152.693C555.053,160.692 508.37,169.559 474.035,166.797C465.186,166.085 460.696,165.36 458.637,164.7Z" style="fill:rgb(130,153,171);fill-opacity:0.45;"/>
                    <g transform="matrix(0.952588,-0.304263,0.304263,0.952588,-24.4326,137.795)">
                        <path d="M429.591,139.66C424.808,142.253 418.752,139.66 414.498,142.93C410.248,146.2 410.778,149.13 415.348,152.063C419.92,154.993 419.069,151.949 423.532,153.192C427.998,154.431 438.944,158.828 443.514,156.009C448.085,153.192 451.059,147.103 444.256,141.688C437.454,136.276 434.372,137.066 429.591,139.66Z" style="fill:rgb(41,59,71);fill-rule:nonzero;"/>
                    </g>
                    <path d="M425.186,92.526C421.301,99.743 415.457,100.308 412.905,105.946C410.353,111.584 411.524,119.251 421.301,113.952C431.077,108.65 425.186,92.526 425.186,92.526" style="fill:rgb(41,59,71);fill-rule:nonzero;"/>
                    <path d="M478.546,84.607L480.51,85.208L462.127,152.696L460.162,152.093L478.546,84.607Z" style="fill:rgb(41,59,71);fill-rule:nonzero;"/>
                    <path d="M492.597,84.607L490.631,85.208L509.015,152.696L510.98,152.093L492.597,84.607Z" style="fill:rgb(41,59,71);fill-rule:nonzero;"/>
                    <path d="M489.612,89.114L487.602,89.51L499.725,158.572L501.737,158.174L489.612,89.114Z" style="fill:rgb(41,59,71);fill-rule:nonzero;"/>
                    <path d="M479.786,87.902L481.823,88.091L476.073,158.074L474.035,157.884L479.786,87.902Z" style="fill:rgb(41,59,71);fill-rule:nonzero;"/>
                    <path d="M498.511,-41.759C494.153,-45.6 485.154,-38.697 486.918,-30.409C488.687,-22.12 488.315,-24.983 490.825,-23.306C493.336,-21.629 490.099,-34.605 494.917,-31.988C496.187,-31.297 493.676,-27.418 495.257,-22.679C496.838,-17.945 496.247,-19.043 498.511,-20.73C500.774,-22.418 503.285,-22.615 502.355,-17.585C501.425,-12.553 498.387,-13.637 496.931,-13.142C495.474,-12.65 499.317,-7.158 501.177,-5.777C503.037,-4.397 508.586,-3.08 511.935,-8.309C515.283,-13.54 519.838,-18.373 518.538,-25.082C517.236,-31.789 517.236,-26.66 521.048,-26.66C524.86,-26.66 528.962,-35.872 523.257,-43.071C518.089,-49.601 508.409,-43.785 509.1,-40.697C506.075,-41.56 507.935,-41.613 502.913,-41.586C500.228,-41.572 500.526,-39.98 498.511,-41.759Z" style="fill:rgb(46,69,89);fill-rule:nonzero;"/>
                    <path d="M474.013,84.312C461.47,93.782 469.196,93.287 452.969,95.812C446.38,95.812 440.003,90.401 440.003,90.401C441.863,93.033 445.367,113.211 444.361,122.424C445.422,131.782 445.847,133.248 447.018,138.434C448.187,143.621 449.78,144.411 442.765,144.411C435.752,144.411 428.525,145.085 427.353,139.337C426.186,133.585 427.38,132.81 427.144,127.271C426.293,107.313 413.927,81.403 420.129,71.231C423.637,65.481 429.268,64.691 429.268,64.691C429.268,64.691 428.9,44.577 441.066,38.868C445.418,36.828 444.361,48.567 450.313,54.541C456.264,60.519 455.811,58.151 460.607,55.785C465.404,53.414 486.554,74.839 474.013,84.312" style="fill:rgb(46,69,89);fill-rule:nonzero;"/>
                    <path d="M474.013,84.312C461.47,93.782 469.196,93.287 452.969,95.812C446.38,95.812 440.003,90.401 440.003,90.401C441.863,93.033 445.367,113.211 444.361,122.424C445.422,131.782 445.847,133.248 447.018,138.434C448.187,143.621 449.78,144.411 442.765,144.411C435.752,144.411 428.525,145.085 427.353,139.337C427.022,137.703 429.244,138.573 431.974,139.443C434.048,140.104 436.416,140.765 438.18,140.327C442.272,139.314 443.133,132.409 443.016,129.642C442.412,115.521 442.28,99.019 435.312,89.851C434.137,88.312 427.615,81.84 428.049,80.143C428.229,79.441 429.397,79.966 430.56,80.491C431.673,80.993 432.781,81.495 433.017,80.923C433.404,79.989 427.141,74.781 430.595,73.73C433.36,72.893 423.675,67.093 425.392,66.133C427.535,64.934 429.268,64.691 429.268,64.691C429.268,64.691 431.02,63.977 431.68,64.425C436.579,67.75 434.521,75.021 436.759,80.153C442.777,93.95 456.732,91.563 454.566,75.65C453.795,69.959 447.346,62.249 446.427,52.581C445.79,45.842 440.315,39.222 441.066,38.868C445.418,36.828 444.361,48.567 450.313,54.541C456.264,60.519 455.811,58.151 460.607,55.785C465.404,53.414 486.554,74.839 474.013,84.312" style="fill:rgb(41,59,71);fill-rule:nonzero;"/>
                    <path d="M457.891,35.818C455.725,30.47 445.616,39.565 448.777,49.632C451.938,59.694 454.751,59.624 460.607,56.956C466.467,54.293 475.561,34.14 478.536,29.603C481.513,25.064 506.434,23.684 513.781,24.176C521.127,24.671 522.28,8.882 515.705,4.639C509.132,0.4 513.729,-1.637 507.684,-4.073C501.638,-6.508 493.976,-5.72 492.394,-2.761C489.233,3.155 492.175,1.975 489.106,2.962C486.04,3.948 474.278,4.68 471.53,12.105C467.8,22.194 463.062,48.581 457.891,35.818" style="fill:rgb(214,15,74);fill-rule:nonzero;"/>
                    <path d="M507.684,1.208C519.502,5.831 525.985,7.016 527.26,10.512C528.535,14.004 545.947,55.794 529.862,55.539C512.131,55.256 467.73,99.534 462.264,85.44C456.795,71.342 452.729,70.329 460.607,56.01C468.486,41.687 495.866,-3.417 507.684,1.208Z" style="fill:rgb(214,15,74);fill-rule:nonzero;"/>
                    <path d="M441.93,95.392C440.815,91.449 438.21,89.67 443.047,91.051C447.881,92.435 460.531,85.133 468.715,64.81C476.897,44.483 480.916,9.987 514.468,18.237C530.726,22.238 519.49,48.628 519.302,66.78C519.118,84.936 517.186,101.857 493.803,103.285C467.968,104.865 455.11,105.457 448.24,98.944C441.375,92.435 441.93,95.392 441.93,95.392" style="fill:rgb(247,247,250);fill-rule:nonzero;"/>
                    <path d="M441.93,95.392C440.815,91.449 438.21,89.67 443.047,91.051C447.881,92.435 460.531,85.133 468.715,64.81C468.958,66.379 478.003,45.997 477.932,47.278C477.39,57.273 459.699,81.467 464.756,95.533C466.994,101.766 475.247,101.628 485.751,100.8C509.538,100.908 518.668,84.827 515.134,91.535C511.678,98.089 505.36,102.582 493.803,103.285C467.968,104.865 455.11,105.457 448.24,98.944C441.375,92.435 441.93,95.392 441.93,95.392" style="fill:rgb(224,232,240);fill-rule:nonzero;"/>
                    <path d="M588.425,-78.277C588.989,-73.053 590.335,-64.634 590.335,-64.634C590.335,-64.634 604.578,-69.033 601.601,-76.697C598.626,-84.366 603.302,-85.945 604.895,-93.614C606.492,-101.281 599.94,-117.355 593.383,-116.427C581.409,-114.735 577.375,-101.544 581.232,-83.012C583.037,-74.33 585.2,-76.964 588.425,-78.277" style="fill:rgb(224,232,240);fill-rule:nonzero;"/>
                    <path d="M588.425,-78.277C588.989,-73.053 590.335,-64.634 590.335,-64.634C590.335,-64.634 604.578,-69.033 601.601,-76.697C598.626,-84.366 603.302,-85.945 604.895,-93.614C606.492,-101.281 599.94,-117.355 593.383,-116.427C587.904,-115.655 581.622,-108.028 580.457,-102.811C579.748,-99.648 582.358,-97.564 583.66,-95.974C585.973,-93.16 588.986,-91.954 590.012,-87.04C590.491,-84.723 582.222,-79.186 582.769,-78.24C584.267,-75.64 586.06,-77.314 588.425,-78.277" style="fill:rgb(179,194,207);fill-rule:nonzero;"/>
                    <path d="M594.589,-118.306C592.145,-119.885 590.018,-123.27 585.234,-117.744C580.454,-112.217 576.848,-111.315 579.819,-103.76C582.791,-96.207 586.936,-92.37 586.406,-96.995C585.873,-101.618 586.723,-104.888 587.998,-104.777C589.275,-104.662 586.723,-102.858 588.742,-96.995C590.76,-91.132 590.053,-94.402 592.478,-95.192C594.906,-95.982 597.884,-94.364 595.544,-90.549C593.204,-86.734 592.567,-87.976 591.612,-86.734C590.655,-85.494 591.824,-86.17 593.737,-84.255C595.649,-82.338 594.481,-79.519 597.776,-79.967C601.071,-80.418 602.346,-81.547 602.773,-83.463C603.198,-85.383 611.167,-92.034 611.272,-96.995C611.381,-101.955 611.059,-99.814 612.761,-100.154C614.463,-100.49 625.302,-100.905 617.438,-116.467C613.802,-123.66 606.445,-120.336 605.14,-117.744C603.835,-115.15 600.753,-121.014 594.589,-118.306Z" style="fill:rgb(46,69,89);fill-rule:nonzero;"/>
                    <path d="M586.511,-67.564C587.466,-70.834 586.971,-73.878 592.478,-75.347C597.989,-76.812 601.708,-80.534 602.663,-78.392C603.623,-76.249 602.936,-73.091 605.14,-71.512C607.342,-69.935 610.742,-69.37 613.504,-66.891C616.269,-64.409 620.732,-49.864 614.676,-35.992C608.616,-22.125 608.616,-4.205 601.601,-0.762C594.589,2.683 590.868,3.471 584.066,1.668C577.264,-0.136 571.312,2.215 569.506,-4.541C567.699,-11.3 567.061,-20.729 567.061,-20.729C567.061,-20.729 561.11,-5.097 553.031,-8.593C548.467,-10.569 547.4,-25.846 551.013,-29.567C554.625,-33.288 556.752,-33.85 558.453,-34.642C560.152,-35.43 565.999,-45.576 568.126,-51.554C570.248,-57.529 570.673,-67.113 586.511,-67.564" style="fill:rgb(247,247,250);fill-rule:nonzero;"/>
                    <path d="M599.487,-68.285C599.081,-68.285 597.119,-67.9 594.835,-67.516C592.552,-67.131 589.948,-66.746 588.255,-66.746C586.981,-66.746 586.225,-66.964 586.511,-67.564C570.673,-67.113 570.248,-57.529 568.126,-51.554C565.999,-45.576 560.152,-35.43 558.453,-34.642C556.752,-33.85 554.625,-33.288 551.013,-29.567C551.236,-29.796 551.392,-29.898 551.494,-29.898C551.906,-29.898 551.451,-28.25 550.994,-26.603C550.537,-24.956 550.077,-23.308 550.479,-23.308C550.514,-23.308 550.555,-23.321 550.603,-23.346C551.549,-23.852 549.645,-27.698 555.942,-31.681C548.711,-23.068 553.65,-12.179 558.533,-12.179C559.705,-12.179 560.874,-12.806 561.871,-14.245C563.919,-17.19 570.499,-27.438 574.792,-35.939C576.994,-40.307 577.706,-45.375 578.74,-46.324C578.773,-46.354 578.801,-46.368 578.826,-46.368C579.491,-46.368 577.211,-35.576 573.718,-31.325C573.569,-31.143 573.579,-31.062 573.714,-31.062C574.417,-31.062 578.491,-33.241 580.898,-34.585C582.292,-32.248 573.565,-28.496 573.443,-25.664C573.093,-17.655 572.203,-15.987 571.622,-15.987C571.458,-15.987 571.318,-16.12 571.223,-16.282C569.909,-18.504 571.41,-23.761 571.379,-24.128C571.369,-24.234 571.315,-24.282 571.226,-24.282C570.455,-24.282 567.061,-20.729 567.061,-20.729C567.061,-20.729 562.246,-8.083 555.4,-8.083C554.634,-8.083 553.844,-8.241 553.031,-8.593C550.321,-9.766 548.844,-15.629 548.848,-20.977C548.844,-15.629 550.321,-9.766 553.031,-8.593C553.844,-8.241 554.634,-8.083 555.4,-8.083C562.246,-8.083 567.061,-20.729 567.061,-20.729C567.061,-20.729 567.699,-11.3 569.506,-4.541C571.312,2.215 577.264,-0.136 584.066,1.668C586.422,2.293 588.408,2.606 590.29,2.606C593.84,2.606 597.018,1.489 601.601,-0.762C608.616,-4.205 608.616,-22.125 614.676,-35.992C616.888,-41.059 617.697,-46.215 617.697,-50.84C617.697,-46.215 616.888,-41.059 614.676,-35.992C608.616,-22.125 608.616,-4.205 601.601,-0.762C597.018,1.489 593.84,2.606 590.29,2.606C588.408,2.606 586.422,2.293 584.066,1.668C577.264,-0.136 571.312,2.215 569.506,-4.541C569.477,-4.65 569.504,-4.697 569.576,-4.697C569.844,-4.697 570.723,-4.051 571.654,-3.404C572.584,-2.758 573.567,-2.111 574.042,-2.111C574.216,-2.111 574.322,-2.199 574.331,-2.407C574.398,-3.941 574.219,-6.09 573.924,-8.448C573.909,-8.565 573.944,-8.619 574.02,-8.619C574.467,-8.619 576.348,-6.785 578.302,-4.951C580.256,-3.117 582.282,-1.283 583.018,-1.283C583.14,-1.283 583.227,-1.334 583.272,-1.443C583.817,-2.774 584.334,-3.249 584.93,-3.249C585.67,-3.249 586.532,-2.517 587.724,-1.786C588.916,-1.054 590.439,-0.322 592.499,-0.322C593.922,-0.322 595.602,-0.671 597.608,-1.611C600.014,-2.74 606.134,-2.491 606.108,-10.664C606.073,-21.956 613.716,-35.463 615.135,-47.324C616.434,-58.185 612.152,-67.904 599.503,-68.285C599.498,-68.285 599.492,-68.285 599.487,-68.285M601.677,-79.041C601.45,-79.041 601.194,-78.993 600.909,-78.907C599.122,-78.367 596.211,-76.339 592.478,-75.347C590.865,-74.917 589.767,-74.351 588.996,-73.685C587.136,-72.075 587.186,-69.876 586.511,-67.564C588.444,-68.266 588.929,-68.309 589.47,-68.309C589.508,-68.309 589.546,-68.309 589.584,-68.309C589.625,-68.308 589.666,-68.308 589.709,-68.308C590.289,-68.308 591.132,-68.352 593.687,-69.033C596.487,-69.777 600.649,-69.97 602.089,-72.414C603.347,-74.553 602.424,-78.545 602.571,-78.545C602.579,-78.545 602.591,-78.532 602.607,-78.506C602.399,-78.883 602.087,-79.041 601.677,-79.041" style="fill:rgb(247,209,227);fill-rule:nonzero;"/>
                    <path d="M602.607,-78.506C602.626,-78.47 602.645,-78.432 602.663,-78.392C603.623,-76.249 602.936,-73.091 605.14,-71.512C607.342,-69.935 610.742,-69.37 613.504,-66.891C615.259,-65.315 617.698,-58.879 617.697,-50.84C617.698,-58.879 615.259,-65.315 613.504,-66.891C610.742,-69.37 607.342,-69.935 605.14,-71.512C602.936,-73.091 603.623,-76.249 602.663,-78.392C602.64,-78.443 602.622,-78.481 602.607,-78.506" style="fill:rgb(250,171,199);fill-rule:nonzero;"/>
                    <path d="M602.571,-78.545C602.424,-78.545 603.347,-74.553 602.089,-72.414C600.649,-69.97 596.487,-69.777 593.687,-69.033C591.132,-68.352 590.289,-68.308 589.709,-68.308C589.666,-68.308 589.625,-68.308 589.584,-68.309C589.546,-68.309 589.508,-68.309 589.47,-68.309C588.929,-68.309 588.444,-68.266 586.511,-67.564C586.225,-66.964 586.981,-66.746 588.255,-66.746C589.948,-66.746 592.552,-67.131 594.835,-67.516C597.119,-67.9 599.081,-68.285 599.487,-68.285C599.492,-68.285 599.498,-68.285 599.503,-68.285C612.152,-67.904 616.434,-58.185 615.135,-47.324C613.716,-35.463 606.073,-21.956 606.108,-10.664C606.134,-2.491 600.014,-2.74 597.608,-1.611C595.602,-0.671 593.922,-0.322 592.499,-0.322C590.439,-0.322 588.916,-1.054 587.724,-1.786C586.532,-2.517 585.67,-3.249 584.93,-3.249C584.334,-3.249 583.817,-2.774 583.272,-1.443C583.227,-1.334 583.14,-1.283 583.018,-1.283C582.282,-1.283 580.256,-3.117 578.302,-4.951C576.348,-6.785 574.467,-8.619 574.02,-8.619C573.944,-8.619 573.909,-8.565 573.924,-8.448C574.219,-6.09 574.398,-3.941 574.331,-2.407C574.322,-2.199 574.216,-2.111 574.042,-2.111C573.567,-2.111 572.584,-2.758 571.654,-3.404C570.723,-4.051 569.844,-4.697 569.576,-4.697C569.504,-4.697 569.477,-4.65 569.506,-4.541C571.312,2.215 577.264,-0.136 584.066,1.668C586.422,2.293 588.408,2.606 590.29,2.606C593.84,2.606 597.018,1.489 601.601,-0.762C608.616,-4.205 608.616,-22.125 614.676,-35.992C616.888,-41.059 617.697,-46.215 617.697,-50.84C617.698,-58.879 615.259,-65.315 613.504,-66.891C610.742,-69.37 607.342,-69.935 605.14,-71.512C602.936,-73.091 603.623,-76.249 602.663,-78.392C602.645,-78.432 602.626,-78.47 602.607,-78.506C602.591,-78.532 602.579,-78.545 602.571,-78.545" style="fill:rgb(250,150,186);fill-rule:nonzero;"/>
                    <path d="M578.826,-46.368C578.801,-46.368 578.773,-46.354 578.74,-46.324C577.706,-45.375 576.994,-40.307 574.792,-35.939C570.499,-27.438 563.919,-17.19 561.871,-14.245C560.874,-12.806 559.705,-12.179 558.533,-12.179C553.65,-12.179 548.711,-23.068 555.942,-31.681C549.645,-27.698 551.549,-23.852 550.603,-23.346C550.555,-23.321 550.514,-23.308 550.479,-23.308C550.077,-23.308 550.537,-24.956 550.994,-26.603C551.451,-28.25 551.906,-29.898 551.494,-29.898C551.392,-29.898 551.236,-29.796 551.013,-29.567C549.545,-28.055 548.85,-24.636 548.848,-20.977C548.844,-15.629 550.321,-9.766 553.031,-8.593C553.844,-8.241 554.634,-8.083 555.4,-8.083C562.246,-8.083 567.061,-20.729 567.061,-20.729C567.061,-20.729 570.455,-24.282 571.226,-24.282C571.315,-24.282 571.369,-24.234 571.379,-24.128C571.41,-23.761 569.909,-18.504 571.223,-16.282C571.318,-16.12 571.458,-15.987 571.622,-15.987C572.203,-15.987 573.093,-17.655 573.443,-25.664C573.565,-28.496 582.292,-32.248 580.898,-34.585C578.491,-33.241 574.417,-31.062 573.714,-31.062C573.579,-31.062 573.569,-31.143 573.718,-31.325C577.211,-35.576 579.491,-46.368 578.826,-46.368" style="fill:rgb(250,150,186);fill-rule:nonzero;"/>
                    <path d="M562.018,-39.312C557.65,-39.312 553.87,-42.409 548.848,-37.969C543.826,-33.527 543.512,-35.366 543.233,-27.226C542.957,-19.087 541.652,-20.568 545.001,-18.299C548.349,-16.028 548.88,-12.971 548.848,-17.41C548.812,-21.848 548.412,-27.968 552.38,-30.237C556.345,-32.506 557.462,-33.097 558.856,-34.874C560.254,-36.649 559.507,-36.057 562.018,-39.312Z" style="fill:rgb(224,232,240);fill-rule:nonzero;"/>
                    <path d="M562.018,-39.312C557.65,-39.312 553.87,-42.409 548.848,-37.969C543.826,-33.527 543.512,-35.366 543.233,-27.226C542.957,-19.087 541.652,-20.568 545.001,-18.299C548.349,-16.028 548.88,-12.971 548.848,-17.41C548.812,-21.848 548.412,-27.968 552.38,-30.237C556.345,-32.506 557.462,-33.097 558.856,-34.874C560.254,-36.649 559.507,-36.057 562.018,-39.312Z" style="fill:rgb(224,232,240);fill-rule:nonzero;"/>
                    <path d="M562.018,-39.312C557.65,-39.312 559.405,-39.69 554.383,-35.252C549.362,-30.809 547.81,-21.862 543.233,-27.226C542.957,-19.087 541.652,-20.568 545.001,-18.299C548.349,-16.028 548.88,-12.971 548.848,-17.41C548.812,-21.848 548.412,-27.968 552.38,-30.237C556.345,-32.506 557.462,-33.097 558.856,-34.874C560.254,-36.649 559.507,-36.057 562.018,-39.312Z" style="fill:rgb(179,194,207);fill-rule:nonzero;"/>
                    <path d="M504.287,187.882C567.224,196.231 599.664,189.778 599.366,180.938C599.068,172.098 618.856,169.097 585.675,169.888C552.495,170.677 480.776,170.994 478.544,175.886C476.314,180.78 500.717,187.411 504.287,187.882Z" style="fill:rgb(130,153,171);fill-opacity:0.45;fill-rule:nonzero;"/>
                    <path d="M542.753,83.571C540.957,91.663 545.208,93.045 548.848,120.275C552.485,147.507 553.202,164.477 548.848,169.805C544.49,175.133 545.404,174.314 548.848,176.119C557.511,180.655 557.603,165.265 562.018,160.725C566.437,156.188 571.645,157.964 568.484,152.636C565.322,147.309 565.634,147.988 563.646,145.533C555.834,135.865 561.462,118.103 562.018,102.908C562.577,87.717 544.546,75.481 542.753,83.571Z" style="fill:rgb(224,232,240);fill-rule:nonzero;"/>
                    <path d="M542.753,83.571C541.34,89.927 543.658,92.143 546.483,105.983C547.255,109.769 561.462,118.103 562.018,102.908C562.577,87.717 544.546,75.481 542.753,83.571Z" style="fill:rgb(179,194,207);fill-rule:nonzero;"/>
                    <path d="M594.335,92.647C594.335,92.647 578.34,68.163 578.711,80.998C579.083,93.832 584.11,105.276 583.272,113.961C582.432,122.643 582.432,143.36 577.968,153.424C573.506,163.489 571.537,167.039 569.451,169.999C567.367,172.96 562.053,174.539 569.451,175.133C576.851,175.725 574.436,170.792 581.502,162.503C588.571,154.215 593.405,159.344 591.731,152.043C590.056,144.742 589.328,147.833 590.431,141.191C593.405,123.235 603.449,108.829 594.335,92.647" style="fill:rgb(224,232,240);fill-rule:nonzero;"/>
                    <path d="M594.335,92.647C594.335,92.647 596.697,78.264 593.817,74.55C589.19,68.575 578.482,73.084 578.711,80.998C579.083,93.832 584.11,105.276 583.272,113.961C582.432,122.643 603.449,108.829 594.335,92.647" style="fill:rgb(179,194,207);fill-rule:nonzero;"/>
                    <path d="M569.451,-3.349C575.518,-0.588 592.573,1.386 596.629,0.992C600.69,0.597 598.681,2.567 600.058,7.306C601.432,12.042 607.136,24.802 602.922,51.113C598.706,77.422 599.947,97.287 601.432,100.443C602.922,103.601 594.118,105.31 594.118,105.31L591.265,78.87L574.527,109.256C574.527,109.256 549.232,109.125 539.932,94.655C543.106,79.432 550.181,53.544 557.043,38.616C562.001,27.826 558.905,20.198 563.985,7.569C567.128,-0.231 568.592,0.729 569.451,-3.349Z" style="fill:rgb(46,69,89);fill-rule:nonzero;"/>
                    <path d="M562.252,173.455C562.824,171.182 568.021,170.215 569.87,169.559C567.608,171.606 570.35,174.566 573.079,174.434C575.807,174.3 579.737,160.827 584.447,158.59C586.072,151.905 585.936,149.51 590.151,146.092C591.885,147.772 592.239,151.905 592.983,155.327C592.859,159.536 589.475,161.076 590.133,176.954C587.995,176.916 588.691,177.051 588.691,177.051C589.25,171.407 588.091,165.227 585.694,160.772C585.694,160.772 582.623,169.376 581.861,172.795C578.991,174.636 574.899,176.873 574.899,176.873C574.899,176.873 561.523,176.368 562.252,173.455Z" style="fill:rgb(41,59,71);fill-rule:nonzero;"/>
                    <path d="M536.677,176.257C537.275,174.68 544.861,172.391 546.798,171.838C548.73,171.286 549.325,175.075 552.749,173.576C556.171,172.074 560.113,162.209 561.228,158.735C562.345,155.263 562.196,146.264 562.939,145.237C563.684,144.212 568.896,151.393 569.451,153.919C570.008,156.445 565.408,163.608 566.598,177.499C565.855,178.133 564.697,177.537 564.697,177.537C564.697,177.537 566.065,162.991 564.576,162.914C563.163,162.839 559.415,171.805 559.059,175.18C558.466,180.836 536.084,177.836 536.677,176.257Z" style="fill:rgb(41,59,71);fill-rule:nonzero;"/>
                    <path d="M426.643,-35.1C422.367,-30.167 418.647,-28.785 417.717,-17.143C416.787,-5.501 416.415,-1.948 421.065,1.407C425.713,4.76 430.179,6.733 436.502,-11.421C442.826,-29.573 430.921,-40.034 426.643,-35.1Z" style="fill:rgb(224,232,240);fill-rule:nonzero;"/>
                    <path d="M426.643,-35.1C423.456,-31.423 420.576,-29.719 418.932,-24.269C418.371,-22.407 425.764,-19.315 425.529,-16.352C424.986,-9.576 425.504,-6.333 417.539,-3.484C418.054,-1.436 419.12,0.002 421.065,1.407C425.713,4.76 430.179,6.733 436.502,-11.421C442.826,-29.573 430.921,-40.034 426.643,-35.1Z" style="fill:rgb(179,194,207);fill-rule:nonzero;"/>
                    <path d="M358.806,144.039C354.022,146.63 347.966,144.039 343.713,147.309C339.462,150.578 339.992,153.509 344.563,156.442C349.135,159.372 348.283,156.327 352.747,157.569C359.379,158.034 374.675,158.864 375.08,157.533C379.65,154.714 380.273,151.48 373.471,146.065C366.669,140.653 363.586,141.445 358.806,144.039Z" style="fill:rgb(41,59,71);fill-rule:nonzero;"/>
                    <path d="M354.4,96.903C350.515,104.121 344.671,104.687 342.119,110.325C339.567,115.961 340.739,123.63 350.515,118.329C360.291,113.027 354.4,96.903 354.4,96.903" style="fill:rgb(41,59,71);fill-rule:nonzero;"/>
                    <path d="M407.76,88.984L409.726,89.587L391.341,157.073L389.376,156.47L407.76,88.984Z" style="fill:rgb(41,59,71);fill-rule:nonzero;"/>
                    <path d="M421.81,88.984L419.846,89.587L438.229,157.073L440.195,156.47L421.81,88.984Z" style="fill:rgb(41,59,71);fill-rule:nonzero;"/>
                    <path d="M418.827,93.491L416.815,93.889L428.94,162.949L430.95,162.551L418.827,93.491Z" style="fill:rgb(41,59,71);fill-rule:nonzero;"/>
                    <path d="M409,92.28L411.038,92.468L405.287,162.451L403.25,162.263L409,92.28Z" style="fill:rgb(41,59,71);fill-rule:nonzero;"/>
                    <path d="M427.725,-44.078C430.75,-43.787 433.119,-44.106 435.187,-44.426C438.717,-44.971 441.373,-45.516 444.92,-43.027C450.544,-39.081 449.675,-37.501 452.031,-32.635C454.39,-27.766 459.966,-20.531 452.652,-14.085C445.337,-7.64 439.755,1.042 435.169,0.254C430.581,-0.534 426.608,-0.534 427.725,-7.509C428.845,-14.479 424.814,-16.959 427.725,-18.426C430.331,-19.743 431.194,-27.766 427.725,-25.791C424.256,-23.821 425.744,-16.716 424.506,-19.477C423.266,-22.242 424.506,-24.216 421.158,-24.872C417.809,-25.53 412.597,-45.001 427.725,-44.078" style="fill:rgb(46,69,89);fill-rule:nonzero;"/>
                    <path d="M403.226,88.689C390.686,98.159 398.411,97.664 382.185,100.191C375.595,100.191 369.217,94.778 369.217,94.778C371.077,97.412 374.583,117.588 373.576,126.803C374.636,136.161 375.061,137.625 376.233,142.812C377.401,147.999 378.995,148.79 371.979,148.79C364.968,148.79 357.739,149.464 356.568,143.715C355.401,137.962 356.593,137.189 356.359,131.648C355.509,111.692 343.142,85.78 349.343,75.61C352.852,69.858 358.483,69.07 358.483,69.07C358.483,69.07 358.114,48.954 370.282,43.245C374.633,41.205 373.576,52.946 379.528,58.92C385.479,64.898 385.025,62.53 389.822,60.162C394.618,57.791 415.767,79.216 403.226,88.689" style="fill:rgb(46,69,89);fill-rule:nonzero;"/>
                    <path d="M403.226,88.689C390.686,98.159 398.411,97.664 382.185,100.191C375.595,100.191 369.217,94.778 369.217,94.778C371.077,97.412 374.583,117.588 373.576,126.803C374.636,136.161 375.061,137.625 376.233,142.812C377.401,147.999 378.995,148.79 371.979,148.79C364.968,148.79 357.739,149.464 356.568,143.715C356.236,142.081 358.457,142.951 361.186,143.821C363.261,144.482 365.63,145.143 367.396,144.704C371.488,143.691 372.348,136.788 372.23,134.019C371.626,119.898 371.493,103.396 364.526,94.23C363.351,92.691 356.828,86.218 357.264,84.52C357.444,83.819 358.612,84.344 359.775,84.869C360.887,85.371 361.995,85.873 362.231,85.302C362.619,84.365 356.356,79.16 359.808,78.109C362.573,77.27 352.888,71.471 354.607,70.51C356.749,69.312 358.483,69.07 358.483,69.07C358.483,69.07 360.235,68.356 360.895,68.804C365.793,72.128 363.735,79.398 365.974,84.531C371.992,98.329 385.946,95.94 383.781,80.028C383.01,74.337 376.559,66.628 375.643,56.959C375.005,50.221 369.529,43.6 370.282,43.245C374.633,41.205 373.576,52.946 379.528,58.92C385.479,64.898 385.025,62.53 389.822,60.162C394.618,57.791 415.767,79.216 403.226,88.689" style="fill:rgb(41,59,71);fill-rule:nonzero;"/>
                    <path d="M387.105,40.195C381.622,40.394 374.829,43.944 377.991,54.009C381.153,64.072 383.965,64.002 389.822,61.333C395.681,58.67 404.775,38.518 407.749,33.982C410.726,29.442 435.647,28.061 442.997,28.553C450.342,29.048 451.493,13.26 444.92,9.016C438.346,4.777 442.942,2.74 436.899,0.304C430.851,-2.129 423.189,-1.342 421.609,1.618C418.446,7.532 417.422,5.565 414.352,6.551C411.286,7.538 403.845,5.663 399.008,14.247C394.174,22.832 390.253,40.084 387.105,40.195" style="fill:rgb(130,153,171);fill-rule:nonzero;"/>
                    <path d="M377.459,51.935C377.485,52.306 377.654,52.967 377.991,54.009C377.763,53.284 377.587,52.594 377.459,51.935" style="fill:rgb(107,125,143);fill-rule:nonzero;"/>
                    <path d="M387.985,62.114C387.977,62.117 387.969,62.12 387.961,62.123C387.969,62.12 387.977,62.117 387.985,62.114M389.148,61.634C388.751,61.808 388.368,61.967 387.999,62.108C388.368,61.967 388.751,61.808 389.148,61.634Z" style="fill:rgb(43,64,82);fill-rule:nonzero;"/>
                    <path d="M377.618,51.55C377.496,51.55 377.44,51.667 377.459,51.935C377.587,52.594 377.763,53.284 377.991,54.009C380.126,60.61 382.038,62.851 384.765,62.851C385.716,62.851 386.767,62.578 387.961,62.123C387.969,62.12 387.994,62.11 387.999,62.108C388.368,61.967 388.751,61.808 389.148,61.634C389.363,61.23 389.587,60.815 389.822,60.387C390.942,58.351 392.455,55.695 394.262,52.646C391.457,55.208 388.682,56.839 386.362,56.869C386.342,56.869 386.321,56.869 386.3,56.869C384.282,56.869 382.318,55.539 380.754,54.21C379.191,52.88 378.03,51.55 377.618,51.55M436.86,0.296C436.601,0.296 436.726,1.536 436.857,2.777C436.988,4.017 437.125,5.257 436.893,5.257C436.887,5.257 436.881,5.256 436.874,5.254C435.4,4.877 433.153,4.727 430.784,4.727C425.668,4.727 419.979,5.426 420.256,6.044C421.39,8.573 426.564,9.179 424.304,9.906C421.233,10.892 408.496,13.854 409.239,24.508C409.365,26.328 408.971,28.558 408.19,30.988C417.622,17.572 428.214,5.255 435.078,5.254C435.719,5.254 436.327,5.361 436.899,5.585C436.902,5.586 436.904,5.587 436.907,5.588C437.437,5.795 439.021,6.341 440.452,6.941C441.067,7.17 441.668,7.391 442.252,7.606C442.591,7.487 442.765,7.37 442.647,7.256C439.482,4.157 442.038,2.376 436.899,0.304C436.885,0.299 436.872,0.296 436.86,0.296" style="fill:rgb(87,107,128);fill-rule:nonzero;"/>
                    <path d="M436.899,5.585C448.717,10.209 455.941,11.788 457.217,15.283C458.493,18.78 466.889,55.198 451.266,59.26C435.641,63.317 396.944,103.911 391.478,89.818C386.009,75.721 381.943,74.707 389.822,60.387C397.7,46.064 425.081,0.962 436.899,5.585" style="fill:rgb(130,153,171);fill-rule:nonzero;"/>
                    <path d="M436.907,5.588C438.139,6.07 439.321,6.519 440.452,6.941C439.021,6.341 437.437,5.795 436.907,5.588" style="fill:rgb(64,87,107);fill-rule:nonzero;"/>
                    <path d="M453.462,58.401C452.789,58.765 452.059,59.054 451.266,59.26C452.069,59.051 452.799,58.762 453.462,58.401" style="fill:rgb(43,64,82);fill-rule:nonzero;"/>
                    <path d="M435.078,5.254C422.477,5.256 397.319,46.758 389.822,60.387C386.667,66.121 385.427,69.721 385.426,72.883C385.424,77.617 388.199,81.365 391.478,89.818C392.281,91.888 393.799,92.778 395.857,92.778C407.811,92.778 437.936,62.722 451.266,59.26C452.059,59.054 452.789,58.765 453.462,58.401C465.7,51.729 454.987,20.472 453.777,17.157C452.704,14.217 444.473,15.652 438.88,9.481C438.365,8.913 443.136,9.273 443.072,8.549C443.034,8.13 441.813,7.511 440.452,6.941C439.321,6.519 438.139,6.07 436.907,5.588C436.904,5.587 436.902,5.586 436.899,5.585C436.327,5.361 435.719,5.254 435.078,5.254" style="fill:rgb(87,107,128);fill-rule:nonzero;"/>
                    <path d="M371.145,99.769C370.03,95.826 367.424,94.048 372.262,95.428C377.097,96.813 389.745,89.512 397.929,69.187C406.112,48.86 410.13,14.364 443.682,22.616C459.941,26.617 448.703,53.005 448.516,71.157C448.333,89.313 446.399,106.235 423.018,107.664C397.183,109.242 384.324,109.836 377.455,103.323C370.588,96.813 371.145,99.769 371.145,99.769" style="fill:rgb(247,247,250);fill-rule:nonzero;"/>
                    <path d="M371.145,99.769C370.03,95.826 367.424,94.048 372.262,95.428C377.097,96.813 389.745,89.512 397.929,69.187C398.174,70.756 407.216,50.376 407.147,51.655C406.604,61.651 388.914,85.844 393.97,99.912C396.208,106.145 404.46,106.007 414.964,105.178C438.753,105.286 447.881,89.205 444.349,95.914C440.892,102.468 434.576,106.959 423.018,107.664C397.183,109.242 384.324,109.836 377.455,103.323C370.588,96.813 371.145,99.769 371.145,99.769" style="fill:rgb(224,232,240);fill-rule:nonzero;"/>
                    <g transform="matrix(1,0,0,1,-45.5339,0)">
                        <path d="M211.274,-145.015C215.648,-143.978 224.304,-125.677 222.257,-117.589C220.213,-109.495 218.536,-114.035 213.331,-110.482C208.122,-106.933 212.563,-98.447 211.274,-92.724C209.982,-87.004 207.842,-83.456 198.45,-89.96C185.061,-99.234 198.637,-99.826 195.66,-111.469C192.686,-123.111 195.45,-148.763 211.274,-145.015Z" style="fill:rgb(224,232,240);fill-rule:nonzero;"/>
                    </g>
                    <g transform="matrix(1,0,0,1,-45.5339,0)">
                        <path d="M211.274,-145.015C213.004,-144.603 215.403,-141.491 217.55,-137.38C218.114,-136.292 208.969,-136.189 207.5,-127.102C207.202,-125.25 208.182,-123.678 207.81,-122.249C206.97,-119.04 203.583,-125.01 201.685,-123.909C197.317,-121.374 199.853,-118.669 203.288,-116.666C205.948,-115.113 209.144,-113.985 210.106,-113.672C211.909,-113.093 221.305,-114.446 220.806,-113.672C219.213,-111.199 217.296,-113.187 213.331,-110.482C208.122,-106.933 212.563,-98.447 211.274,-92.724C209.982,-87.004 207.842,-83.456 198.45,-89.96C185.061,-99.234 197.203,-99.826 194.225,-111.469C191.251,-123.111 195.45,-148.763 211.274,-145.015Z" style="fill:rgb(179,194,207);fill-rule:nonzero;"/>
                    </g>
                    <g transform="matrix(1,0,0,1,-45.5339,0)">
                        <path d="M201.202,-112.331C202.634,-114.695 212.166,-111.263 211.274,-108.092C210.496,-105.336 210.991,-99.466 210.223,-95.88C209.896,-94.361 209.321,-93.26 208.271,-92.994C204.735,-92.104 193.736,-100.019 201.202,-112.331Z" style="fill:rgb(224,232,240);fill-rule:nonzero;"/>
                    </g>
                    <g transform="matrix(1,0,0,1,-45.5339,0)">
                        <path d="M215.153,-155.943C221.777,-153.636 222.869,-145.483 219.429,-142.032C215.987,-138.575 218.778,-139.368 214.223,-138.677C209.664,-137.983 205.16,-135.32 204.995,-130.487C204.83,-125.651 208.509,-123.974 204.995,-123.974C201.481,-123.974 200.294,-126.025 199.589,-123.283C198.04,-117.265 201.017,-118.986 200.088,-115.929C199.157,-112.867 196.977,-108.582 194.095,-111.743C191.81,-117.737 187.075,-117.868 183.649,-126.517C180.172,-135.293 178.992,-142.054 195.448,-149.093C200.231,-151.137 209.201,-158.013 215.153,-155.943Z" style="fill:rgb(46,69,89);fill-rule:nonzero;"/>
                    </g>
                    <g transform="matrix(1,0,0,1,-45.5339,0)">
                        <path d="M239.538,112.061L275.247,101.049L310.957,104.279L289.198,118.288L239.538,112.061Z" style="fill:rgb(94,117,135);fill-rule:nonzero;"/>
                    </g>
                    <g transform="matrix(1,0,0,1,-45.5339,0)">
                        <path d="M289.01,118.288L310.957,104.279L310.957,145.122L288.693,164.457L289.01,118.288Z" style="fill:rgb(130,153,171);fill-rule:nonzero;"/>
                    </g>
                    <g transform="matrix(1,0,0,1,-45.5339,0)">
                        <path d="M239.538,153.216L288.823,164.457L289.01,118.288L239.538,111.974L239.538,153.216Z" style="fill:rgb(46,69,89);fill-rule:nonzero;"/>
                    </g>
                    <g transform="matrix(1,0,0,1,-45.5339,0)">
                        <path d="M269.01,106.074C267.467,106.074 265.891,106.238 263.963,106.268C256.304,107.86 238.846,110.392 254.567,112.251C262.51,113.188 272.695,113.632 281.203,113.632C290.029,113.632 297.051,113.154 297.902,112.251C299.139,110.939 297.701,109.764 294.82,108.784C294.476,108.91 294.118,109.037 293.747,109.166C292.018,109.765 290.12,110.005 288.189,110.005C282.918,110.005 277.4,108.216 274.403,107.061C272.36,106.272 270.704,106.074 269.01,106.074" style="fill:rgb(66,89,107);fill-rule:nonzero;"/>
                    </g>
                    <g transform="matrix(1,0,0,1,-45.5339,0)">
                        <path d="M260.207,101.049C258.141,103.75 257.729,103.312 257.729,105.33C257.729,107.347 258.554,109.631 262.109,110.004C265.995,110.415 268.887,109.684 271.947,110.004C275.002,110.328 289.303,113.486 294.677,111.291C300.05,109.101 305.695,105.943 300.105,105.416C294.512,104.892 262.274,98.349 260.207,101.049Z" style="fill:rgb(41,59,71);fill-rule:nonzero;"/>
                    </g>
                    <g transform="matrix(1,0,0,1,-45.5339,0)">
                        <path d="M262.751,95.618C261.386,98.642 260.547,97.735 259.525,100.747C258.408,104.037 260.643,106.273 263.369,106.273C267.772,106.273 270.311,105.481 274.403,107.061C278.498,108.639 287.3,111.402 293.747,109.166C300.193,106.929 302.8,105.088 296.477,103.771C290.15,102.457 284.697,102.063 281.72,95.749C278.746,89.435 264.112,92.591 262.751,95.618" style="fill:rgb(46,69,89);fill-rule:nonzero;"/>
                    </g>
                    <g transform="matrix(1,0,0,1,-45.5339,0)">
                        <path d="M179.741,151.103C176.469,153.117 174.995,154.399 175.576,158.011C176.767,165.429 190.321,164.501 194.746,164.325C200.516,164.092 207.715,158.482 198.935,156.747C190.156,155.011 183.013,149.092 179.741,151.103" style="fill:rgb(41,59,71);fill-rule:nonzero;"/>
                    </g>
                    <g transform="matrix(1,0,0,1,-45.5339,0)">
                        <path d="M178.402,145.382C177.957,151.538 174.83,155.011 179.148,158.957C183.461,162.903 186.734,162.429 189.861,160.537C192.984,158.641 192.984,157.853 194.917,159.431C196.853,161.008 198.313,160.695 199.977,160.695C202.805,160.695 198.342,153.676 196.107,151.424C193.876,149.171 192.984,140.33 192.984,140.33C192.984,140.33 178.849,139.226 178.402,145.382" style="fill:rgb(46,69,89);fill-rule:nonzero;"/>
                    </g>
                    <g transform="matrix(1,0,0,1,-45.5339,0)">
                        <path d="M189.68,-18.203C188.194,-10.708 182.388,-3.009 184.826,10.408C187.264,23.825 181.522,49.093 182.055,65.463C182.242,71.184 182.614,66.251 179.452,77.694C176.291,89.142 173.313,99.403 173.5,120.319C173.684,141.235 174.059,137.09 173.684,142.417C173.313,147.745 177.926,152.68 184.826,148.339C191.727,143.998 191.838,143.998 195.78,145.772C199.723,147.551 193.327,138.471 192.435,129.789C191.539,121.107 194.701,91.508 198.237,84.995C201.77,78.486 202.091,70.791 203.696,62.109C205.303,53.423 210.883,31.719 218.136,18.301C222.415,22.642 244.918,32.399 257.939,32.706C259.373,32.74 260.589,32.739 261.614,32.738C266.566,32.733 265.612,32.728 264.688,36.653C263.573,41.386 261.1,50.663 262.401,71.184C263.477,88.121 262.589,87.366 260.169,93.482C257.754,99.599 258.478,100.51 267.238,98.61C276.352,96.637 280.764,93.259 283.42,93.482C282.303,82.629 282.117,63.924 286.395,39.928C288.401,28.667 288.442,17.654 281.003,14.499C267.179,8.633 247.206,-6.727 235.248,-9.775C230.598,-10.957 229.481,-19.192 229.481,-19.192C229.481,-19.192 191.168,-25.703 189.68,-18.203" style="fill:rgb(130,153,171);fill-rule:nonzero;"/>
                    </g>
                    <g transform="matrix(1,0,0,1,-45.5339,0)">
                        <path d="M202.398,-21.814C195.685,-21.814 186.105,-19.376 185.561,-16.634C184.327,-10.413 179.933,-5.62 179.933,4.037C179.932,6.013 179.693,15.491 179.694,18.469C179.701,31.672 178.861,69.447 176.583,77.694C173.514,88.807 170.619,98.801 170.623,118.508C170.623,119.103 170.625,119.707 170.631,120.319C170.758,134.74 173.844,137.248 173.845,139.161C173.845,140.022 173.801,140.763 173.684,142.417C173.671,142.616 173.664,142.813 173.664,143.009C173.66,146.679 176.012,150.002 179.814,150.002C181.285,150.002 182.973,149.505 184.826,148.339C189.036,145.691 190.719,144.658 192.286,144.658C193.288,144.658 194.242,145.08 195.78,145.772C195.258,144.223 194.089,143.688 192.558,143.688C190.852,143.688 188.699,144.352 186.495,145.016C184.291,145.68 182.036,146.344 180.128,146.344C178.668,146.344 177.411,145.955 176.535,144.88C175.766,143.937 182.989,139.552 182.762,137.347C182.649,136.246 182.181,135.961 181.55,135.961C181.211,135.961 180.824,136.043 180.42,136.126C180.016,136.209 179.594,136.292 179.185,136.292C177.24,136.292 175.576,134.421 177.404,121.777C178.389,114.971 171.802,99.52 193.666,87.814C195.656,86.751 187.352,85.969 186.026,83.23C183.14,77.273 183.724,67.494 184.826,61.543C185.67,56.973 187.013,3.784 216.286,3.026L216.293,3.026C217.655,3.026 197.869,14.671 203.696,16.77C203.821,16.815 203.944,16.837 204.066,16.837C206.565,16.837 208.626,7.689 220.942,3.524C220.95,3.517 220.957,3.514 220.961,3.514C221.226,3.514 214.994,15.109 218.136,18.301C222.415,22.642 244.918,32.399 257.939,32.706C259.124,32.734 260.16,32.738 261.063,32.738C261.252,32.738 261.436,32.738 261.614,32.738C261.785,32.738 261.95,32.738 262.111,32.738C265.406,32.738 265.072,32.806 265.07,34.342C265.07,34.898 264.925,35.646 264.688,36.653C263.73,40.721 262.144,48.143 262.139,63.175C262.138,65.635 262.218,68.298 262.401,71.184C262.706,75.981 262.853,79.358 262.852,81.875C262.851,88.244 261.903,89.098 260.169,93.482C259.422,95.373 258.976,96.766 258.974,97.733C258.972,98.956 259.681,99.496 261.396,99.496C262.71,99.496 264.613,99.18 267.238,98.61C276.063,96.699 282.124,89.138 283.163,93.471C283.184,93.556 283.336,93.474 283.42,93.482C269.471,99.176 255.518,98.188 264.604,94.116C266.043,93.472 267.849,87.2 271.876,80.224C272.326,79.443 259.497,76.795 266.735,46.129C268.14,38.236 275.733,32.745 272.184,30.16C270.67,29.056 279.4,23.754 277.174,22.812C276.656,22.592 276.183,22.495 275.736,22.495C272.608,22.495 270.745,27.232 263.56,27.604C263.521,27.606 263.483,27.607 263.444,27.607C261.285,27.607 258.315,24.592 255.465,21.576C252.616,18.561 249.888,15.546 248.215,15.546C248.095,15.546 247.98,15.561 247.87,15.594C245.896,16.184 254.207,26.454 252.37,26.454C252.339,26.454 252.306,26.451 252.269,26.445C244.435,25.192 232.039,6.758 227.84,3.884C223.717,1.068 236.106,-8.121 235.248,-8.34C230.598,-9.523 229.481,-19.192 229.481,-19.192C229.481,-19.192 224.845,-19.98 218.736,-20.692C213.701,-21.278 207.664,-21.814 202.398,-21.814" style="fill:rgb(92,115,133);fill-rule:nonzero;"/>
                    </g>
                    <g transform="matrix(1,0,0,1,-45.5339,0)">
                        <path d="M269.522,26.05C269.439,26.34 269.287,26.93 269.219,27.529C269.039,29.185 268.121,30.058 266.798,30.291C265.508,30.517 263.766,30.072 261.992,29.068C260.408,28.175 259.382,27.525 258.469,27.273C257.726,27.071 257.072,27.159 256.212,27.61C255.91,27.765 255.243,27.792 254.278,27.604C251.612,27.081 246.257,25.118 240.192,22.376C232.761,19.022 224.253,14.504 218.304,10.111L218.276,9.95L218.428,9.92C223.438,13.465 230.22,17.056 236.661,20.005C243.898,23.322 250.698,25.833 254.049,26.533C254.929,26.714 255.525,26.811 255.773,26.68C256.891,26.074 257.748,25.973 258.717,26.226C259.691,26.478 260.795,27.132 262.489,28.058C264.02,28.896 265.505,29.314 266.608,29.106C267.414,28.954 267.956,28.405 268.057,27.391C268.172,26.26 268.36,25.526 268.587,25.165C268.857,24.738 269.197,24.606 269.569,24.667C269.776,24.703 270.019,24.821 270.28,25.064C270.612,25.377 271.032,25.956 271.533,26.802C272.223,27.964 273.073,28.54 273.454,29.085C273.736,29.489 273.841,29.893 273.743,30.347C273.636,30.874 273.128,31.574 271.838,32.578C271.498,32.841 271.26,33.511 271.012,34.44C270.429,36.635 270.044,40.189 269.773,44.301C269.47,48.868 269.309,54.117 269.219,58.988C269.105,65.335 269.102,71.029 269.08,73.713C269.064,75.489 269.445,76.509 269.981,77.112C270.667,77.887 271.562,77.971 272.022,78.142C272.336,78.259 272.518,78.435 272.585,78.64C272.629,78.792 272.635,78.985 272.521,79.223C272.336,79.614 271.711,80.302 270.35,81.558C267.88,83.841 266.575,85.34 265.89,86.862C265.052,88.713 265.132,90.592 265.093,93.92C265.064,96.142 264.972,97.342 264.864,97.965C264.763,98.568 264.586,98.692 264.49,98.685C264.351,98.675 264.219,98.379 264.219,98.379L264.287,98.231L264.423,98.288L264.473,98.399L264.492,98.433L264.503,98.416C264.569,98.288 264.63,98.001 264.677,97.433C264.735,96.736 264.769,95.633 264.746,93.92C264.71,90.492 264.608,88.562 265.427,86.632C266.098,85.039 267.4,83.446 269.902,81.022C271.095,79.869 271.677,79.257 271.845,78.897L271.539,78.833C271.413,78.798 271.277,78.765 271.13,78.721C269.958,78.379 268.233,77.603 268.198,73.713C268.175,71.026 268.06,65.325 268.093,58.97C268.118,54.079 268.22,48.8 268.502,44.209C268.763,39.98 269.182,36.325 269.787,34.07C270.146,32.745 270.612,31.866 271.095,31.497C271.66,31.062 272.055,30.719 272.301,30.423L272.53,30.055L272.455,29.86C272.35,29.708 272.201,29.55 272.028,29.375C271.581,28.91 271.004,28.341 270.505,27.485C270.143,26.866 269.845,26.404 269.585,26.118L269.522,26.05ZM264.497,98.44L264.515,98.449L264.497,98.44ZM264.49,98.44L264.481,98.449L264.49,98.44ZM271.876,78.903L271.905,78.958L271.876,78.903Z" style="fill:rgb(83,102,118);fill-rule:nonzero;"/>
                    </g>
                    <g transform="matrix(1,0,0,1,-45.5339,0)">
                        <path d="M218.902,-10.97L218.902,-10.967C219.802,-6.839 220.748,-5.714 221.368,-5.086C221.882,-4.571 222.174,-4.322 222.155,-3.403C222.139,-2.753 221.929,-1.71 221.451,0.184C220.368,4.32 220.431,6.811 220.307,7.812C220.235,8.398 220,8.673 219.81,8.781C219.616,8.892 219.362,8.925 219.04,8.752C218.831,8.64 218.518,8.354 218.057,7.879C217.486,7.283 217.333,6.828 217.33,6.478C217.327,6.097 217.495,5.757 217.793,5.386C218.105,4.993 218.604,4.487 218.632,3.298C218.657,2.345 218.422,1.009 217.677,-0.944C216.747,-3.467 216.099,-5.381 215.657,-6.825C214.689,-9.994 214.664,-10.923 214.664,-10.923L214.733,-11.136L214.924,-11.224L218.794,-11.061L218.816,-11.061L218.835,-11.054L218.847,-11.048L218.853,-11.04L218.863,-11.034L218.869,-11.028L218.877,-11.022L218.886,-11.011L218.894,-10.99L218.902,-10.97ZM219.374,5.43C219.272,5.605 219.165,5.757 219.06,5.895C218.936,6.059 218.816,6.199 218.711,6.326L218.593,6.501L218.593,6.463C218.469,6.504 218.745,6.741 218.936,6.946L219.175,7.198L219.209,6.885C219.25,6.492 219.299,6.006 219.374,5.43ZM218.701,-10.826L215.245,-10.68C215.353,-10.226 215.645,-9.172 216.413,-7.114C216.937,-5.714 217.669,-3.854 218.72,-1.417C219.448,0.328 219.777,1.638 219.876,2.642C220.058,1.823 220.295,0.915 220.599,-0.086C221.151,-1.851 221.413,-2.828 221.457,-3.443C221.504,-4.084 221.275,-4.251 220.936,-4.632C220.329,-5.319 219.387,-6.532 218.701,-10.826Z" style="fill:rgb(46,69,89);fill-rule:nonzero;"/>
                    </g>
                    <g transform="matrix(1,0,0,1,-45.5339,0)">
                        <path d="M199.047,-6.684C198.377,-4.151 197.754,-2.238 197.186,-0.718C196.859,0.146 196.546,0.871 196.231,1.493C195.977,1.996 195.72,2.426 195.456,2.813C194.816,3.743 194.098,4.373 193.177,4.962C192.355,5.491 191.422,6.006 190.289,6.65L190.232,6.802L190.375,6.864C191.92,6.354 193.149,6.013 194.193,5.477C195.06,5.034 195.796,4.464 196.447,3.632C196.78,3.208 197.081,2.702 197.358,2.107C197.676,1.422 197.961,0.614 198.208,-0.355C198.625,-1.959 198.935,-3.988 199.259,-6.637L199.174,-6.774L199.047,-6.684Z" style="fill:rgb(46,69,89);fill-rule:nonzero;"/>
                    </g>
                    <g transform="matrix(1,0,0,1,-45.5339,0)">
                        <path d="M226.935,-99.366C232.265,-97.654 237.868,-98.683 241.835,-93.419C245.803,-88.159 248.625,-91.977 255.081,-80.16C259.297,-74.502 262.292,-77.169 263.283,-78.843C269.731,-89.761 278.903,-95.681 282.128,-101.076C285.354,-106.468 280.128,-109.774 285.409,-114.57C286.338,-116.303 288.902,-116.83 290.41,-118.576C292.763,-121.301 295.831,-122.836 297.353,-121.714C297.847,-117.899 290.564,-115.938 294.707,-115.915C301.509,-119.326 312.956,-121.312 315.923,-118.112C319.008,-115.027 312.392,-116.333 302.349,-108.29C294.511,-104.065 292.434,-102.9 288.962,-99.085C285.489,-95.269 279.08,-64.766 267.795,-61.085C256.512,-57.4 235.614,-74.201 227.183,-76.7C218.753,-79.2 221.603,-101.076 226.935,-99.366Z" style="fill:rgb(224,232,240);fill-rule:nonzero;"/>
                    </g>
                    <g transform="matrix(1,0,0,1,-45.5339,0)">
                        <path d="M226.935,-99.366C232.265,-97.654 237.474,-95.025 241.442,-89.761C242.852,-87.892 238.906,-80.014 240.349,-77.716C241.767,-65.639 251.149,-70.693 253.866,-67.046C256.12,-64.022 260.523,-58.795 264.062,-60.559C281.073,-69.039 269.751,-78.432 288.105,-102.766C287.236,-100.986 281.594,-108.592 284.341,-111.339C285.101,-112.099 283.904,-107.585 285.36,-106.842C292.568,-103.167 314.336,-121.397 316.686,-116.158C308.51,-113.601 304.323,-109.101 295.625,-104.794C292.419,-101.615 291.986,-100.131 290.869,-99.121C285.339,-94.118 282.705,-83.895 280.395,-76.261C276.776,-64.308 268.11,-61.025 266.681,-60.559C264.098,-56.84 261.291,-59.709 260.351,-59.699C241.66,-59.492 234.968,-72.958 227.183,-75.266C218.753,-77.765 221.603,-101.076 226.935,-99.366Z" style="fill:rgb(179,194,207);fill-rule:nonzero;"/>
                    </g>
                    <g transform="matrix(1,0,0,1,-45.5339,0)">
                        <path d="M206.854,-92.217C191.412,-93.464 193.003,-102.124 192.771,-102.185C179.089,-92.383 178.85,-93.851 172.565,-90.131C166.085,-86.295 166.372,-86.246 163.117,-78.95C164.792,-79.221 181.037,-68.923 184.314,-64.609C187.139,-59.399 183.461,-57.732 182.82,-54.269C183.857,-47.558 184.799,-44.01 185.471,-39.494C186.797,-30.594 181.654,-12.954 180.911,-6.482C180.324,-1.39 223.656,0.415 233.669,-9.661C235.738,-11.745 231.904,-28.419 233.754,-48.278C234.436,-55.596 236.143,-60.454 235.833,-74.245C240.37,-78.802 242.772,-92.035 241.494,-94.847C236.257,-99.528 233.58,-101.37 229.548,-101.515C223.057,-101.748 221.799,-99.761 212.2,-102.739C212.004,-102.8 211.794,-102.757 211.636,-102.622C211.48,-102.487 211.394,-102.279 211.407,-102.063C211.588,-99.029 213.181,-92.539 206.854,-92.217Z" style="fill:rgb(46,69,89);fill-rule:nonzero;"/>
                    </g>
                    <g transform="matrix(1,0,0,1,-45.5339,0)">
                        <path d="M187.948,-60.476C187.156,-62.316 186.546,-64.229 186.127,-66.187C182.226,-84.568 178.456,-81.115 181.343,-74.74C184.5,-67.767 172.963,-80.194 174.415,-75.476C176.091,-75.747 174.761,-65 178.038,-60.687C180.863,-55.476 184.799,-44.01 185.471,-39.494C186.797,-30.594 181.654,-12.954 180.911,-6.482C180.487,-2.807 189.285,-13.112 191.789,-34.274C192.704,-42.01 195.017,-44.109 187.948,-60.476Z" style="fill:rgb(44,59,70);fill-rule:nonzero;"/>
                    </g>
                    <g transform="matrix(0.151148,0.038291,-0.038291,0.151148,-223.888,-571.289)">
                        <path d="M3029.96,2580.43C3042.46,2558.55 2951.41,2489.02 2898.98,2525.5C2877.1,2580.19 2807.64,2676.71 2793.57,2748.59C2779.51,2820.46 2765.45,2822.02 2795.14,2840.77C2824.82,2859.52 2831.39,2902.61 2985.76,2922.8C3049.64,2931.16 3059.71,2940.74 3071.46,2963.51C3079.51,2979.11 3065.37,2955.11 3047.09,2970.85C3033.79,2982.31 3050.99,3001.32 3063.49,3019.29C3075.99,3037.26 3084.78,3032.26 3103.34,3031.79C3127.35,3031.19 3163.04,3015.44 3167.73,2997.47C3170.66,2986.24 3180.48,2959.84 3172.52,2937.91C3167.74,2924.76 3147.21,2912.92 3116.68,2900.62C3095.93,2892.26 3063.14,2888.34 3035.01,2866.47C3006.89,2844.59 2940.36,2796.14 2923.17,2780.52C2905.99,2764.89 2899.97,2763.82 2914.55,2752.1C2929.12,2740.38 2986.81,2665.81 3000.87,2636.12C3014.93,2606.43 3017.46,2602.3 3029.96,2580.43Z" style="fill:rgb(227,231,239);"/>
                    </g>
                    <g transform="matrix(0.151148,0.038291,-0.038291,0.151148,-223.888,-571.289)">
                        <path d="M3029.96,2580.43C3042.46,2558.55 2951.41,2489.02 2898.98,2525.5C2877.1,2580.19 2807.64,2676.71 2793.57,2748.59C2779.51,2820.46 2765.45,2822.02 2795.14,2840.77C2824.82,2859.52 2831.39,2902.61 2985.76,2922.8C3049.64,2931.16 3059.71,2940.74 3071.46,2963.51C3079.51,2979.11 3065.37,2955.11 3047.09,2970.85C3033.79,2982.31 3050.99,3001.32 3063.49,3019.29C3075.99,3037.26 3084.78,3032.26 3103.34,3031.79C3127.35,3031.19 3163.04,3015.44 3167.73,2997.47C3170.66,2986.24 3119.71,3036.04 3111.74,3014.11C3106.97,3000.95 3128.27,3004.59 3113.34,2975.25C3099.85,2948.74 3067.84,2942.02 3039.72,2920.14C3011.59,2898.27 2871.93,2877.24 2854.75,2861.62C2837.56,2845.99 2794.46,2798.92 2807.3,2785.32C2863.21,2726.05 2794.97,2662.18 2913.45,2582.64C2977.99,2539.31 3017.46,2602.3 3029.96,2580.43Z" style="fill:rgb(180,193,205);"/>
                    </g>
                    <g transform="matrix(1,0,0,1,-45.5339,0)">
                        <path d="M231.49,-85.932C230.959,-83.19 234.206,-71.502 234.493,-82.043C240.225,-91.233 229.119,-81.762 233.22,-92.083C232.358,-95.5 232.205,-89.629 231.49,-85.932Z" style="fill:rgb(44,59,70);fill-rule:nonzero;"/>
                    </g>
                    <g transform="matrix(1,0,0,1,-45.5339,0)">
                        <path d="M206.854,-92.217C203.511,-92.596 196.54,-91.305 192.434,-99.548C188.008,-99.779 181.879,-94.012 179.867,-93.169C171.509,-82.821 208.412,-84.544 206.854,-92.217Z" style="fill:rgb(44,59,70);fill-rule:nonzero;"/>
                    </g>
                    <g transform="matrix(1,0,0,1,-45.5339,0)">
                        <path d="M192.162,-11.025C189.499,-7.886 188.321,-4.087 187.701,1.501C186.93,8.465 187.035,18.228 186.153,33.002C184.988,53.35 185.908,57.876 185.905,61.802C185.899,64.445 185.461,66.81 183.658,73.69C180.956,84.225 178.449,89.916 176.947,96.759C175.983,101.144 175.43,105.996 175.478,112.863C175.579,124.291 175.662,126.721 175.684,128.647C175.693,129.675 175.688,130.561 175.656,132.588C175.614,135.128 176.22,135.942 176.76,136.393C177.154,136.727 177.563,136.78 177.499,137.444C177.459,137.882 177.252,138.542 176.795,139.607C175.764,142.004 175.256,143.702 175.234,144.958C175.205,146.436 175.83,147.321 177.081,148.009L177.227,147.962L177.182,147.803C176.049,147.146 175.481,146.325 175.532,144.967C175.583,143.746 176.119,142.104 177.173,139.792C177.684,138.667 177.909,137.965 177.963,137.497C178.036,136.841 177.811,136.572 177.484,136.309C176.967,135.895 176.125,135.508 176.227,132.605C176.3,130.567 176.322,129.678 176.332,128.647C176.347,126.721 176.303,124.291 176.405,112.863C176.449,106.104 177.065,101.343 178.058,97.041C179.097,92.539 180.559,88.545 182.217,83.311C183.067,80.627 183.963,77.614 184.89,74.05C186.711,66.959 187.137,64.517 187.121,61.799C187.096,57.879 186.118,53.373 187.07,33.055C187.727,18.278 187.483,8.526 188.143,1.551C188.667,-3.962 189.753,-7.727 192.327,-10.87L192.317,-11.034L192.162,-11.025Z" style="fill:rgb(83,102,118);fill-rule:nonzero;"/>
                    </g>
                </g>
                <g transform="matrix(0.895927,0,0,0.690782,2616.94,298.849)">
                    <circle cx="972.623" cy="515.139" r="46.853" style="fill:rgb(214,15,74);"/>
                </g>
            </g>
        </g>
    </g>
</svg>
