<svg viewBox="0 0 65 65" xmlns="http://www.w3.org/2000/svg" fill-rule="evenodd" clip-rule="evenodd" stroke-linejoin="round" stroke-miterlimit="10"><path fill="none" d="M.206.926h64v64h-64z"/><clipPath id="a"><path d="M.206.926h64v64h-64z"/></clipPath><g fill="none" stroke-width="4" clip-path="url(#a)"><path d="M50.206 24.926v-18c0-2.208-1.792-4-4-4h-40c-2.208 0-4 1.792-4 4v52c0 2.208 1.792 4 4 4h30m-34-50h48m-48 34h34m-12 8h4" stroke="#2f4659"/><path d="M42.206 60.926a2 2 0 002 2h16a2 2 0 002-2v-28a2 2 0 00-2-2h-16a2 2 0 00-2 2v28zm0-22h20m-20 16h20" stroke="#e71556"/></g></svg>