<?xml version="1.0" encoding="UTF-8" standalone="no"?>
<!DOCTYPE svg PUBLIC "-//W3C//DTD SVG 1.1//EN" "http://www.w3.org/Graphics/SVG/1.1/DTD/svg11.dtd">
<svg width="100%" height="100%" viewBox="0 0 2532 1716" version="1.1" xmlns="http://www.w3.org/2000/svg" xmlns:xlink="http://www.w3.org/1999/xlink" xml:space="preserve" xmlns:serif="http://www.serif.com/" style="fill-rule:evenodd;clip-rule:evenodd;stroke-linecap:round;stroke-linejoin:round;stroke-miterlimit:1.5;">
    <g transform="matrix(1,0,0,1,-3092.42,-6724.45)">
        <g id="Layer1">
        </g>
        <g id="Layer2">
        </g>
        <g id="shop" transform="matrix(1.28176,0,0,1.44764,-605.53,6150.18)">
            <rect x="2769.24" y="298.849" width="2162.86" height="1405.6" style="fill:none;"/>
            <g id="Layer5">
            </g>
            <g id="g1">
            </g>
            <g transform="matrix(0.642655,0,0,1.18965,2741.41,-2389.57)">
                <path d="M3294.79,2389.02C3294.79,2363.77 3251.99,2343.3 3199.2,2343.3L321.631,2343.3C268.838,2343.3 226.041,2363.77 226.041,2389.02L226.041,3291.17C226.041,3316.42 268.838,3336.89 321.631,3336.89L3199.2,3336.89C3251.99,3336.89 3294.79,3316.42 3294.79,3291.17L3294.79,2389.02Z" style="fill:url(#_Linear1);"/>
                <clipPath id="_clip2">
                    <path d="M3294.79,2389.02C3294.79,2363.77 3251.99,2343.3 3199.2,2343.3L321.631,2343.3C268.838,2343.3 226.041,2363.77 226.041,2389.02L226.041,3291.17C226.041,3316.42 268.838,3336.89 321.631,3336.89L3199.2,3336.89C3251.99,3336.89 3294.79,3316.42 3294.79,3291.17L3294.79,2389.02Z"/>
                </clipPath>
                <g clip-path="url(#_clip2)">
                    <g transform="matrix(1.0119,-0.0165759,0.0348976,0.487386,-643.954,1644.22)">
                        <g id="Layer21" serif:id="Layer2" transform="matrix(0.973477,-0.226117,0.23148,0.973477,-531.587,380.94)">
                            <path d="M1488.19,2102.36C1420.99,2131.64 1363.3,2190.2 1370.08,2267.72C1377.12,2348.23 1365.94,2408.32 1322.84,2456.69C1280.77,2503.9 1369.91,2676.97 1417.32,2669.29C1572.55,2644.14 1466.86,2544.64 1505.91,2509.84C1518.78,2519.97 1530.4,2523.97 1541.34,2521.65C1558.31,2518.06 1629.83,2438.16 1659.45,2309.05C1663.19,2292.74 1555.39,2073.09 1488.19,2102.36Z" style="fill:rgb(228,232,240);"/>
                            <path d="M1551.39,2515.75C1554.38,2513.34 1527.8,2529.05 1473.21,2472.5C1415.41,2412.62 1442.85,2416.78 1423.16,2385.83C1419.99,2380.85 1407.97,2397.41 1402.13,2374.02C1395.75,2348.48 1376.73,2298.18 1409.67,2279.53C1449.08,2257.22 1450.34,2366.31 1461.08,2363.41C1482.6,2357.61 1497.19,2321.7 1523.62,2314.96C1578.31,2301.01 1633.86,2305.43 1659.54,2314.96C1660.64,2310.51 1659.76,2309.83 1659.54,2307.44C1657.91,2289.22 1558.94,2236.18 1535.43,2220.47C1524.02,2212.85 1399.53,2244.13 1370.08,2267.72C1377.93,2350.24 1365.26,2408.81 1320.02,2453.88C1275.23,2498.51 1369.91,2676.97 1417.32,2669.29C1572.55,2644.14 1466.86,2544.64 1505.91,2509.84C1518.78,2519.97 1530.4,2523.97 1541.34,2521.65C1543.71,2521.15 1547.15,2519.16 1551.39,2515.75Z" style="fill:rgb(178,194,207);"/>
                            <path d="M1386.43,2385.83C1396.48,2389.57 1402.84,2412.95 1413.22,2433.07C1423.6,2453.19 1445.42,2471.6 1452.76,2489.35C1457.95,2501.91 1458.55,2576.25 1443.12,2581.51C1436.75,2583.68 1412.45,2557.61 1399.74,2541.68C1393.55,2533.93 1377.3,2517.15 1372.48,2511.69C1343.35,2478.69 1354.63,2456.85 1356.35,2424.13C1358.36,2385.99 1376.39,2382.08 1386.43,2385.83Z" style="fill:rgb(226,232,240);"/>
                            <path d="M1412.55,2291.34C1420.58,2290.13 1425.97,2283.69 1429.13,2303.15C1432.3,2322.61 1439.36,2341.5 1429.13,2338.58C1418.91,2335.66 1417.41,2331.98 1417.32,2341.69C1417.24,2351.4 1423.83,2362.29 1418.02,2362.2C1412.21,2362.12 1409.86,2355.9 1405.51,2338.58C1401.16,2321.27 1404.17,2311.56 1405.51,2320.26C1406.86,2328.97 1407.53,2340.69 1411.88,2333.99C1416.23,2327.3 1410.1,2337.97 1418.02,2326.77C1425.94,2315.58 1425.78,2310.22 1417.32,2310.22C1408.86,2310.22 1412.72,2308.88 1417.32,2306.54C1421.92,2304.19 1424.78,2288.53 1417.32,2291.34C1409.87,2294.15 1404.51,2292.55 1412.55,2291.34Z" style="fill:rgb(202,213,223);"/>
                            <path d="M1352.36,2350.39C1362.19,2374.64 1373.93,2387.46 1381.89,2374.02C1389.85,2360.58 1370.74,2306.26 1387.8,2289.35C1404.85,2272.45 1419.14,2267.3 1429.13,2273.62C1437.66,2279.01 1451.91,2295.13 1452.76,2314.96C1453.6,2334.8 1449.76,2351.75 1464.57,2338.58C1479.38,2325.42 1489.49,2305.16 1517.72,2297.24C1545.94,2289.33 1581.25,2303.85 1600.39,2303.15C1619.53,2302.45 1620.43,2307.69 1647.64,2309.05C1674.85,2310.42 1721.1,2313.14 1730.32,2267.72C1739.53,2222.3 1706.01,2186.13 1683.07,2167.32C1660.13,2148.52 1619.51,2111.8 1588.58,2102.36C1557.66,2092.92 1492.24,2059.21 1423.23,2108.27C1379.74,2139.18 1333.16,2164.54 1352.36,2297.24C1356.53,2326.07 1342.53,2326.15 1352.36,2350.39Z" style="fill:rgb(48,69,90);"/>
                            <path d="M1352.36,2350.39C1362.19,2374.64 1373.93,2387.46 1381.89,2374.02C1389.85,2360.58 1370.74,2306.26 1387.8,2289.35C1404.85,2272.45 1419.14,2267.3 1429.13,2273.62C1437.66,2279.01 1451.91,2295.13 1452.76,2314.96C1453.6,2334.8 1449.76,2351.75 1464.57,2338.58C1479.38,2325.42 1489.49,2305.16 1517.72,2297.24C1545.94,2289.33 1581.25,2303.85 1600.39,2303.15C1619.53,2302.45 1620.43,2307.69 1647.64,2309.05C1674.85,2310.42 1721.1,2313.14 1730.32,2267.72C1731.67,2261.02 1695.67,2287.49 1660.08,2276.23C1512.63,2229.58 1492.13,2281.29 1465.97,2272.59C1372.71,2241.59 1492.24,2059.21 1423.23,2108.27C1379.74,2139.18 1333.16,2164.54 1352.36,2297.24C1356.53,2326.07 1342.53,2326.15 1352.36,2350.39Z" style="fill:rgb(42,56,71);"/>
                        </g>
                        <g id="camasa">
                            <path d="M1185.04,3308.96C1181.92,3342.96 1154.38,3358.62 1203.21,3358.62C1228.78,3358.62 1402.24,3407.94 1491.19,3386.06C1580.14,3364.19 1650.46,3356.73 1650.46,3277.65C1650.46,3198.56 1188.17,3274.97 1185.04,3308.96Z" style="fill:rgb(42,56,71);"/>
                            <path d="M1202.89,3331.67C1186.49,3362.14 1164.32,3407.15 1181.02,3527.46C1195.98,3635.22 1640.41,3633.16 1674.67,3413.27C1678.66,3387.65 1649.75,3373.41 1650.46,3300.12C1651.07,3235.93 1219.3,3301.2 1202.89,3331.67Z" style="fill:rgb(42,56,71);"/>
                            <path d="M1278.5,3354.36C1278.58,3400.13 1222.52,3468.88 1206.41,3484.5" style="fill:none;stroke:rgb(42,44,49);stroke-width:7.06px;"/>
                            <path d="M1320.12,2444.42C1311.92,2468.76 1321.88,2558.41 1361.14,2600.6C1400.39,2642.78 1458.4,2737.12 1475.39,2699.03C1492.39,2660.95 1514.65,2591.81 1505.86,2570.13C1497.07,2548.45 1499.5,2563.1 1485.69,2567.2C1471.88,2571.3 1469.53,2580.09 1462.5,2563.1C1454.47,2543.69 1400.98,2608.76 1320.12,2444.42Z" style="fill:rgb(228,232,240);"/>
                            <path d="M1311.3,2444.42C1279.3,2462.8 1237.11,2494.5 1186.33,2509.12C1135.55,2523.74 1065.24,2569.05 1058.21,2783.9C1055.71,2860.04 1000.39,2992.49 1016.02,3067.49C1031.64,3142.49 1033.99,3179.99 1173.05,3238.58C1190.16,3245.79 1154.3,3312.02 1212.89,3332.33C1271.49,3352.65 1382.49,3366.71 1532.85,3353.43C1580.31,3349.24 1683.99,3313.58 1670.71,3169.05C1664.16,3097.83 1707.88,3218.33 1800.06,3240.66C1892.25,3262.99 1984.33,3256.98 1984.33,3256.98L2007.14,3157.19C2007.14,3157.19 1858.99,3070.62 1829.3,3082.33C1824.52,3084.22 1818.38,3071.1 1820.71,3061.24C1823.83,3047.96 1821.49,3034.68 1805.08,3029.21C1788.67,3023.74 1802.26,2944.83 1715.39,2750.3C1697.94,2711.23 1722.27,2581.55 1637.89,2533.12C1618.53,2522 1598.67,2512.28 1560.65,2507.17C1535.04,2537.89 1513.41,2513.45 1503.96,2509.12C1502.94,2527.55 1496.36,2587.54 1483.17,2640.61C1481.94,2645.16 1478.08,2648.53 1473.37,2649.14C1468.67,2649.76 1464.05,2647.49 1461.68,2643.41C1419.74,2574.15 1336.15,2524.59 1311.3,2444.42Z" style="fill:rgb(131,152,171);"/>
                            <path d="M1240.16,3040.55C1211.3,2969.65 1312.74,2775.03 1281.35,2780.64C1272.24,2782.26 1266.34,2822.34 1258.52,2824.59C1243.15,2829.01 1269.52,2704.45 1245.3,2704.45C1215,2704.45 1243.56,2740.46 1240.16,2844.37C1238.26,2902.46 1220.59,2972.53 1201.6,3034C1192.26,3064.26 1139.83,3036.06 1141.41,3079.21C1142.42,3106.95 1162.49,3043.54 1204.07,3076.42C1207.49,3079.12 1174.05,3081.5 1185.35,3093.93C1186.11,3094.76 1211.5,3088.08 1225.02,3093.58C1263.31,3109.14 1400.37,3161.89 1420.78,3186.88C1503.29,3287.94 1676.75,3234.83 1670.71,3169.05C1664.16,3097.83 1707.84,3219.51 1800.02,3241.85C1892.21,3264.18 1990.83,3279.28 1990.83,3279.28L2017.45,3230.9C2017.45,3230.9 1723.83,3237.39 1717.58,3122.08C1715.85,3090.21 1818.61,3089.16 1818.61,3075.52C1818.61,3034.28 1749.28,3080.84 1712.6,3099.7C1687.65,3112.53 1677.23,3076.22 1672.28,3071.27C1615.52,3014.52 1718.71,3017.04 1639.31,2846.95C1624.73,2815.72 1656,2780.49 1650.94,2769.46C1634.56,2733.76 1634.6,2800.27 1631.01,2792.23C1613.57,2753.16 1652.4,2737.73 1628.05,2730.46C1592.02,2719.7 1671.93,2955.9 1631.76,3122.97C1615.85,3189.14 1522.92,3195.43 1476.17,3167.38C1456,3155.27 1568.01,3084.45 1476.17,3098.58C1149.47,3148.83 1361.52,2956.85 1240.16,3040.55Z" style="fill:rgb(108,129,148);"/>
                            <path d="M1311.3,2444.42C1279.3,2462.8 1237.11,2494.5 1186.33,2509.12C1135.55,2523.74 1065.24,2569.05 1058.21,2783.9C1055.71,2860.04 1000.39,2992.49 1016.02,3067.49C1031.64,3142.49 1039.46,3206.55 1178.52,3265.15C1194.55,3271.9 1270.88,3300.03 1389.91,3308.31C1398.58,3308.91 1374.1,3286.3 1383.63,3285.46C1416.64,3282.54 1187.91,3287.19 1049.04,3127.44C988.279,3057.55 1097.1,2813.8 1098.05,2809.76C1101.17,2796.47 1031.73,2505.7 1301.17,2526.16C1338.8,2529.02 1413.98,2648.53 1434.14,2627.43C1472.8,2673.36 1483.07,2668.12 1491.19,2623.45C1494.65,2604.43 1497.26,2652.57 1527.74,2558.9C1534.65,2537.66 1598.67,2512.28 1560.65,2507.17C1528.03,2499.81 1508.84,2488.61 1503.96,2509.12C1502.94,2527.55 1496.36,2587.54 1483.17,2640.61C1481.94,2645.16 1478.08,2648.53 1473.37,2649.14C1468.67,2649.76 1464.05,2647.49 1461.68,2643.41C1419.74,2574.15 1336.15,2524.59 1311.3,2444.42Z" style="fill:rgb(108,129,148);"/>
                            <path d="M1346.06,2399.88C1343.16,2410.96 1361.61,2514.3 1436.1,2543.86C1458.36,2552.69 1463.28,2549.01 1466.1,2554.64C1469.85,2574.8 1470.78,2570.58 1475.94,2560.73C1481.1,2550.89 1493.75,2538.23 1498.44,2524.17C1503.13,2510.11 1498.44,2506.83 1505.47,2511.05C1512.5,2515.26 1515.78,2525.11 1511.1,2549.01C1506.41,2572.92 1503.6,2622.14 1494.69,2604.33C1485.78,2586.51 1476.88,2564.95 1475.47,2574.8C1474.07,2584.64 1468.44,2579.95 1462.35,2563.55C1454.85,2571.51 1437.03,2622.14 1426.72,2616.98C1416.41,2611.83 1315.4,2523.17 1311.3,2444.42C1319,2429.64 1340.87,2403.38 1346.06,2399.88Z" style="fill:rgb(246,247,250);"/>
                            <path d="M1426.17,3187.02C1453.35,3190.04 1476.17,3201.87 1476.17,3201.87C1476.17,3201.87 1448.05,3210.46 1448.05,3241.71C1448.05,3272.96 1442.58,3311.24 1462.89,3311.24C1483.21,3311.24 1472.27,3320.62 1460.55,3320.62C1448.83,3320.62 1388.67,3305.77 1388.67,3305.77C1388.67,3305.77 1365.24,3262.8 1373.83,3237.8C1382.42,3212.8 1405.08,3184.68 1426.17,3187.02Z" style="fill:rgb(246,247,250);"/>
                            <path d="M1440.24,3304.99C1431.56,3250.98 1437.73,3210.44 1469.01,3198.58C1473.61,3196.84 1476.17,3201.87 1476.17,3201.87C1476.17,3201.87 1448.05,3210.46 1448.05,3241.71C1448.05,3272.96 1442.58,3311.24 1462.89,3311.24C1483.21,3311.24 1472.27,3320.62 1460.55,3320.62C1448.83,3320.62 1440.24,3304.99 1440.24,3304.99Z" style="fill:rgb(228,232,240);"/>
                        </g>
                        <g id="masa">
                            <g transform="matrix(0.997911,0,0,2.90479,-544.891,-6408.31)">
                                <path d="M1212.23,3371.54C1219.51,3370.95 1226.91,3370.57 1234.38,3370.41C1370.19,3367.47 2693.68,3338.87 2693.68,3338.87C3753.21,3375.93 3679.83,3448.95 2763.99,3548.72L1145.8,3666.74C1145.8,3666.74 492.829,3525.41 257.067,3474.37C242.859,3471.3 235.426,3465.62 238.195,3459.96C240.965,3454.3 253.399,3449.75 269.764,3448.41C510.018,3428.82 1122.89,3378.83 1212.23,3371.54Z" style="fill:rgb(228,232,240);"/>
                            </g>
                            <g transform="matrix(-0.627096,0,0,0.627096,4987.77,789.392)">
                                <path d="M5120.76,4098.77C5118.68,4097.53 5116.29,4096.87 5113.86,4096.87C5049.04,4096.87 4156.37,4096.87 4092.06,4096.87C4089.67,4096.87 4087.32,4097.51 4085.26,4098.71C4082.96,4100.06 4079.55,4102.05 4075.55,4104.39C4070.34,4107.44 4067.83,4113.57 4069.42,4119.36C4071.01,4125.15 4076.31,4129.16 4082.35,4129.16C4269.65,4129.16 4937.47,4129.16 5123.39,4129.16C5129.41,4129.16 5134.69,4125.17 5136.3,4119.41C5137.91,4113.65 5135.45,4107.53 5130.29,4104.45C5126.38,4102.12 5123.03,4100.12 5120.76,4098.77Z" style="fill:rgb(179,193,205);"/>
                            </g>
                            <g transform="matrix(1,0,0,1,-349.017,-34.8669)">
                                <path d="M2008,3358.88C2006.65,3358.74 2005.64,3357.58 2005.71,3356.23C2005.78,3354.88 2006.89,3353.82 2008.25,3353.81C2058.39,3353.49 2133.81,3353 2143.12,3352.94C2143.75,3352.93 2144.39,3352.97 2145.02,3353.04C2165.65,3355.33 2517.07,3394.4 2552.92,3398.39C2556.3,3398.76 2559.21,3400.92 2560.53,3404.03C2566.03,3416.94 2515.11,3419.78 2379.47,3407.49C2378.83,3407.43 2378.2,3407.35 2377.57,3407.26C2264.71,3389.98 2143.11,3373.68 2008,3358.88Z" style="fill:rgb(178,194,207);"/>
                            </g>
                        </g>
                        <g id="Layer3">
                            <g transform="matrix(1,0,0,1,-82.1551,-3.47222)">
                                <path d="M2126.49,3187.93C2133.16,3185.31 2169.8,3186.51 2174.87,3183.4C2189.99,3174.12 2203.35,3168.96 2210.73,3168.47C2223.44,3167.64 2216.2,3160.61 2239.31,3162.92C2320.44,3171.04 2311.54,3159 2319.04,3159C2326.54,3159 2350.92,3151.03 2353.73,3163.69C2356.54,3176.35 2342.01,3186.66 2332.17,3190.88C2322.32,3195.1 2264.96,3200.05 2276.21,3206.14C2287.46,3212.24 2350.2,3203.53 2360.98,3212.44C2371.76,3221.35 2335.92,3323.3 2302.64,3315.33C2269.36,3307.36 2200.05,3287.13 2169.31,3273.79C2144.46,3263.01 2139.15,3265.78 2119.62,3271.91C2095.4,3279.52 2090.95,3197.03 2126.49,3187.93" style="fill:rgb(228,232,240);"/>
                            </g>
                            <g transform="matrix(1,0,0,1,-79.7996,-2.20072)">
                                <path d="M2190.98,3225.29C2222.55,3237.24 2232.58,3223.05 2257.08,3216.21C2295.26,3205.54 2250.75,3165.42 2278.78,3193.45C2284.42,3199.1 2276.43,3200.65 2276.75,3201.39C2277.14,3202.25 2281.47,3198.83 2287.73,3197.91C2296.02,3196.69 2298,3182.13 2299.99,3181.98C2302.24,3181.82 2306.28,3191.42 2308.36,3191.16C2359.74,3184.7 2351.6,3154.11 2353.73,3163.69C2356.54,3176.35 2343.21,3186.7 2333.37,3190.92C2323.52,3195.14 2286.14,3195.16 2297.39,3201.25C2308.64,3207.35 2360.68,3209.92 2358.15,3209.7C2344.48,3208.53 2330.22,3207.6 2315.84,3207.25C2303.03,3206.95 2300.91,3227.51 2288.25,3227C2283.03,3226.79 2270.75,3250.39 2265.69,3249.98C2255.49,3249.15 2351.65,3197.07 2288.32,3212.87C2271.58,3217.05 2232.82,3248.53 2190.98,3225.29Z" style="fill:rgb(178,194,207);"/>
                            </g>
                            <g transform="matrix(1,0,0,1,-88.1877,-2.486)">
                                <path d="M2126.49,3187.93C2133.16,3185.31 2142.72,3184.42 2148.57,3183.32C2195.53,3174.44 2086.51,3237.17 2165,3256.22C2217.81,3269.03 2200.94,3289.59 2242.15,3287.36C2264.07,3286.17 2290.59,3312.52 2303.27,3305.08C2340.85,3283.02 2311.89,3311.41 2278.61,3303.44C2245.33,3295.47 2200.05,3287.13 2169.31,3273.79C2144.46,3263.01 2139.15,3265.78 2119.62,3271.91C2095.4,3279.52 2090.95,3197.03 2126.49,3187.93" style="fill:rgb(178,194,207);"/>
                            </g>
                        </g>
                        <g id="mana">
                            <path d="M1447.53,3199.83C1468.62,3205.69 1481.54,3202.76 1491.19,3196.9C1500.85,3191.04 1537.68,3176.98 1566.98,3172.29C1602.72,3175.22 1606.32,3193.97 1639.71,3200.42C1664.5,3205.2 1667.98,3220.93 1645.06,3225.61C1622.14,3230.3 1616.28,3226.2 1572.92,3224.44C1529.56,3222.68 1426.43,3193.97 1447.53,3199.83Z" style="fill:rgb(228,232,240);"/>
                            <path d="M1575.33,3215.94C1565.66,3213.42 1558.88,3208.67 1542.09,3209.77C1517.76,3211.38 1513.31,3200.77 1565.76,3200.04C1596.15,3215.02 1606.32,3193.97 1639.71,3200.42C1664.5,3205.2 1667.98,3220.93 1645.06,3225.61C1622.14,3230.3 1617.32,3226.89 1575.33,3215.94Z" style="fill:rgb(178,194,207);"/>
                            <path id="card" d="M1573.5,3227.78C1595.49,3214.45 1670.55,3168.22 1688.35,3157.26C1690.7,3155.81 1693.66,3155.71 1696.11,3157.01C1709.19,3163.95 1751.41,3186.37 1772.31,3197.46C1774.76,3198.76 1776.33,3201.27 1776.41,3204.03C1776.5,3206.79 1775.09,3209.39 1772.72,3210.84C1742.5,3229.29 1663.35,3277.65 1663.35,3277.65C1663.35,3277.65 1549.23,3242.5 1573.5,3227.78Z" style="fill:rgb(214,14,74);"/>
                            <path id="card1" serif:id="card" d="M1577.86,3230.8C1599.79,3217.5 1671.75,3172.98 1689.06,3162.27C1691.39,3160.82 1694.32,3160.71 1696.76,3161.97C1709.54,3168.6 1750.2,3189.68 1770.89,3200.41C1773.39,3201.7 1774.99,3204.24 1775.07,3207.03C1775.14,3209.83 1773.69,3212.45 1771.27,3213.88C1740.92,3231.81 1663.35,3277.65 1663.35,3277.65C1663.35,3277.65 1553.58,3245.52 1577.86,3230.8Z" style="fill:rgb(124,11,51);"/>
                            <path id="card2" serif:id="card" d="M1632.1,3260.26C1654.17,3246.88 1731.18,3203.06 1748.9,3192.98C1751.18,3191.68 1753.97,3191.62 1756.31,3192.81C1761.16,3195.28 1769.01,3199.27 1769.01,3199.27L1647.82,3265.68C1647.82,3265.68 1607.82,3274.98 1632.1,3260.26Z" style="fill:rgb(42,56,71);"/>
                            <g transform="matrix(0.853226,-0.521541,0.521541,0.853226,-1409.01,1330.7)">
                                <path d="M1687.35,3190.75C1686.55,3189.47 1685.16,3188.68 1683.66,3188.64C1680.28,3188.56 1673.97,3188.4 1668.79,3188.28C1667.16,3188.23 1665.63,3189.09 1664.83,3190.51C1664.02,3191.92 1664.06,3193.67 1664.93,3195.06C1667.73,3199.55 1671.19,3205.07 1673.04,3208.02C1673.85,3209.33 1675.29,3210.13 1676.83,3210.14C1680.22,3210.15 1686.45,3210.17 1691.54,3210.18C1693.16,3210.19 1694.65,3209.32 1695.44,3207.9C1696.22,3206.49 1696.17,3204.76 1695.3,3203.39C1692.55,3199.01 1689.16,3193.62 1687.35,3190.75Z" style="fill:rgb(178,194,207);"/>
                            </g>
                            <g transform="matrix(-0.627096,-6.96216e-17,-6.96216e-17,0.627096,5165.96,805.49)">
                                <path d="M5658.71,4043.49C5648.29,4084.12 5499.33,4101.82 5550.38,4118.49C5588.99,4131.1 5695.17,4090.37 5789.96,4087.24C5872.78,4084.51 5918.08,4055.99 5851.42,4048.7C5784.75,4041.41 5667.49,4009.23 5658.71,4043.49Z" style="fill:rgb(179,193,205);"/>
                            </g>
                            <path d="M1480.14,3205.2C1473.5,3203.64 1448.11,3206.38 1439.13,3231.77C1430.14,3257.16 1433.12,3304.03 1444.71,3309.11C1456.32,3314.19 1452.8,3310.28 1465.3,3313.02C1477.8,3315.75 1534.38,3348.17 1552.57,3355.59C1570.77,3363.02 1580.92,3360.47 1594.21,3351.2C1607.49,3341.92 1632.1,3317.68 1639.13,3308.32C1646.16,3298.95 1664.52,3292.7 1675.07,3286.45C1685.61,3280.2 1698.11,3273.95 1709.83,3262.63C1721.55,3251.3 1737.08,3254.72 1743.03,3245.44C1752.8,3230.2 1741.86,3228.1 1728.58,3227.78C1715.3,3227.47 1696.16,3230.83 1684.44,3235.6C1672.72,3240.36 1663.74,3231.77 1650.07,3234.5C1636.39,3237.24 1619.99,3223.95 1592.25,3216.92C1564.52,3209.89 1545.77,3213.02 1543.82,3206.77C1541.86,3200.52 1533.27,3206.38 1515.69,3204.42C1498.11,3202.47 1486.78,3206.77 1480.14,3205.2Z" style="fill:rgb(228,232,240);"/>
                            <path d="M1485.56,3311.57C1468.73,3290.32 1448.71,3313.07 1457.51,3237.18C1459.5,3220.06 1473.6,3202.37 1465.02,3203.79C1456.39,3205.23 1442.48,3222.28 1439.13,3231.77C1430.14,3257.16 1433.12,3304.03 1444.71,3309.11C1456.32,3314.19 1452.8,3310.28 1465.3,3313.02C1477.8,3315.75 1534.38,3348.17 1552.57,3355.59C1570.77,3363.02 1580.92,3360.47 1594.21,3351.2C1607.49,3341.92 1632.1,3317.68 1639.13,3308.32C1646.16,3298.95 1664.52,3292.7 1675.07,3286.45C1685.61,3280.2 1698.11,3273.95 1709.83,3262.63C1721.55,3251.3 1692.14,3264.65 1680.42,3269.41C1676.46,3271.03 1647.19,3275.31 1628.61,3281.86C1597.26,3292.92 1564.04,3296.63 1564.55,3300.75C1566.75,3318.38 1644.61,3269.14 1622.94,3299.46C1616.69,3308.21 1596.09,3317.2 1576.44,3323.76C1572.3,3325.15 1568.74,3330.46 1575.02,3330.68C1581.72,3330.92 1608.58,3315.03 1612.81,3324.15C1618.79,3337.05 1579.75,3347.04 1570.12,3354.87C1542.38,3347.84 1496.4,3325.26 1485.56,3311.57Z" style="fill:rgb(178,194,207);"/>
                            <path d="M1583.15,3268.7C1568.61,3262.81 1561.15,3266.56 1568.52,3271.25C1575.88,3275.93 1603.64,3271.56 1616.03,3273.9C1628.41,3276.25 1631.76,3275.59 1643.48,3276.6C1655.2,3277.6 1665.58,3275.26 1656.54,3273.59C1647.5,3271.92 1631.09,3274.93 1623.73,3271.25C1616.36,3267.56 1590.23,3271.58 1583.15,3268.7Z" style="fill:rgb(178,194,207);"/>
                        </g>
                        <g transform="matrix(1,0,0,1,-83.8812,-2.85279)">
                            <path d="M2089.85,3160.04C2070.29,3171.06 2041.91,3193.79 2033.05,3220.54C2028.6,3233.98 2029.07,3248.43 2038.06,3262.93C2043.9,3272.35 2059.98,3278.35 2069.45,3281.86C2105.12,3279.43 2131.46,3279.32 2131.11,3270.14C2116.57,3267.22 2099.24,3231.59 2113.84,3207.46C2127.24,3185.3 2135.71,3181.68 2140.79,3175.82C2124.35,3166.2 2113.75,3164.19 2089.85,3160.04Z" style="fill:rgb(246,247,250);"/>
                        </g>
                        <g transform="matrix(1,0,0,1,-83.8812,-2.85279)">
                            <path d="M2102.91,3241.04C2138.2,3315.74 2030.77,3250.27 2038.06,3262.93C2043.9,3272.35 2059.98,3278.35 2069.45,3281.86C2105.12,3279.43 2131.46,3279.32 2131.11,3270.14C2116.57,3267.22 2101.85,3233.55 2116.45,3209.42C2129.86,3187.26 2135.71,3181.68 2140.79,3175.82C2124.35,3166.2 2098.58,3231.87 2102.91,3241.04Z" style="fill:rgb(230,231,239);"/>
                        </g>
                        <path d="M2327.69,2966.79L2313.39,2966.79L2241.2,3174.06L2255.5,3174.06L2327.69,2966.79Z" style="fill:rgb(246,247,250);fill-opacity:0.17;"/>
                        <g transform="matrix(1,0,0,1,-17.3437,0)">
                            <path d="M2319.69,2966.79L2313.39,2966.79L2241.2,3174.06L2247.5,3174.06L2319.69,2966.79Z" style="fill:rgb(246,247,250);fill-opacity:0.17;"/>
                        </g>
                        <g transform="matrix(-0.69048,0,-2.86998e-18,0.827215,2494.15,1835.3)">
                            <path d="M459.099,1766.01C459.099,1766.01 442.059,1766.36 424.089,1773.01C402.958,1780.82 369.852,1796.52 355.72,1797.53C347.066,1798.14 345.616,1790.81 346.027,1785.21C347.951,1773.15 368.23,1767.84 373.351,1763.06C375.76,1760.82 366.586,1763.67 366.586,1763.67C366.586,1763.67 301.085,1782.8 285.711,1783.42C278.422,1783.71 255.179,1784.03 268.362,1765.74C278.812,1751.24 295.877,1748.95 311.273,1744.05C326.154,1739.31 333.648,1736.1 333.648,1736.1L262.038,1742.3C262.038,1742.3 245.273,1752.64 236.167,1751.93C228.965,1751.37 212.113,1741.52 239.379,1720.38C231.837,1716.37 226.517,1715.27 229.224,1705.35C233.495,1689.7 283.574,1660.27 350.035,1653.24C424.101,1645.4 429.462,1670.91 431.366,1707.9C433.27,1744.88 459.099,1766.01 459.099,1766.01Z" style="fill:rgb(228,232,240);"/>
                            <clipPath id="_clip3">
                                <path d="M459.099,1766.01C459.099,1766.01 442.059,1766.36 424.089,1773.01C402.958,1780.82 369.852,1796.52 355.72,1797.53C347.066,1798.14 345.616,1790.81 346.027,1785.21C347.951,1773.15 368.23,1767.84 373.351,1763.06C375.76,1760.82 366.586,1763.67 366.586,1763.67C366.586,1763.67 301.085,1782.8 285.711,1783.42C278.422,1783.71 255.179,1784.03 268.362,1765.74C278.812,1751.24 295.877,1748.95 311.273,1744.05C326.154,1739.31 333.648,1736.1 333.648,1736.1L262.038,1742.3C262.038,1742.3 245.273,1752.64 236.167,1751.93C228.965,1751.37 212.113,1741.52 239.379,1720.38C231.837,1716.37 226.517,1715.27 229.224,1705.35C233.495,1689.7 283.574,1660.27 350.035,1653.24C424.101,1645.4 429.462,1670.91 431.366,1707.9C433.27,1744.88 459.099,1766.01 459.099,1766.01Z"/>
                            </clipPath>
                            <g clip-path="url(#_clip3)">
                                <path d="M219.059,1699.99C219.059,1699.99 221.479,1707.59 240.175,1711.33C258.87,1715.06 324.468,1688.63 324.468,1688.63C343.05,1692 359.457,1687.16 378.04,1682.99C378.04,1682.99 383.699,1679.46 389.071,1666.88C389.941,1664.85 391.192,1664.01 394.016,1663.61C399.953,1662.78 382.321,1726.63 415.348,1758.91C418.685,1762.17 422.54,1765.11 426.988,1767.63C432.721,1769 441.197,1765.35 449.649,1760.03C462.071,1752.21 474.441,1740.78 477.977,1736.36L517.747,1735.68L515.708,1751.65L364.443,1806.04C364.443,1806.04 340.493,1806.07 343.892,1791.12C347.292,1776.16 349.536,1783.89 349.536,1783.89C349.536,1783.89 349.59,1790.39 353.277,1792.17C361.637,1796.2 424.176,1776.78 419.85,1770.35L405.233,1750.63C393.613,1758.52 384.602,1761.34 372.441,1764.86C368.128,1766.11 362.05,1770.33 357.221,1770.88C345.85,1772.18 347.197,1771.91 338.459,1774.58C318.033,1780.82 293.743,1788.82 279.122,1797.88L257.027,1770.35C257.027,1770.35 267.565,1769.67 268.925,1771.37C270.284,1773.07 274.207,1780.5 283.541,1780.55C295.87,1780.61 361.166,1760.86 354.925,1757.36C356.798,1761.89 396.776,1755.41 399.047,1747.23C400.445,1742.19 388.219,1733.4 386.778,1730.18C386.136,1728.75 351.443,1743.12 337.358,1738.58C325.685,1734.82 275.397,1748.66 275.397,1748.66C275.397,1748.66 223.477,1764.58 216.254,1750.98C213.034,1744.92 228.924,1748.27 241.034,1746.53C256.092,1744.38 272.388,1732.46 272.388,1732.46C274.826,1733.09 274.562,1737.45 277.056,1737.34C297.757,1736.43 306.361,1737.53 328.795,1725.35C332.246,1730.62 383.75,1731.96 384.338,1716.97C384.799,1705.2 384.12,1690.65 384.12,1690.65C365.962,1694.68 346.876,1697.05 325.817,1695.87C325.817,1695.87 242.747,1725.89 230.782,1719.58C218.817,1713.27 219.059,1699.99 219.059,1699.99Z" style="fill:rgb(178,194,207);"/>
                            </g>
                        </g>
                    </g>
                </g>
                <path d="M3294.79,2389.02C3294.79,2363.77 3251.99,2343.3 3199.2,2343.3L321.631,2343.3C268.838,2343.3 226.041,2363.77 226.041,2389.02L226.041,3291.17C226.041,3316.42 268.838,3336.89 321.631,3336.89L3199.2,3336.89C3251.99,3336.89 3294.79,3316.42 3294.79,3291.17L3294.79,2389.02Z" style="fill:none;stroke:rgb(216,215,215);stroke-width:3.09px;"/>
            </g>
            <g transform="matrix(0.614868,0,0,0.326202,2425.84,28.7914)">
                <path d="M3259.07,1257.48C3259.07,1234.19 3247.74,1215.29 3233.79,1215.29L1378.09,1215.29C1364.14,1215.29 1352.82,1234.19 1352.82,1257.48L1352.82,1341.85C1352.82,1365.14 1364.14,1384.04 1378.09,1384.04L3233.79,1384.04C3247.74,1384.04 3259.07,1365.14 3259.07,1341.85L3259.07,1257.48Z" style="fill:url(#_Linear4);stroke:rgb(216,215,215);stroke-width:6.41px;"/>
            </g>
            <g transform="matrix(5.68062,0,0,2.73073,1318.54,1076.41)">
                <path d="M607.435,-185.963C607.435,-190.357 604.077,-193.92 599.938,-193.92L297.109,-193.92C292.963,-193.92 289.605,-190.357 289.605,-185.963L289.605,-161.883C289.605,-157.489 292.963,-153.929 297.109,-153.929L599.938,-153.929C604.077,-153.929 607.435,-157.489 607.435,-161.883L607.435,-185.963Z" style="fill:rgb(230,230,230);fill-rule:nonzero;"/>
            </g>
            <g transform="matrix(0.780176,0,0,0.690782,2318.74,249.863)">
                <circle cx="972.623" cy="515.139" r="46.853" style="fill:rgb(214,15,74);"/>
            </g>
            <g transform="matrix(0.691957,0,0,0.612671,2880.82,-371.908)">
                <circle cx="2501.82" cy="1347.05" r="27.344" style="fill:rgb(198,204,212);"/>
            </g>
            <g transform="matrix(0.691957,0,0,0.612671,2956.88,-371.908)">
                <circle cx="2501.82" cy="1347.05" r="27.344" style="fill:rgb(198,204,212);"/>
            </g>
            <g transform="matrix(0.691957,0,0,0.612671,3034.41,-371.908)">
                <circle cx="2501.82" cy="1347.05" r="27.344" style="fill:rgb(198,204,212);"/>
            </g>
            <g transform="matrix(0.780176,0,0,0.577166,-10.4327,-3492.81)">
                <path d="M5937.61,7333.45L5937.61,7761.88C5937.61,7772.16 5930.64,7780.51 5922.05,7780.51L5168.86,7780.51C5160.27,7780.51 5153.3,7772.16 5153.3,7761.88L5153.3,7333.45C5153.3,7323.17 5160.27,7314.82 5168.86,7314.82L5922.05,7314.82C5930.64,7314.82 5937.61,7323.17 5937.61,7333.45Z" style="fill:rgb(179,193,206);"/>
            </g>
            <g transform="matrix(0.780176,0,0,0.0946722,-9.64948,320.885)">
                <path d="M5937.61,7333.45L5937.61,7761.88C5937.61,7772.16 5936.47,7780.51 5935.06,7780.51L5155.85,7780.51C5154.44,7780.51 5153.3,7772.16 5153.3,7761.88L5153.3,7333.45C5153.3,7323.17 5154.44,7314.82 5155.85,7314.82L5935.06,7314.82C5936.47,7314.82 5937.61,7323.17 5937.61,7333.45Z" style="fill:rgb(207,222,236);"/>
            </g>
            <g transform="matrix(0.338784,0,0,0.0946722,2264.98,397.169)">
                <path d="M5937.61,7333.45L5937.61,7761.88C5937.61,7772.16 5934.98,7780.51 5931.73,7780.51L5159.18,7780.51C5155.93,7780.51 5153.3,7772.16 5153.3,7761.88L5153.3,7333.45C5153.3,7323.17 5155.93,7314.82 5159.18,7314.82L5931.73,7314.82C5934.98,7314.82 5937.61,7323.17 5937.61,7333.45Z" style="fill:rgb(214,15,74);"/>
                <clipPath id="_clip5">
                    <path d="M5937.61,7333.45L5937.61,7761.88C5937.61,7772.16 5934.98,7780.51 5931.73,7780.51L5159.18,7780.51C5155.93,7780.51 5153.3,7772.16 5153.3,7761.88L5153.3,7333.45C5153.3,7323.17 5155.93,7314.82 5159.18,7314.82L5931.73,7314.82C5934.98,7314.82 5937.61,7323.17 5937.61,7333.45Z"/>
                </clipPath>
                <g clip-path="url(#_clip5)">
                    <g transform="matrix(2.30287,0,0,7.29657,-6659.96,-50202.7)">
                        <ellipse cx="5119.3" cy="7947.39" rx="106.416" ry="90.353" style="fill:rgb(9,49,88);"/>
                    </g>
                </g>
            </g>
            <g transform="matrix(0.584545,0,0,0.523668,1610.77,-548.628)">
                <path d="M4105.94,2641.79L4065.89,2599.6L4065.89,2482.41L4105.94,2522.47L4105.94,2641.79Z" style="fill:rgb(126,18,52);"/>
            </g>
            <g transform="matrix(0.584545,0,0,0.566794,1610.19,-655.683)">
                <path d="M4065.89,2482.41L4389.52,2482.41C4397.35,2482.41 4403.7,2488.21 4403.7,2495.36C4403.7,2515.8 4403.7,2555.28 4403.7,2575.71C4403.7,2582.87 4397.35,2588.66 4389.52,2588.66C4325.42,2588.66 4065.89,2588.66 4065.89,2588.66L4065.89,2482.41Z" style="fill:rgb(216,29,77);"/>
            </g>
            <g transform="matrix(1,0,0,1,0.780176,-6.90782)">
                <g transform="matrix(-1.64115,0,0,1.47023,8243.32,-3488.18)">
                    <path d="M2221.4,3125.53L2223.83,3133.01L2231.71,3133.01L2225.33,3137.64L2227.77,3145.13L2221.4,3140.51L2215.03,3145.13L2217.46,3137.64L2211.09,3133.01L2218.96,3133.01L2221.4,3125.53Z" style="fill:rgb(214,14,74);"/>
                </g>
                <g transform="matrix(-1.64115,0,0,1.47023,8202.93,-3488.18)">
                    <path d="M2221.4,3125.53L2223.83,3133.01L2231.71,3133.01L2225.33,3137.64L2227.77,3145.13L2221.4,3140.51L2215.03,3145.13L2217.46,3137.64L2211.09,3133.01L2218.96,3133.01L2221.4,3125.53Z" style="fill:rgb(214,14,74);"/>
                </g>
                <g transform="matrix(-1.64115,0,0,1.47023,8162.55,-3488.18)">
                    <path d="M2221.4,3125.53L2223.83,3133.01L2231.71,3133.01L2225.33,3137.64L2227.77,3145.13L2221.4,3140.51L2215.03,3145.13L2217.46,3137.64L2211.09,3133.01L2218.96,3133.01L2221.4,3125.53Z" style="fill:rgb(214,14,74);"/>
                </g>
                <g transform="matrix(-1.64115,0,0,1.47023,8122.54,-3488.18)">
                    <path d="M2221.4,3125.53L2223.83,3133.01L2231.71,3133.01L2225.33,3137.64L2227.77,3145.13L2221.4,3140.51L2215.03,3145.13L2217.46,3137.64L2211.09,3133.01L2218.96,3133.01L2221.4,3125.53Z" style="fill:rgb(214,14,74);"/>
                </g>
                <g transform="matrix(-1.64115,0,0,1.47023,8081.77,-3488.18)">
                    <path d="M2221.4,3125.53L2223.83,3133.01L2231.71,3133.01L2225.33,3137.64L2227.77,3145.13L2221.4,3140.51L2215.03,3145.13L2217.46,3137.64L2211.09,3133.01L2218.96,3133.01L2221.4,3125.53Z" style="fill:rgb(214,14,74);"/>
                </g>
            </g>
            <g transform="matrix(0.443026,0,0,0.396888,2058.59,-308.982)">
                <path d="M4450.34,3555.57L4475.73,3583.82L4451.21,3611.12" style="fill:none;stroke:white;stroke-width:14.59px;"/>
            </g>
            <g transform="matrix(0.443026,0,0,0.396888,2072.17,-308.982)">
                <path d="M4450.34,3555.57L4475.73,3583.82L4451.21,3611.12" style="fill:none;stroke:white;stroke-width:14.59px;"/>
            </g>
        </g>
    </g>
    <defs>
        <linearGradient id="_Linear1" x1="0" y1="0" x2="1" y2="0" gradientUnits="userSpaceOnUse" gradientTransform="matrix(1.9586e-13,1302.41,-2703.55,6.74057e-14,1760.42,1993.54)"><stop offset="0" style="stop-color:rgb(229,231,240);stop-opacity:1"/><stop offset="1" style="stop-color:white;stop-opacity:1"/></linearGradient>
        <linearGradient id="_Linear4" x1="0" y1="0" x2="1" y2="0" gradientUnits="userSpaceOnUse" gradientTransform="matrix(-4.90511e-13,-168.75,1281.19,-6.46071e-14,2305.94,1384.04)"><stop offset="0" style="stop-color:white;stop-opacity:0.15"/><stop offset="1" style="stop-color:rgb(242,242,242);stop-opacity:0.15"/></linearGradient>
    </defs>
</svg>
