<?xml version="1.0" encoding="UTF-8" standalone="no"?>
<!DOCTYPE svg PUBLIC "-//W3C//DTD SVG 1.1//EN" "http://www.w3.org/Graphics/SVG/1.1/DTD/svg11.dtd">
<svg width="100%" height="100%" viewBox="0 0 2532 1716" version="1.1" xmlns="http://www.w3.org/2000/svg" xmlns:xlink="http://www.w3.org/1999/xlink" xml:space="preserve" xmlns:serif="http://www.serif.com/" style="fill-rule:evenodd;clip-rule:evenodd;stroke-linecap:round;stroke-linejoin:round;stroke-miterlimit:1.5;">
    <g transform="matrix(1,0,0,1,-3097.19,-128.632)">
        <g id="Layer1">
        </g>
        <g id="Layer2">
        </g>
        <g id="fitness" transform="matrix(1.17064,0,0,1.22062,-144.593,-236.148)">
            <rect x="2769.24" y="298.849" width="2162.86" height="1405.6" style="fill:none;"/>
            <clipPath id="_clip1">
                <rect x="2769.24" y="298.849" width="2162.86" height="1405.6"/>
            </clipPath>
            <g clip-path="url(#_clip1)">
                <g id="Layer5">
                </g>
                <g id="g1">
                </g>
                <g transform="matrix(0.70366,0,0,1.4109,2611.79,-3005.58)">
                    <path d="M3294.79,2389.02C3294.79,2363.77 3251.99,2343.3 3199.2,2343.3L321.631,2343.3C268.838,2343.3 226.041,2363.77 226.041,2389.02C226.041,2555.06 226.041,3125.13 226.041,3291.17C226.041,3316.42 268.838,3336.89 321.631,3336.89L3199.2,3336.89C3251.99,3336.89 3294.79,3316.42 3294.79,3291.17C3294.79,3125.13 3294.79,2555.06 3294.79,2389.02Z" style="fill:url(#_Linear2);stroke:rgb(216,215,215);stroke-width:3.09px;"/>
                </g>
                <g transform="matrix(0.673235,0,0,0.386871,2266.26,-137.438)">
                    <path d="M3259.07,1257.48C3259.07,1234.19 3247.74,1215.29 3233.79,1215.29L1378.09,1215.29C1364.14,1215.29 1352.82,1234.19 1352.82,1257.48L1352.82,1341.85C1352.82,1365.14 1364.14,1384.04 1378.09,1384.04L3233.79,1384.04C3247.74,1384.04 3259.07,1365.14 3259.07,1341.85L3259.07,1257.48Z" style="fill:url(#_Linear3);stroke:rgb(216,215,215);stroke-width:6.41px;"/>
                </g>
                <g transform="matrix(6.21986,0,0,3.2386,1053.85,1105.02)">
                    <path d="M607.435,-185.963C607.435,-190.357 604.077,-193.92 599.938,-193.92L297.109,-193.92C292.963,-193.92 289.605,-190.357 289.605,-185.963L289.605,-161.883C289.605,-157.489 292.963,-153.929 297.109,-153.929L599.938,-153.929C604.077,-153.929 607.435,-157.489 607.435,-161.883L607.435,-185.963Z" style="fill:rgb(230,230,230);fill-rule:nonzero;"/>
                </g>
                <g transform="matrix(0.854235,0,0,0.819257,2149,124.75)">
                    <circle cx="972.623" cy="515.139" r="46.853" style="fill:rgb(214,15,74);"/>
                </g>
                <g transform="matrix(0.757642,0,0,0.726619,2764.43,-612.662)">
                    <circle cx="2501.82" cy="1347.05" r="27.344" style="fill:rgb(198,204,212);"/>
                </g>
                <g transform="matrix(0.757642,0,0,0.726619,2847.71,-612.662)">
                    <circle cx="2501.82" cy="1347.05" r="27.344" style="fill:rgb(198,204,212);"/>
                </g>
                <g transform="matrix(0.757642,0,0,0.726619,2932.6,-612.662)">
                    <circle cx="2501.82" cy="1347.05" r="27.344" style="fill:rgb(198,204,212);"/>
                </g>
                <g transform="matrix(2.33651,0,0,2.20475,2394.3,1269.01)">
                    <path d="M604.551,-185.963C604.551,-190.357 601.193,-193.92 597.054,-193.92L297.109,-193.92C292.963,-193.92 289.605,-190.357 289.605,-185.963L289.605,-161.883C289.605,-157.489 292.963,-153.929 297.109,-153.929L597.054,-153.929C601.193,-153.929 604.551,-157.489 604.551,-161.883L604.551,-185.963Z" style="fill:rgb(206,218,230);fill-rule:nonzero;"/>
                </g>
                <g transform="matrix(2.33651,0,0,1.31973,2394.3,1224.58)">
                    <path d="M562.975,-185.963C562.975,-190.357 559.617,-193.92 555.478,-193.92L297.109,-193.92C292.963,-193.92 289.605,-190.357 289.605,-185.963L289.605,-161.883C289.605,-157.489 292.963,-153.929 297.109,-153.929L555.478,-153.929C559.617,-153.929 562.975,-157.489 562.975,-161.883L562.975,-185.963Z" style="fill:rgb(206,218,230);fill-rule:nonzero;"/>
                </g>
                <g transform="matrix(2.33651,0,0,1.31973,2394.3,1305.94)">
                    <path d="M562.975,-185.963C562.975,-190.357 559.617,-193.92 555.478,-193.92L297.109,-193.92C292.963,-193.92 289.605,-190.357 289.605,-185.963L289.605,-161.883C289.605,-157.489 292.963,-153.929 297.109,-153.929L555.478,-153.929C559.617,-153.929 562.975,-157.489 562.975,-161.883L562.975,-185.963Z" style="fill:rgb(206,218,230);fill-rule:nonzero;"/>
                </g>
                <g transform="matrix(0.707628,0,0,1.41471,2872.63,1428.44)">
                    <path d="M562.975,-185.963C562.975,-190.357 559.617,-193.92 555.478,-193.92L297.109,-193.92C292.963,-193.92 289.605,-190.357 289.605,-185.963L289.605,-161.883C289.605,-157.489 292.963,-153.929 297.109,-153.929L555.478,-153.929C559.617,-153.929 562.975,-157.489 562.975,-161.883L562.975,-185.963Z" style="fill:rgb(214,15,74);fill-rule:nonzero;"/>
                </g>
                <g transform="matrix(1.55699,0,0,1.49323,2821.1,460.587)">
                    <path d="M834,247C838.561,244.72 841.377,252.432 838,255C828.794,262 832,269 827,269C824,269 823,266.236 823,264C823,259 826,251 834,247Z" style="fill:rgb(225,233,240);"/>
                </g>
                <g transform="matrix(1.55699,0,0,1.49323,2821.1,460.587)">
                    <path d="M845,252C845,257 834.335,251.978 835,242C836,227 823.589,217 828.794,207C834,197 839.512,202 843,208C846.488,214 845,251 845,252Z" style="fill:rgb(225,233,240);"/>
                </g>
                <g transform="matrix(1.55699,0,0,1.49323,2821.1,460.587)">
                    <path d="M842.016,206.422C843.927,211.071 835.358,213 833.301,206C831.244,199 831.244,173 836.415,185C839.216,191.501 836.415,192.797 842.016,206.422Z" style="fill:rgb(225,233,240);"/>
                </g>
                <g transform="matrix(1.55699,0,0,1.49323,2821.1,460.587)">
                    <path d="M828.794,213L833.301,201.764" style="fill:none;"/>
                </g>
                <g transform="matrix(1.55699,0,0,1.49323,2821.1,460.587)">
                    <path d="M828.794,213C826,211 809.329,186.114 817,181C820,179 823,197.528 833.301,201.764" style="fill:rgb(225,233,240);"/>
                </g>
                <g transform="matrix(1.55699,0,0,1.49323,2821.1,460.587)">
                    <path d="M859,209C836.095,210.251 828.794,253.958 845.153,246.584C863.247,238.427 888.242,207.402 859,209Z" style="fill:rgb(225,233,240);"/>
                </g>
                <g transform="matrix(1.55699,0,0,1.49323,2821.1,460.587)">
                    <path d="M906,201.299C902.711,195.751 862.731,176.257 854.366,227.629C850.59,250.814 842,256 859,241C876,226 909,206.36 906,201.299Z" style="fill:rgb(225,233,240);"/>
                </g>
                <g transform="matrix(1.55699,0,0,1.49323,2821.1,460.587)">
                    <path d="M915,210.598C901,201.299 862.292,193.04 833.292,269C827.623,283.847 812.333,275 797,321C788,348 788.939,351.049 779,359C764,371 723,405 715,410C702.77,417.644 694.858,437.305 679,467C639.994,540.042 634.38,585.795 628,611C624,626.804 624.926,628.127 619,628C609.573,627.798 602.528,607.805 547.264,609.62C541,609.826 533.919,614.086 532,613C522.988,607.899 481.188,624.277 449.188,618.277C435.393,615.691 430,619 415,636C400,653 428,649 439,659C450,669 447,637 472,650C497,663 551,678 597,675C627.529,673.009 640,703 672,672C691.956,652.667 677,650 704,622C718.758,606.696 745.893,590.233 764,519C771.204,490.658 803.359,502 827.514,510C851.668,518 903,511 919,500C935,489 951,485 947,497C943,509 910,548 937,583C943.607,591.564 933,591 944,639C947.532,654.412 937,673 935,683C933,693 954,705 964,699C974,693 977,678 975,669C973,660 976,633 984,609C987.847,597.459 999,533 990,505C985.066,489.649 989,490 989,479C989,468 991,439 963,434C940.018,429.896 933,418 865,418C857,418 867.347,413 872.428,409C877.508,405 880.611,406.745 884,402C889,395 925.496,355.909 929,338C938,292 929,219.896 915,210.598Z" style="fill:rgb(225,233,240);"/>
                </g>
                <g transform="matrix(1.55699,0,0,1.49323,2821.1,460.587)">
                    <path d="M919,236C920.749,228.13 912,227 911,221C910,215 900.656,204.203 905,189C909,175 920,153.431 956,158.716C976.053,161.659 998.106,177.813 998,202C997.891,226.869 991.432,226.628 991,236C990.394,249.135 987.083,247.834 981,260C978,266 977.392,270.297 972,277C967,283.216 964,289 957,289C950,289 942.435,287.038 940,284C919.451,258.367 915,254 919,236Z" style="fill:rgb(225,233,240);"/>
                </g>
                <g transform="matrix(1.55699,0,0,1.49323,2821.1,460.587)">
                    <path d="M911,204.716C910.292,206.494 915.954,201.201 918.187,204.716C920.621,208.546 919.733,221.059 921.196,219.325C924,216 922,211 929,209C936,207 939,197 941,197C943,197 945.474,203.306 959,208C971.914,212.482 969.58,228.001 985,229C994.21,229.597 995.723,221.653 995.723,221.653C995.723,221.653 1003.3,210.735 993.424,209.725C985.887,208.955 935,144.431 911,204.716Z" style="fill:rgb(130,152,171);fill-opacity:0.5;"/>
                </g>
                <g transform="matrix(1.55699,0,0,1.49323,2821.1,460.587)">
                    <path d="M769,368C778.833,366.361 748,383 745,397C742,411 739.694,414.019 759,444C763.663,451.241 769,455.338 772,454C775,452.662 778,454 779,445C780,436 782,432.338 784,445C786,457.662 783,462 789,462C795,462 817.178,459.617 833,449.018C843.261,442.144 850,432 847,432C844,432 843,433 848,429C853,425 863.634,418 859,417C854.366,416 863.596,414.564 868.507,411.757C875.507,407.757 882,399 879,399C876,399 869.964,395.324 867,401C859.537,415.289 849,422 846,424C843,426 843.236,423.416 847,421C857.875,414.02 865,401 860,400C855,399 841.174,400.899 835,405C828.188,409.525 828.794,418.287 828.533,419.286C827.61,422.818 820.5,416.305 818,424C808.688,452.662 810.212,439.484 813.925,425.5C815.163,420.835 823.176,408.608 819,410C813,412 811,416 797,421C793.117,422.387 784.964,422.711 794,420C814,414 816,403 822,402C828,401 828,398 823,396C818,394 818,392 823,392C828,392 845,390 845,387C845,384 839.608,388 836.304,386C833,384 835,383 840,383C845,383 849.731,380 854.366,380C859,380 863.634,377 859,375C854.366,373 847.731,370 854.366,370C861,370 882.734,358.608 872.366,357.625C851.505,355.646 828.991,326.051 831.274,317.647C835.557,301.88 885.509,301.821 900.428,300.191C902.953,299.915 894.282,291.621 899.961,287.385C914.988,276.177 914.191,241.582 919.502,250.626C921.83,254.59 907.241,286.55 908.754,289C911.31,293.143 922.637,283.919 925.033,279.033C930.555,267.774 931.798,270.254 931.487,269.145C930.63,266.092 931.713,268.677 932.113,277.987C932.872,295.622 933.452,328.901 929.713,334.083C924,342 902.596,376 894,384C885.404,392 890.428,406.988 864.333,417.027C859.574,418.857 850.589,457 828.794,468C807,479 720,458 724,427C728,396 763,369 769,368Z" style="fill:rgb(130,152,171);fill-opacity:0.59;"/>
                </g>
                <g transform="matrix(1.55699,0,0,1.49323,2821.1,460.587)">
                    <path d="M840.187,432C836,433 829,433 832,435C835,437 841.566,437.35 839,435C836.434,432.65 844.374,431 840.187,432Z" style="fill:rgb(169,185,199);"/>
                </g>
                <g transform="matrix(1.55699,0,0,1.49323,2821.1,460.587)">
                    <path d="M853.523,342.894C818.653,358.244 810,380 804,382C798,384 781.547,388 800,381C807.573,378.127 823.605,346.718 853.042,336.841C860.44,334.359 851.45,329.33 863,345.3C866.106,349.594 860.389,339.871 853.523,342.894Z" style="fill:none;"/>
                </g>
                <g transform="matrix(1.55699,0,0,1.49323,2821.1,460.587)">
                    <path d="M828.794,275.71C825.889,279.22 847.729,253.656 870,249.135C880.352,247.034 888.626,248.533 896.567,240.346C900.452,236.341 912.847,236.332 915.908,242.816C922.721,257.25 934.555,279.174 941.045,285.012C946.078,289.539 961.541,289.499 962.033,287.777C962.189,287.232 959.968,287.96 957.147,287.829C953.684,287.669 946.735,288.357 941.2,282.285C931.06,271.161 923.667,256.848 920.814,247.582C920.116,245.316 922.75,232.602 920.771,232.602C919.09,232.602 916.712,241.582 910.939,232.602C906.593,225.842 912,195 887,193C879.025,192.362 893.834,194.986 897.75,200.76C905.496,212.184 890.85,228.684 885,232.602C874.645,239.535 874.669,226.989 868.271,228.602C857.893,231.218 861.233,251.921 843.738,257.792C839.616,259.175 862.02,222.974 860.873,210.697C860.483,206.521 867.385,200.585 867.636,199.015C867.797,198.006 862.021,205.545 859.643,209.796C858.605,211.651 851.115,241.582 835.752,239.582C834.262,239.388 840.082,255.419 844.454,246.873C847.099,241.704 840.059,262.102 828.794,275.71Z" style="fill:rgb(130,152,171);fill-opacity:0.5;"/>
                </g>
                <g transform="matrix(1.55699,0,0,1.49323,2821.1,460.587)">
                    <path d="M830.223,199.945C828.67,198.392 829.843,210.525 825.434,208.94C824.762,208.699 827.069,212 829.535,213C832,214 833.241,202.966 830.223,199.945Z" style="fill:rgb(130,152,171);"/>
                </g>
                <g transform="matrix(1.55699,0,0,1.49323,2821.1,460.587)">
                    <path d="M834.802,210C834.368,206.961 831.754,217.539 834,226C837.304,238.446 832.892,244.712 836.415,248.73C839.937,252.749 840.149,256.325 842.684,252.377C845.218,248.428 850.14,241 845.07,240C840,239 836.415,244 836.415,241C836.415,238 836.415,228.297 844.774,217.148C846.258,215.17 844.054,210 843.302,208.626C842.551,207.252 835.009,211.448 834.802,210Z" style="fill:rgb(130,152,171);fill-opacity:0.5;"/>
                </g>
                <g transform="matrix(1.55699,0,0,1.49323,2821.1,460.587)">
                    <path d="M828.656,251C828.656,249.325 834.035,253 832.017,260C830,267 823,267 823,265C823,263 822.268,270.841 828.656,269C830.626,268.432 831.201,262 833.1,260C835,258 840.947,252.988 843.131,253.958C845.315,254.928 841.209,243 837.155,245C833.1,247 828.656,251.108 828.656,251Z" style="fill:rgb(130,152,171);fill-opacity:0.5;"/>
                </g>
                <g transform="matrix(1.55699,0,0,1.49323,2821.1,460.587)">
                    <path d="M879.923,430C879.923,430 968.885,417.041 978,444C987.115,470.959 987,472 986,476C985,480 984,468.918 982,470.959C980,473 974,479 976,492C978,505 988,519 983,553C978,587 971,625.882 970,613C969,600.118 987,524 972,524C957,524 960.107,533.382 958,539C949,563 931,561 936,544C941,527 949,510 960,499C971,488 966,485 963,475C960,465 957,472 949,465C941,458 933,444 920,447C907,450 879.949,439.517 845.909,513.168C837.752,513.625 827.747,511.322 825.572,510.971C820.189,510.104 879.923,430 879.923,430Z" style="fill:rgb(178,193,206);"/>
                </g>
                <g transform="matrix(1.55699,0,0,1.49323,2821.1,460.587)">
                    <path d="M941,587C939.586,584.172 954,582 957,576C960,570 963,569 961,573C959,577 947,603.882 944,602C941,600.118 942,589 941,587Z" style="fill:rgb(178,193,206);"/>
                </g>
                <g transform="matrix(1.55699,0,0,1.49323,2821.1,460.587)">
                    <path d="M952.82,676C952.82,676 958.64,677 952.82,680C947,683 943,689 944,680C945,671 946.725,678 949,660C951.275,642 948.725,640 950,630C951.275,620 954,625 955,635C956,645 951.275,667 951.275,671C951.275,675 952.82,676 952.82,676Z" style="fill:rgb(178,193,206);"/>
                </g>
                <g transform="matrix(1.55699,0,0,1.49323,2821.1,460.587)">
                    <path d="M940.903,670C940.903,674 937,686 947,686C957,686 960.295,686 961.648,680C963,674 953.295,661 961.648,660C970,659 974.475,658.138 974.475,658.138C974.475,658.138 974.287,667.448 975.144,680.224C976,693 984,700 965,703C946,706 939,710 936,696C933,682 934,676 934,676C934,676 940.903,666 940.903,670Z" style="fill:rgb(178,193,206);"/>
                </g>
                <g transform="matrix(1.55699,0,0,1.49323,2821.1,460.587)">
                    <path d="M646.643,557.267C646.643,557.267 644.4,563.317 643.565,565.6C642.729,567.883 646.346,580.351 651,587C658,597 664,596 665,612C666,628 663,635 662,648C661,661 657,660 660,663C663,666 665,662 663,668C661,674 657.825,677.235 649,679C644,680 645,686 629,675C613,664 609,661 589,662C569,663 527,665.303 508,654.651C489,644 480,641 468,638C456,635 445,627 444,632C443,637 444,635 445,638C446,641 447,644 443,643C439,642 433,633.451 438,629C443,624.549 451.577,620.881 448.789,618.203C446,615.526 442.398,609.569 436.199,618.285C430,627 428,656.303 438,654.651C448,653 453.263,648.123 457.363,647.484C461.463,646.844 468.597,648.331 470.268,649.15C471.939,649.968 471,645 476,646C481,647 501,660 514,663C527,666 572,678 598,665C604.261,661.87 624,673.968 630,678C636,682.032 639,686.065 650,682.032C661,678 657.073,678.977 664,676C670.927,673.023 675,667.349 676,659C677,650.651 674,637 682,636C690,635 693,628 704,617C715,606 722.9,603.49 724.136,602.094C725.372,600.699 735.147,588.072 735.147,588.072C735.147,588.072 752,589.653 729,588C706,586.347 646.643,557.267 646.643,557.267Z" style="fill:rgb(178,193,206);"/>
                </g>
                <g transform="matrix(1.55699,0,0,1.49323,2821.1,460.587)">
                    <path d="M531,615.526C535.996,616.315 521,622 533,629C545,636 547,647 533,640C519,633 488,628.613 501,624.549C514,620.485 528,615.053 531,615.526Z" style="fill:rgb(178,193,206);"/>
                </g>
                <g transform="matrix(1.55699,0,0,1.49323,2821.1,460.587)">
                    <path d="M601,620.485C596,618.485 587,614.758 602,627C619.689,641.436 616.82,652.559 621,639.242C623,632.87 625.961,629.25 621,629.87C613,630.87 605.642,622.342 601,620.485Z" style="fill:rgb(178,193,206);"/>
                </g>
                <g transform="matrix(1.55699,0,0,1.49323,2821.1,460.587)">
                    <path d="M642,676C642,673 639,676 644,671C649,666 652,664 653,667C654,670 656,669 653,672C650,675 652,675 648,676C644,677 642,679 642,676Z" style="fill:rgb(178,193,206);"/>
                </g>
                <g transform="matrix(1.55699,0,0,1.49323,2821.1,460.587)">
                    <path d="M874,257C855.539,267.208 776,311 872,352C891.552,360.35 859.542,394.957 940,435C956.019,442.973 957,449 961,449C965,449 966.814,449.655 973,443C976.301,439.448 990.494,436 998.247,426C1006,416 1045,360 1053,352C1061,344 1061,342 1061,339C1061,336 1087,314 1093,306C1099,298 1084,274 1082,269C1080,264 1072,271 1064,272C1056,273 1047,276 1049,289C1049.62,293 1042,287 1043,311C1043.26,317.319 1044,318 1046,321C1048,324 1036.32,331.481 1032,334C1020,341 969,370 963,384C957,398 958,388 955,383C952,378 955,349 927,334C920.115,330.312 919,296 901,289C890.919,285.08 959,210 874,257Z" style="fill:rgb(225,233,240);"/>
                </g>
                <g transform="matrix(1.55699,0,0,1.49323,2821.1,460.587)">
                    <path d="M906,258C906,258 910,252 909,257C908,262 890.005,281.699 893,286C895.995,290.301 902.072,291.043 906,296C917.283,310.238 920.3,330.038 922,334.089C927,346 945.141,341.572 950.928,385C951.993,392.992 957.568,401.735 962,395C985,360.047 980.84,384.962 1032,345.3C1051.37,330.281 1079.92,295.689 1079,286.089C1083,281 1076,270 1080,275C1084,280 1096.77,291.937 1093.89,296.469C1091,301 1065,325.911 1063,330C1061,334.089 1065.59,333.966 1061.79,337.483C1058,341 1069,330 1054,342C1039,354 1012.58,395 1003,402C993.424,409 1014,382 1021,373C1028,364 1038,358 1023,363C1008,368 997,384 985,398C973,412 978,431 964,424C950,417 938.366,416.082 928,382C923.56,367.401 898.506,361.483 893,360.047C891,359.526 883,356 895,358C907,360 914.98,363.669 918,357C923.118,345.696 915.691,321.551 913,316.089C910,310 906,291 891,290C876,289 879,286 884,284C889,282 906,258 906,258Z" style="fill:rgb(130,152,171);fill-opacity:0.5;"/>
                </g>
                <g transform="matrix(1.55699,0,0,1.49323,2821.1,460.587)">
                    <path d="M949,432C952.26,429.683 950.937,437 959.968,438C969,439 979,435 1000,417C1002.4,414.942 993.283,431.009 971,440C964.313,442.698 966.937,451 959.968,445C953,439 942.762,436.434 949,432Z" style="fill:rgb(178,193,206);"/>
                </g>
                <g transform="matrix(1.53182,0.208397,-0.218675,1.47843,3177.69,340.147)">
                    <ellipse cx="408" cy="735" rx="80" ry="11" style="fill:rgb(178,193,206);"/>
                </g>
                <g transform="matrix(1.5461,0.0549395,-0.057649,1.49221,3812.95,432.913)">
                    <ellipse cx="408" cy="735" rx="80" ry="11" style="fill:rgb(178,193,206);"/>
                </g>
                <g transform="matrix(5.39571,0.205847,-0.0856844,2.06582,1796.54,-63.197)">
                    <ellipse cx="408" cy="735" rx="80" ry="11" style="fill:rgb(178,193,206);fill-opacity:0.52;"/>
                </g>
                <g transform="matrix(1.55699,0,0,1.49323,2821.1,460.587)">
                    <path d="M887,374C886.635,370.859 908,409 919,415C930,421 925,423 918,419C911,415 889.477,395.313 887,374Z" style="fill:rgb(171,184,194);"/>
                </g>
                <g transform="matrix(1.55699,0,0,1.49323,2821.1,460.587)">
                    <path d="M849,325C855.202,334.303 862,340.7 870,343C878,345.3 887.846,348.7 879.923,347C872,345.3 858.132,348.535 844,322C837.559,309.906 845.29,298.55 845.145,307.275C845,316 847,322 849,325Z" style="fill:rgb(169,181,191);"/>
                </g>
                <g transform="matrix(1.55699,0,0,1.49323,2821.1,460.587)">
                    <path d="M1061,279C1060,283 1060,287 1057,289C1054,291 1053,295 1058,292C1063,289 1063,294 1063,287C1063,280 1062,275 1061,279Z" style="fill:rgb(175,188,198);"/>
                </g>
                <g transform="matrix(1.55699,0,0,1.49323,2821.1,460.587)">
                    <path d="M931,672C941.479,668.507 934,679 940,685C946,691 963,686 966,680C969,674 960,666 970,663C980,660 980,652 981,662C982,672 980.763,673.862 986,676C998.247,681 1007,693.391 1019,697C1031,700.609 1038,707 1047,706C1056,705 1060.93,704.711 1063,713C1064,717 1061.78,715.388 1065,717C1069,719 1069,722 1062,727C1055,732 1040,737 1015,734C990,731 989,728 977,728C965,728 969.937,735 947.968,735C926,735 920,734 920,728C920,722 922,717 924,713C926,709 921,698 928,684C931.225,677.55 928,673 931,672Z" style="fill:rgb(48,70,89);"/>
                </g>
                <g transform="matrix(1.55699,0,0,1.49323,2821.1,460.587)">
                    <path d="M454,617C449.87,612.133 449.884,607.427 440.586,615.388C437.745,617.821 429.309,608.971 416,619C413.468,620.908 413,618 405,620C401.119,620.97 392,625 402,648C412,671 398,683.937 408,711C412.528,723.253 456,719 464,719C472,719 475,719 475,713C475,710 475,709 471,708C467,707 471.025,703.367 467,698C464,694 455,692 453,692C451,692 450,679 454,670C458,661 466.297,649.862 468.38,650.613C470.462,651.364 468,643.125 460,643.125C452,643.125 437,651.251 435,643.125C433,635 433,624 440,620C447,616 455.261,618.487 454,617Z" style="fill:rgb(48,70,89);"/>
                </g>
                <g transform="matrix(1.55699,0,0,1.49323,2821.1,460.587)">
                    <path d="M766,373C760,377 725.252,390.755 743,421C752.054,436.428 769,469 791,465C813,461 825,463 850,433C857.299,424.241 862.189,417.421 862.189,417.421C862.189,417.421 880.49,413.84 883,416C889.278,421.403 885,437 849,491C837,509 841.206,509 835,516C828.794,523 806,514 796,516C786,518 791,509 784,518C777,527 774,522 767,531C760,540 751,573 744,581C737,589 719.097,607.433 690,597C673.915,591.232 641.015,572.518 640,541C639.582,528.007 660.668,504.479 663,488C668,452.662 670.734,423.175 722.467,394.388C734.595,387.639 776.216,363.263 781.45,356.937C786.685,350.611 772,369 766,373Z" style="fill:rgb(214,15,74);"/>
                </g>
                <g transform="matrix(1.55699,0,0,1.49323,2821.1,460.587)">
                    <path d="M706.014,509.008C706.002,509.015 705.987,509.012 705.979,509.001C705.972,508.99 705.975,508.974 705.986,508.967C708.598,507.087 712.668,504.576 717.347,501.686C719.765,500.192 722.341,498.598 724.957,496.931C726.206,496.136 727.463,495.326 728.721,494.508C729.553,493.967 730.385,493.421 731.216,492.878C733.321,491.505 735.398,490.116 737.369,488.693C739.148,487.409 740.845,486.114 742.408,484.792C745.077,482.535 747.355,480.232 748.979,477.858C748.986,477.847 749.001,477.843 749.013,477.85C749.025,477.858 749.028,477.873 749.021,477.884C747.163,481.175 744.222,484.49 740.647,487.662C738.57,489.506 736.288,491.304 733.89,493.011C732.495,494.005 731.057,494.963 729.6,495.883C727.394,497.275 725.144,498.576 722.946,499.814C721.214,500.79 719.509,501.715 717.868,502.59C713.02,505.174 708.754,507.327 706.014,509.008Z" style="fill:white;"/>
                </g>
                <g transform="matrix(1.55699,0,0,1.49323,2821.1,460.587)">
                    <path d="M645.025,544.004C645.022,544.017 645.01,544.027 644.996,544.025C644.983,544.022 644.973,544.01 644.975,543.996C644.975,543.996 645.21,541.717 646.033,537.964C646.565,535.539 647.337,532.507 648.455,529.081C648.957,527.543 649.529,525.929 650.187,524.258C650.79,522.727 651.456,521.147 652.214,519.544C652.923,518.042 653.707,516.516 654.572,514.985C655.395,513.53 656.297,512.073 657.264,510.616C658.374,508.944 659.571,507.278 660.867,505.63C662.714,503.283 664.754,500.991 666.982,498.763C666.991,498.753 667.007,498.752 667.017,498.761C667.027,498.771 667.028,498.786 667.018,498.796C665.017,501.206 663.231,503.678 661.592,506.154C660.45,507.88 659.389,509.604 658.397,511.318C657.534,512.808 656.732,514.29 655.964,515.746C655.157,517.275 654.396,518.779 653.681,520.248C652.917,521.818 652.198,523.344 651.541,524.824C650.823,526.445 650.168,528.003 649.579,529.487C648.262,532.808 647.274,535.746 646.565,538.102C645.463,541.767 645.025,544.004 645.025,544.004Z" style="fill:white;"/>
                </g>
                <g transform="matrix(1.55699,0,0,1.49323,2821.1,460.587)">
                    <path d="M735.989,393.978C736.002,393.972 736.017,393.977 736.022,393.989C736.028,394.002 736.023,394.017 736.011,394.022C736.011,394.022 732.775,395.678 727.708,398.754C724.376,400.777 720.257,403.419 715.74,406.605C713.676,408.061 711.531,409.63 709.335,411.301C707.293,412.855 705.215,414.504 703.115,416.226C701.11,417.869 699.091,419.584 697.08,421.367C695.125,423.099 693.172,424.888 691.263,426.752C689.006,428.955 686.804,431.25 684.696,433.642C681.539,437.224 678.592,441.005 676.021,445.013C676.014,445.024 675.999,445.028 675.987,445.021C675.976,445.014 675.972,444.999 675.979,444.987C678.32,440.815 681.03,436.829 684.01,433.068C686.009,430.546 688.123,428.127 690.314,425.817C692.169,423.86 694.074,421.977 696.017,420.189C698.015,418.351 700.05,416.609 702.088,414.963C704.22,413.242 706.36,411.632 708.462,410.121C710.718,408.499 712.936,406.998 715.071,405.615C719.731,402.597 723.992,400.144 727.435,398.277C732.655,395.445 735.989,393.978 735.989,393.978Z" style="fill:white;"/>
                </g>
                <g transform="matrix(1.55699,0,0,1.49323,2821.1,460.587)">
                    <path d="M732.978,450.988C732.985,450.976 733,450.972 733.012,450.978C733.024,450.985 733.028,451 733.022,451.012C726.004,464.532 720.186,474.665 715.199,482.513C711.931,487.656 709.024,491.82 706.391,495.323C701.044,502.437 696.847,506.837 693.006,511.139C690.107,514.385 687.416,517.574 684.567,521.862C681.372,526.67 677.983,532.852 673.866,542.019C670.263,550.041 666.075,560.319 661.023,573.959C661.019,573.971 661.005,573.978 660.992,573.974C660.979,573.969 660.972,573.955 660.977,573.942C665.604,560.131 669.427,549.692 672.828,541.569C676.749,532.201 680.069,525.888 683.241,520.992C686.09,516.595 688.826,513.338 691.791,510.05C695.633,505.79 699.87,501.478 705.307,494.494C707.983,491.056 710.954,486.976 714.325,481.943C719.492,474.229 725.603,464.291 732.978,450.988Z" style="fill:white;"/>
                </g>
                <g transform="matrix(1.55699,0,0,1.49323,2821.1,460.587)">
                    <path d="M883.559,416.528C883.572,416.522 883.586,416.528 883.592,416.54C883.597,416.553 883.591,416.568 883.579,416.573C880.344,418.119 876.653,420.56 872.786,423.482C870.599,425.134 868.363,426.941 866.127,428.834C865.155,429.657 864.183,430.494 863.212,431.339C862.246,432.179 861.287,433.032 860.328,433.879C859.038,435.018 857.757,436.157 856.504,437.291C854.023,439.536 851.658,441.761 849.52,443.904C846.974,446.455 844.739,448.856 843.02,451.015C843.012,451.026 842.996,451.028 842.985,451.02C842.974,451.012 842.972,450.996 842.98,450.985C844.511,448.674 846.508,446.048 848.864,443.297C850.208,441.727 851.663,440.122 853.208,438.509C854.428,437.235 855.697,435.955 857.019,434.7C858.313,433.472 859.653,432.265 861.022,431.093C862.392,429.92 863.795,428.787 865.204,427.693C866.644,426.574 868.095,425.504 869.538,424.489C872.348,422.513 875.119,420.755 877.734,419.306C879.794,418.165 881.754,417.228 883.559,416.528Z" style="fill:white;"/>
                </g>
                <g transform="matrix(1.55699,0,0,1.49323,2821.1,460.587)">
                    <path d="M807,509.025C806.986,509.025 806.975,509.014 806.975,509C806.975,508.986 806.986,508.975 807,508.975C809.382,508.802 811.65,508.591 813.847,508.476C814.852,508.423 815.834,508.391 816.801,508.388C818.161,508.384 819.482,508.42 820.764,508.552C821.663,508.645 822.543,508.784 823.397,508.976C824.88,509.309 826.286,509.785 827.626,510.401C828.236,510.68 828.825,510.991 829.4,511.34C830.692,512.124 831.887,513.069 833.016,514.217C833.026,514.226 833.028,514.241 833.019,514.252C833.01,514.262 832.994,514.263 832.984,514.254C831.611,513.274 830.197,512.552 828.724,511.977C827.734,511.591 826.726,511.292 825.689,511.038C824.509,510.748 823.298,510.547 822.049,510.374C821.563,510.307 821.073,510.237 820.576,510.173C819.846,510.078 819.104,509.989 818.349,509.908C816.891,509.753 815.391,509.632 813.836,509.519C811.645,509.36 809.378,509.197 807,509.025Z" style="fill:white;"/>
                </g>
                <g transform="matrix(1.55699,0,0,1.49323,2821.1,460.587)">
                    <path d="M797.017,509.018C797.007,509.027 796.992,509.027 796.982,509.017C796.973,509.007 796.973,508.992 796.983,508.982C796.983,508.982 800.371,505.367 805.804,501.093C807.063,500.103 808.431,499.082 809.898,498.069C811.689,496.831 813.613,495.592 815.658,494.454C816.967,493.727 818.325,493.041 819.721,492.418C822.022,491.391 824.418,490.521 826.855,489.859C830.56,488.852 834.348,488.356 838.067,488.535C838.08,488.535 838.091,488.546 838.091,488.559C838.091,488.573 838.08,488.584 838.067,488.584C834.403,488.761 830.756,489.664 827.194,490.938C824.872,491.769 822.602,492.773 820.393,493.855C819.05,494.512 817.731,495.193 816.441,495.886C814.415,496.974 812.465,498.088 810.644,499.212C809.146,500.136 807.731,501.052 806.418,501.936C800.716,505.776 797.017,509.018 797.017,509.018Z" style="fill:white;"/>
                </g>
                <g transform="matrix(1.55699,0,0,1.49323,2821.1,460.587)">
                    <path d="M772.008,521.023C771.995,521.028 771.981,521.021 771.977,521.008C771.972,520.995 771.979,520.981 771.992,520.977C773.413,520.402 775.127,519.549 777.027,518.454C779.194,517.205 781.582,515.633 784.028,513.78C785.232,512.869 786.445,511.89 787.655,510.852C788.812,509.861 789.956,508.809 791.087,507.716C792.188,506.651 793.271,505.542 794.321,504.391C795.358,503.252 796.37,502.08 797.319,500.853C798.456,499.384 799.512,497.852 800.456,496.247C801.875,493.834 803.048,491.281 803.839,488.554C803.842,488.54 803.856,488.532 803.869,488.535C803.882,488.538 803.891,488.552 803.887,488.565C803.364,491.396 802.462,494.102 801.246,496.665C800.425,498.394 799.465,500.051 798.399,501.634C797.506,502.96 796.542,504.234 795.51,505.441C794.466,506.66 793.358,507.812 792.211,508.893C791.037,510 789.816,511.027 788.585,511.988C787.302,512.989 786.005,513.911 784.717,514.757C782.118,516.464 779.574,517.86 777.282,518.941C775.285,519.882 773.485,520.574 772.008,521.023Z" style="fill:white;"/>
                </g>
                <g transform="matrix(1.55699,0,0,1.49323,2821.1,460.587)">
                    <path d="M903.855,223.45C907.772,212.828 896.71,208 903.855,187C911,166 915,154 934,153C953,152 948,153 958,152C968,151 991.494,155 998.247,173C1005,191 1008.94,180.013 1012,193C1016,210 1006,213 996,219C986,225 982,207.716 970,204.716C958,201.716 944.94,195.761 943,188C941,180 939,180 937,190C935,200 934.996,205.251 928,207C920,209 923.196,218.198 921.196,219.325C917.6,221.351 917,215.284 917,210C917,204.716 903.855,204.716 909,223.45C911.5,232.552 910,231 906,232C902,233 899.938,234.071 903.855,223.45Z" style="fill:rgb(48,70,89);"/>
                </g>
                <g transform="matrix(1.55699,0,0,1.49323,2821.1,460.587)">
                    <path d="M723.975,409.998C723.976,409.984 723.988,409.974 724.002,409.975C724.016,409.976 724.026,409.988 724.025,410.002C723.57,416.465 729.034,431.403 737.388,445.264C741.391,451.906 746.057,458.297 751.069,463.385C754.904,467.277 758.931,470.411 763.036,472.261C768.198,474.627 772.965,476.301 777.369,477.451C786.198,479.756 793.594,479.858 799.946,478.637C806.855,477.308 812.522,474.45 817.399,471.255C823.559,467.219 828.467,462.664 832.987,459.979C832.999,459.972 833.014,459.975 833.021,459.987C833.028,459.999 833.025,460.014 833.013,460.021C827.808,463.336 822.161,469.254 814.524,473.918C810.396,476.439 805.692,478.595 800.18,479.783C793.686,481.183 786.067,481.264 776.976,478.99C772.477,477.865 767.625,476.137 762.361,473.739C758.118,471.773 753.942,468.505 750.019,464.404C745.017,459.174 740.404,452.606 736.499,445.787C728.411,431.665 723.351,416.483 723.975,409.998Z" style="fill:white;"/>
                </g>
                <g transform="matrix(1.55699,0,0,1.49323,2821.1,460.587)">
                    <path d="M723.976,594.02C723.965,594.028 723.949,594.025 723.942,594.014C723.934,594.003 723.937,593.987 723.948,593.98C723.948,593.98 728.89,590.316 735.625,581.073C737.616,578.34 739.764,575.123 742.003,571.372C742.858,569.94 743.728,568.433 744.612,566.847C745.428,565.382 746.251,563.847 747.093,562.249C748.13,560.282 749.188,558.215 750.256,556.039C752.051,552.382 753.869,548.422 755.673,544.122C757.272,540.31 758.881,536.25 760.429,531.893C760.434,531.88 760.448,531.873 760.461,531.877C760.474,531.881 760.481,531.895 760.477,531.908C759.208,536.366 757.892,540.54 756.506,544.445C755.484,547.325 754.431,550.054 753.356,552.642C752.38,554.991 751.392,557.224 750.38,559.336C749.273,561.647 748.146,563.816 747.016,565.851C745.761,568.112 744.494,570.203 743.251,572.145C741.837,574.355 740.445,576.364 739.099,578.191C735.91,582.521 732.99,585.818 730.588,588.259C726.552,592.36 723.976,594.02 723.976,594.02Z" style="fill:white;"/>
                </g>
            </g>
        </g>
    </g>
    <defs>
        <linearGradient id="_Linear2" x1="0" y1="0" x2="1" y2="0" gradientUnits="userSpaceOnUse" gradientTransform="matrix(1.9586e-13,1302.41,-2703.55,6.74057e-14,1760.42,1993.54)"><stop offset="0" style="stop-color:rgb(229,231,240);stop-opacity:1"/><stop offset="1" style="stop-color:white;stop-opacity:1"/></linearGradient>
        <linearGradient id="_Linear3" x1="0" y1="0" x2="1" y2="0" gradientUnits="userSpaceOnUse" gradientTransform="matrix(-4.90511e-13,-168.75,1281.19,-6.46071e-14,2305.94,1384.04)"><stop offset="0" style="stop-color:white;stop-opacity:0.15"/><stop offset="1" style="stop-color:rgb(242,242,242);stop-opacity:0.15"/></linearGradient>
    </defs>
</svg>
