<svg height="24" viewBox="0 0 24 24" width="24" xmlns="http://www.w3.org/2000/svg"><g><path d="m12 22.75c-5.93 0-10.75-4.82-10.75-10.75s4.82-10.75 10.75-10.75 10.75 4.82 10.75 10.75-4.82 10.75-10.75 10.75zm0-20c-5.1 0-9.25 4.15-9.25 9.25s4.15 9.25 9.25 9.25 9.25-4.15 9.25-9.25-4.15-9.25-9.25-9.25z"/><path d="m10.5795 15.5801c-.2 0-.39-.08-.53-.22l-2.83005-2.83c-.29-.29-.29-.77 0-1.06s.77-.29 1.06 0l2.30005 2.3 5.14-5.14c.29-.29.77-.29 1.06 0s.29.77 0 1.06l-5.67 5.67c-.14.14-.33.22-.53.22z"/></g></svg>