<svg height="24" viewBox="0 0 24 24" width="24" xmlns="http://www.w3.org/2000/svg"><g><path d="m12 12.75c-3.17 0-5.75-2.58-5.75-5.75s2.58-5.75 5.75-5.75 5.75 2.58 5.75 5.75-2.58 5.75-5.75 5.75zm0-10c-2.34 0-4.25 1.91-4.25 4.25s1.91 4.25 4.25 4.25 4.25-1.91 4.25-4.25-1.91-4.25-4.25-4.25z"/><path d="m15.8196 22.7499c-.38 0-.74-.14-1-.4-.31-.31-.45-.76-.38-1.23l.19-1.35c.05-.35.26-.76.51-1.02l3.54-3.54c1.42-1.42 2.67-.61 3.28 0 .52.52.79 1.08.79 1.64 0 .57-.26 1.1-.79 1.63l-3.5401 3.54c-.25.25-.6699.46-1.0199.51l-1.3501.1899c-.08.02-.1499.0301-.2299.0301zm4.49-6.83c-.18 0-.34.12-.57.35l-3.54 3.54c-.03.03-.08.13-.08.17l-.18 1.25 1.25-.18c.04-.01.1399-.06.1699-.09l3.5401-3.54c.16-.16.35-.39.35-.57 0-.15-.12-.36-.35-.58-.24-.24-.42-.35-.59-.35z"/><path d="m20.9206 19.2198c-.07 0-.14-.0099-.2-.0299-1.32-.37-2.37-1.42-2.74-2.74-.11-.4.12-.81.52-.92s.81.12.92.52c.23.82.88 1.47 1.7 1.7.4.11.63.53.52.92-.09.33-.39.5499-.72.5499z"/><path d="m3.41016 22.75c-.41 0-.75-.34-.75-.75 0-4.27 4.19002-7.75 9.34004-7.75 1.09 0 2.17.16 3.18.46.4.12.62.54.5.93-.12.4-.54.62-.93.5-.88-.26-1.8-.4-2.75-.4-4.32002 0-7.84004 2.8-7.84004 6.25 0 .42-.34.76-.75.76z"/></g></svg>