<svg height="24" viewBox="0 0 24 24" width="24" xmlns="http://www.w3.org/2000/svg"><g><path d="m7.1698 22.7501c-2.38 0-4.32996-1.73-4.32996-3.86v-2.04c0-.41.34-.75.75-.75s.75.34.75.75c0 1.25 1.20996 2.19 2.82996 2.19s2.83002-.94 2.83002-2.19c0-.41.33998-.75.74998-.75s.75.34.75.75v2.04c0 2.13-1.94 3.86-4.33 3.86zm-2.57001-2.88c.44.82 1.43001 1.38 2.57001 1.38s2.13001-.57 2.57001-1.38c-.71.43-1.59001.68-2.57001.68s-1.86001-.25-2.57001-.68z"/><path d="m7.1698 17.7999c-1.64 0-3.10997-.75-3.83997-1.94-.32-.52-.48999-1.13-.48999-1.75 0-1.05.45999-2.03 1.29999-2.76 1.62-1.41998 4.40998-1.41993 6.03997-.0099.84.74 1.31 1.7199 1.31 2.7699 0 .62-.17 1.23-.49 1.75-.72 1.19-2.19 1.94-3.83 1.94zm0-6.05c-.78 0-1.49998.26-2.03998.73-.51.44-.78998 1.02-.78998 1.63 0 .35.08996.6701.26996.9701.46.76 1.44 1.2299 2.56 1.2299s2.09999-.4699 2.54999-1.2199c.18-.29.27002-.6201.27002-.9701 0-.61-.27998-1.19-.78998-1.64-.53-.47-1.25003-.73-2.03003-.73z"/><path d="m7.1698 20.55c-2.47 0-4.32996-1.59-4.32996-3.69v-2.75c0-2.13 1.93996-3.86 4.32996-3.86 1.13 0 2.21002.39 3.02 1.09.84.74 1.31 1.72 1.31 2.77v2.75c0 2.1-1.86 3.69-4.33 3.69zm0-8.8c-1.56 0-2.82996 1.06-2.82996 2.36v2.75c0 1.25 1.20996 2.19 2.82996 2.19s2.83002-.94 2.83002-2.19v-2.75c0-.61-.27998-1.19-.78998-1.64-.54-.46-1.26004-.72-2.04004-.72z"/><path d="m19.0399 14.8002c-1.51 0-2.79-1.12-2.91-2.56-.08-.83.22-1.64.82-2.23.5-.52001 1.21-.81 1.96-.81h2.09c.99.03 1.75.81 1.75 1.77v2.06c0 .96-.76 1.74-1.72 1.77zm1.93-4.1h-2.05c-.35 0-.67.13-.9.37-.29.28-.43.66-.39 1.04.05.66.69 1.19 1.41 1.19h1.96c.13 0 .25-.12.25-.27v-2.06c0-.15-.12-.26-.28-.27z"/><path d="m16.0002 21.25h-2.5c-.41 0-.75-.34-.75-.75s.34-.75.75-.75h2.5c2.58 0 4.25-1.67 4.25-4.25v-.7h-1.21c-1.51 0-2.79-1.12-2.91-2.56-.08-.83.2201-1.64.8201-2.23.5-.51999 1.2099-.80999 1.9599-.80999h1.33v-.70001c0-2.34-1.3699-3.95002-3.5899-4.21002-.24-.04-.4501-.03998-.6601-.03998h-8.99997c-.24 0-.47001.01999-.70001.04999-2.2.28-3.54999 1.88001-3.54999 4.20001v2c0 .41-.34.75-.75.75s-.75-.34-.75-.75v-2c0-3.08 1.90004-5.30999 4.85004-5.67999.27-.04.57996-.07001.89996-.07001h8.99997c.24 0 .55.01.87.06 2.95.34 4.88 2.58 4.88 5.69v1.45001c0 .40999-.34.74999-.75.74999h-2.08c-.35 0-.6699.13-.8999.37-.29.28-.4301.66-.3901 1.04.05.66.6901 1.19 1.4101 1.19h1.9699c.41 0 .75.34.75.75v1.45c0 3.44-2.31 5.75-5.75 5.75z"/></g></svg>