<svg width="30" height="30" viewBox="0 0 30 30" fill="none" xmlns="http://www.w3.org/2000/svg">
<path d="M13.947 16.0465C9.21312 16.0465 5.36035 12.4465 5.36035 8.02326C5.36035 3.6 9.21312 0 13.947 0C18.6808 0 22.5336 3.6 22.5336 8.02326C22.5336 12.4465 18.6808 16.0465 13.947 16.0465ZM13.947 2.09302C10.4526 2.09302 7.60033 4.75814 7.60033 8.02326C7.60033 11.2884 10.4526 13.9535 13.947 13.9535C17.4413 13.9535 20.2936 11.2884 20.2936 8.02326C20.2936 4.75814 17.4413 2.09302 13.947 2.09302Z" fill="#1C2556"/>
<path d="M19.6507 29.9999C19.0832 29.9999 18.5456 29.8045 18.1574 29.4417C17.6944 29.0092 17.4854 28.3813 17.5899 27.7254L17.8736 25.8417C17.9483 25.3533 18.2619 24.7813 18.6352 24.4185L23.9216 19.4789C26.0421 17.4975 27.9087 18.6278 28.8197 19.4789C29.5962 20.2045 29.9994 20.9859 29.9994 21.7673C29.9994 22.5627 29.6111 23.3022 28.8197 24.0417L23.5332 28.9813C23.1598 29.3301 22.5328 29.6231 22.0101 29.6929L19.994 29.9579C19.8745 29.9858 19.7701 29.9999 19.6507 29.9999ZM26.3557 20.4696C26.0869 20.4696 25.848 20.6371 25.5045 20.958L20.2181 25.8975C20.1733 25.9394 20.0987 26.0789 20.0987 26.1347L19.8299 27.8789L21.6965 27.6278C21.7563 27.6138 21.9054 27.544 21.9502 27.5022L27.2368 22.5627C27.4757 22.3394 27.7594 22.0185 27.7594 21.7673C27.7594 21.558 27.5802 21.265 27.2368 20.958C26.8784 20.6231 26.6096 20.4696 26.3557 20.4696Z" fill="#1C2556"/>
<path d="M27.2683 25.0742C27.1638 25.0742 27.0592 25.0603 26.9696 25.0324C24.9984 24.5162 23.4304 23.051 22.8779 21.2092C22.7137 20.651 23.0571 20.0789 23.6544 19.9255C24.2518 19.772 24.864 20.0929 25.0283 20.651C25.3718 21.7952 26.3424 22.7022 27.5669 23.0231C28.1643 23.1766 28.5077 23.7627 28.3435 24.3069C28.2091 24.7673 27.7611 25.0742 27.2683 25.0742Z" fill="#1C2556"/>
<path d="M1.11999 30C0.507729 30 0 29.5256 0 28.9535C0 22.9953 6.25705 18.1395 13.9477 18.1395C15.5754 18.1395 17.1882 18.3628 18.6964 18.7814C19.2938 18.9488 19.6223 19.5349 19.4431 20.0791C19.2639 20.6372 18.6367 20.9442 18.0543 20.7767C16.7402 20.4139 15.3663 20.2186 13.9477 20.2186C7.49651 20.2186 2.23998 24.1256 2.23998 28.9395C2.23998 29.5256 1.73225 30 1.11999 30Z" fill="#1C2556"/>
</svg>
