<svg width="19" height="19" viewBox="0 0 19 19" fill="none" xmlns="http://www.w3.org/2000/svg">
<path d="M10.5194 11.5398C10.5194 12.4408 10.1284 13.2568 9.49941 13.8178C8.95541 14.3108 8.24141 14.5998 7.4594 14.5998C5.7679 14.5998 4.39941 13.2313 4.39941 11.5398C4.39941 10.1288 5.35993 8.93883 6.65193 8.59033C7.00043 9.47433 7.75691 10.1628 8.69191 10.4178C8.94691 10.4858 9.21891 10.5283 9.49941 10.5283C9.77991 10.5283 10.0519 10.4943 10.3069 10.4178C10.4429 10.7578 10.5194 11.1403 10.5194 11.5398Z" stroke="#3B5266" stroke-width="2" stroke-linecap="round" stroke-linejoin="round"/>
<path d="M12.5604 7.46015C12.5604 7.85965 12.4839 8.24215 12.3479 8.59065C11.9994 9.47465 11.2429 10.1631 10.3079 10.4181C10.0529 10.4861 9.78091 10.5286 9.50041 10.5286C9.21991 10.5286 8.94791 10.4946 8.69291 10.4181C7.7579 10.1631 7.00143 9.48315 6.65293 8.59065C6.51693 8.24215 6.44043 7.85965 6.44043 7.46015C6.44043 5.76865 7.80891 4.40015 9.50041 4.40015C11.1919 4.40015 12.5604 5.76865 12.5604 7.46015Z" stroke="#3B5266" stroke-width="2" stroke-linecap="round" stroke-linejoin="round"/>
<path d="M14.6 11.5398C14.6 13.2313 13.2315 14.5998 11.54 14.5998C10.758 14.5998 10.044 14.3023 9.5 13.8178C10.129 13.2653 10.52 12.4493 10.52 11.5398C10.52 11.1403 10.4435 10.7578 10.3075 10.4093C11.2425 10.1543 11.999 9.47429 12.3475 8.58179C13.6395 8.93879 14.6 10.1288 14.6 11.5398Z" stroke="#3B5266" stroke-width="2" stroke-linecap="round" stroke-linejoin="round"/>
<path d="M6.95 18H12.05C16.3 18 18 16.3 18 12.05V6.95C18 2.7 16.3 1 12.05 1H6.95C2.7 1 1 2.7 1 6.95V12.05C1 16.3 2.7 18 6.95 18Z" stroke="#3B5266" stroke-width="2" stroke-linecap="round" stroke-linejoin="round"/>
</svg>
