<svg width="16" height="16" viewBox="0 0 16 16" fill="none" xmlns="http://www.w3.org/2000/svg">
<path d="M10 15.82H5.63638C1.68728 15.82 0 14.1327 0 10.1836V5.81998C0 1.87087 1.68728 0.183594 5.63638 0.183594H7.09094C7.38912 0.183594 7.63639 0.430867 7.63639 0.72905C7.63639 1.02723 7.38912 1.27451 7.09094 1.27451H5.63638C2.28364 1.27451 1.09091 2.46724 1.09091 5.81998V10.1836C1.09091 13.5364 2.28364 14.7291 5.63638 14.7291H10C13.3528 14.7291 14.5455 13.5364 14.5455 10.1836V8.72908C14.5455 8.4309 14.7928 8.18362 15.091 8.18362C15.3891 8.18362 15.6364 8.4309 15.6364 8.72908V10.1836C15.6364 14.1327 13.9491 15.82 10 15.82Z" fill="#292D32"/>
<path d="M5.27181 12.1401C4.82818 12.1401 4.4209 11.9801 4.12272 11.6892C3.76635 11.3328 3.61363 10.8164 3.69363 10.271L4.00636 8.08188C4.06454 7.66006 4.3409 7.1146 4.63908 6.81642L10.37 1.08546C11.8173 -0.36182 13.2864 -0.36182 14.7336 1.08546C15.5264 1.87819 15.8827 2.68546 15.81 3.49274C15.7445 4.14729 15.3955 4.78729 14.7336 5.44184L9.0027 11.1728C8.70452 11.471 8.15906 11.7473 7.73724 11.8055L5.54818 12.1183C5.45363 12.1401 5.35909 12.1401 5.27181 12.1401ZM11.1409 1.85637L5.41 7.58733C5.27181 7.72551 5.11181 8.04551 5.08272 8.23461L4.76999 10.4237C4.7409 10.6346 4.78454 10.8092 4.89363 10.9183C5.00272 11.0273 5.17727 11.071 5.38818 11.0419L7.57724 10.7292C7.76633 10.7001 8.09361 10.5401 8.22452 10.4019L13.9554 4.67093C14.4282 4.1982 14.6754 3.77638 14.7118 3.38365C14.7554 2.91092 14.5082 2.4091 13.9554 1.8491C12.7918 0.685458 11.9918 1.01273 11.1409 1.85637Z" fill="#292D32"/>
<path d="M13.527 6.42345C13.4761 6.42345 13.4252 6.41618 13.3815 6.40163C11.4688 5.86345 9.94878 4.34345 9.41059 2.43071C9.33059 2.1398 9.49787 1.84162 9.78878 1.75434C10.0797 1.67434 10.3779 1.84162 10.4579 2.13253C10.8942 3.68162 12.1233 4.91072 13.6724 5.34708C13.9633 5.42709 14.1306 5.73254 14.0506 6.02345C13.9852 6.27072 13.767 6.42345 13.527 6.42345Z" fill="#292D32"/>
</svg>
