<svg width="30" height="30" viewBox="0 0 30 30" fill="none" xmlns="http://www.w3.org/2000/svg">
<mask id="path-1-inside-1_100_816" fill="white">
<path d="M8.26956 30C4.95012 30 2.23047 27.405 2.23047 24.21V21.15C2.23047 20.535 2.70467 20.025 3.27651 20.025C3.84835 20.025 4.32255 20.535 4.32255 21.15C4.32255 23.025 6.01011 24.435 8.26956 24.435C10.529 24.435 12.2166 23.025 12.2166 21.15C12.2166 20.535 12.6908 20.025 13.2627 20.025C13.8345 20.025 14.3087 20.535 14.3087 21.15V24.21C14.3087 27.405 11.6029 30 8.26956 30ZM4.68511 25.68C5.29879 26.91 6.67957 27.75 8.26956 27.75C9.85954 27.75 11.2403 26.895 11.854 25.68C10.8638 26.325 9.63638 26.7 8.26956 26.7C6.90273 26.7 5.67536 26.325 4.68511 25.68Z"/>
</mask>
<path d="M8.26956 30C4.95012 30 2.23047 27.405 2.23047 24.21V21.15C2.23047 20.535 2.70467 20.025 3.27651 20.025C3.84835 20.025 4.32255 20.535 4.32255 21.15C4.32255 23.025 6.01011 24.435 8.26956 24.435C10.529 24.435 12.2166 23.025 12.2166 21.15C12.2166 20.535 12.6908 20.025 13.2627 20.025C13.8345 20.025 14.3087 20.535 14.3087 21.15V24.21C14.3087 27.405 11.6029 30 8.26956 30ZM4.68511 25.68C5.29879 26.91 6.67957 27.75 8.26956 27.75C9.85954 27.75 11.2403 26.895 11.854 25.68C10.8638 26.325 9.63638 26.7 8.26956 26.7C6.90273 26.7 5.67536 26.325 4.68511 25.68Z" fill="#292D32"/>
<path d="M4.68511 25.68L9.6836 18.0059L-18.5558 -0.387722L-3.50994 29.7687L4.68511 25.68ZM11.854 25.68L20.0288 29.809L35.3719 -0.56815L6.85552 18.0059L11.854 25.68ZM8.26956 20.8416C9.62764 20.8416 11.3889 21.9746 11.3889 24.21H-6.92795C-6.92795 32.8354 0.272603 39.1584 8.26956 39.1584V20.8416ZM11.3889 24.21V21.15H-6.92795V24.21H11.3889ZM11.3889 21.15C11.3889 24.9541 8.37893 29.1834 3.27651 29.1834V10.8666C-2.96958 10.8666 -6.92795 16.116 -6.92795 21.15H11.3889ZM3.27651 29.1834C-1.82591 29.1834 -4.83586 24.9541 -4.83586 21.15H13.481C13.481 16.116 9.5226 10.8666 3.27651 10.8666V29.1834ZM-4.83586 21.15C-4.83586 29.5764 2.58743 33.5934 8.26956 33.5934V15.2766C9.01198 15.2766 10.1737 15.5116 11.3115 16.4596C12.5201 17.4667 13.481 19.1491 13.481 21.15H-4.83586ZM8.26956 33.5934C13.9514 33.5934 21.3751 29.5767 21.3751 21.15H3.05823C3.05823 19.1489 4.0192 17.4666 5.22778 16.4596C6.36554 15.5116 7.52715 15.2766 8.26956 15.2766V33.5934ZM21.3751 21.15C21.3751 24.9537 18.3654 29.1834 13.2627 29.1834V10.8666C7.01626 10.8666 3.05823 16.1163 3.05823 21.15H21.3751ZM13.2627 29.1834C8.16024 29.1834 5.15029 24.9541 5.15029 21.15H23.4671C23.4671 16.116 19.5088 10.8666 13.2627 10.8666V29.1834ZM5.15029 21.15V24.21H23.4671V21.15H5.15029ZM5.15029 24.21C5.15029 21.9879 6.9115 20.8416 8.26956 20.8416V39.1584C16.2944 39.1584 23.4671 32.822 23.4671 24.21H5.15029ZM-3.50994 29.7687C-1.19613 34.4063 3.5574 36.9084 8.26956 36.9084V18.5916C9.80175 18.5916 11.7937 19.4137 12.8802 21.5913L-3.50994 29.7687ZM8.26956 36.9084C13.0358 36.9084 17.7352 34.3501 20.0288 29.809L3.67917 21.551C4.74546 19.4399 6.68329 18.5916 8.26956 18.5916V36.9084ZM6.85552 18.0059C7.42088 17.6377 7.94512 17.5416 8.26956 17.5416V35.8584C11.3277 35.8584 14.3066 35.0123 16.8525 33.3541L6.85552 18.0059ZM8.26956 17.5416C8.594 17.5416 9.11823 17.6377 9.6836 18.0059L-0.31338 33.3541C2.23249 35.0123 5.21146 35.8584 8.26956 35.8584V17.5416Z" fill="#1C2556" mask="url(#path-1-inside-1_100_816)"/>
<mask id="path-3-inside-2_100_816" fill="white">
<path d="M8.26956 22.5747C5.98221 22.5747 3.93201 21.4497 2.91387 19.6647C2.46756 18.8847 2.23047 17.9698 2.23047 17.0398C2.23047 15.4648 2.87203 13.9948 4.04359 12.8998C6.30304 10.7698 10.1943 10.7699 12.4677 12.8849C13.6392 13.9949 14.2948 15.4648 14.2948 17.0398C14.2948 17.9698 14.0576 18.8847 13.6113 19.6647C12.6071 21.4497 10.5569 22.5747 8.26956 22.5747ZM8.26956 13.4998C7.18167 13.4998 6.1775 13.8898 5.42435 14.5948C4.71304 15.2548 4.32255 16.1248 4.32255 17.0398C4.32255 17.5648 4.44802 18.0449 4.69907 18.4949C5.34064 19.6349 6.70747 20.3397 8.26956 20.3397C9.83164 20.3397 11.1985 19.6349 11.8261 18.5099C12.0771 18.0749 12.2027 17.5798 12.2027 17.0548C12.2027 16.1398 11.8122 15.2698 11.1009 14.5948C10.3617 13.8898 9.35744 13.4998 8.26956 13.4998Z"/>
</mask>
<path d="M8.26956 22.5747C5.98221 22.5747 3.93201 21.4497 2.91387 19.6647C2.46756 18.8847 2.23047 17.9698 2.23047 17.0398C2.23047 15.4648 2.87203 13.9948 4.04359 12.8998C6.30304 10.7698 10.1943 10.7699 12.4677 12.8849C13.6392 13.9949 14.2948 15.4648 14.2948 17.0398C14.2948 17.9698 14.0576 18.8847 13.6113 19.6647C12.6071 21.4497 10.5569 22.5747 8.26956 22.5747ZM8.26956 13.4998C7.18167 13.4998 6.1775 13.8898 5.42435 14.5948C4.71304 15.2548 4.32255 16.1248 4.32255 17.0398C4.32255 17.5648 4.44802 18.0449 4.69907 18.4949C5.34064 19.6349 6.70747 20.3397 8.26956 20.3397C9.83164 20.3397 11.1985 19.6349 11.8261 18.5099C12.0771 18.0749 12.2027 17.5798 12.2027 17.0548C12.2027 16.1398 11.8122 15.2698 11.1009 14.5948C10.3617 13.8898 9.35744 13.4998 8.26956 13.4998Z" fill="#292D32"/>
<path d="M2.91387 19.6647L10.8692 15.1271L10.863 15.1163L2.91387 19.6647ZM4.04359 12.8998L10.2972 19.5907L10.3115 19.5773L10.3258 19.5639L4.04359 12.8998ZM12.4677 12.8849L18.7666 6.23661L18.7364 6.20799L18.7059 6.17964L12.4677 12.8849ZM13.6113 19.6647L5.66224 15.1163L5.64569 15.1452L5.62936 15.1742L13.6113 19.6647ZM5.42435 14.5948L11.6537 21.3084L11.6684 21.2947L11.6831 21.281L5.42435 14.5948ZM4.69907 18.4949L-3.29888 22.9569L-3.29057 22.9718L-3.28221 22.9866L4.69907 18.4949ZM11.8261 18.5099L3.8939 13.932L3.8606 13.9897L3.82813 14.0479L11.8261 18.5099ZM11.1009 14.5948L4.78006 21.2223L4.78837 21.2302L4.79669 21.2381L11.1009 14.5948ZM8.26956 13.4163C8.8761 13.4163 10.0708 13.7276 10.8691 15.1271L-5.04141 24.2024C-2.20682 29.1719 3.08833 31.7331 8.26956 31.7331V13.4163ZM10.863 15.1163C11.2431 15.7806 11.3889 16.444 11.3889 17.0398H-6.92795C-6.92795 19.4955 -6.30796 21.9889 -5.03523 24.2132L10.863 15.1163ZM11.3889 17.0398C11.3889 18.0392 10.9506 18.9801 10.2972 19.5907L-2.21004 6.20884C-5.20654 9.0095 -6.92795 12.8903 -6.92795 17.0398H11.3889ZM10.3258 19.5639C9.54355 20.3013 8.73995 20.4583 8.26139 20.4589C7.78387 20.4595 6.99881 20.306 6.22942 19.5902L18.7059 6.17964C12.9254 0.801793 3.55724 0.771968 -2.23861 6.23566L10.3258 19.5639ZM6.16875 19.5332C5.60723 19.0012 5.13634 18.104 5.13634 17.0398H23.4532C23.4532 12.8255 21.6712 8.9886 18.7666 6.23661L6.16875 19.5332ZM5.13634 17.0398C5.13634 16.4439 5.28218 15.7805 5.66224 15.1163L21.5604 24.2132C22.8331 21.989 23.4532 19.4956 23.4532 17.0398H5.13634ZM5.62936 15.1742C6.4469 13.7211 7.67644 13.4163 8.26956 13.4163V31.7331C13.4374 31.7331 18.7674 29.1784 21.5933 24.1552L5.62936 15.1742ZM8.26956 4.34136C4.96353 4.34136 1.69172 5.54401 -0.834353 7.90858L11.6831 21.281C10.6633 22.2355 9.39982 22.6582 8.26956 22.6582V4.34136ZM-0.804949 7.88117C-3.26926 10.1677 -4.83586 13.4245 -4.83586 17.0398H13.481C13.481 18.825 12.6953 20.3418 11.6537 21.3084L-0.804949 7.88117ZM-4.83586 17.0398C-4.83586 19.1185 -4.31489 21.1357 -3.29888 22.9569L12.697 14.0329C13.2109 14.9541 13.481 16.011 13.481 17.0398H-4.83586ZM-3.28221 22.9866C-0.671132 27.6262 4.17364 29.4982 8.26956 29.4982V11.1813C9.2413 11.1813 11.3524 11.6436 12.6803 14.0032L-3.28221 22.9866ZM8.26956 29.4982C12.3289 29.4982 17.2141 27.6501 19.824 22.9719L3.82813 14.0479C5.18282 11.6197 7.33435 11.1813 8.26956 11.1813V29.4982ZM19.7583 23.0878C20.8729 21.1564 21.3611 19.0619 21.3611 17.0548H3.04427C3.04427 16.0977 3.28136 14.9934 3.8939 13.932L19.7583 23.0878ZM21.3611 17.0548C21.3611 13.4251 19.7864 10.2112 17.4051 7.95145L4.79669 21.2381C3.83797 20.3283 3.04427 18.8544 3.04427 17.0548H21.3611ZM17.4217 7.96727C14.8715 5.53509 11.5583 4.34136 8.26956 4.34136V22.6582C7.15653 22.6582 5.85184 22.2445 4.78006 21.2223L17.4217 7.96727Z" fill="#1C2556" mask="url(#path-3-inside-2_100_816)"/>
<mask id="path-5-inside-3_100_816" fill="white">
<path d="M8.26956 26.6999C4.82459 26.6999 2.23047 24.3149 2.23047 21.1649V17.0399C2.23047 13.8449 4.93617 11.2499 8.26956 11.2499C9.84559 11.2499 11.3519 11.8349 12.4816 12.8849C13.6532 13.9949 14.3087 15.4649 14.3087 17.0399V21.1649C14.3087 24.3149 11.7145 26.6999 8.26956 26.6999ZM8.26956 13.4999C6.09379 13.4999 4.32255 15.0899 4.32255 17.0399V21.1649C4.32255 23.0399 6.01011 24.4499 8.26956 24.4499C10.529 24.4499 12.2166 23.0399 12.2166 21.1649V17.0399C12.2166 16.1249 11.8262 15.2549 11.1148 14.5799C10.3617 13.8899 9.35744 13.4999 8.26956 13.4999Z"/>
</mask>
<path d="M8.26956 26.6999C4.82459 26.6999 2.23047 24.3149 2.23047 21.1649V17.0399C2.23047 13.8449 4.93617 11.2499 8.26956 11.2499C9.84559 11.2499 11.3519 11.8349 12.4816 12.8849C13.6532 13.9949 14.3087 15.4649 14.3087 17.0399V21.1649C14.3087 24.3149 11.7145 26.6999 8.26956 26.6999ZM8.26956 13.4999C6.09379 13.4999 4.32255 15.0899 4.32255 17.0399V21.1649C4.32255 23.0399 6.01011 24.4499 8.26956 24.4499C10.529 24.4499 12.2166 23.0399 12.2166 21.1649V17.0399C12.2166 16.1249 11.8262 15.2549 11.1148 14.5799C10.3617 13.8899 9.35744 13.4999 8.26956 13.4999Z" fill="#292D32"/>
<path d="M12.4816 12.8849L18.7805 6.23661L18.7487 6.20647L18.7166 6.17664L12.4816 12.8849ZM11.1148 14.5799L17.419 7.9366L17.3608 7.88129L17.3015 7.82702L11.1148 14.5799ZM8.26956 17.5414C8.67371 17.5414 9.42067 17.6964 10.1493 18.3649C10.9119 19.0644 11.3889 20.1081 11.3889 21.1649H-6.92795C-6.92795 30.1003 0.525973 35.8583 8.26956 35.8583V17.5414ZM11.3889 21.1649V17.0399H-6.92795V21.1649H11.3889ZM11.3889 17.0399C11.3889 19.2619 9.62773 20.4084 8.26956 20.4084V2.09152C0.244613 2.09152 -6.92795 8.428 -6.92795 17.0399H11.3889ZM8.26956 20.4084C7.58668 20.4084 6.85058 20.1546 6.2466 19.5932L18.7166 6.17664C15.8533 3.51528 12.1045 2.09152 8.26956 2.09152V20.4084ZM6.1827 19.5333C5.62098 19.0011 5.15029 18.1039 5.15029 17.0399H23.4671C23.4671 12.826 21.6854 8.98879 18.7805 6.23661L6.1827 19.5333ZM5.15029 17.0399V21.1649H23.4671V17.0399H5.15029ZM5.15029 21.1649C5.15029 20.108 5.62733 19.0643 6.38984 18.3648C7.11849 17.6964 7.86541 17.5414 8.26956 17.5414V35.8583C16.013 35.8583 23.4671 30.1004 23.4671 21.1649H5.15029ZM8.26956 4.34151C1.99617 4.34151 -4.83586 9.12211 -4.83586 17.0399H13.481C13.481 21.0577 10.1914 22.6583 8.26956 22.6583V4.34151ZM-4.83586 17.0399V21.1649H13.481V17.0399H-4.83586ZM-4.83586 21.1649C-4.83586 29.5913 2.58744 33.6083 8.26956 33.6083V15.2915C9.01197 15.2915 10.1737 15.5264 11.3115 16.4745C12.5201 17.4816 13.481 19.164 13.481 21.1649H-4.83586ZM8.26956 33.6083C13.9514 33.6083 21.3751 29.5915 21.3751 21.1649H3.05823C3.05823 19.1638 4.0192 17.4814 5.22779 16.4744C6.36554 15.5264 7.52716 15.2915 8.26956 15.2915V33.6083ZM21.3751 21.1649V17.0399H3.05823V21.1649H21.3751ZM21.3751 17.0399C21.3751 13.4103 19.8004 10.1964 17.419 7.9366L4.81065 21.2232C3.85193 20.3135 3.05823 18.8395 3.05823 17.0399H21.3751ZM17.3015 7.82702C14.8014 5.53656 11.5679 4.34151 8.26956 4.34151V22.6583C7.14698 22.6583 5.92198 22.2433 4.92818 21.3328L17.3015 7.82702Z" fill="#1C2556" mask="url(#path-5-inside-3_100_816)"/>
<mask id="path-7-inside-4_100_816" fill="white">
<path d="M24.8254 18.0752C22.7194 18.0752 20.9341 16.3952 20.7668 14.2352C20.6552 12.9902 21.0736 11.7752 21.9104 10.8902C22.6078 10.1102 23.5981 9.67523 24.6441 9.67523H27.5591C28.9398 9.72023 29.9998 10.8902 29.9998 12.3302V15.4202C29.9998 16.8602 28.9398 18.0302 27.6009 18.0752H24.8254ZM27.5172 11.9252H24.658C24.1699 11.9252 23.7236 12.1202 23.4028 12.4802C22.9983 12.9002 22.8031 13.4702 22.8589 14.0402C22.9286 15.0302 23.8212 15.8252 24.8254 15.8252H27.5591C27.7404 15.8252 27.9077 15.6452 27.9077 15.4202V12.3302C27.9077 12.1052 27.7404 11.9402 27.5172 11.9252Z"/>
</mask>
<path d="M24.8254 18.0752C22.7194 18.0752 20.9341 16.3952 20.7668 14.2352C20.6552 12.9902 21.0736 11.7752 21.9104 10.8902C22.6078 10.1102 23.5981 9.67523 24.6441 9.67523H27.5591C28.9398 9.72023 29.9998 10.8902 29.9998 12.3302V15.4202C29.9998 16.8602 28.9398 18.0302 27.6009 18.0752H24.8254ZM27.5172 11.9252H24.658C24.1699 11.9252 23.7236 12.1202 23.4028 12.4802C22.9983 12.9002 22.8031 13.4702 22.8589 14.0402C22.9286 15.0302 23.8212 15.8252 24.8254 15.8252H27.5591C27.7404 15.8252 27.9077 15.6452 27.9077 15.4202V12.3302C27.9077 12.1052 27.7404 11.9402 27.5172 11.9252Z" fill="#292D32"/>
<path d="M20.7668 14.2352L29.8978 13.5277L29.8936 13.4727L29.8886 13.4177L20.7668 14.2352ZM21.9104 10.8902L28.565 17.1826L28.6528 17.0897L28.738 16.9944L21.9104 10.8902ZM27.5591 9.67523L27.8574 0.521677L27.7083 0.516817H27.5591V9.67523ZM27.6009 18.0752V27.2336H27.7548L27.9085 27.2284L27.6009 18.0752ZM27.5172 11.9252L28.1314 2.78743L27.8247 2.76681H27.5172V11.9252ZM23.4028 12.4802L29.9996 18.8331L30.1225 18.7054L30.2404 18.5731L23.4028 12.4802ZM22.8589 14.0402L31.9946 13.3967L31.9859 13.2722L31.9737 13.1481L22.8589 14.0402ZM24.8254 8.91678C27.6713 8.91678 29.7088 11.088 29.8978 13.5277L11.6357 14.9427C12.1595 21.7024 17.7675 27.2336 24.8254 27.2336V8.91678ZM29.8886 13.4177C30.0065 14.7333 29.5679 16.122 28.565 17.1826L15.2559 4.59785C12.5794 7.42847 11.3039 11.2472 11.6449 15.0527L29.8886 13.4177ZM28.738 16.9944C27.6663 18.1931 26.1571 18.8336 24.6441 18.8336V0.516817C21.0391 0.516817 17.5493 2.02731 15.0828 4.78609L28.738 16.9944ZM24.6441 18.8336H27.5591V0.516817H24.6441V18.8336ZM27.2608 18.8288C23.2345 18.6976 20.8414 15.3505 20.8414 12.3302H39.1582C39.1582 6.42994 34.6451 0.742891 27.8574 0.521677L27.2608 18.8288ZM20.8414 12.3302V15.4202H39.1582V12.3302H20.8414ZM20.8414 15.4202C20.8414 12.4992 23.1393 9.06155 27.2933 8.92194L27.9085 27.2284C34.7404 26.9988 39.1582 21.2212 39.1582 15.4202H20.8414ZM27.6009 8.91678H24.8254V27.2336H27.6009V8.91678ZM27.5172 2.76681H24.658V21.0836H27.5172V2.76681ZM24.658 2.76681C21.6429 2.76681 18.6795 4.0145 16.5651 6.38735L30.2404 18.5731C28.7676 20.2259 26.6969 21.0836 24.658 21.0836V2.76681ZM16.806 6.12734C14.5383 8.48209 13.4278 11.7014 13.744 14.9323L31.9737 13.1481C32.1784 15.239 31.4583 17.3183 29.9996 18.8331L16.806 6.12734ZM13.7231 14.6837C14.1494 20.7363 19.2843 24.9836 24.8254 24.9836V6.66679C28.3581 6.66679 31.7078 9.32411 31.9946 13.3967L13.7231 14.6837ZM24.8254 24.9836H27.5591V6.66679H24.8254V24.9836ZM27.5591 24.9836C33.844 24.9836 37.0662 19.5901 37.0662 15.4202H18.7493C18.7493 13.2587 19.5505 11.2161 20.9333 9.64852C22.2783 8.1238 24.5621 6.66679 27.5591 6.66679V24.9836ZM37.0662 15.4202V12.3302H18.7493V15.4202H37.0662ZM37.0662 12.3302C37.0662 6.90867 32.778 3.09976 28.1314 2.78743L26.903 21.063C22.7027 20.7807 18.7493 17.3018 18.7493 12.3302H37.0662Z" fill="#1C2556" mask="url(#path-7-inside-4_100_816)"/>
<mask id="path-9-inside-5_100_816" fill="white">
<path d="M20.586 27.7499H17.0992C16.5274 27.7499 16.0532 27.2399 16.0532 26.6249C16.0532 26.0099 16.5274 25.4999 17.0992 25.4999H20.586C24.1844 25.4999 26.5136 22.9949 26.5136 19.1249V18.0749H24.826C22.72 18.0749 20.9347 16.3949 20.7674 14.2349C20.6558 12.9899 21.0743 11.7749 21.9112 10.8899C22.6085 10.11 23.5986 9.67497 24.6447 9.67497H26.4997V8.62496C26.4997 5.11497 24.589 2.69996 21.4928 2.30996C21.158 2.24996 20.865 2.24999 20.5721 2.24999H8.01965C7.68492 2.24999 7.36411 2.27997 7.04333 2.32497C3.97494 2.74497 2.09208 5.14497 2.09208 8.62496V11.6249C2.09208 12.2399 1.61788 12.7499 1.04604 12.7499C0.474205 12.7499 0 12.2399 0 11.6249V8.62496C0 4.00498 2.65003 0.660012 6.76445 0.105014C7.14103 0.0450147 7.57334 0 8.01965 0H20.5721C20.9068 0 21.3392 0.0149998 21.7855 0.0899995C25.8999 0.599997 28.5917 3.95998 28.5917 8.62496V10.8C28.5917 11.4149 28.1175 11.9249 27.5457 11.9249H24.6447C24.1565 11.9249 23.7104 12.1199 23.3896 12.4799C22.9851 12.8999 22.7897 13.4699 22.8455 14.0399C22.9152 15.0299 23.808 15.8249 24.8122 15.8249H27.5597C28.1315 15.8249 28.6057 16.3349 28.6057 16.9499V19.1249C28.6057 24.2849 25.3839 27.7499 20.586 27.7499Z"/>
</mask>
<path d="M20.586 27.7499H17.0992C16.5274 27.7499 16.0532 27.2399 16.0532 26.6249C16.0532 26.0099 16.5274 25.4999 17.0992 25.4999H20.586C24.1844 25.4999 26.5136 22.9949 26.5136 19.1249V18.0749H24.826C22.72 18.0749 20.9347 16.3949 20.7674 14.2349C20.6558 12.9899 21.0743 11.7749 21.9112 10.8899C22.6085 10.11 23.5986 9.67497 24.6447 9.67497H26.4997V8.62496C26.4997 5.11497 24.589 2.69996 21.4928 2.30996C21.158 2.24996 20.865 2.24999 20.5721 2.24999H8.01965C7.68492 2.24999 7.36411 2.27997 7.04333 2.32497C3.97494 2.74497 2.09208 5.14497 2.09208 8.62496V11.6249C2.09208 12.2399 1.61788 12.7499 1.04604 12.7499C0.474205 12.7499 0 12.2399 0 11.6249V8.62496C0 4.00498 2.65003 0.660012 6.76445 0.105014C7.14103 0.0450147 7.57334 0 8.01965 0H20.5721C20.9068 0 21.3392 0.0149998 21.7855 0.0899995C25.8999 0.599997 28.5917 3.95998 28.5917 8.62496V10.8C28.5917 11.4149 28.1175 11.9249 27.5457 11.9249H24.6447C24.1565 11.9249 23.7104 12.1199 23.3896 12.4799C22.9851 12.8999 22.7897 13.4699 22.8455 14.0399C22.9152 15.0299 23.808 15.8249 24.8122 15.8249H27.5597C28.1315 15.8249 28.6057 16.3349 28.6057 16.9499V19.1249C28.6057 24.2849 25.3839 27.7499 20.586 27.7499Z" fill="#292D32"/>
<path d="M26.5136 18.0749H35.672V8.9165H26.5136V18.0749ZM20.7674 14.2349L29.8984 13.5274L29.8941 13.4724L29.8892 13.4174L20.7674 14.2349ZM21.9112 10.8899L28.5657 17.1823L28.6535 17.0895L28.7386 16.9942L21.9112 10.8899ZM26.4997 9.67497V18.8334H35.6581V9.67497H26.4997ZM21.4928 2.30996L19.8769 11.3247L20.1116 11.3668L20.3482 11.3966L21.4928 2.30996ZM7.04333 2.32497L8.28534 11.3988L8.30048 11.3967L8.31561 11.3946L7.04333 2.32497ZM6.76445 0.105014L7.98875 9.18123L8.09731 9.16658L8.20549 9.14935L6.76445 0.105014ZM21.7855 0.0899995L20.2678 9.12178L20.4627 9.15454L20.6589 9.17886L21.7855 0.0899995ZM23.3896 12.4799L29.9864 18.8328L30.1093 18.7051L30.2272 18.5728L23.3896 12.4799ZM22.8455 14.0399L31.9813 13.3964L31.9725 13.272L31.9604 13.1478L22.8455 14.0399ZM20.586 18.5914H17.0992V36.9083H20.586V18.5914ZM17.0992 18.5914C22.2017 18.5914 25.2116 22.8208 25.2116 26.6249H6.89479C6.89479 31.6589 10.8532 36.9083 17.0992 36.9083V18.5914ZM25.2116 26.6249C25.2116 30.4289 22.2017 34.6583 17.0992 34.6583V16.3415C10.8532 16.3415 6.89479 21.5908 6.89479 26.6249H25.2116ZM17.0992 34.6583H20.586V16.3415H17.0992V34.6583ZM20.586 34.6583C24.6045 34.6583 28.6318 33.199 31.6063 30C34.518 26.8685 35.672 22.8847 35.672 19.1249H17.3552C17.3552 19.2351 17.3446 18.4388 18.1922 17.5273C19.1025 16.5483 20.1659 16.3415 20.586 16.3415V34.6583ZM35.672 19.1249V18.0749H17.3552V19.1249H35.672ZM26.5136 8.9165H24.826V27.2333H26.5136V8.9165ZM24.826 8.9165C27.6719 8.9165 29.7094 11.0877 29.8984 13.5274L11.6363 14.9424C12.1601 21.7022 17.7681 27.2333 24.826 27.2333V8.9165ZM29.8892 13.4174C30.0072 14.7337 29.5681 16.1222 28.5657 17.1823L15.2567 4.59757C12.5806 7.42765 11.3044 11.2462 11.6455 15.0524L29.8892 13.4174ZM28.7386 16.9942C27.6673 18.1925 26.1581 18.8334 24.6447 18.8334V0.516552C21.0392 0.516552 17.5498 2.02739 15.0837 4.78568L28.7386 16.9942ZM24.6447 18.8334H26.4997V0.516552H24.6447V18.8334ZM35.6581 9.67497V8.62496H17.3412V9.67497H35.6581ZM35.6581 8.62496C35.6581 5.22933 34.7234 1.62324 32.3354 -1.39036C29.8807 -4.4882 26.3973 -6.30306 22.6373 -6.77666L20.3482 11.3966C19.6845 11.313 18.7045 10.9006 17.9792 9.98529C17.3207 9.15419 17.3412 8.5106 17.3412 8.62496H35.6581ZM23.1086 -6.70478C21.871 -6.92662 20.818 -6.90843 20.5721 -6.90843V11.4084C20.6112 11.4084 20.6333 11.4084 20.653 11.4085C20.671 11.4085 20.6773 11.4086 20.6766 11.4086C20.6755 11.4086 20.6328 11.4081 20.565 11.4047C20.4185 11.3975 20.1756 11.3783 19.8769 11.3247L23.1086 -6.70478ZM20.5721 -6.90843H8.01965V11.4084H20.5721V-6.90843ZM8.01965 -6.90843C7.13457 -6.90843 6.36859 -6.82846 5.77105 -6.74464L8.31561 11.3946C8.35963 11.3884 8.23526 11.4084 8.01965 11.4084V-6.90843ZM5.80131 -6.74883C2.07897 -6.23932 -1.36193 -4.41462 -3.78501 -1.32998C-6.14366 1.67264 -7.06633 5.25299 -7.06633 8.62496H11.2505C11.2505 8.51694 11.2693 9.1573 10.6191 9.98492C9.90458 10.8946 8.9393 11.3093 8.28534 11.3988L5.80131 -6.74883ZM-7.06633 8.62496V11.6249H11.2505V8.62496H-7.06633ZM-7.06633 11.6249C-7.06633 7.8209 -4.05638 3.59152 1.04604 3.59152V21.9084C7.29213 21.9084 11.2505 16.659 11.2505 11.6249H-7.06633ZM1.04604 3.59152C6.14846 3.59152 9.15841 7.82091 9.15841 11.6249H-9.15841C-9.15841 16.659 -5.20005 21.9084 1.04604 21.9084V3.59152ZM9.15841 11.6249V8.62496H-9.15841V11.6249H9.15841ZM9.15841 8.62496C9.15841 8.05991 9.30851 8.1616 9.01362 8.53323C8.87287 8.71062 8.67901 8.88112 8.45162 9.00865C8.22521 9.13563 8.05014 9.17295 7.98875 9.18123L5.54016 -8.9712C-3.86214 -7.70292 -9.15841 0.213006 -9.15841 8.62496H9.15841ZM8.20549 9.14935C8.20958 9.1487 8.20048 9.15035 8.17694 9.15244C8.15427 9.15446 8.10118 9.15841 8.01965 9.15841V-9.15841C6.9795 -9.15841 6.05244 -9.05547 5.32342 -8.93932L8.20549 9.14935ZM8.01965 9.15841H20.5721V-9.15841H8.01965V9.15841ZM20.5721 9.15841C20.6053 9.15841 20.5943 9.15929 20.5538 9.15671C20.5158 9.15428 20.4158 9.14666 20.2678 9.12178L23.3032 -8.94178C22.147 -9.13607 21.1481 -9.15841 20.5721 -9.15841V9.15841ZM20.6589 9.17886C20.5783 9.16887 20.3887 9.12784 20.152 8.99693C19.9148 8.86572 19.7166 8.69163 19.5748 8.51401C19.2784 8.14289 19.4333 8.04686 19.4333 8.62496H37.7502C37.7502 0.173603 32.3979 -7.82306 22.9121 -8.99886L20.6589 9.17886ZM19.4333 8.62496V10.8H37.7502V8.62496H19.4333ZM19.4333 10.8C19.4333 6.99582 22.4434 2.76653 27.5457 2.76653V21.0834C33.7917 21.0834 37.7502 15.8341 37.7502 10.8H19.4333ZM27.5457 2.76653H24.6447V21.0834H27.5457V2.76653ZM24.6447 2.76653C21.6287 2.76653 18.6658 4.01483 16.5519 6.38707L30.2272 18.5728C28.755 20.225 26.6843 21.0834 24.6447 21.0834V2.76653ZM16.7928 6.12706C14.5262 8.48066 13.4142 11.6995 13.7306 14.9321L31.9604 13.1478C32.1652 15.2403 31.444 17.3192 29.9864 18.8328L16.7928 6.12706ZM13.7097 14.6835C14.1361 20.7368 19.2719 24.9833 24.8122 24.9833V6.66651C28.344 6.66651 31.6943 9.32303 31.9813 13.3964L13.7097 14.6835ZM24.8122 24.9833H27.5597V6.66651H24.8122V24.9833ZM27.5597 24.9833C22.4572 24.9833 19.4473 20.754 19.4473 16.9499H37.7641C37.7641 11.9159 33.8057 6.66651 27.5597 6.66651V24.9833ZM19.4473 16.9499V19.1249H37.7641V16.9499H19.4473ZM19.4473 19.1249C19.4473 19.7989 19.2603 19.596 19.688 19.136C19.8852 18.924 20.1247 18.7636 20.3519 18.6693C20.5726 18.5776 20.6754 18.5914 20.586 18.5914V36.9083C25.2931 36.9083 29.8096 35.1498 33.1021 31.6087C36.3402 28.1263 37.7641 23.6109 37.7641 19.1249H19.4473Z" fill="#1C2556" mask="url(#path-9-inside-5_100_816)"/>
</svg>
