<svg width="19" height="19" viewBox="0 0 19 19" fill="none" xmlns="http://www.w3.org/2000/svg">
<path d="M6.94973 17.9992H12.0495C16.2993 17.9992 17.9992 16.2993 17.9992 12.0495V6.94973C17.9992 2.69992 16.2993 1 12.0495 1H6.94973C2.69992 1 1 2.69992 1 6.94973V12.0495C1 16.2993 2.69992 17.9992 6.94973 17.9992Z" stroke="#3B5266" stroke-width="2" stroke-linecap="round" stroke-linejoin="round"/>
<path d="M6.9509 7.79975C7.88977 7.79975 8.65082 7.03867 8.65082 6.09982C8.65082 5.16098 7.88977 4.3999 6.9509 4.3999C6.01206 4.3999 5.25098 5.16098 5.25098 6.09982C5.25098 7.03867 6.01206 7.79975 6.9509 7.79975Z" stroke="#3B5266" stroke-width="2" stroke-linecap="round" stroke-linejoin="round"/>
<path d="M1.57031 15.4072L5.76062 12.5938C6.43209 12.1433 7.40105 12.1943 8.00448 12.7128L8.28497 12.9593C8.94794 13.5287 10.0189 13.5287 10.6819 12.9593L14.2177 9.92491C14.8807 9.35543 15.9516 9.35543 16.6146 9.92491L18 11.1149" stroke="#3B5266" stroke-width="2" stroke-linecap="round" stroke-linejoin="round"/>
</svg>
