<svg width="19" height="21" viewBox="0 0 19 21" fill="none" xmlns="http://www.w3.org/2000/svg">
<path d="M15.2326 19.9999H3.888C-0.649842 19.9999 1.15689 13.7036 2.62749 10.5555C3.21573 9.72215 4.79557 8.55548 6.40902 10.5555C8.02248 12.5555 9.43425 11.3888 9.93846 10.5555L11.7032 6.94433C13.1149 4.27766 14.3082 5.83322 14.7284 6.94433L17.2494 13.611C19.2662 18.7221 16.7452 19.9999 15.2326 19.9999Z" stroke="#3B5266" stroke-width="2"/>
<path d="M7.42576 3.61112C7.42576 5.14667 6.31711 6.22223 5.14842 6.22223C3.97974 6.22223 2.87109 5.14667 2.87109 3.61112C2.87109 2.07556 3.97974 1 5.14842 1C6.31711 1 7.42576 2.07556 7.42576 3.61112Z" stroke="#3B5266" stroke-width="2"/>
</svg>
