<svg width="30" height="30" viewBox="0 0 30 30" fill="none" xmlns="http://www.w3.org/2000/svg">
<mask id="path-1-inside-1_100_810" fill="white">
<path d="M5.06107 25.4559C4.12261 25.4559 3.24568 25.1603 2.61491 24.6116C1.81491 23.9223 1.4303 22.8812 1.56876 21.7557L2.13799 17.1974C2.24568 16.3392 2.81491 15.1996 3.47645 14.5806L16.1072 2.35481C19.2611 -0.698125 22.5534 -0.782538 25.8919 2.10157C29.2303 4.98569 29.3226 7.99642 26.1688 11.0494L13.538 23.2751C12.8919 23.9082 11.6918 24.4991 10.7534 24.6399L5.79953 25.4136C5.53799 25.4276 5.30722 25.4559 5.06107 25.4559ZM21.0457 2.08751C19.8611 2.08751 18.8303 2.76281 17.7842 3.77577L5.15337 16.0157C4.84568 16.3112 4.49184 17.0146 4.4303 17.4226L3.86107 21.9808C3.79953 22.445 3.92261 22.8249 4.19953 23.0641C4.47645 23.3032 4.89184 23.3876 5.39953 23.3173L10.3534 22.5437C10.7995 22.4733 11.538 22.1074 11.8457 21.8119L24.4765 9.58619C26.3842 7.72911 27.0765 6.01271 24.2919 3.62101C23.0611 2.53771 21.9995 2.08751 21.0457 2.08751Z"/>
</mask>
<path d="M5.06107 25.4559C4.12261 25.4559 3.24568 25.1603 2.61491 24.6116C1.81491 23.9223 1.4303 22.8812 1.56876 21.7557L2.13799 17.1974C2.24568 16.3392 2.81491 15.1996 3.47645 14.5806L16.1072 2.35481C19.2611 -0.698125 22.5534 -0.782538 25.8919 2.10157C29.2303 4.98569 29.3226 7.99642 26.1688 11.0494L13.538 23.2751C12.8919 23.9082 11.6918 24.4991 10.7534 24.6399L5.79953 25.4136C5.53799 25.4276 5.30722 25.4559 5.06107 25.4559ZM21.0457 2.08751C19.8611 2.08751 18.8303 2.76281 17.7842 3.77577L5.15337 16.0157C4.84568 16.3112 4.49184 17.0146 4.4303 17.4226L3.86107 21.9808C3.79953 22.445 3.92261 22.8249 4.19953 23.0641C4.47645 23.3032 4.89184 23.3876 5.39953 23.3173L10.3534 22.5437C10.7995 22.4733 11.538 22.1074 11.8457 21.8119L24.4765 9.58619C26.3842 7.72911 27.0765 6.01271 24.2919 3.62101C23.0611 2.53771 21.9995 2.08751 21.0457 2.08751Z" fill="#292D32"/>
<path d="M2.61491 24.6116L6.30582 20.3686L6.29594 20.36L6.28602 20.3514L2.61491 24.6116ZM1.56876 21.7557L-4.01166 21.0588L-4.01291 21.069L1.56876 21.7557ZM2.13799 17.1974L-3.442 16.4972L-3.44242 16.5005L2.13799 17.1974ZM3.47645 14.5806L7.31892 18.6869L7.3536 18.6544L7.38773 18.6214L3.47645 14.5806ZM16.1072 2.35481L20.0185 6.39567L20.0187 6.39552L16.1072 2.35481ZM25.8919 2.10157L22.2154 6.35719L22.2154 6.35719L25.8919 2.10157ZM26.1688 11.0494L30.0801 15.0902L30.0802 15.0901L26.1688 11.0494ZM13.538 23.2751L9.62673 19.2342L9.61443 19.2462L9.60221 19.2581L13.538 23.2751ZM10.7534 24.6399L9.9188 19.0784L9.90221 19.0809L9.88563 19.0835L10.7534 24.6399ZM5.79953 25.4136L6.10161 31.0292L6.38594 31.0139L6.66727 30.97L5.79953 25.4136ZM17.7842 3.77577L13.8722 -0.264413L13.8705 -0.262817L17.7842 3.77577ZM5.15337 16.0157L9.04842 20.0722L9.05773 20.0633L9.06699 20.0543L5.15337 16.0157ZM4.4303 17.4226L-1.13055 16.5839L-1.14123 16.6547L-1.15011 16.7257L4.4303 17.4226ZM3.86107 21.9808L9.43606 22.7197L9.43884 22.6987L9.44147 22.6777L3.86107 21.9808ZM5.39953 23.3173L6.17136 28.8878L6.21938 28.8812L6.26728 28.8737L5.39953 23.3173ZM10.3534 22.5437L11.2211 28.1001L11.2292 28.0988L10.3534 22.5437ZM11.8457 21.8119L15.7407 25.8684L15.7489 25.8606L15.757 25.8528L11.8457 21.8119ZM24.4765 9.58619L28.3877 13.627L28.3935 13.6215L28.3993 13.6159L24.4765 9.58619ZM24.2919 3.62101L20.5762 7.84245L20.6018 7.86497L20.6276 7.88718L24.2919 3.62101ZM5.06107 19.8322C5.25076 19.8322 5.75298 19.8877 6.30582 20.3686L-1.076 28.8547C0.738386 30.433 2.99445 31.0797 5.06107 31.0797V19.8322ZM6.28602 20.3514C7.01507 20.9796 7.22374 21.8464 7.15043 22.4423L-4.01291 21.069C-4.36314 23.9159 -3.38525 26.8649 -1.05619 28.8719L6.28602 20.3514ZM7.14917 22.4525L7.7184 17.8942L-3.44242 16.5005L-4.01165 21.0588L7.14917 22.4525ZM7.71798 17.8976C7.69015 18.1193 7.64826 18.2511 7.63615 18.2875C7.62788 18.3124 7.62178 18.3275 7.61898 18.3341C7.61609 18.341 7.6144 18.3444 7.61371 18.3457C7.61302 18.3471 7.61124 18.3506 7.6073 18.3571C7.60347 18.3635 7.59478 18.3774 7.57952 18.3988C7.55635 18.4312 7.47643 18.5395 7.31892 18.6869L-0.366016 10.4742C-1.29942 11.3477 -1.96773 12.3728 -2.41465 13.2528C-2.86011 14.1299 -3.2866 15.2588 -3.442 16.4972L7.71798 17.8976ZM7.38773 18.6214L20.0185 6.39567L12.196 -1.68604L-0.434822 10.5397L7.38773 18.6214ZM20.0187 6.39552C20.9308 5.51257 21.2692 5.61867 21.0755 5.62368C20.8878 5.62852 21.2348 5.51009 22.2154 6.35719L29.5683 -2.15404C27.2104 -4.19105 24.242 -5.70933 20.7852 -5.62008C17.3221 -5.53066 14.4375 -3.85588 12.1958 -1.68589L20.0187 6.39552ZM22.2154 6.35719C22.7101 6.78458 22.8887 7.05099 22.9287 7.11966C22.9447 7.14707 22.924 7.11791 22.8985 7.03389C22.8719 6.94676 22.8482 6.82692 22.8439 6.68571C22.8395 6.54442 22.8557 6.42166 22.8777 6.32983C22.8989 6.24112 22.9192 6.20685 22.9071 6.23069C22.8758 6.2926 22.7198 6.56096 22.2574 7.00864L30.0802 15.0901C32.2616 12.9784 34.2 10.0309 34.086 6.3386C33.9723 2.6547 31.8639 -0.170872 29.5683 -2.15405L22.2154 6.35719ZM22.2575 7.0085L9.62673 19.2342L17.4493 27.316L30.0801 15.0902L22.2575 7.0085ZM9.60221 19.2581C9.67394 19.1878 9.72986 19.1409 9.76282 19.1146C9.79659 19.0877 9.81772 19.0732 9.82396 19.069C9.83316 19.0628 9.8159 19.0748 9.77747 19.0937C9.76051 19.102 9.74442 19.1092 9.73072 19.1148C9.71688 19.1205 9.70973 19.1229 9.71069 19.1226C9.71126 19.1224 9.7262 19.1174 9.75618 19.1099C9.78539 19.1026 9.84001 19.0903 9.9188 19.0784L11.588 30.2014C13.6513 29.8918 15.9498 28.7852 17.4738 27.2921L9.60221 19.2581ZM9.88563 19.0835L4.93178 19.8572L6.66727 30.97L11.6211 30.1963L9.88563 19.0835ZM5.49745 19.7979C5.37711 19.8044 5.27067 19.812 5.1914 19.8178C5.15261 19.8207 5.1142 19.8237 5.0866 19.8258C5.05615 19.8281 5.03484 19.8297 5.01582 19.8311C4.9342 19.8371 4.9768 19.8322 5.06107 19.8322V31.0797C5.39149 31.0797 5.67255 31.0606 5.83323 31.0489C5.8748 31.0459 5.91431 31.0428 5.94509 31.0405C5.97872 31.0379 6.00198 31.0361 6.02544 31.0344C6.0707 31.031 6.09118 31.0298 6.10161 31.0292L5.49745 19.7979ZM21.0457 -3.53624C17.5836 -3.53624 15.178 -1.52883 13.8722 -0.264413L21.6961 7.81595C21.8541 7.66298 21.9665 7.56676 22.0398 7.50919C22.113 7.45176 22.1237 7.4516 22.0757 7.47804C22.0245 7.50621 21.9022 7.56703 21.7152 7.61998C21.5221 7.67463 21.2936 7.71126 21.0457 7.71126V-3.53624ZM13.8705 -0.262817L1.23976 11.9771L9.06699 20.0543L21.6978 7.81435L13.8705 -0.262817ZM1.25833 11.9592C0.451385 12.734 -0.0521661 13.6161 -0.309677 14.1207C-0.569636 14.6301 -0.970853 15.5251 -1.13055 16.5839L9.99115 18.2614C9.93181 18.6548 9.8395 18.9163 9.80965 18.9981C9.76946 19.1084 9.7341 19.1835 9.70873 19.2332C9.68357 19.2825 9.64119 19.3599 9.57019 19.4643C9.5159 19.5442 9.34841 19.7842 9.04842 20.0722L1.25833 11.9592ZM-1.15011 16.7257L-1.71934 21.2839L9.44147 22.6777L10.0107 18.1195L-1.15011 16.7257ZM-1.71392 21.2418C-1.95638 23.071 -1.53987 25.538 0.523652 27.3202L7.87541 18.808C9.38508 20.1118 9.55543 21.8191 9.43606 22.7197L-1.71392 21.2418ZM0.523652 27.3202C2.48541 29.0145 4.78256 29.0803 6.17136 28.8878L4.62769 17.7468C5.00112 17.695 6.4675 17.592 7.87541 18.808L0.523652 27.3202ZM6.26728 28.8737L11.2211 28.1001L9.48563 16.9873L4.53178 17.7609L6.26728 28.8737ZM11.2292 28.0988C12.248 27.9382 13.1222 27.5602 13.6343 27.3082C14.1335 27.0626 14.9834 26.5956 15.7407 25.8684L7.95064 17.7554C8.22523 17.4918 8.44313 17.3499 8.50018 17.3131C8.58321 17.2597 8.63874 17.2309 8.66858 17.2162C8.69878 17.2014 8.7531 17.1761 8.84124 17.1446C8.90519 17.1218 9.13077 17.0432 9.47751 16.9885L11.2292 28.0988ZM15.757 25.8528L28.3877 13.627L20.5652 5.54534L7.93441 17.7711L15.757 25.8528ZM28.3993 13.6159C29.4752 12.5685 31.5431 10.3847 31.7553 7.17496C31.992 3.59284 29.8691 0.997986 27.9561 -0.645158L20.6276 7.88718C21.0168 8.22138 20.9924 8.28886 20.8656 8.06405C20.6994 7.76939 20.4824 7.18703 20.5323 6.4332C20.5785 5.73325 20.8284 5.30046 20.8868 5.20771C20.929 5.14081 20.8733 5.24539 20.5537 5.55651L28.3993 13.6159ZM28.0075 -0.600437C26.2146 -2.17854 23.8804 -3.53624 21.0457 -3.53624V7.71126C20.8369 7.71126 20.6526 7.68607 20.5018 7.65081C20.3534 7.61612 20.2557 7.57599 20.2126 7.55617C20.1383 7.52195 20.2596 7.56381 20.5762 7.84245L28.0075 -0.600437Z" fill="#1C2556" mask="url(#path-1-inside-1_100_810)"/>
<mask id="path-3-inside-2_100_810" fill="white">
<path d="M23.2164 13.3985C23.1857 13.3985 23.1395 13.3985 23.1087 13.3985C18.3087 12.9624 14.4472 9.62811 13.7087 5.26677C13.6164 4.68995 14.0472 4.15534 14.678 4.05686C15.3087 3.97244 15.8934 4.36637 16.001 4.94319C16.5857 8.34785 19.601 10.9647 23.3549 11.3023C23.9857 11.3586 24.4472 11.8791 24.3857 12.4559C24.3087 12.9905 23.801 13.3985 23.2164 13.3985Z"/>
</mask>
<path d="M23.2164 13.3985C23.1857 13.3985 23.1395 13.3985 23.1087 13.3985C18.3087 12.9624 14.4472 9.62811 13.7087 5.26677C13.6164 4.68995 14.0472 4.15534 14.678 4.05686C15.3087 3.97244 15.8934 4.36637 16.001 4.94319C16.5857 8.34785 19.601 10.9647 23.3549 11.3023C23.9857 11.3586 24.4472 11.8791 24.3857 12.4559C24.3087 12.9905 23.801 13.3985 23.2164 13.3985Z" fill="#292D32"/>
<path d="M23.1087 13.3985L22.5999 18.9992L22.8538 19.0222H23.1087V13.3985ZM13.7087 5.26677L8.15564 6.15543L8.15966 6.18054L8.16391 6.20562L13.7087 5.26677ZM14.678 4.05686L13.932 -1.5172L13.8711 -1.50906L13.8104 -1.49958L14.678 4.05686ZM16.001 4.94319L21.5437 3.99146L21.5368 3.95122L21.5293 3.91107L16.001 4.94319ZM23.3549 11.3023L22.8511 16.9034L22.8551 16.9038L23.3549 11.3023ZM24.3857 12.4559L29.9521 13.2568L29.9667 13.1549L29.9777 13.0525L24.3857 12.4559ZM23.2164 7.77474C23.2164 7.77474 23.2163 7.77474 23.2163 7.77474C23.2162 7.77474 23.2161 7.77474 23.2161 7.77474C23.216 7.77474 23.2159 7.77474 23.2159 7.77474C23.2158 7.77474 23.2158 7.77474 23.2157 7.77474C23.2156 7.77474 23.2156 7.77474 23.2155 7.77474C23.2155 7.77474 23.2154 7.77474 23.2153 7.77474C23.2153 7.77474 23.2152 7.77474 23.2152 7.77474C23.2151 7.77474 23.215 7.77474 23.215 7.77474C23.2149 7.77474 23.2149 7.77474 23.2148 7.77474C23.2147 7.77474 23.2147 7.77474 23.2146 7.77474C23.2146 7.77474 23.2145 7.77474 23.2144 7.77474C23.2144 7.77474 23.2143 7.77474 23.2142 7.77474C23.2142 7.77474 23.2141 7.77474 23.2141 7.77474C23.214 7.77474 23.2139 7.77474 23.2139 7.77474C23.2138 7.77474 23.2137 7.77474 23.2137 7.77474C23.2136 7.77474 23.2136 7.77474 23.2135 7.77474C23.2134 7.77474 23.2134 7.77474 23.2133 7.77474C23.2133 7.77474 23.2132 7.77474 23.2131 7.77474C23.2131 7.77474 23.213 7.77474 23.2129 7.77474C23.2129 7.77474 23.2128 7.77474 23.2128 7.77474C23.2127 7.77474 23.2126 7.77474 23.2126 7.77474C23.2125 7.77474 23.2124 7.77474 23.2124 7.77474C23.2123 7.77474 23.2123 7.77474 23.2122 7.77474C23.2121 7.77474 23.2121 7.77474 23.212 7.77474C23.2119 7.77474 23.2119 7.77474 23.2118 7.77474C23.2118 7.77474 23.2117 7.77474 23.2116 7.77474C23.2116 7.77474 23.2115 7.77474 23.2114 7.77474C23.2114 7.77474 23.2113 7.77474 23.2113 7.77474C23.2112 7.77474 23.2111 7.77474 23.2111 7.77474C23.211 7.77474 23.2109 7.77474 23.2109 7.77474C23.2108 7.77474 23.2107 7.77474 23.2107 7.77474C23.2106 7.77474 23.2106 7.77474 23.2105 7.77474C23.2104 7.77474 23.2104 7.77474 23.2103 7.77474C23.2102 7.77474 23.2102 7.77474 23.2101 7.77474C23.21 7.77474 23.21 7.77474 23.2099 7.77474C23.2099 7.77474 23.2098 7.77474 23.2097 7.77474C23.2097 7.77474 23.2096 7.77474 23.2095 7.77474C23.2095 7.77474 23.2094 7.77474 23.2093 7.77474C23.2093 7.77474 23.2092 7.77474 23.2091 7.77474C23.2091 7.77474 23.209 7.77474 23.209 7.77474C23.2089 7.77474 23.2088 7.77474 23.2088 7.77474C23.2087 7.77474 23.2086 7.77474 23.2086 7.77474C23.2085 7.77474 23.2084 7.77474 23.2084 7.77474C23.2083 7.77474 23.2082 7.77474 23.2082 7.77474C23.2081 7.77474 23.208 7.77474 23.208 7.77474C23.2079 7.77474 23.2079 7.77474 23.2078 7.77474C23.2077 7.77474 23.2077 7.77474 23.2076 7.77474C23.2075 7.77474 23.2075 7.77474 23.2074 7.77474C23.2073 7.77474 23.2073 7.77474 23.2072 7.77474C23.2071 7.77474 23.2071 7.77474 23.207 7.77474C23.2069 7.77474 23.2069 7.77474 23.2068 7.77474C23.2067 7.77474 23.2067 7.77474 23.2066 7.77474C23.2065 7.77474 23.2065 7.77474 23.2064 7.77474C23.2063 7.77474 23.2063 7.77474 23.2062 7.77474C23.2062 7.77474 23.2061 7.77474 23.206 7.77474C23.206 7.77474 23.2059 7.77474 23.2058 7.77474C23.2058 7.77474 23.2057 7.77474 23.2056 7.77474C23.2056 7.77474 23.2055 7.77474 23.2054 7.77474C23.2054 7.77474 23.2053 7.77474 23.2052 7.77474C23.2052 7.77474 23.2051 7.77474 23.205 7.77474C23.205 7.77474 23.2049 7.77474 23.2048 7.77474C23.2048 7.77474 23.2047 7.77474 23.2046 7.77474C23.2046 7.77474 23.2045 7.77474 23.2044 7.77474C23.2044 7.77474 23.2043 7.77474 23.2042 7.77474C23.2042 7.77474 23.2041 7.77474 23.204 7.77474C23.204 7.77474 23.2039 7.77474 23.2038 7.77474C23.2038 7.77474 23.2037 7.77474 23.2036 7.77474C23.2036 7.77474 23.2035 7.77474 23.2034 7.77474C23.2034 7.77474 23.2033 7.77474 23.2032 7.77474C23.2032 7.77474 23.2031 7.77474 23.203 7.77474C23.203 7.77474 23.2029 7.77474 23.2028 7.77474C23.2028 7.77474 23.2027 7.77474 23.2026 7.77474C23.2026 7.77474 23.2025 7.77474 23.2024 7.77474C23.2024 7.77474 23.2023 7.77474 23.2022 7.77474C23.2022 7.77474 23.2021 7.77474 23.202 7.77474C23.2019 7.77474 23.2019 7.77474 23.2018 7.77474C23.2017 7.77474 23.2017 7.77474 23.2016 7.77474C23.2015 7.77474 23.2015 7.77474 23.2014 7.77474C23.2013 7.77474 23.2013 7.77474 23.2012 7.77474C23.2011 7.77474 23.2011 7.77474 23.201 7.77474C23.2009 7.77474 23.2009 7.77474 23.2008 7.77474C23.2007 7.77474 23.2007 7.77474 23.2006 7.77474C23.2005 7.77474 23.2005 7.77474 23.2004 7.77474C23.2003 7.77474 23.2002 7.77474 23.2002 7.77474C23.2001 7.77474 23.2 7.77474 23.2 7.77474C23.1999 7.77474 23.1998 7.77474 23.1998 7.77474C23.1997 7.77474 23.1996 7.77474 23.1996 7.77474C23.1995 7.77474 23.1994 7.77474 23.1994 7.77474C23.1993 7.77474 23.1992 7.77474 23.1992 7.77474C23.1991 7.77474 23.199 7.77474 23.1989 7.77474C23.1989 7.77474 23.1988 7.77474 23.1987 7.77474C23.1987 7.77474 23.1986 7.77474 23.1985 7.77474C23.1985 7.77474 23.1984 7.77474 23.1983 7.77474C23.1983 7.77474 23.1982 7.77474 23.1981 7.77474C23.198 7.77474 23.198 7.77474 23.1979 7.77474C23.1978 7.77474 23.1978 7.77474 23.1977 7.77474C23.1976 7.77474 23.1976 7.77474 23.1975 7.77474C23.1974 7.77474 23.1974 7.77474 23.1973 7.77474C23.1972 7.77474 23.1971 7.77474 23.1971 7.77474C23.197 7.77474 23.1969 7.77474 23.1969 7.77474C23.1968 7.77474 23.1967 7.77474 23.1967 7.77474C23.1966 7.77474 23.1965 7.77474 23.1965 7.77474C23.1964 7.77474 23.1963 7.77474 23.1962 7.77474C23.1962 7.77474 23.1961 7.77474 23.196 7.77474C23.196 7.77474 23.1959 7.77474 23.1958 7.77474C23.1958 7.77474 23.1957 7.77474 23.1956 7.77474C23.1955 7.77474 23.1955 7.77474 23.1954 7.77474C23.1953 7.77474 23.1953 7.77474 23.1952 7.77474C23.1951 7.77474 23.1951 7.77474 23.195 7.77474C23.1949 7.77474 23.1948 7.77474 23.1948 7.77474C23.1947 7.77474 23.1946 7.77474 23.1946 7.77474C23.1945 7.77474 23.1944 7.77474 23.1944 7.77474C23.1943 7.77474 23.1942 7.77474 23.1941 7.77474C23.1941 7.77474 23.194 7.77474 23.1939 7.77474C23.1939 7.77474 23.1938 7.77474 23.1937 7.77474C23.1936 7.77474 23.1936 7.77474 23.1935 7.77474C23.1934 7.77474 23.1934 7.77474 23.1933 7.77474C23.1932 7.77474 23.1932 7.77474 23.1931 7.77474C23.193 7.77474 23.1929 7.77474 23.1929 7.77474C23.1928 7.77474 23.1927 7.77474 23.1927 7.77474C23.1926 7.77474 23.1925 7.77474 23.1924 7.77474C23.1924 7.77474 23.1923 7.77474 23.1922 7.77474C23.1922 7.77474 23.1921 7.77474 23.192 7.77474C23.1919 7.77474 23.1919 7.77474 23.1918 7.77474C23.1917 7.77474 23.1917 7.77474 23.1916 7.77474C23.1915 7.77474 23.1914 7.77474 23.1914 7.77474C23.1913 7.77474 23.1912 7.77474 23.1912 7.77474C23.1911 7.77474 23.191 7.77474 23.191 7.77474C23.1909 7.77474 23.1908 7.77474 23.1907 7.77474C23.1907 7.77474 23.1906 7.77474 23.1905 7.77474C23.1904 7.77474 23.1904 7.77474 23.1903 7.77474C23.1902 7.77474 23.1902 7.77474 23.1901 7.77474C23.19 7.77474 23.1899 7.77474 23.1899 7.77474C23.1898 7.77474 23.1897 7.77474 23.1897 7.77474C23.1896 7.77474 23.1895 7.77474 23.1894 7.77474C23.1894 7.77474 23.1893 7.77474 23.1892 7.77474C23.1892 7.77474 23.1891 7.77474 23.189 7.77474C23.1889 7.77474 23.1889 7.77474 23.1888 7.77474C23.1887 7.77474 23.1887 7.77474 23.1886 7.77474C23.1885 7.77474 23.1884 7.77474 23.1884 7.77474C23.1883 7.77474 23.1882 7.77474 23.1882 7.77474C23.1881 7.77474 23.188 7.77474 23.1879 7.77474C23.1879 7.77474 23.1878 7.77474 23.1877 7.77474C23.1876 7.77474 23.1876 7.77474 23.1875 7.77474C23.1874 7.77474 23.1874 7.77474 23.1873 7.77474C23.1872 7.77474 23.1871 7.77474 23.1871 7.77474C23.187 7.77474 23.1869 7.77474 23.1869 7.77474C23.1868 7.77474 23.1867 7.77474 23.1866 7.77474C23.1866 7.77474 23.1865 7.77474 23.1864 7.77474C23.1863 7.77474 23.1863 7.77474 23.1862 7.77474C23.1861 7.77474 23.1861 7.77474 23.186 7.77474C23.1859 7.77474 23.1858 7.77474 23.1858 7.77474C23.1857 7.77474 23.1856 7.77474 23.1855 7.77474C23.1855 7.77474 23.1854 7.77474 23.1853 7.77474C23.1853 7.77474 23.1852 7.77474 23.1851 7.77474C23.185 7.77474 23.185 7.77474 23.1849 7.77474C23.1848 7.77474 23.1847 7.77474 23.1847 7.77474C23.1846 7.77474 23.1845 7.77474 23.1845 7.77474C23.1844 7.77474 23.1843 7.77474 23.1842 7.77474C23.1842 7.77474 23.1841 7.77474 23.184 7.77474C23.1839 7.77474 23.1839 7.77474 23.1838 7.77474C23.1837 7.77474 23.1837 7.77474 23.1836 7.77474C23.1835 7.77474 23.1834 7.77474 23.1834 7.77474C23.1833 7.77474 23.1832 7.77474 23.1831 7.77474C23.1831 7.77474 23.183 7.77474 23.1829 7.77474C23.1828 7.77474 23.1828 7.77474 23.1827 7.77474C23.1826 7.77474 23.1826 7.77474 23.1825 7.77474C23.1824 7.77474 23.1823 7.77474 23.1823 7.77474C23.1822 7.77474 23.1821 7.77474 23.182 7.77474C23.182 7.77474 23.1819 7.77474 23.1818 7.77474C23.1817 7.77474 23.1817 7.77474 23.1816 7.77474C23.1815 7.77474 23.1815 7.77474 23.1814 7.77474C23.1813 7.77474 23.1812 7.77474 23.1812 7.77474C23.1811 7.77474 23.181 7.77474 23.1809 7.77474C23.1809 7.77474 23.1808 7.77474 23.1807 7.77474C23.1806 7.77474 23.1806 7.77474 23.1805 7.77474C23.1804 7.77474 23.1803 7.77474 23.1803 7.77474C23.1802 7.77474 23.1801 7.77474 23.1801 7.77474C23.18 7.77474 23.1799 7.77474 23.1798 7.77474C23.1798 7.77474 23.1797 7.77474 23.1796 7.77474C23.1795 7.77474 23.1795 7.77474 23.1794 7.77474C23.1793 7.77474 23.1792 7.77474 23.1792 7.77474C23.1791 7.77474 23.179 7.77474 23.1789 7.77474C23.1789 7.77474 23.1788 7.77474 23.1787 7.77474C23.1787 7.77474 23.1786 7.77474 23.1785 7.77474C23.1784 7.77474 23.1784 7.77474 23.1783 7.77474C23.1782 7.77474 23.1781 7.77474 23.1781 7.77474C23.178 7.77474 23.1779 7.77474 23.1778 7.77474C23.1778 7.77474 23.1777 7.77474 23.1776 7.77474C23.1775 7.77474 23.1775 7.77474 23.1774 7.77474C23.1773 7.77474 23.1772 7.77474 23.1772 7.77474C23.1771 7.77474 23.177 7.77474 23.1769 7.77474C23.1769 7.77474 23.1768 7.77474 23.1767 7.77474C23.1767 7.77474 23.1766 7.77474 23.1765 7.77474C23.1764 7.77474 23.1764 7.77474 23.1763 7.77474C23.1762 7.77474 23.1761 7.77474 23.1761 7.77474C23.176 7.77474 23.1759 7.77474 23.1758 7.77474C23.1758 7.77474 23.1757 7.77474 23.1756 7.77474C23.1755 7.77474 23.1755 7.77474 23.1754 7.77474C23.1753 7.77474 23.1752 7.77474 23.1752 7.77474C23.1751 7.77474 23.175 7.77474 23.1749 7.77474C23.1749 7.77474 23.1748 7.77474 23.1747 7.77474C23.1746 7.77474 23.1746 7.77474 23.1745 7.77474C23.1744 7.77474 23.1743 7.77474 23.1743 7.77474C23.1742 7.77474 23.1741 7.77474 23.174 7.77474C23.174 7.77474 23.1739 7.77474 23.1738 7.77474C23.1737 7.77474 23.1737 7.77474 23.1736 7.77474C23.1735 7.77474 23.1735 7.77474 23.1734 7.77474C23.1733 7.77474 23.1732 7.77474 23.1732 7.77474C23.1731 7.77474 23.173 7.77474 23.1729 7.77474C23.1729 7.77474 23.1728 7.77474 23.1727 7.77474C23.1726 7.77474 23.1726 7.77474 23.1725 7.77474C23.1724 7.77474 23.1723 7.77474 23.1723 7.77474C23.1722 7.77474 23.1721 7.77474 23.172 7.77474C23.172 7.77474 23.1719 7.77474 23.1718 7.77474C23.1717 7.77474 23.1717 7.77474 23.1716 7.77474C23.1715 7.77474 23.1714 7.77474 23.1714 7.77474C23.1713 7.77474 23.1712 7.77474 23.1711 7.77474C23.1711 7.77474 23.171 7.77474 23.1709 7.77474C23.1708 7.77474 23.1708 7.77474 23.1707 7.77474C23.1706 7.77474 23.1705 7.77474 23.1705 7.77474C23.1704 7.77474 23.1703 7.77474 23.1702 7.77474C23.1702 7.77474 23.1701 7.77474 23.17 7.77474C23.1699 7.77474 23.1699 7.77474 23.1698 7.77474C23.1697 7.77474 23.1696 7.77474 23.1696 7.77474C23.1695 7.77474 23.1694 7.77474 23.1693 7.77474C23.1693 7.77474 23.1692 7.77474 23.1691 7.77474C23.169 7.77474 23.169 7.77474 23.1689 7.77474C23.1688 7.77474 23.1687 7.77474 23.1687 7.77474C23.1686 7.77474 23.1685 7.77474 23.1684 7.77474C23.1684 7.77474 23.1683 7.77474 23.1682 7.77474C23.1681 7.77474 23.1681 7.77474 23.168 7.77474C23.1679 7.77474 23.1678 7.77474 23.1678 7.77474C23.1677 7.77474 23.1676 7.77474 23.1675 7.77474C23.1675 7.77474 23.1674 7.77474 23.1673 7.77474C23.1672 7.77474 23.1672 7.77474 23.1671 7.77474C23.167 7.77474 23.1669 7.77474 23.1669 7.77474C23.1668 7.77474 23.1667 7.77474 23.1666 7.77474C23.1666 7.77474 23.1665 7.77474 23.1664 7.77474C23.1663 7.77474 23.1663 7.77474 23.1662 7.77474C23.1661 7.77474 23.166 7.77474 23.166 7.77474C23.1659 7.77474 23.1658 7.77474 23.1657 7.77474C23.1657 7.77474 23.1656 7.77474 23.1655 7.77474C23.1654 7.77474 23.1654 7.77474 23.1653 7.77474C23.1652 7.77474 23.1651 7.77474 23.1651 7.77474C23.165 7.77474 23.1649 7.77474 23.1648 7.77474C23.1648 7.77474 23.1647 7.77474 23.1646 7.77474C23.1645 7.77474 23.1645 7.77474 23.1644 7.77474C23.1643 7.77474 23.1642 7.77474 23.1642 7.77474C23.1641 7.77474 23.164 7.77474 23.1639 7.77474C23.1639 7.77474 23.1638 7.77474 23.1637 7.77474C23.1636 7.77474 23.1636 7.77474 23.1635 7.77474C23.1634 7.77474 23.1633 7.77474 23.1633 7.77474C23.1632 7.77474 23.1631 7.77474 23.163 7.77474C23.163 7.77474 23.1629 7.77474 23.1628 7.77474C23.1627 7.77474 23.1627 7.77474 23.1626 7.77474C23.1625 7.77474 23.1624 7.77474 23.1624 7.77474C23.1623 7.77474 23.1622 7.77474 23.1621 7.77474C23.1621 7.77474 23.162 7.77474 23.1619 7.77474C23.1618 7.77474 23.1618 7.77474 23.1617 7.77474C23.1616 7.77474 23.1615 7.77474 23.1615 7.77474C23.1614 7.77474 23.1613 7.77474 23.1612 7.77474C23.1612 7.77474 23.1611 7.77474 23.161 7.77474C23.1609 7.77474 23.1609 7.77474 23.1608 7.77474C23.1607 7.77474 23.1606 7.77474 23.1606 7.77474C23.1605 7.77474 23.1604 7.77474 23.1603 7.77474C23.1603 7.77474 23.1602 7.77474 23.1601 7.77474C23.16 7.77474 23.16 7.77474 23.1599 7.77474C23.1598 7.77474 23.1597 7.77474 23.1597 7.77474C23.1596 7.77474 23.1595 7.77474 23.1594 7.77474C23.1594 7.77474 23.1593 7.77474 23.1592 7.77474C23.1591 7.77474 23.1591 7.77474 23.159 7.77474C23.1589 7.77474 23.1588 7.77474 23.1588 7.77474C23.1587 7.77474 23.1586 7.77474 23.1585 7.77474C23.1585 7.77474 23.1584 7.77474 23.1583 7.77474C23.1582 7.77474 23.1582 7.77474 23.1581 7.77474C23.158 7.77474 23.1579 7.77474 23.1579 7.77474C23.1578 7.77474 23.1577 7.77474 23.1576 7.77474C23.1576 7.77474 23.1575 7.77474 23.1574 7.77474C23.1573 7.77474 23.1573 7.77474 23.1572 7.77474C23.1571 7.77474 23.157 7.77474 23.157 7.77474C23.1569 7.77474 23.1568 7.77474 23.1567 7.77474C23.1567 7.77474 23.1566 7.77474 23.1565 7.77474C23.1564 7.77474 23.1564 7.77474 23.1563 7.77474C23.1562 7.77474 23.1561 7.77474 23.1561 7.77474C23.156 7.77474 23.1559 7.77474 23.1558 7.77474C23.1558 7.77474 23.1557 7.77474 23.1556 7.77474C23.1555 7.77474 23.1555 7.77474 23.1554 7.77474C23.1553 7.77474 23.1552 7.77474 23.1552 7.77474C23.1551 7.77474 23.155 7.77474 23.1549 7.77474C23.1549 7.77474 23.1548 7.77474 23.1547 7.77474C23.1546 7.77474 23.1546 7.77474 23.1545 7.77474C23.1544 7.77474 23.1543 7.77474 23.1543 7.77474C23.1542 7.77474 23.1541 7.77474 23.154 7.77474C23.154 7.77474 23.1539 7.77474 23.1538 7.77474C23.1537 7.77474 23.1537 7.77474 23.1536 7.77474C23.1535 7.77474 23.1534 7.77474 23.1534 7.77474C23.1533 7.77474 23.1532 7.77474 23.1531 7.77474C23.1531 7.77474 23.153 7.77474 23.1529 7.77474C23.1528 7.77474 23.1528 7.77474 23.1527 7.77474C23.1526 7.77474 23.1525 7.77474 23.1525 7.77474C23.1524 7.77474 23.1523 7.77474 23.1522 7.77474C23.1522 7.77474 23.1521 7.77474 23.152 7.77474C23.1519 7.77474 23.1519 7.77474 23.1518 7.77474C23.1517 7.77474 23.1516 7.77474 23.1516 7.77474C23.1515 7.77474 23.1514 7.77474 23.1513 7.77474C23.1513 7.77474 23.1512 7.77474 23.1511 7.77474C23.151 7.77474 23.151 7.77474 23.1509 7.77474C23.1508 7.77474 23.1507 7.77474 23.1507 7.77474C23.1506 7.77474 23.1505 7.77474 23.1504 7.77474C23.1504 7.77474 23.1503 7.77474 23.1502 7.77474C23.1502 7.77474 23.1501 7.77474 23.15 7.77474C23.1499 7.77474 23.1499 7.77474 23.1498 7.77474C23.1497 7.77474 23.1496 7.77474 23.1496 7.77474C23.1495 7.77474 23.1494 7.77474 23.1493 7.77474C23.1493 7.77474 23.1492 7.77474 23.1491 7.77474C23.149 7.77474 23.149 7.77474 23.1489 7.77474C23.1488 7.77474 23.1487 7.77474 23.1487 7.77474C23.1486 7.77474 23.1485 7.77474 23.1484 7.77474C23.1484 7.77474 23.1483 7.77474 23.1482 7.77474C23.1481 7.77474 23.1481 7.77474 23.148 7.77474C23.1479 7.77474 23.1478 7.77474 23.1478 7.77474C23.1477 7.77474 23.1476 7.77474 23.1476 7.77474C23.1475 7.77474 23.1474 7.77474 23.1473 7.77474C23.1473 7.77474 23.1472 7.77474 23.1471 7.77474C23.147 7.77474 23.147 7.77474 23.1469 7.77474C23.1468 7.77474 23.1467 7.77474 23.1467 7.77474C23.1466 7.77474 23.1465 7.77474 23.1464 7.77474C23.1464 7.77474 23.1463 7.77474 23.1462 7.77474C23.1461 7.77474 23.1461 7.77474 23.146 7.77474C23.1459 7.77474 23.1459 7.77474 23.1458 7.77474C23.1457 7.77474 23.1456 7.77474 23.1456 7.77474C23.1455 7.77474 23.1454 7.77474 23.1453 7.77474C23.1453 7.77474 23.1452 7.77474 23.1451 7.77474C23.145 7.77474 23.145 7.77474 23.1449 7.77474C23.1448 7.77474 23.1447 7.77474 23.1447 7.77474C23.1446 7.77474 23.1445 7.77474 23.1445 7.77474C23.1444 7.77474 23.1443 7.77474 23.1442 7.77474C23.1442 7.77474 23.1441 7.77474 23.144 7.77474C23.1439 7.77474 23.1439 7.77474 23.1438 7.77474C23.1437 7.77474 23.1436 7.77474 23.1436 7.77474C23.1435 7.77474 23.1434 7.77474 23.1433 7.77474C23.1433 7.77474 23.1432 7.77474 23.1431 7.77474C23.1431 7.77474 23.143 7.77474 23.1429 7.77474C23.1428 7.77474 23.1428 7.77474 23.1427 7.77474C23.1426 7.77474 23.1425 7.77474 23.1425 7.77474C23.1424 7.77474 23.1423 7.77474 23.1422 7.77474C23.1422 7.77474 23.1421 7.77474 23.142 7.77474C23.142 7.77474 23.1419 7.77474 23.1418 7.77474C23.1417 7.77474 23.1417 7.77474 23.1416 7.77474C23.1415 7.77474 23.1414 7.77474 23.1414 7.77474C23.1413 7.77474 23.1412 7.77474 23.1412 7.77474C23.1411 7.77474 23.141 7.77474 23.1409 7.77474C23.1409 7.77474 23.1408 7.77474 23.1407 7.77474C23.1406 7.77474 23.1406 7.77474 23.1405 7.77474C23.1404 7.77474 23.1403 7.77474 23.1403 7.77474C23.1402 7.77474 23.1401 7.77474 23.1401 7.77474C23.14 7.77474 23.1399 7.77474 23.1398 7.77474C23.1398 7.77474 23.1397 7.77474 23.1396 7.77474C23.1395 7.77474 23.1395 7.77474 23.1394 7.77474C23.1393 7.77474 23.1393 7.77474 23.1392 7.77474C23.1391 7.77474 23.139 7.77474 23.139 7.77474C23.1389 7.77474 23.1388 7.77474 23.1388 7.77474C23.1387 7.77474 23.1386 7.77474 23.1385 7.77474C23.1385 7.77474 23.1384 7.77474 23.1383 7.77474C23.1382 7.77474 23.1382 7.77474 23.1381 7.77474C23.138 7.77474 23.138 7.77474 23.1379 7.77474C23.1378 7.77474 23.1377 7.77474 23.1377 7.77474C23.1376 7.77474 23.1375 7.77474 23.1374 7.77474C23.1374 7.77474 23.1373 7.77474 23.1372 7.77474C23.1372 7.77474 23.1371 7.77474 23.137 7.77474C23.1369 7.77474 23.1369 7.77474 23.1368 7.77474C23.1367 7.77474 23.1367 7.77474 23.1366 7.77474C23.1365 7.77474 23.1364 7.77474 23.1364 7.77474C23.1363 7.77474 23.1362 7.77474 23.1362 7.77474C23.1361 7.77474 23.136 7.77474 23.1359 7.77474C23.1359 7.77474 23.1358 7.77474 23.1357 7.77474C23.1356 7.77474 23.1356 7.77474 23.1355 7.77474C23.1354 7.77474 23.1354 7.77474 23.1353 7.77474C23.1352 7.77474 23.1351 7.77474 23.1351 7.77474C23.135 7.77474 23.1349 7.77474 23.1349 7.77474C23.1348 7.77474 23.1347 7.77474 23.1346 7.77474C23.1346 7.77474 23.1345 7.77474 23.1344 7.77474C23.1344 7.77474 23.1343 7.77474 23.1342 7.77474C23.1341 7.77474 23.1341 7.77474 23.134 7.77474C23.1339 7.77474 23.1339 7.77474 23.1338 7.77474C23.1337 7.77474 23.1336 7.77474 23.1336 7.77474C23.1335 7.77474 23.1334 7.77474 23.1334 7.77474C23.1333 7.77474 23.1332 7.77474 23.1331 7.77474C23.1331 7.77474 23.133 7.77474 23.1329 7.77474C23.1329 7.77474 23.1328 7.77474 23.1327 7.77474C23.1327 7.77474 23.1326 7.77474 23.1325 7.77474C23.1324 7.77474 23.1324 7.77474 23.1323 7.77474C23.1322 7.77474 23.1322 7.77474 23.1321 7.77474C23.132 7.77474 23.1319 7.77474 23.1319 7.77474C23.1318 7.77474 23.1317 7.77474 23.1317 7.77474C23.1316 7.77474 23.1315 7.77474 23.1314 7.77474C23.1314 7.77474 23.1313 7.77474 23.1312 7.77474C23.1312 7.77474 23.1311 7.77474 23.131 7.77474C23.131 7.77474 23.1309 7.77474 23.1308 7.77474C23.1307 7.77474 23.1307 7.77474 23.1306 7.77474C23.1305 7.77474 23.1305 7.77474 23.1304 7.77474C23.1303 7.77474 23.1303 7.77474 23.1302 7.77474C23.1301 7.77474 23.13 7.77474 23.13 7.77474C23.1299 7.77474 23.1298 7.77474 23.1298 7.77474C23.1297 7.77474 23.1296 7.77474 23.1296 7.77474C23.1295 7.77474 23.1294 7.77474 23.1293 7.77474C23.1293 7.77474 23.1292 7.77474 23.1291 7.77474C23.1291 7.77474 23.129 7.77474 23.1289 7.77474C23.1289 7.77474 23.1288 7.77474 23.1287 7.77474C23.1286 7.77474 23.1286 7.77474 23.1285 7.77474C23.1284 7.77474 23.1284 7.77474 23.1283 7.77474C23.1282 7.77474 23.1282 7.77474 23.1281 7.77474C23.128 7.77474 23.1279 7.77474 23.1279 7.77474C23.1278 7.77474 23.1277 7.77474 23.1277 7.77474C23.1276 7.77474 23.1275 7.77474 23.1275 7.77474C23.1274 7.77474 23.1273 7.77474 23.1273 7.77474C23.1272 7.77474 23.1271 7.77474 23.127 7.77474C23.127 7.77474 23.1269 7.77474 23.1268 7.77474C23.1268 7.77474 23.1267 7.77474 23.1266 7.77474C23.1266 7.77474 23.1265 7.77474 23.1264 7.77474C23.1264 7.77474 23.1263 7.77474 23.1262 7.77474C23.1262 7.77474 23.1261 7.77474 23.126 7.77474C23.1259 7.77474 23.1259 7.77474 23.1258 7.77474C23.1257 7.77474 23.1257 7.77474 23.1256 7.77474C23.1255 7.77474 23.1255 7.77474 23.1254 7.77474C23.1253 7.77474 23.1253 7.77474 23.1252 7.77474C23.1251 7.77474 23.1251 7.77474 23.125 7.77474C23.1249 7.77474 23.1249 7.77474 23.1248 7.77474C23.1247 7.77474 23.1246 7.77474 23.1246 7.77474C23.1245 7.77474 23.1244 7.77474 23.1244 7.77474C23.1243 7.77474 23.1242 7.77474 23.1242 7.77474C23.1241 7.77474 23.124 7.77474 23.124 7.77474C23.1239 7.77474 23.1238 7.77474 23.1238 7.77474C23.1237 7.77474 23.1236 7.77474 23.1236 7.77474C23.1235 7.77474 23.1234 7.77474 23.1234 7.77474C23.1233 7.77474 23.1232 7.77474 23.1232 7.77474C23.1231 7.77474 23.123 7.77474 23.1229 7.77474C23.1229 7.77474 23.1228 7.77474 23.1227 7.77474C23.1227 7.77474 23.1226 7.77474 23.1225 7.77474C23.1225 7.77474 23.1224 7.77474 23.1223 7.77474C23.1223 7.77474 23.1222 7.77474 23.1221 7.77474C23.1221 7.77474 23.122 7.77474 23.1219 7.77474C23.1219 7.77474 23.1218 7.77474 23.1217 7.77474C23.1217 7.77474 23.1216 7.77474 23.1215 7.77474C23.1215 7.77474 23.1214 7.77474 23.1213 7.77474C23.1213 7.77474 23.1212 7.77474 23.1211 7.77474C23.1211 7.77474 23.121 7.77474 23.1209 7.77474C23.1209 7.77474 23.1208 7.77474 23.1207 7.77474C23.1207 7.77474 23.1206 7.77474 23.1205 7.77474C23.1205 7.77474 23.1204 7.77474 23.1203 7.77474C23.1203 7.77474 23.1202 7.77474 23.1201 7.77474C23.1201 7.77474 23.12 7.77474 23.1199 7.77474C23.1199 7.77474 23.1198 7.77474 23.1197 7.77474C23.1197 7.77474 23.1196 7.77474 23.1195 7.77474C23.1195 7.77474 23.1194 7.77474 23.1193 7.77474C23.1193 7.77474 23.1192 7.77474 23.1191 7.77474C23.1191 7.77474 23.119 7.77474 23.1189 7.77474C23.1189 7.77474 23.1188 7.77474 23.1188 7.77474C23.1187 7.77474 23.1186 7.77474 23.1186 7.77474C23.1185 7.77474 23.1184 7.77474 23.1184 7.77474C23.1183 7.77474 23.1182 7.77474 23.1182 7.77474C23.1181 7.77474 23.118 7.77474 23.118 7.77474C23.1179 7.77474 23.1178 7.77474 23.1178 7.77474C23.1177 7.77474 23.1176 7.77474 23.1176 7.77474C23.1175 7.77474 23.1174 7.77474 23.1174 7.77474C23.1173 7.77474 23.1172 7.77474 23.1172 7.77474C23.1171 7.77474 23.1171 7.77474 23.117 7.77474C23.1169 7.77474 23.1169 7.77474 23.1168 7.77474C23.1167 7.77474 23.1167 7.77474 23.1166 7.77474C23.1165 7.77474 23.1165 7.77474 23.1164 7.77474C23.1163 7.77474 23.1163 7.77474 23.1162 7.77474C23.1162 7.77474 23.1161 7.77474 23.116 7.77474C23.116 7.77474 23.1159 7.77474 23.1158 7.77474C23.1158 7.77474 23.1157 7.77474 23.1156 7.77474C23.1156 7.77474 23.1155 7.77474 23.1154 7.77474C23.1154 7.77474 23.1153 7.77474 23.1153 7.77474C23.1152 7.77474 23.1151 7.77474 23.1151 7.77474C23.115 7.77474 23.1149 7.77474 23.1149 7.77474C23.1148 7.77474 23.1147 7.77474 23.1147 7.77474C23.1146 7.77474 23.1146 7.77474 23.1145 7.77474C23.1144 7.77474 23.1144 7.77474 23.1143 7.77474C23.1142 7.77474 23.1142 7.77474 23.1141 7.77474C23.114 7.77474 23.114 7.77474 23.1139 7.77474C23.1139 7.77474 23.1138 7.77474 23.1137 7.77474C23.1137 7.77474 23.1136 7.77474 23.1135 7.77474C23.1135 7.77474 23.1134 7.77474 23.1133 7.77474C23.1133 7.77474 23.1132 7.77474 23.1132 7.77474C23.1131 7.77474 23.113 7.77474 23.113 7.77474C23.1129 7.77474 23.1128 7.77474 23.1128 7.77474C23.1127 7.77474 23.1127 7.77474 23.1126 7.77474C23.1125 7.77474 23.1125 7.77474 23.1124 7.77474C23.1123 7.77474 23.1123 7.77474 23.1122 7.77474C23.1122 7.77474 23.1121 7.77474 23.112 7.77474C23.112 7.77474 23.1119 7.77474 23.1119 7.77474C23.1118 7.77474 23.1117 7.77474 23.1117 7.77474C23.1116 7.77474 23.1115 7.77474 23.1115 7.77474C23.1114 7.77474 23.1114 7.77474 23.1113 7.77474C23.1112 7.77474 23.1112 7.77474 23.1111 7.77474C23.111 7.77474 23.111 7.77474 23.1109 7.77474C23.1109 7.77474 23.1108 7.77474 23.1107 7.77474C23.1107 7.77474 23.1106 7.77474 23.1106 7.77474C23.1105 7.77474 23.1104 7.77474 23.1104 7.77474C23.1103 7.77474 23.1103 7.77474 23.1102 7.77474C23.1101 7.77474 23.1101 7.77474 23.11 7.77474C23.1099 7.77474 23.1099 7.77474 23.1098 7.77474C23.1098 7.77474 23.1097 7.77474 23.1096 7.77474C23.1096 7.77474 23.1095 7.77474 23.1095 7.77474C23.1094 7.77474 23.1093 7.77474 23.1093 7.77474C23.1092 7.77474 23.1092 7.77474 23.1091 7.77474C23.109 7.77474 23.109 7.77474 23.1089 7.77474C23.1089 7.77474 23.1088 7.77474 23.1087 7.77474V19.0222C23.1088 19.0222 23.1089 19.0222 23.1089 19.0222C23.109 19.0222 23.109 19.0222 23.1091 19.0222C23.1092 19.0222 23.1092 19.0222 23.1093 19.0222C23.1093 19.0222 23.1094 19.0222 23.1095 19.0222C23.1095 19.0222 23.1096 19.0222 23.1096 19.0222C23.1097 19.0222 23.1098 19.0222 23.1098 19.0222C23.1099 19.0222 23.1099 19.0222 23.11 19.0222C23.1101 19.0222 23.1101 19.0222 23.1102 19.0222C23.1103 19.0222 23.1103 19.0222 23.1104 19.0222C23.1104 19.0222 23.1105 19.0222 23.1106 19.0222C23.1106 19.0222 23.1107 19.0222 23.1107 19.0222C23.1108 19.0222 23.1109 19.0222 23.1109 19.0222C23.111 19.0222 23.111 19.0222 23.1111 19.0222C23.1112 19.0222 23.1112 19.0222 23.1113 19.0222C23.1114 19.0222 23.1114 19.0222 23.1115 19.0222C23.1115 19.0222 23.1116 19.0222 23.1117 19.0222C23.1117 19.0222 23.1118 19.0222 23.1119 19.0222C23.1119 19.0222 23.112 19.0222 23.112 19.0222C23.1121 19.0222 23.1122 19.0222 23.1122 19.0222C23.1123 19.0222 23.1123 19.0222 23.1124 19.0222C23.1125 19.0222 23.1125 19.0222 23.1126 19.0222C23.1127 19.0222 23.1127 19.0222 23.1128 19.0222C23.1128 19.0222 23.1129 19.0222 23.113 19.0222C23.113 19.0222 23.1131 19.0222 23.1132 19.0222C23.1132 19.0222 23.1133 19.0222 23.1133 19.0222C23.1134 19.0222 23.1135 19.0222 23.1135 19.0222C23.1136 19.0222 23.1137 19.0222 23.1137 19.0222C23.1138 19.0222 23.1139 19.0222 23.1139 19.0222C23.114 19.0222 23.114 19.0222 23.1141 19.0222C23.1142 19.0222 23.1142 19.0222 23.1143 19.0222C23.1144 19.0222 23.1144 19.0222 23.1145 19.0222C23.1146 19.0222 23.1146 19.0222 23.1147 19.0222C23.1147 19.0222 23.1148 19.0222 23.1149 19.0222C23.1149 19.0222 23.115 19.0222 23.1151 19.0222C23.1151 19.0222 23.1152 19.0222 23.1153 19.0222C23.1153 19.0222 23.1154 19.0222 23.1154 19.0222C23.1155 19.0222 23.1156 19.0222 23.1156 19.0222C23.1157 19.0222 23.1158 19.0222 23.1158 19.0222C23.1159 19.0222 23.116 19.0222 23.116 19.0222C23.1161 19.0222 23.1162 19.0222 23.1162 19.0222C23.1163 19.0222 23.1163 19.0222 23.1164 19.0222C23.1165 19.0222 23.1165 19.0222 23.1166 19.0222C23.1167 19.0222 23.1167 19.0222 23.1168 19.0222C23.1169 19.0222 23.1169 19.0222 23.117 19.0222C23.1171 19.0222 23.1171 19.0222 23.1172 19.0222C23.1172 19.0222 23.1173 19.0222 23.1174 19.0222C23.1174 19.0222 23.1175 19.0222 23.1176 19.0222C23.1176 19.0222 23.1177 19.0222 23.1178 19.0222C23.1178 19.0222 23.1179 19.0222 23.118 19.0222C23.118 19.0222 23.1181 19.0222 23.1182 19.0222C23.1182 19.0222 23.1183 19.0222 23.1184 19.0222C23.1184 19.0222 23.1185 19.0222 23.1186 19.0222C23.1186 19.0222 23.1187 19.0222 23.1188 19.0222C23.1188 19.0222 23.1189 19.0222 23.1189 19.0222C23.119 19.0222 23.1191 19.0222 23.1191 19.0222C23.1192 19.0222 23.1193 19.0222 23.1193 19.0222C23.1194 19.0222 23.1195 19.0222 23.1195 19.0222C23.1196 19.0222 23.1197 19.0222 23.1197 19.0222C23.1198 19.0222 23.1199 19.0222 23.1199 19.0222C23.12 19.0222 23.1201 19.0222 23.1201 19.0222C23.1202 19.0222 23.1203 19.0222 23.1203 19.0222C23.1204 19.0222 23.1205 19.0222 23.1205 19.0222C23.1206 19.0222 23.1207 19.0222 23.1207 19.0222C23.1208 19.0222 23.1209 19.0222 23.1209 19.0222C23.121 19.0222 23.1211 19.0222 23.1211 19.0222C23.1212 19.0222 23.1213 19.0222 23.1213 19.0222C23.1214 19.0222 23.1215 19.0222 23.1215 19.0222C23.1216 19.0222 23.1217 19.0222 23.1217 19.0222C23.1218 19.0222 23.1219 19.0222 23.1219 19.0222C23.122 19.0222 23.1221 19.0222 23.1221 19.0222C23.1222 19.0222 23.1223 19.0222 23.1223 19.0222C23.1224 19.0222 23.1225 19.0222 23.1225 19.0222C23.1226 19.0222 23.1227 19.0222 23.1227 19.0222C23.1228 19.0222 23.1229 19.0222 23.1229 19.0222C23.123 19.0222 23.1231 19.0222 23.1232 19.0222C23.1232 19.0222 23.1233 19.0222 23.1234 19.0222C23.1234 19.0222 23.1235 19.0222 23.1236 19.0222C23.1236 19.0222 23.1237 19.0222 23.1238 19.0222C23.1238 19.0222 23.1239 19.0222 23.124 19.0222C23.124 19.0222 23.1241 19.0222 23.1242 19.0222C23.1242 19.0222 23.1243 19.0222 23.1244 19.0222C23.1244 19.0222 23.1245 19.0222 23.1246 19.0222C23.1246 19.0222 23.1247 19.0222 23.1248 19.0222C23.1249 19.0222 23.1249 19.0222 23.125 19.0222C23.1251 19.0222 23.1251 19.0222 23.1252 19.0222C23.1253 19.0222 23.1253 19.0222 23.1254 19.0222C23.1255 19.0222 23.1255 19.0222 23.1256 19.0222C23.1257 19.0222 23.1257 19.0222 23.1258 19.0222C23.1259 19.0222 23.1259 19.0222 23.126 19.0222C23.1261 19.0222 23.1262 19.0222 23.1262 19.0222C23.1263 19.0222 23.1264 19.0222 23.1264 19.0222C23.1265 19.0222 23.1266 19.0222 23.1266 19.0222C23.1267 19.0222 23.1268 19.0222 23.1268 19.0222C23.1269 19.0222 23.127 19.0222 23.127 19.0222C23.1271 19.0222 23.1272 19.0222 23.1273 19.0222C23.1273 19.0222 23.1274 19.0222 23.1275 19.0222C23.1275 19.0222 23.1276 19.0222 23.1277 19.0222C23.1277 19.0222 23.1278 19.0222 23.1279 19.0222C23.1279 19.0222 23.128 19.0222 23.1281 19.0222C23.1282 19.0222 23.1282 19.0222 23.1283 19.0222C23.1284 19.0222 23.1284 19.0222 23.1285 19.0222C23.1286 19.0222 23.1286 19.0222 23.1287 19.0222C23.1288 19.0222 23.1289 19.0222 23.1289 19.0222C23.129 19.0222 23.1291 19.0222 23.1291 19.0222C23.1292 19.0222 23.1293 19.0222 23.1293 19.0222C23.1294 19.0222 23.1295 19.0222 23.1296 19.0222C23.1296 19.0222 23.1297 19.0222 23.1298 19.0222C23.1298 19.0222 23.1299 19.0222 23.13 19.0222C23.13 19.0222 23.1301 19.0222 23.1302 19.0222C23.1303 19.0222 23.1303 19.0222 23.1304 19.0222C23.1305 19.0222 23.1305 19.0222 23.1306 19.0222C23.1307 19.0222 23.1307 19.0222 23.1308 19.0222C23.1309 19.0222 23.131 19.0222 23.131 19.0222C23.1311 19.0222 23.1312 19.0222 23.1312 19.0222C23.1313 19.0222 23.1314 19.0222 23.1314 19.0222C23.1315 19.0222 23.1316 19.0222 23.1317 19.0222C23.1317 19.0222 23.1318 19.0222 23.1319 19.0222C23.1319 19.0222 23.132 19.0222 23.1321 19.0222C23.1322 19.0222 23.1322 19.0222 23.1323 19.0222C23.1324 19.0222 23.1324 19.0222 23.1325 19.0222C23.1326 19.0222 23.1327 19.0222 23.1327 19.0222C23.1328 19.0222 23.1329 19.0222 23.1329 19.0222C23.133 19.0222 23.1331 19.0222 23.1331 19.0222C23.1332 19.0222 23.1333 19.0222 23.1334 19.0222C23.1334 19.0222 23.1335 19.0222 23.1336 19.0222C23.1336 19.0222 23.1337 19.0222 23.1338 19.0222C23.1339 19.0222 23.1339 19.0222 23.134 19.0222C23.1341 19.0222 23.1341 19.0222 23.1342 19.0222C23.1343 19.0222 23.1344 19.0222 23.1344 19.0222C23.1345 19.0222 23.1346 19.0222 23.1346 19.0222C23.1347 19.0222 23.1348 19.0222 23.1349 19.0222C23.1349 19.0222 23.135 19.0222 23.1351 19.0222C23.1351 19.0222 23.1352 19.0222 23.1353 19.0222C23.1354 19.0222 23.1354 19.0222 23.1355 19.0222C23.1356 19.0222 23.1356 19.0222 23.1357 19.0222C23.1358 19.0222 23.1359 19.0222 23.1359 19.0222C23.136 19.0222 23.1361 19.0222 23.1362 19.0222C23.1362 19.0222 23.1363 19.0222 23.1364 19.0222C23.1364 19.0222 23.1365 19.0222 23.1366 19.0222C23.1367 19.0222 23.1367 19.0222 23.1368 19.0222C23.1369 19.0222 23.1369 19.0222 23.137 19.0222C23.1371 19.0222 23.1372 19.0222 23.1372 19.0222C23.1373 19.0222 23.1374 19.0222 23.1374 19.0222C23.1375 19.0222 23.1376 19.0222 23.1377 19.0222C23.1377 19.0222 23.1378 19.0222 23.1379 19.0222C23.138 19.0222 23.138 19.0222 23.1381 19.0222C23.1382 19.0222 23.1382 19.0222 23.1383 19.0222C23.1384 19.0222 23.1385 19.0222 23.1385 19.0222C23.1386 19.0222 23.1387 19.0222 23.1388 19.0222C23.1388 19.0222 23.1389 19.0222 23.139 19.0222C23.139 19.0222 23.1391 19.0222 23.1392 19.0222C23.1393 19.0222 23.1393 19.0222 23.1394 19.0222C23.1395 19.0222 23.1395 19.0222 23.1396 19.0222C23.1397 19.0222 23.1398 19.0222 23.1398 19.0222C23.1399 19.0222 23.14 19.0222 23.1401 19.0222C23.1401 19.0222 23.1402 19.0222 23.1403 19.0222C23.1403 19.0222 23.1404 19.0222 23.1405 19.0222C23.1406 19.0222 23.1406 19.0222 23.1407 19.0222C23.1408 19.0222 23.1409 19.0222 23.1409 19.0222C23.141 19.0222 23.1411 19.0222 23.1412 19.0222C23.1412 19.0222 23.1413 19.0222 23.1414 19.0222C23.1414 19.0222 23.1415 19.0222 23.1416 19.0222C23.1417 19.0222 23.1417 19.0222 23.1418 19.0222C23.1419 19.0222 23.142 19.0222 23.142 19.0222C23.1421 19.0222 23.1422 19.0222 23.1422 19.0222C23.1423 19.0222 23.1424 19.0222 23.1425 19.0222C23.1425 19.0222 23.1426 19.0222 23.1427 19.0222C23.1428 19.0222 23.1428 19.0222 23.1429 19.0222C23.143 19.0222 23.1431 19.0222 23.1431 19.0222C23.1432 19.0222 23.1433 19.0222 23.1433 19.0222C23.1434 19.0222 23.1435 19.0222 23.1436 19.0222C23.1436 19.0222 23.1437 19.0222 23.1438 19.0222C23.1439 19.0222 23.1439 19.0222 23.144 19.0222C23.1441 19.0222 23.1442 19.0222 23.1442 19.0222C23.1443 19.0222 23.1444 19.0222 23.1445 19.0222C23.1445 19.0222 23.1446 19.0222 23.1447 19.0222C23.1447 19.0222 23.1448 19.0222 23.1449 19.0222C23.145 19.0222 23.145 19.0222 23.1451 19.0222C23.1452 19.0222 23.1453 19.0222 23.1453 19.0222C23.1454 19.0222 23.1455 19.0222 23.1456 19.0222C23.1456 19.0222 23.1457 19.0222 23.1458 19.0222C23.1459 19.0222 23.1459 19.0222 23.146 19.0222C23.1461 19.0222 23.1461 19.0222 23.1462 19.0222C23.1463 19.0222 23.1464 19.0222 23.1464 19.0222C23.1465 19.0222 23.1466 19.0222 23.1467 19.0222C23.1467 19.0222 23.1468 19.0222 23.1469 19.0222C23.147 19.0222 23.147 19.0222 23.1471 19.0222C23.1472 19.0222 23.1473 19.0222 23.1473 19.0222C23.1474 19.0222 23.1475 19.0222 23.1476 19.0222C23.1476 19.0222 23.1477 19.0222 23.1478 19.0222C23.1478 19.0222 23.1479 19.0222 23.148 19.0222C23.1481 19.0222 23.1481 19.0222 23.1482 19.0222C23.1483 19.0222 23.1484 19.0222 23.1484 19.0222C23.1485 19.0222 23.1486 19.0222 23.1487 19.0222C23.1487 19.0222 23.1488 19.0222 23.1489 19.0222C23.149 19.0222 23.149 19.0222 23.1491 19.0222C23.1492 19.0222 23.1493 19.0222 23.1493 19.0222C23.1494 19.0222 23.1495 19.0222 23.1496 19.0222C23.1496 19.0222 23.1497 19.0222 23.1498 19.0222C23.1499 19.0222 23.1499 19.0222 23.15 19.0222C23.1501 19.0222 23.1502 19.0222 23.1502 19.0222C23.1503 19.0222 23.1504 19.0222 23.1504 19.0222C23.1505 19.0222 23.1506 19.0222 23.1507 19.0222C23.1507 19.0222 23.1508 19.0222 23.1509 19.0222C23.151 19.0222 23.151 19.0222 23.1511 19.0222C23.1512 19.0222 23.1513 19.0222 23.1513 19.0222C23.1514 19.0222 23.1515 19.0222 23.1516 19.0222C23.1516 19.0222 23.1517 19.0222 23.1518 19.0222C23.1519 19.0222 23.1519 19.0222 23.152 19.0222C23.1521 19.0222 23.1522 19.0222 23.1522 19.0222C23.1523 19.0222 23.1524 19.0222 23.1525 19.0222C23.1525 19.0222 23.1526 19.0222 23.1527 19.0222C23.1528 19.0222 23.1528 19.0222 23.1529 19.0222C23.153 19.0222 23.1531 19.0222 23.1531 19.0222C23.1532 19.0222 23.1533 19.0222 23.1534 19.0222C23.1534 19.0222 23.1535 19.0222 23.1536 19.0222C23.1537 19.0222 23.1537 19.0222 23.1538 19.0222C23.1539 19.0222 23.154 19.0222 23.154 19.0222C23.1541 19.0222 23.1542 19.0222 23.1543 19.0222C23.1543 19.0222 23.1544 19.0222 23.1545 19.0222C23.1546 19.0222 23.1546 19.0222 23.1547 19.0222C23.1548 19.0222 23.1549 19.0222 23.1549 19.0222C23.155 19.0222 23.1551 19.0222 23.1552 19.0222C23.1552 19.0222 23.1553 19.0222 23.1554 19.0222C23.1555 19.0222 23.1555 19.0222 23.1556 19.0222C23.1557 19.0222 23.1558 19.0222 23.1558 19.0222C23.1559 19.0222 23.156 19.0222 23.1561 19.0222C23.1561 19.0222 23.1562 19.0222 23.1563 19.0222C23.1564 19.0222 23.1564 19.0222 23.1565 19.0222C23.1566 19.0222 23.1567 19.0222 23.1567 19.0222C23.1568 19.0222 23.1569 19.0222 23.157 19.0222C23.157 19.0222 23.1571 19.0222 23.1572 19.0222C23.1573 19.0222 23.1573 19.0222 23.1574 19.0222C23.1575 19.0222 23.1576 19.0222 23.1576 19.0222C23.1577 19.0222 23.1578 19.0222 23.1579 19.0222C23.1579 19.0222 23.158 19.0222 23.1581 19.0222C23.1582 19.0222 23.1582 19.0222 23.1583 19.0222C23.1584 19.0222 23.1585 19.0222 23.1585 19.0222C23.1586 19.0222 23.1587 19.0222 23.1588 19.0222C23.1588 19.0222 23.1589 19.0222 23.159 19.0222C23.1591 19.0222 23.1591 19.0222 23.1592 19.0222C23.1593 19.0222 23.1594 19.0222 23.1594 19.0222C23.1595 19.0222 23.1596 19.0222 23.1597 19.0222C23.1597 19.0222 23.1598 19.0222 23.1599 19.0222C23.16 19.0222 23.16 19.0222 23.1601 19.0222C23.1602 19.0222 23.1603 19.0222 23.1603 19.0222C23.1604 19.0222 23.1605 19.0222 23.1606 19.0222C23.1606 19.0222 23.1607 19.0222 23.1608 19.0222C23.1609 19.0222 23.1609 19.0222 23.161 19.0222C23.1611 19.0222 23.1612 19.0222 23.1612 19.0222C23.1613 19.0222 23.1614 19.0222 23.1615 19.0222C23.1615 19.0222 23.1616 19.0222 23.1617 19.0222C23.1618 19.0222 23.1618 19.0222 23.1619 19.0222C23.162 19.0222 23.1621 19.0222 23.1621 19.0222C23.1622 19.0222 23.1623 19.0222 23.1624 19.0222C23.1624 19.0222 23.1625 19.0222 23.1626 19.0222C23.1627 19.0222 23.1627 19.0222 23.1628 19.0222C23.1629 19.0222 23.163 19.0222 23.163 19.0222C23.1631 19.0222 23.1632 19.0222 23.1633 19.0222C23.1633 19.0222 23.1634 19.0222 23.1635 19.0222C23.1636 19.0222 23.1636 19.0222 23.1637 19.0222C23.1638 19.0222 23.1639 19.0222 23.1639 19.0222C23.164 19.0222 23.1641 19.0222 23.1642 19.0222C23.1642 19.0222 23.1643 19.0222 23.1644 19.0222C23.1645 19.0222 23.1645 19.0222 23.1646 19.0222C23.1647 19.0222 23.1648 19.0222 23.1648 19.0222C23.1649 19.0222 23.165 19.0222 23.1651 19.0222C23.1651 19.0222 23.1652 19.0222 23.1653 19.0222C23.1654 19.0222 23.1654 19.0222 23.1655 19.0222C23.1656 19.0222 23.1657 19.0222 23.1657 19.0222C23.1658 19.0222 23.1659 19.0222 23.166 19.0222C23.166 19.0222 23.1661 19.0222 23.1662 19.0222C23.1663 19.0222 23.1663 19.0222 23.1664 19.0222C23.1665 19.0222 23.1666 19.0222 23.1666 19.0222C23.1667 19.0222 23.1668 19.0222 23.1669 19.0222C23.1669 19.0222 23.167 19.0222 23.1671 19.0222C23.1672 19.0222 23.1672 19.0222 23.1673 19.0222C23.1674 19.0222 23.1675 19.0222 23.1675 19.0222C23.1676 19.0222 23.1677 19.0222 23.1678 19.0222C23.1678 19.0222 23.1679 19.0222 23.168 19.0222C23.1681 19.0222 23.1681 19.0222 23.1682 19.0222C23.1683 19.0222 23.1684 19.0222 23.1684 19.0222C23.1685 19.0222 23.1686 19.0222 23.1687 19.0222C23.1687 19.0222 23.1688 19.0222 23.1689 19.0222C23.169 19.0222 23.169 19.0222 23.1691 19.0222C23.1692 19.0222 23.1693 19.0222 23.1693 19.0222C23.1694 19.0222 23.1695 19.0222 23.1696 19.0222C23.1696 19.0222 23.1697 19.0222 23.1698 19.0222C23.1699 19.0222 23.1699 19.0222 23.17 19.0222C23.1701 19.0222 23.1702 19.0222 23.1702 19.0222C23.1703 19.0222 23.1704 19.0222 23.1705 19.0222C23.1705 19.0222 23.1706 19.0222 23.1707 19.0222C23.1708 19.0222 23.1708 19.0222 23.1709 19.0222C23.171 19.0222 23.1711 19.0222 23.1711 19.0222C23.1712 19.0222 23.1713 19.0222 23.1714 19.0222C23.1714 19.0222 23.1715 19.0222 23.1716 19.0222C23.1717 19.0222 23.1717 19.0222 23.1718 19.0222C23.1719 19.0222 23.172 19.0222 23.172 19.0222C23.1721 19.0222 23.1722 19.0222 23.1723 19.0222C23.1723 19.0222 23.1724 19.0222 23.1725 19.0222C23.1726 19.0222 23.1726 19.0222 23.1727 19.0222C23.1728 19.0222 23.1729 19.0222 23.1729 19.0222C23.173 19.0222 23.1731 19.0222 23.1732 19.0222C23.1732 19.0222 23.1733 19.0222 23.1734 19.0222C23.1735 19.0222 23.1735 19.0222 23.1736 19.0222C23.1737 19.0222 23.1737 19.0222 23.1738 19.0222C23.1739 19.0222 23.174 19.0222 23.174 19.0222C23.1741 19.0222 23.1742 19.0222 23.1743 19.0222C23.1743 19.0222 23.1744 19.0222 23.1745 19.0222C23.1746 19.0222 23.1746 19.0222 23.1747 19.0222C23.1748 19.0222 23.1749 19.0222 23.1749 19.0222C23.175 19.0222 23.1751 19.0222 23.1752 19.0222C23.1752 19.0222 23.1753 19.0222 23.1754 19.0222C23.1755 19.0222 23.1755 19.0222 23.1756 19.0222C23.1757 19.0222 23.1758 19.0222 23.1758 19.0222C23.1759 19.0222 23.176 19.0222 23.1761 19.0222C23.1761 19.0222 23.1762 19.0222 23.1763 19.0222C23.1764 19.0222 23.1764 19.0222 23.1765 19.0222C23.1766 19.0222 23.1767 19.0222 23.1767 19.0222C23.1768 19.0222 23.1769 19.0222 23.1769 19.0222C23.177 19.0222 23.1771 19.0222 23.1772 19.0222C23.1772 19.0222 23.1773 19.0222 23.1774 19.0222C23.1775 19.0222 23.1775 19.0222 23.1776 19.0222C23.1777 19.0222 23.1778 19.0222 23.1778 19.0222C23.1779 19.0222 23.178 19.0222 23.1781 19.0222C23.1781 19.0222 23.1782 19.0222 23.1783 19.0222C23.1784 19.0222 23.1784 19.0222 23.1785 19.0222C23.1786 19.0222 23.1787 19.0222 23.1787 19.0222C23.1788 19.0222 23.1789 19.0222 23.1789 19.0222C23.179 19.0222 23.1791 19.0222 23.1792 19.0222C23.1792 19.0222 23.1793 19.0222 23.1794 19.0222C23.1795 19.0222 23.1795 19.0222 23.1796 19.0222C23.1797 19.0222 23.1798 19.0222 23.1798 19.0222C23.1799 19.0222 23.18 19.0222 23.1801 19.0222C23.1801 19.0222 23.1802 19.0222 23.1803 19.0222C23.1803 19.0222 23.1804 19.0222 23.1805 19.0222C23.1806 19.0222 23.1806 19.0222 23.1807 19.0222C23.1808 19.0222 23.1809 19.0222 23.1809 19.0222C23.181 19.0222 23.1811 19.0222 23.1812 19.0222C23.1812 19.0222 23.1813 19.0222 23.1814 19.0222C23.1815 19.0222 23.1815 19.0222 23.1816 19.0222C23.1817 19.0222 23.1817 19.0222 23.1818 19.0222C23.1819 19.0222 23.182 19.0222 23.182 19.0222C23.1821 19.0222 23.1822 19.0222 23.1823 19.0222C23.1823 19.0222 23.1824 19.0222 23.1825 19.0222C23.1826 19.0222 23.1826 19.0222 23.1827 19.0222C23.1828 19.0222 23.1828 19.0222 23.1829 19.0222C23.183 19.0222 23.1831 19.0222 23.1831 19.0222C23.1832 19.0222 23.1833 19.0222 23.1834 19.0222C23.1834 19.0222 23.1835 19.0222 23.1836 19.0222C23.1837 19.0222 23.1837 19.0222 23.1838 19.0222C23.1839 19.0222 23.1839 19.0222 23.184 19.0222C23.1841 19.0222 23.1842 19.0222 23.1842 19.0222C23.1843 19.0222 23.1844 19.0222 23.1845 19.0222C23.1845 19.0222 23.1846 19.0222 23.1847 19.0222C23.1847 19.0222 23.1848 19.0222 23.1849 19.0222C23.185 19.0222 23.185 19.0222 23.1851 19.0222C23.1852 19.0222 23.1853 19.0222 23.1853 19.0222C23.1854 19.0222 23.1855 19.0222 23.1855 19.0222C23.1856 19.0222 23.1857 19.0222 23.1858 19.0222C23.1858 19.0222 23.1859 19.0222 23.186 19.0222C23.1861 19.0222 23.1861 19.0222 23.1862 19.0222C23.1863 19.0222 23.1863 19.0222 23.1864 19.0222C23.1865 19.0222 23.1866 19.0222 23.1866 19.0222C23.1867 19.0222 23.1868 19.0222 23.1869 19.0222C23.1869 19.0222 23.187 19.0222 23.1871 19.0222C23.1871 19.0222 23.1872 19.0222 23.1873 19.0222C23.1874 19.0222 23.1874 19.0222 23.1875 19.0222C23.1876 19.0222 23.1876 19.0222 23.1877 19.0222C23.1878 19.0222 23.1879 19.0222 23.1879 19.0222C23.188 19.0222 23.1881 19.0222 23.1882 19.0222C23.1882 19.0222 23.1883 19.0222 23.1884 19.0222C23.1884 19.0222 23.1885 19.0222 23.1886 19.0222C23.1887 19.0222 23.1887 19.0222 23.1888 19.0222C23.1889 19.0222 23.1889 19.0222 23.189 19.0222C23.1891 19.0222 23.1892 19.0222 23.1892 19.0222C23.1893 19.0222 23.1894 19.0222 23.1894 19.0222C23.1895 19.0222 23.1896 19.0222 23.1897 19.0222C23.1897 19.0222 23.1898 19.0222 23.1899 19.0222C23.1899 19.0222 23.19 19.0222 23.1901 19.0222C23.1902 19.0222 23.1902 19.0222 23.1903 19.0222C23.1904 19.0222 23.1904 19.0222 23.1905 19.0222C23.1906 19.0222 23.1907 19.0222 23.1907 19.0222C23.1908 19.0222 23.1909 19.0222 23.191 19.0222C23.191 19.0222 23.1911 19.0222 23.1912 19.0222C23.1912 19.0222 23.1913 19.0222 23.1914 19.0222C23.1914 19.0222 23.1915 19.0222 23.1916 19.0222C23.1917 19.0222 23.1917 19.0222 23.1918 19.0222C23.1919 19.0222 23.1919 19.0222 23.192 19.0222C23.1921 19.0222 23.1922 19.0222 23.1922 19.0222C23.1923 19.0222 23.1924 19.0222 23.1924 19.0222C23.1925 19.0222 23.1926 19.0222 23.1927 19.0222C23.1927 19.0222 23.1928 19.0222 23.1929 19.0222C23.1929 19.0222 23.193 19.0222 23.1931 19.0222C23.1932 19.0222 23.1932 19.0222 23.1933 19.0222C23.1934 19.0222 23.1934 19.0222 23.1935 19.0222C23.1936 19.0222 23.1936 19.0222 23.1937 19.0222C23.1938 19.0222 23.1939 19.0222 23.1939 19.0222C23.194 19.0222 23.1941 19.0222 23.1941 19.0222C23.1942 19.0222 23.1943 19.0222 23.1944 19.0222C23.1944 19.0222 23.1945 19.0222 23.1946 19.0222C23.1946 19.0222 23.1947 19.0222 23.1948 19.0222C23.1948 19.0222 23.1949 19.0222 23.195 19.0222C23.1951 19.0222 23.1951 19.0222 23.1952 19.0222C23.1953 19.0222 23.1953 19.0222 23.1954 19.0222C23.1955 19.0222 23.1955 19.0222 23.1956 19.0222C23.1957 19.0222 23.1958 19.0222 23.1958 19.0222C23.1959 19.0222 23.196 19.0222 23.196 19.0222C23.1961 19.0222 23.1962 19.0222 23.1962 19.0222C23.1963 19.0222 23.1964 19.0222 23.1965 19.0222C23.1965 19.0222 23.1966 19.0222 23.1967 19.0222C23.1967 19.0222 23.1968 19.0222 23.1969 19.0222C23.1969 19.0222 23.197 19.0222 23.1971 19.0222C23.1971 19.0222 23.1972 19.0222 23.1973 19.0222C23.1974 19.0222 23.1974 19.0222 23.1975 19.0222C23.1976 19.0222 23.1976 19.0222 23.1977 19.0222C23.1978 19.0222 23.1978 19.0222 23.1979 19.0222C23.198 19.0222 23.198 19.0222 23.1981 19.0222C23.1982 19.0222 23.1983 19.0222 23.1983 19.0222C23.1984 19.0222 23.1985 19.0222 23.1985 19.0222C23.1986 19.0222 23.1987 19.0222 23.1987 19.0222C23.1988 19.0222 23.1989 19.0222 23.1989 19.0222C23.199 19.0222 23.1991 19.0222 23.1992 19.0222C23.1992 19.0222 23.1993 19.0222 23.1994 19.0222C23.1994 19.0222 23.1995 19.0222 23.1996 19.0222C23.1996 19.0222 23.1997 19.0222 23.1998 19.0222C23.1998 19.0222 23.1999 19.0222 23.2 19.0222C23.2 19.0222 23.2001 19.0222 23.2002 19.0222C23.2002 19.0222 23.2003 19.0222 23.2004 19.0222C23.2005 19.0222 23.2005 19.0222 23.2006 19.0222C23.2007 19.0222 23.2007 19.0222 23.2008 19.0222C23.2009 19.0222 23.2009 19.0222 23.201 19.0222C23.2011 19.0222 23.2011 19.0222 23.2012 19.0222C23.2013 19.0222 23.2013 19.0222 23.2014 19.0222C23.2015 19.0222 23.2015 19.0222 23.2016 19.0222C23.2017 19.0222 23.2017 19.0222 23.2018 19.0222C23.2019 19.0222 23.2019 19.0222 23.202 19.0222C23.2021 19.0222 23.2022 19.0222 23.2022 19.0222C23.2023 19.0222 23.2024 19.0222 23.2024 19.0222C23.2025 19.0222 23.2026 19.0222 23.2026 19.0222C23.2027 19.0222 23.2028 19.0222 23.2028 19.0222C23.2029 19.0222 23.203 19.0222 23.203 19.0222C23.2031 19.0222 23.2032 19.0222 23.2032 19.0222C23.2033 19.0222 23.2034 19.0222 23.2034 19.0222C23.2035 19.0222 23.2036 19.0222 23.2036 19.0222C23.2037 19.0222 23.2038 19.0222 23.2038 19.0222C23.2039 19.0222 23.204 19.0222 23.204 19.0222C23.2041 19.0222 23.2042 19.0222 23.2042 19.0222C23.2043 19.0222 23.2044 19.0222 23.2044 19.0222C23.2045 19.0222 23.2046 19.0222 23.2046 19.0222C23.2047 19.0222 23.2048 19.0222 23.2048 19.0222C23.2049 19.0222 23.205 19.0222 23.205 19.0222C23.2051 19.0222 23.2052 19.0222 23.2052 19.0222C23.2053 19.0222 23.2054 19.0222 23.2054 19.0222C23.2055 19.0222 23.2056 19.0222 23.2056 19.0222C23.2057 19.0222 23.2058 19.0222 23.2058 19.0222C23.2059 19.0222 23.206 19.0222 23.206 19.0222C23.2061 19.0222 23.2062 19.0222 23.2062 19.0222C23.2063 19.0222 23.2063 19.0222 23.2064 19.0222C23.2065 19.0222 23.2065 19.0222 23.2066 19.0222C23.2067 19.0222 23.2067 19.0222 23.2068 19.0222C23.2069 19.0222 23.2069 19.0222 23.207 19.0222C23.2071 19.0222 23.2071 19.0222 23.2072 19.0222C23.2073 19.0222 23.2073 19.0222 23.2074 19.0222C23.2075 19.0222 23.2075 19.0222 23.2076 19.0222C23.2077 19.0222 23.2077 19.0222 23.2078 19.0222C23.2079 19.0222 23.2079 19.0222 23.208 19.0222C23.208 19.0222 23.2081 19.0222 23.2082 19.0222C23.2082 19.0222 23.2083 19.0222 23.2084 19.0222C23.2084 19.0222 23.2085 19.0222 23.2086 19.0222C23.2086 19.0222 23.2087 19.0222 23.2088 19.0222C23.2088 19.0222 23.2089 19.0222 23.209 19.0222C23.209 19.0222 23.2091 19.0222 23.2091 19.0222C23.2092 19.0222 23.2093 19.0222 23.2093 19.0222C23.2094 19.0222 23.2095 19.0222 23.2095 19.0222C23.2096 19.0222 23.2097 19.0222 23.2097 19.0222C23.2098 19.0222 23.2099 19.0222 23.2099 19.0222C23.21 19.0222 23.21 19.0222 23.2101 19.0222C23.2102 19.0222 23.2102 19.0222 23.2103 19.0222C23.2104 19.0222 23.2104 19.0222 23.2105 19.0222C23.2106 19.0222 23.2106 19.0222 23.2107 19.0222C23.2107 19.0222 23.2108 19.0222 23.2109 19.0222C23.2109 19.0222 23.211 19.0222 23.2111 19.0222C23.2111 19.0222 23.2112 19.0222 23.2113 19.0222C23.2113 19.0222 23.2114 19.0222 23.2114 19.0222C23.2115 19.0222 23.2116 19.0222 23.2116 19.0222C23.2117 19.0222 23.2118 19.0222 23.2118 19.0222C23.2119 19.0222 23.2119 19.0222 23.212 19.0222C23.2121 19.0222 23.2121 19.0222 23.2122 19.0222C23.2123 19.0222 23.2123 19.0222 23.2124 19.0222C23.2124 19.0222 23.2125 19.0222 23.2126 19.0222C23.2126 19.0222 23.2127 19.0222 23.2128 19.0222C23.2128 19.0222 23.2129 19.0222 23.2129 19.0222C23.213 19.0222 23.2131 19.0222 23.2131 19.0222C23.2132 19.0222 23.2133 19.0222 23.2133 19.0222C23.2134 19.0222 23.2134 19.0222 23.2135 19.0222C23.2136 19.0222 23.2136 19.0222 23.2137 19.0222C23.2137 19.0222 23.2138 19.0222 23.2139 19.0222C23.2139 19.0222 23.214 19.0222 23.2141 19.0222C23.2141 19.0222 23.2142 19.0222 23.2142 19.0222C23.2143 19.0222 23.2144 19.0222 23.2144 19.0222C23.2145 19.0222 23.2146 19.0222 23.2146 19.0222C23.2147 19.0222 23.2147 19.0222 23.2148 19.0222C23.2149 19.0222 23.2149 19.0222 23.215 19.0222C23.215 19.0222 23.2151 19.0222 23.2152 19.0222C23.2152 19.0222 23.2153 19.0222 23.2153 19.0222C23.2154 19.0222 23.2155 19.0222 23.2155 19.0222C23.2156 19.0222 23.2156 19.0222 23.2157 19.0222C23.2158 19.0222 23.2158 19.0222 23.2159 19.0222C23.2159 19.0222 23.216 19.0222 23.2161 19.0222C23.2161 19.0222 23.2162 19.0222 23.2163 19.0222C23.2163 19.0222 23.2164 19.0222 23.2164 19.0222V7.77474ZM23.6176 7.79781C21.033 7.56296 19.5135 5.86295 19.2536 4.32792L8.16391 6.20562C9.38092 13.3933 15.5845 18.3617 22.5999 18.9992L23.6176 7.79781ZM19.2618 4.37812C19.7397 7.36428 17.4798 9.31128 15.5455 9.61329L13.8104 -1.49958C10.6146 -1.00061 7.49316 2.01563 8.15564 6.15543L19.2618 4.37812ZM15.4239 9.63091C13.4587 9.89391 10.9806 8.69526 10.4728 5.97531L21.5293 3.91107C20.8061 0.0374827 17.1588 -1.94903 13.932 -1.5172L15.4239 9.63091ZM10.4584 5.89492C11.5242 12.102 16.8629 16.3648 22.8511 16.9034L23.8587 5.70117C22.3392 5.56449 21.6471 4.59366 21.5437 3.99146L10.4584 5.89492ZM22.8551 16.9038C20.7919 16.7197 18.4768 14.8286 18.7937 11.8592L29.9777 13.0525C30.4176 8.92964 27.1794 5.99743 23.8546 5.7008L22.8551 16.9038ZM18.8192 11.655C19.1903 9.07624 21.3682 7.77474 23.2164 7.77474V19.0222C26.2339 19.0222 29.4272 16.9047 29.9521 13.2568L18.8192 11.655Z" fill="#1C2556" mask="url(#path-3-inside-2_100_810)"/>
<mask id="path-5-inside-3_100_810" fill="white">
<path d="M28.8462 30H1.15385C0.523077 30 0 29.5216 0 28.9448C0 28.368 0.523077 27.8896 1.15385 27.8896H28.8462C29.4769 27.8896 30 28.368 30 28.9448C30 29.5216 29.4769 30 28.8462 30Z"/>
</mask>
<path d="M28.8462 30H1.15385C0.523077 30 0 29.5216 0 28.9448C0 28.368 0.523077 27.8896 1.15385 27.8896H28.8462C29.4769 27.8896 30 28.368 30 28.9448C30 29.5216 29.4769 30 28.8462 30Z" fill="#292D32"/>
<path d="M28.8462 24.3762H1.15385V35.6237H28.8462V24.3762ZM1.15385 24.3762C3.14517 24.3762 5.62375 25.953 5.62375 28.9448H-5.62375C-5.62375 33.0902 -2.09901 35.6237 1.15385 35.6237V24.3762ZM5.62375 28.9448C5.62375 31.9366 3.14517 33.5134 1.15385 33.5134V22.2659C-2.09901 22.2659 -5.62375 24.7994 -5.62375 28.9448H5.62375ZM1.15385 33.5134H28.8462V22.2659H1.15385V33.5134ZM28.8462 33.5134C26.8548 33.5134 24.3763 31.9366 24.3763 28.9448H35.6238C35.6238 24.7994 32.099 22.2659 28.8462 22.2659V33.5134ZM24.3763 28.9448C24.3763 25.953 26.8548 24.3762 28.8462 24.3762V35.6237C32.099 35.6237 35.6238 33.0902 35.6238 28.9448H24.3763Z" fill="#1C2556" mask="url(#path-5-inside-3_100_810)"/>
</svg>
