<svg width="30" height="30" viewBox="0 0 30 30" fill="none" xmlns="http://www.w3.org/2000/svg">
<path d="M15 30C6.72558 30 0 23.2744 0 15C0 6.72558 6.72558 0 15 0C23.2744 0 30 6.72558 30 15C30 23.2744 23.2744 30 15 30ZM15 2.09302C7.88372 2.09302 2.09302 7.88372 2.09302 15C2.09302 22.1163 7.88372 27.907 15 27.907C22.1163 27.907 27.907 22.1163 27.907 15C27.907 7.88372 22.1163 2.09302 15 2.09302Z" fill="#F2F2F2"/>
<path d="M11.0498 19.9955C10.7847 19.9955 10.5196 19.8978 10.3103 19.6885C9.90567 19.2839 9.90567 18.6141 10.3103 18.2095L18.208 10.3118C18.6127 9.90714 19.2824 9.90714 19.6871 10.3118C20.0917 10.7164 20.0917 11.3862 19.6871 11.7909L11.7894 19.6885C11.594 19.8978 11.315 19.9955 11.0498 19.9955Z" fill="#F2F2F2"/>
<path d="M18.9476 19.9955C18.6824 19.9955 18.4173 19.8978 18.208 19.6885L10.3103 11.7909C9.90567 11.3862 9.90567 10.7164 10.3103 10.3118C10.715 9.90714 11.3847 9.90714 11.7894 10.3118L19.6871 18.2095C20.0917 18.6141 20.0917 19.2839 19.6871 19.6885C19.4778 19.8978 19.2127 19.9955 18.9476 19.9955Z" fill="#F2F2F2"/>
</svg>
